<?xml version="1.0" encoding="UTF-8" standalone="no"?>
<!DOCTYPE svg PUBLIC "-//W3C//DTD SVG 1.1//EN"
 "http://www.w3.org/Graphics/SVG/1.1/DTD/svg11.dtd">
<!-- Generated by graphviz version 2.36.0 (20140111.2315)
 -->
<!-- Title: IControls.h Pages: 1 -->
<svg width="1788pt" height="364pt"
 viewBox="0.00 0.00 1788.00 364.00" xmlns="http://www.w3.org/2000/svg" xmlns:xlink="http://www.w3.org/1999/xlink">
<g id="graph0" class="graph" transform="scale(1 1) rotate(0) translate(4 360)">
<title>IControls.h</title>
<polygon fill="white" stroke="none" points="-4,4 -4,-360 1784,-360 1784,4 -4,4"/>
<!-- Node1 -->
<g id="node1" class="node"><title>Node1</title>
<polygon fill="#bfbfbf" stroke="black" points="799.5,-336.5 799.5,-355.5 864.5,-355.5 864.5,-336.5 799.5,-336.5"/>
<text text-anchor="middle" x="832" y="-343.5" font-family="Helvetica,sans-Serif" font-size="10.00">IControls.h</text>
</g>
<!-- Node2 -->
<g id="node2" class="node"><title>Node2</title>
<g id="a_node2"><a xlink:href="_i_control_8h.html" target="_top" xlink:title="The lowest level base class of an IGraphics control. ">
<polygon fill="white" stroke="black" points="802.5,-280.5 802.5,-299.5 861.5,-299.5 861.5,-280.5 802.5,-280.5"/>
<text text-anchor="middle" x="832" y="-287.5" font-family="Helvetica,sans-Serif" font-size="10.00">IControl.h</text>
</a>
</g>
</g>
<!-- Node1&#45;&gt;Node2 -->
<g id="edge1" class="edge"><title>Node1&#45;&gt;Node2</title>
<path fill="none" stroke="midnightblue" d="M832,-336.083C832,-329.006 832,-318.861 832,-309.986"/>
<polygon fill="midnightblue" stroke="midnightblue" points="835.5,-309.751 832,-299.751 828.5,-309.751 835.5,-309.751"/>
</g>
<!-- Node3 -->
<g id="node3" class="node"><title>Node3</title>
<polygon fill="white" stroke="#bfbfbf" points="1219,-0.5 1219,-19.5 1265,-19.5 1265,-0.5 1219,-0.5"/>
<text text-anchor="middle" x="1242" y="-7.5" font-family="Helvetica,sans-Serif" font-size="10.00">cstring</text>
</g>
<!-- Node2&#45;&gt;Node3 -->
<g id="edge2" class="edge"><title>Node2&#45;&gt;Node3</title>
<path fill="none" stroke="midnightblue" d="M861.674,-288.75C1022.25,-287.015 1780,-273.804 1780,-179 1780,-179 1780,-179 1780,-121 1780,-17.4571 1392.66,-10.432 1275.3,-10.6797"/>
<polygon fill="midnightblue" stroke="midnightblue" points="1275.1,-7.1804 1265.12,-10.7215 1275.13,-14.1803 1275.1,-7.1804"/>
</g>
<!-- Node4 -->
<g id="node4" class="node"><title>Node4</title>
<polygon fill="white" stroke="#bfbfbf" points="471.5,-0.5 471.5,-19.5 516.5,-19.5 516.5,-0.5 471.5,-0.5"/>
<text text-anchor="middle" x="494" y="-7.5" font-family="Helvetica,sans-Serif" font-size="10.00">cstdlib</text>
</g>
<!-- Node2&#45;&gt;Node4 -->
<g id="edge3" class="edge"><title>Node2&#45;&gt;Node4</title>
<path fill="none" stroke="midnightblue" d="M802.371,-288.121C690.745,-284.633 295.712,-270.642 173,-244 92.7331,-226.573 0,-261.137 0,-179 0,-179 0,-179 0,-121 0,-26.1884 351.078,-13.0579 461.302,-11.2718"/>
<polygon fill="midnightblue" stroke="midnightblue" points="461.54,-14.7689 471.49,-11.1285 461.442,-7.76959 461.54,-14.7689"/>
</g>
<!-- Node5 -->
<g id="node5" class="node"><title>Node5</title>
<g id="a_node5"><a xlink:href="_i_plug_platform_8h.html" target="_top" xlink:title="Include to get consistently named preprocessor macros for different platforms and logging functionali...">
<polygon fill="white" stroke="black" points="452,-56.5 452,-75.5 536,-75.5 536,-56.5 452,-56.5"/>
<text text-anchor="middle" x="494" y="-63.5" font-family="Helvetica,sans-Serif" font-size="10.00">IPlugPlatform.h</text>
</a>
</g>
</g>
<!-- Node2&#45;&gt;Node5 -->
<g id="edge4" class="edge"><title>Node2&#45;&gt;Node5</title>
<path fill="none" stroke="midnightblue" d="M802.412,-288.01C699.555,-284.365 358.067,-270.51 252,-244 166.37,-222.598 112.873,-216.687 88,-132 85.4951,-123.471 82.0709,-118.623 88,-112 111.204,-86.0816 337.353,-73.4581 441.712,-68.9757"/>
<polygon fill="midnightblue" stroke="midnightblue" points="441.877,-72.472 451.721,-68.5548 441.582,-65.4782 441.877,-72.472"/>
</g>
<!-- Node6 -->
<g id="node6" class="node"><title>Node6</title>
<polygon fill="white" stroke="#bfbfbf" points="565,-56.5 565,-75.5 629,-75.5 629,-56.5 565,-56.5"/>
<text text-anchor="middle" x="597" y="-63.5" font-family="Helvetica,sans-Serif" font-size="10.00">wdlstring.h</text>
</g>
<!-- Node2&#45;&gt;Node6 -->
<g id="edge7" class="edge"><title>Node2&#45;&gt;Node6</title>
<path fill="none" stroke="midnightblue" d="M802.465,-288.412C672.945,-285.067 158.784,-263.546 95,-132 91.1218,-124.002 88.971,-118.532 95,-112 128.946,-75.223 494.336,-82.1955 544,-76 547.486,-75.5651 551.093,-75.0636 554.709,-74.5243"/>
<polygon fill="midnightblue" stroke="midnightblue" points="555.502,-77.9427 564.835,-72.929 554.412,-71.028 555.502,-77.9427"/>
</g>
<!-- Node7 -->
<g id="node7" class="node"><title>Node7</title>
<polygon fill="white" stroke="#bfbfbf" points="1520.5,-112.5 1520.5,-131.5 1569.5,-131.5 1569.5,-112.5 1520.5,-112.5"/>
<text text-anchor="middle" x="1545" y="-119.5" font-family="Helvetica,sans-Serif" font-size="10.00">ptrlist.h</text>
</g>
<!-- Node2&#45;&gt;Node7 -->
<g id="edge8" class="edge"><title>Node2&#45;&gt;Node7</title>
<path fill="none" stroke="midnightblue" d="M861.99,-287.997C1010.86,-282.708 1665.54,-255.695 1722,-188 1762.34,-139.64 1642.1,-127.256 1579.84,-124.088"/>
<polygon fill="midnightblue" stroke="midnightblue" points="1579.81,-120.583 1569.66,-123.625 1579.49,-127.576 1579.81,-120.583"/>
</g>
<!-- Node8 -->
<g id="node8" class="node"><title>Node8</title>
<g id="a_node8"><a xlink:href="_i_graphics_8h.html" target="_top" xlink:title="The lowest level base class of an IGraphics context. ">
<polygon fill="white" stroke="black" points="798.5,-224.5 798.5,-243.5 865.5,-243.5 865.5,-224.5 798.5,-224.5"/>
<text text-anchor="middle" x="832" y="-231.5" font-family="Helvetica,sans-Serif" font-size="10.00">IGraphics.h</text>
</a>
</g>
</g>
<!-- Node2&#45;&gt;Node8 -->
<g id="edge9" class="edge"><title>Node2&#45;&gt;Node8</title>
<path fill="none" stroke="midnightblue" d="M832,-280.083C832,-273.006 832,-262.861 832,-253.986"/>
<polygon fill="midnightblue" stroke="midnightblue" points="835.5,-253.751 832,-243.751 828.5,-253.751 835.5,-253.751"/>
</g>
<!-- Node29 -->
<g id="node29" class="node"><title>Node29</title>
<g id="a_node29"><a xlink:href="_i_plug_delegate_8h_source.html" target="_top" xlink:title="IPlugDelegate.h">
<polygon fill="white" stroke="black" points="1320,-224.5 1320,-243.5 1406,-243.5 1406,-224.5 1320,-224.5"/>
<text text-anchor="middle" x="1363" y="-231.5" font-family="Helvetica,sans-Serif" font-size="10.00">IPlugDelegate.h</text>
</a>
</g>
</g>
<!-- Node2&#45;&gt;Node29 -->
<g id="edge55" class="edge"><title>Node2&#45;&gt;Node29</title>
<path fill="none" stroke="midnightblue" d="M861.687,-285.981C947.907,-277.213 1199.19,-251.658 1309.75,-240.415"/>
<polygon fill="midnightblue" stroke="midnightblue" points="1310.4,-243.867 1320,-239.373 1309.69,-236.903 1310.4,-243.867"/>
</g>
<!-- Node5&#45;&gt;Node3 -->
<g id="edge5" class="edge"><title>Node5&#45;&gt;Node3</title>
<path fill="none" stroke="midnightblue" d="M536.301,-58.4067C542.884,-57.5115 549.618,-56.6715 556,-56 806.237,-29.6713 1109.55,-16.1889 1208.82,-12.25"/>
<polygon fill="midnightblue" stroke="midnightblue" points="1208.99,-15.7461 1218.85,-11.8573 1208.72,-8.75146 1208.99,-15.7461"/>
</g>
<!-- Node5&#45;&gt;Node4 -->
<g id="edge6" class="edge"><title>Node5&#45;&gt;Node4</title>
<path fill="none" stroke="midnightblue" d="M494,-56.083C494,-49.0059 494,-38.8611 494,-29.9865"/>
<polygon fill="midnightblue" stroke="midnightblue" points="497.5,-29.751 494,-19.7511 490.5,-29.7511 497.5,-29.751"/>
</g>
<!-- Node9 -->
<g id="node9" class="node"><title>Node9</title>
<g id="a_node9"><a xlink:href="_i_plug_constants_8h.html" target="_top" xlink:title="Constant definitions, Types, magic numbers. ">
<polygon fill="white" stroke="black" points="1270,-56.5 1270,-75.5 1362,-75.5 1362,-56.5 1270,-56.5"/>
<text text-anchor="middle" x="1316" y="-63.5" font-family="Helvetica,sans-Serif" font-size="10.00">IPlugConstants.h</text>
</a>
</g>
</g>
<!-- Node8&#45;&gt;Node9 -->
<g id="edge10" class="edge"><title>Node8&#45;&gt;Node9</title>
<path fill="none" stroke="midnightblue" d="M865.805,-232.132C995.748,-228.611 1458.84,-214.317 1519,-188 1552.12,-173.511 1563.73,-165.218 1578,-132 1581.51,-123.833 1583.73,-118.797 1578,-112 1552.25,-81.4553 1441.52,-71.6432 1372.51,-68.4913"/>
<polygon fill="midnightblue" stroke="midnightblue" points="1372.37,-64.9823 1362.23,-68.0567 1372.08,-71.9761 1372.37,-64.9823"/>
</g>
<!-- Node10 -->
<g id="node10" class="node"><title>Node10</title>
<g id="a_node10"><a xlink:href="_i_plug_logger_8h.html" target="_top" xlink:title="IPlug logging a.k.a tracing functionality. ">
<polygon fill="white" stroke="black" points="1092.5,-168.5 1092.5,-187.5 1169.5,-187.5 1169.5,-168.5 1092.5,-168.5"/>
<text text-anchor="middle" x="1131" y="-175.5" font-family="Helvetica,sans-Serif" font-size="10.00">IPlugLogger.h</text>
</a>
</g>
</g>
<!-- Node8&#45;&gt;Node10 -->
<g id="edge11" class="edge"><title>Node8&#45;&gt;Node10</title>
<path fill="none" stroke="midnightblue" d="M865.718,-226.91C918.559,-217.367 1021.12,-198.844 1082.08,-187.835"/>
<polygon fill="midnightblue" stroke="midnightblue" points="1083.01,-191.225 1092.22,-186.003 1081.76,-184.336 1083.01,-191.225"/>
</g>
<!-- Node21 -->
<g id="node21" class="node"><title>Node21</title>
<g id="a_node21"><a xlink:href="_i_graphics_constants_8h_source.html" target="_top" xlink:title="IGraphicsConstants.h">
<polygon fill="white" stroke="black" points="104,-112.5 104,-131.5 216,-131.5 216,-112.5 104,-112.5"/>
<text text-anchor="middle" x="160" y="-119.5" font-family="Helvetica,sans-Serif" font-size="10.00">IGraphicsConstants.h</text>
</a>
</g>
</g>
<!-- Node8&#45;&gt;Node21 -->
<g id="edge32" class="edge"><title>Node8&#45;&gt;Node21</title>
<path fill="none" stroke="midnightblue" d="M798.302,-230.096C732.183,-224.152 580.918,-209.334 455,-188 365.004,-172.752 261.021,-148.192 203.669,-134.031"/>
<polygon fill="midnightblue" stroke="midnightblue" points="204.405,-130.607 193.856,-131.596 202.719,-137.401 204.405,-130.607"/>
</g>
<!-- Node22 -->
<g id="node22" class="node"><title>Node22</title>
<g id="a_node22"><a xlink:href="_i_graphics_structs_8h_source.html" target="_top" xlink:title="IGraphicsStructs.h">
<polygon fill="white" stroke="black" points="464,-168.5 464,-187.5 562,-187.5 562,-168.5 464,-168.5"/>
<text text-anchor="middle" x="513" y="-175.5" font-family="Helvetica,sans-Serif" font-size="10.00">IGraphicsStructs.h</text>
</a>
</g>
</g>
<!-- Node8&#45;&gt;Node22 -->
<g id="edge34" class="edge"><title>Node8&#45;&gt;Node22</title>
<path fill="none" stroke="midnightblue" d="M798.464,-227.323C744.754,-218.231 638.723,-200.282 572.092,-189.003"/>
<polygon fill="midnightblue" stroke="midnightblue" points="572.598,-185.539 562.154,-187.321 571.43,-192.441 572.598,-185.539"/>
</g>
<!-- Node27 -->
<g id="node27" class="node"><title>Node27</title>
<g id="a_node27"><a xlink:href="_i_graphics_utilites_8h_source.html" target="_top" xlink:title="IGraphicsUtilites.h">
<polygon fill="white" stroke="black" points="175,-168.5 175,-187.5 273,-187.5 273,-168.5 175,-168.5"/>
<text text-anchor="middle" x="224" y="-175.5" font-family="Helvetica,sans-Serif" font-size="10.00">IGraphicsUtilites.h</text>
</a>
</g>
</g>
<!-- Node8&#45;&gt;Node27 -->
<g id="edge46" class="edge"><title>Node8&#45;&gt;Node27</title>
<path fill="none" stroke="midnightblue" d="M798.445,-230.02C699.774,-221.256 409.615,-195.486 283.576,-184.291"/>
<polygon fill="midnightblue" stroke="midnightblue" points="283.614,-180.781 273.344,-183.382 282.995,-187.754 283.614,-180.781"/>
</g>
<!-- Node28 -->
<g id="node28" class="node"><title>Node28</title>
<g id="a_node28"><a xlink:href="_i_graphics_popup_menu_8h.html" target="_top" xlink:title="A class for setting the contents of a pop up menu NOTE: An IPopupMenu must not be declared as a tempo...">
<polygon fill="white" stroke="black" points="1391.5,-168.5 1391.5,-187.5 1510.5,-187.5 1510.5,-168.5 1391.5,-168.5"/>
<text text-anchor="middle" x="1451" y="-175.5" font-family="Helvetica,sans-Serif" font-size="10.00">IGraphicsPopupMenu.h</text>
</a>
</g>
</g>
<!-- Node8&#45;&gt;Node28 -->
<g id="edge48" class="edge"><title>Node8&#45;&gt;Node28</title>
<path fill="none" stroke="midnightblue" d="M865.72,-230.058C963.458,-221.532 1248.38,-196.676 1381.26,-185.084"/>
<polygon fill="midnightblue" stroke="midnightblue" points="1381.67,-188.562 1391.33,-184.206 1381.06,-181.588 1381.67,-188.562"/>
</g>
<!-- Node10&#45;&gt;Node3 -->
<g id="edge16" class="edge"><title>Node10&#45;&gt;Node3</title>
<path fill="none" stroke="midnightblue" d="M1141.45,-168.431C1160.4,-152.33 1200.45,-115.597 1222,-76 1229.94,-61.4162 1235.19,-43.241 1238.31,-29.8207"/>
<polygon fill="midnightblue" stroke="midnightblue" points="1241.77,-30.3602 1240.44,-19.8491 1234.93,-28.8953 1241.77,-30.3602"/>
</g>
<!-- Node10&#45;&gt;Node6 -->
<g id="edge19" class="edge"><title>Node10&#45;&gt;Node6</title>
<path fill="none" stroke="midnightblue" d="M1092.29,-169.671C1088.49,-169.059 1084.67,-168.488 1081,-168 989.02,-155.768 749.551,-170.224 665,-132 641.613,-121.427 621.313,-99.3394 609.124,-83.859"/>
<polygon fill="midnightblue" stroke="midnightblue" points="611.742,-81.5169 602.923,-75.645 606.155,-85.7347 611.742,-81.5169"/>
</g>
<!-- Node10&#45;&gt;Node9 -->
<g id="edge21" class="edge"><title>Node10&#45;&gt;Node9</title>
<path fill="none" stroke="midnightblue" d="M1150.25,-168.477C1168.96,-159.959 1198,-146.128 1222,-132 1248.74,-116.255 1277.9,-95.4866 1296.53,-81.7099"/>
<polygon fill="midnightblue" stroke="midnightblue" points="1298.85,-84.3444 1304.78,-75.5611 1294.67,-78.7325 1298.85,-84.3444"/>
</g>
<!-- Node11 -->
<g id="node11" class="node"><title>Node11</title>
<polygon fill="white" stroke="#bfbfbf" points="1170.5,-56.5 1170.5,-75.5 1213.5,-75.5 1213.5,-56.5 1170.5,-56.5"/>
<text text-anchor="middle" x="1192" y="-63.5" font-family="Helvetica,sans-Serif" font-size="10.00">cstdio</text>
</g>
<!-- Node10&#45;&gt;Node11 -->
<g id="edge12" class="edge"><title>Node10&#45;&gt;Node11</title>
<path fill="none" stroke="midnightblue" d="M1135.79,-168.368C1145.76,-150.376 1168.96,-108.55 1182.23,-84.6267"/>
<polygon fill="midnightblue" stroke="midnightblue" points="1185.45,-86.0342 1187.24,-75.5914 1179.33,-82.6393 1185.45,-86.0342"/>
</g>
<!-- Node12 -->
<g id="node12" class="node"><title>Node12</title>
<polygon fill="white" stroke="#bfbfbf" points="1106,-56.5 1106,-75.5 1152,-75.5 1152,-56.5 1106,-56.5"/>
<text text-anchor="middle" x="1129" y="-63.5" font-family="Helvetica,sans-Serif" font-size="10.00">cctype</text>
</g>
<!-- Node10&#45;&gt;Node12 -->
<g id="edge13" class="edge"><title>Node10&#45;&gt;Node12</title>
<path fill="none" stroke="midnightblue" d="M1130.84,-168.368C1130.52,-150.617 1129.78,-109.666 1129.34,-85.5974"/>
<polygon fill="midnightblue" stroke="midnightblue" points="1132.84,-85.5261 1129.16,-75.5914 1125.84,-85.6534 1132.84,-85.5261"/>
</g>
<!-- Node13 -->
<g id="node13" class="node"><title>Node13</title>
<polygon fill="white" stroke="#bfbfbf" points="751.5,-112.5 751.5,-131.5 800.5,-131.5 800.5,-112.5 751.5,-112.5"/>
<text text-anchor="middle" x="776" y="-119.5" font-family="Helvetica,sans-Serif" font-size="10.00">cstdarg</text>
</g>
<!-- Node10&#45;&gt;Node13 -->
<g id="edge14" class="edge"><title>Node10&#45;&gt;Node13</title>
<path fill="none" stroke="midnightblue" d="M1092.27,-169.845C1088.47,-169.197 1084.66,-168.571 1081,-168 963.693,-149.689 930.286,-155.751 810.69,-132.129"/>
<polygon fill="midnightblue" stroke="midnightblue" points="811.273,-128.676 800.781,-130.143 809.898,-135.539 811.273,-128.676"/>
</g>
<!-- Node14 -->
<g id="node14" class="node"><title>Node14</title>
<polygon fill="white" stroke="#bfbfbf" points="1274,-112.5 1274,-131.5 1320,-131.5 1320,-112.5 1274,-112.5"/>
<text text-anchor="middle" x="1297" y="-119.5" font-family="Helvetica,sans-Serif" font-size="10.00">cstdint</text>
</g>
<!-- Node10&#45;&gt;Node14 -->
<g id="edge15" class="edge"><title>Node10&#45;&gt;Node14</title>
<path fill="none" stroke="midnightblue" d="M1157.3,-168.444C1186.26,-159.024 1232.85,-143.869 1264.17,-133.679"/>
<polygon fill="midnightblue" stroke="midnightblue" points="1265.34,-136.98 1273.77,-130.558 1263.17,-130.323 1265.34,-136.98"/>
</g>
<!-- Node15 -->
<g id="node15" class="node"><title>Node15</title>
<polygon fill="white" stroke="#bfbfbf" points="818.5,-112.5 818.5,-131.5 859.5,-131.5 859.5,-112.5 818.5,-112.5"/>
<text text-anchor="middle" x="839" y="-119.5" font-family="Helvetica,sans-Serif" font-size="10.00">ctime</text>
</g>
<!-- Node10&#45;&gt;Node15 -->
<g id="edge17" class="edge"><title>Node10&#45;&gt;Node15</title>
<path fill="none" stroke="midnightblue" d="M1092.25,-169.985C1088.45,-169.309 1084.65,-168.638 1081,-168 989.984,-152.081 963.781,-153.644 869.524,-131.862"/>
<polygon fill="midnightblue" stroke="midnightblue" points="870.101,-128.403 859.567,-129.534 868.507,-135.219 870.101,-128.403"/>
</g>
<!-- Node16 -->
<g id="node16" class="node"><title>Node16</title>
<polygon fill="white" stroke="#bfbfbf" points="1338.5,-112.5 1338.5,-131.5 1387.5,-131.5 1387.5,-112.5 1338.5,-112.5"/>
<text text-anchor="middle" x="1363" y="-119.5" font-family="Helvetica,sans-Serif" font-size="10.00">cassert</text>
</g>
<!-- Node10&#45;&gt;Node16 -->
<g id="edge18" class="edge"><title>Node10&#45;&gt;Node16</title>
<path fill="none" stroke="midnightblue" d="M1169.79,-168.607C1207.75,-160.302 1267.44,-146.991 1328.36,-132.092"/>
<polygon fill="midnightblue" stroke="midnightblue" points="1329.27,-135.473 1338.14,-129.688 1327.6,-128.675 1329.27,-135.473"/>
</g>
<!-- Node17 -->
<g id="node17" class="node"><title>Node17</title>
<polygon fill="white" stroke="#bfbfbf" points="878,-112.5 878,-131.5 930,-131.5 930,-112.5 878,-112.5"/>
<text text-anchor="middle" x="904" y="-119.5" font-family="Helvetica,sans-Serif" font-size="10.00">mutex.h</text>
</g>
<!-- Node10&#45;&gt;Node17 -->
<g id="edge20" class="edge"><title>Node10&#45;&gt;Node17</title>
<path fill="none" stroke="midnightblue" d="M1095.03,-168.444C1052.65,-158.361 982.627,-141.704 940.159,-131.602"/>
<polygon fill="midnightblue" stroke="midnightblue" points="940.785,-128.153 930.247,-129.244 939.165,-134.963 940.785,-128.153"/>
</g>
<!-- Node18 -->
<g id="node18" class="node"><title>Node18</title>
<g id="a_node18"><a xlink:href="_i_plug_utilities_8h.html" target="_top" xlink:title="Utility functions and macros. ">
<polygon fill="white" stroke="black" points="986,-112.5 986,-131.5 1066,-131.5 1066,-112.5 986,-112.5"/>
<text text-anchor="middle" x="1026" y="-119.5" font-family="Helvetica,sans-Serif" font-size="10.00">IPlugUtilities.h</text>
</a>
</g>
</g>
<!-- Node10&#45;&gt;Node18 -->
<g id="edge22" class="edge"><title>Node10&#45;&gt;Node18</title>
<path fill="none" stroke="midnightblue" d="M1114.13,-168.324C1097.29,-159.664 1071.19,-146.242 1051.76,-136.249"/>
<polygon fill="midnightblue" stroke="midnightblue" points="1053.32,-133.116 1042.83,-131.655 1050.12,-139.341 1053.32,-133.116"/>
</g>
<!-- Node18&#45;&gt;Node3 -->
<g id="edge27" class="edge"><title>Node18&#45;&gt;Node3</title>
<path fill="none" stroke="midnightblue" d="M1016.52,-112.178C1003.34,-98.8427 982.605,-73.2793 997,-56 1023.57,-24.1062 1148.06,-14.741 1208.68,-12.0515"/>
<polygon fill="midnightblue" stroke="midnightblue" points="1209.02,-15.5405 1218.87,-11.6358 1208.73,-8.5463 1209.02,-15.5405"/>
</g>
<!-- Node18&#45;&gt;Node4 -->
<g id="edge26" class="edge"><title>Node18&#45;&gt;Node4</title>
<path fill="none" stroke="midnightblue" d="M995.246,-112.496C946.626,-99.2442 848.906,-73.3857 765,-56 679.545,-38.2933 577.796,-22.9083 526.706,-15.5726"/>
<polygon fill="midnightblue" stroke="midnightblue" points="526.991,-12.078 516.597,-14.1315 526.003,-19.0079 526.991,-12.078"/>
</g>
<!-- Node18&#45;&gt;Node5 -->
<g id="edge31" class="edge"><title>Node18&#45;&gt;Node5</title>
<path fill="none" stroke="midnightblue" d="M985.726,-116.754C971.024,-115.225 954.262,-113.507 939,-112 768.855,-95.2034 725.765,-96.287 556,-76 552.814,-75.6193 549.539,-75.2068 546.238,-74.7749"/>
<polygon fill="midnightblue" stroke="midnightblue" points="546.697,-71.3053 536.318,-73.4335 545.759,-78.2421 546.697,-71.3053"/>
</g>
<!-- Node18&#45;&gt;Node6 -->
<g id="edge29" class="edge"><title>Node18&#45;&gt;Node6</title>
<path fill="none" stroke="midnightblue" d="M985.927,-114.112C981.237,-113.368 976.516,-112.647 972,-112 851.609,-94.7531 708.819,-78.8757 639.285,-71.4368"/>
<polygon fill="midnightblue" stroke="midnightblue" points="639.483,-67.9382 629.169,-70.3589 638.742,-74.8988 639.483,-67.9382"/>
</g>
<!-- Node18&#45;&gt;Node9 -->
<g id="edge30" class="edge"><title>Node18&#45;&gt;Node9</title>
<path fill="none" stroke="midnightblue" d="M1066.02,-113.548C1116.44,-104.159 1203.37,-87.9723 1260.27,-77.3767"/>
<polygon fill="midnightblue" stroke="midnightblue" points="1260.99,-80.8029 1270.18,-75.5313 1259.71,-73.9211 1260.99,-80.8029"/>
</g>
<!-- Node18&#45;&gt;Node11 -->
<g id="edge25" class="edge"><title>Node18&#45;&gt;Node11</title>
<path fill="none" stroke="midnightblue" d="M1052.3,-112.444C1081.75,-102.863 1129.45,-87.3492 1160.77,-77.1604"/>
<polygon fill="midnightblue" stroke="midnightblue" points="1161.89,-80.4756 1170.32,-74.0537 1159.72,-73.8189 1161.89,-80.4756"/>
</g>
<!-- Node18&#45;&gt;Node12 -->
<g id="edge28" class="edge"><title>Node18&#45;&gt;Node12</title>
<path fill="none" stroke="midnightblue" d="M1042.55,-112.324C1058.99,-103.703 1084.43,-90.3643 1103.47,-80.3855"/>
<polygon fill="midnightblue" stroke="midnightblue" points="1105.26,-83.3977 1112.49,-75.6545 1102.01,-77.198 1105.26,-83.3977"/>
</g>
<!-- Node19 -->
<g id="node19" class="node"><title>Node19</title>
<polygon fill="white" stroke="#bfbfbf" points="701,-56.5 701,-75.5 757,-75.5 757,-56.5 701,-56.5"/>
<text text-anchor="middle" x="729" y="-63.5" font-family="Helvetica,sans-Serif" font-size="10.00">algorithm</text>
</g>
<!-- Node18&#45;&gt;Node19 -->
<g id="edge23" class="edge"><title>Node18&#45;&gt;Node19</title>
<path fill="none" stroke="midnightblue" d="M985.945,-113.717C928.558,-103.283 823.66,-84.2109 767.274,-73.9589"/>
<polygon fill="midnightblue" stroke="midnightblue" points="767.797,-70.4968 757.333,-72.1514 766.545,-77.3839 767.797,-70.4968"/>
</g>
<!-- Node20 -->
<g id="node20" class="node"><title>Node20</title>
<polygon fill="white" stroke="#bfbfbf" points="1006,-56.5 1006,-75.5 1050,-75.5 1050,-56.5 1006,-56.5"/>
<text text-anchor="middle" x="1028" y="-63.5" font-family="Helvetica,sans-Serif" font-size="10.00">cmath</text>
</g>
<!-- Node18&#45;&gt;Node20 -->
<g id="edge24" class="edge"><title>Node18&#45;&gt;Node20</title>
<path fill="none" stroke="midnightblue" d="M1026.33,-112.083C1026.59,-105.006 1026.97,-94.8611 1027.3,-85.9865"/>
<polygon fill="midnightblue" stroke="midnightblue" points="1030.8,-85.8738 1027.68,-75.7511 1023.81,-85.6147 1030.8,-85.8738"/>
</g>
<!-- Node21&#45;&gt;Node5 -->
<g id="edge33" class="edge"><title>Node21&#45;&gt;Node5</title>
<path fill="none" stroke="midnightblue" d="M212.923,-112.444C275.651,-102.302 379.51,-85.5104 441.883,-75.4262"/>
<polygon fill="midnightblue" stroke="midnightblue" points="442.586,-78.8579 451.9,-73.8067 441.469,-71.9476 442.586,-78.8579"/>
</g>
<!-- Node22&#45;&gt;Node5 -->
<g id="edge44" class="edge"><title>Node22&#45;&gt;Node5</title>
<path fill="none" stroke="midnightblue" d="M511.509,-168.368C508.443,-150.617 501.37,-109.666 497.212,-85.5974"/>
<polygon fill="midnightblue" stroke="midnightblue" points="500.635,-84.8498 495.484,-75.5914 493.737,-86.0413 500.635,-84.8498"/>
</g>
<!-- Node22&#45;&gt;Node6 -->
<g id="edge41" class="edge"><title>Node22&#45;&gt;Node6</title>
<path fill="none" stroke="midnightblue" d="M463.923,-171.55C394.813,-163.376 275.764,-147.267 263,-132 257.298,-125.181 257.128,-118.673 263,-112 304.591,-64.7404 481.732,-85.2717 544,-76 547.475,-75.4826 551.073,-74.9228 554.685,-74.3442"/>
<polygon fill="midnightblue" stroke="midnightblue" points="555.501,-77.7572 564.802,-72.6837 554.367,-70.8496 555.501,-77.7572"/>
</g>
<!-- Node22&#45;&gt;Node7 -->
<g id="edge42" class="edge"><title>Node22&#45;&gt;Node7</title>
<path fill="none" stroke="midnightblue" d="M562.311,-174.65C696.305,-168.229 1078.37,-149.686 1396,-132 1435.23,-129.815 1480.26,-127.062 1510.46,-125.179"/>
<polygon fill="midnightblue" stroke="midnightblue" points="1510.72,-128.669 1520.48,-124.552 1510.28,-121.683 1510.72,-128.669"/>
</g>
<!-- Node22&#45;&gt;Node16 -->
<g id="edge36" class="edge"><title>Node22&#45;&gt;Node16</title>
<path fill="none" stroke="midnightblue" d="M562.238,-175.601C711.924,-171.143 1160.99,-156.218 1328.12,-131.728"/>
<polygon fill="midnightblue" stroke="midnightblue" points="1328.89,-135.151 1338.24,-130.177 1327.83,-128.232 1328.89,-135.151"/>
</g>
<!-- Node22&#45;&gt;Node19 -->
<g id="edge38" class="edge"><title>Node22&#45;&gt;Node19</title>
<path fill="none" stroke="midnightblue" d="M527.861,-168.473C550.222,-155.736 593.956,-131.189 632,-112 654.687,-100.557 680.844,-88.4861 700.274,-79.7302"/>
<polygon fill="midnightblue" stroke="midnightblue" points="701.804,-82.8799 709.497,-75.5951 698.94,-76.4925 701.804,-82.8799"/>
</g>
<!-- Node22&#45;&gt;Node20 -->
<g id="edge35" class="edge"><title>Node22&#45;&gt;Node20</title>
<path fill="none" stroke="midnightblue" d="M537.593,-168.37C561.13,-159.879 597.465,-146.162 628,-132 644.958,-124.135 647.195,-117.693 665,-112 782.503,-74.4325 930.702,-67.9677 995.348,-67.0345"/>
<polygon fill="midnightblue" stroke="midnightblue" points="995.745,-70.5305 1005.71,-66.9231 995.67,-63.5309 995.745,-70.5305"/>
</g>
<!-- Node22&#45;&gt;Node21 -->
<g id="edge45" class="edge"><title>Node22&#45;&gt;Node21</title>
<path fill="none" stroke="midnightblue" d="M463.917,-169.492C401.803,-159.99 294.61,-143.592 225.545,-133.027"/>
<polygon fill="midnightblue" stroke="midnightblue" points="226.056,-129.564 215.642,-131.512 224.998,-136.484 226.056,-129.564"/>
</g>
<!-- Node23 -->
<g id="node23" class="node"><title>Node23</title>
<polygon fill="white" stroke="#bfbfbf" points="674.5,-112.5 674.5,-131.5 733.5,-131.5 733.5,-112.5 674.5,-112.5"/>
<text text-anchor="middle" x="704" y="-119.5" font-family="Helvetica,sans-Serif" font-size="10.00">functional</text>
</g>
<!-- Node22&#45;&gt;Node23 -->
<g id="edge37" class="edge"><title>Node22&#45;&gt;Node23</title>
<path fill="none" stroke="midnightblue" d="M543.265,-168.444C576.051,-159.174 628.489,-144.349 664.5,-134.168"/>
<polygon fill="midnightblue" stroke="midnightblue" points="665.521,-137.516 674.191,-131.428 663.616,-130.78 665.521,-137.516"/>
</g>
<!-- Node24 -->
<g id="node24" class="node"><title>Node24</title>
<polygon fill="white" stroke="#bfbfbf" points="352.5,-112.5 352.5,-131.5 401.5,-131.5 401.5,-112.5 352.5,-112.5"/>
<text text-anchor="middle" x="377" y="-119.5" font-family="Helvetica,sans-Serif" font-size="10.00">random</text>
</g>
<!-- Node22&#45;&gt;Node24 -->
<g id="edge39" class="edge"><title>Node22&#45;&gt;Node24</title>
<path fill="none" stroke="midnightblue" d="M491.45,-168.444C468.969,-159.517 433.512,-145.439 408.02,-135.317"/>
<polygon fill="midnightblue" stroke="midnightblue" points="409.035,-131.954 398.449,-131.516 406.451,-138.46 409.035,-131.954"/>
</g>
<!-- Node25 -->
<g id="node25" class="node"><title>Node25</title>
<polygon fill="white" stroke="#bfbfbf" points="420,-112.5 420,-131.5 466,-131.5 466,-112.5 420,-112.5"/>
<text text-anchor="middle" x="443" y="-119.5" font-family="Helvetica,sans-Serif" font-size="10.00">chrono</text>
</g>
<!-- Node22&#45;&gt;Node25 -->
<g id="edge40" class="edge"><title>Node22&#45;&gt;Node25</title>
<path fill="none" stroke="midnightblue" d="M501.753,-168.324C491.203,-160.185 475.199,-147.839 462.558,-138.087"/>
<polygon fill="midnightblue" stroke="midnightblue" points="464.507,-135.171 454.451,-131.834 460.231,-140.713 464.507,-135.171"/>
</g>
<!-- Node26 -->
<g id="node26" class="node"><title>Node26</title>
<polygon fill="white" stroke="#bfbfbf" points="272,-112.5 272,-131.5 334,-131.5 334,-112.5 272,-112.5"/>
<text text-anchor="middle" x="303" y="-119.5" font-family="Helvetica,sans-Serif" font-size="10.00">nanosvg.h</text>
</g>
<!-- Node22&#45;&gt;Node26 -->
<g id="edge43" class="edge"><title>Node22&#45;&gt;Node26</title>
<path fill="none" stroke="midnightblue" d="M479.725,-168.444C442.913,-158.978 383.572,-143.719 343.94,-133.527"/>
<polygon fill="midnightblue" stroke="midnightblue" points="344.622,-130.089 334.066,-130.988 342.879,-136.869 344.622,-130.089"/>
</g>
<!-- Node27&#45;&gt;Node21 -->
<g id="edge47" class="edge"><title>Node27&#45;&gt;Node21</title>
<path fill="none" stroke="midnightblue" d="M213.717,-168.324C204.164,-160.263 189.72,-148.077 178.216,-138.369"/>
<polygon fill="midnightblue" stroke="midnightblue" points="180.37,-135.608 170.47,-131.834 175.856,-140.958 180.37,-135.608"/>
</g>
<!-- Node28&#45;&gt;Node3 -->
<g id="edge50" class="edge"><title>Node28&#45;&gt;Node3</title>
<path fill="none" stroke="midnightblue" d="M1453.2,-168.402C1456.04,-155.36 1459.57,-130.174 1450,-112 1415.86,-47.1732 1324.67,-23.4448 1275.14,-15.1639"/>
<polygon fill="midnightblue" stroke="midnightblue" points="1275.65,-11.7023 1265.23,-13.6221 1274.57,-18.619 1275.65,-11.7023"/>
</g>
<!-- Node28&#45;&gt;Node6 -->
<g id="edge53" class="edge"><title>Node28&#45;&gt;Node6</title>
<path fill="none" stroke="midnightblue" d="M1391.12,-171.937C1268.06,-161.447 996.558,-137.827 977,-132 958.709,-126.55 957.189,-117.779 939,-112 910.955,-103.089 724.37,-81.3343 639.225,-71.7113"/>
<polygon fill="midnightblue" stroke="midnightblue" points="639.449,-68.2144 629.119,-70.5723 638.665,-75.1704 639.449,-68.2144"/>
</g>
<!-- Node28&#45;&gt;Node7 -->
<g id="edge54" class="edge"><title>Node28&#45;&gt;Node7</title>
<path fill="none" stroke="midnightblue" d="M1466.1,-168.324C1480.9,-159.822 1503.69,-146.729 1520.98,-136.797"/>
<polygon fill="midnightblue" stroke="midnightblue" points="1523.01,-139.671 1529.93,-131.655 1519.52,-133.601 1523.01,-139.671"/>
</g>
<!-- Node28&#45;&gt;Node11 -->
<g id="edge51" class="edge"><title>Node28&#45;&gt;Node11</title>
<path fill="none" stroke="midnightblue" d="M1450.86,-168.35C1450.13,-154.291 1446.55,-126.587 1430,-112 1414.68,-98.4891 1285.47,-79.5596 1224.11,-71.2237"/>
<polygon fill="midnightblue" stroke="midnightblue" points="1224.21,-67.7055 1213.83,-69.8403 1223.28,-74.6429 1224.21,-67.7055"/>
</g>
<!-- Node28&#45;&gt;Node16 -->
<g id="edge52" class="edge"><title>Node28&#45;&gt;Node16</title>
<path fill="none" stroke="midnightblue" d="M1436.86,-168.324C1423.13,-159.9 1402.06,-146.971 1385.94,-137.074"/>
<polygon fill="midnightblue" stroke="midnightblue" points="1387.46,-133.902 1377.1,-131.655 1383.8,-139.868 1387.46,-133.902"/>
</g>
<!-- Node28&#45;&gt;Node20 -->
<g id="edge49" class="edge"><title>Node28&#45;&gt;Node20</title>
<path fill="none" stroke="midnightblue" d="M1446.6,-168.468C1438.66,-154.058 1420.47,-125.182 1396,-112 1278.17,-48.514 1229.81,-92.6561 1097,-76 1084.98,-74.4922 1071.78,-72.7844 1060.18,-71.2648"/>
<polygon fill="midnightblue" stroke="midnightblue" points="1060.43,-67.7668 1050.06,-69.9332 1059.51,-74.7071 1060.43,-67.7668"/>
</g>
<!-- Node29&#45;&gt;Node3 -->
<g id="edge57" class="edge"><title>Node29&#45;&gt;Node3</title>
<path fill="none" stroke="midnightblue" d="M1406.3,-227.564C1486.23,-215.711 1644.36,-182.738 1593,-112 1555.03,-59.7018 1354.97,-26.6514 1275.04,-15.3558"/>
<polygon fill="midnightblue" stroke="midnightblue" points="1275.41,-11.8739 1265.02,-13.9661 1274.45,-18.8075 1275.41,-11.8739"/>
</g>
<!-- Node29&#45;&gt;Node7 -->
<g id="edge59" class="edge"><title>Node29&#45;&gt;Node7</title>
<path fill="none" stroke="midnightblue" d="M1406,-230.717C1440.44,-226.731 1487.96,-216.087 1519,-188 1532.36,-175.912 1538.96,-156.032 1542.16,-141.436"/>
<polygon fill="midnightblue" stroke="midnightblue" points="1545.61,-141.989 1543.99,-131.52 1538.73,-140.716 1545.61,-141.989"/>
</g>
<!-- Node29&#45;&gt;Node16 -->
<g id="edge56" class="edge"><title>Node29&#45;&gt;Node16</title>
<path fill="none" stroke="midnightblue" d="M1363,-224.368C1363,-206.617 1363,-165.666 1363,-141.597"/>
<polygon fill="midnightblue" stroke="midnightblue" points="1366.5,-141.591 1363,-131.591 1359.5,-141.591 1366.5,-141.591"/>
</g>
<!-- Node30 -->
<g id="node30" class="node"><title>Node30</title>
<polygon fill="white" stroke="#bfbfbf" points="1664.5,-168.5 1664.5,-187.5 1713.5,-187.5 1713.5,-168.5 1664.5,-168.5"/>
<text text-anchor="middle" x="1689" y="-175.5" font-family="Helvetica,sans-Serif" font-size="10.00">stdint.h</text>
</g>
<!-- Node29&#45;&gt;Node30 -->
<g id="edge58" class="edge"><title>Node29&#45;&gt;Node30</title>
<path fill="none" stroke="midnightblue" d="M1406.44,-227.172C1462.8,-219.386 1564.09,-204.626 1650,-188 1651.45,-187.719 1652.93,-187.423 1654.42,-187.117"/>
<polygon fill="midnightblue" stroke="midnightblue" points="1655.26,-190.515 1664.3,-184.98 1653.79,-183.673 1655.26,-190.515"/>
</g>
<!-- Node31 -->
<g id="node31" class="node"><title>Node31</title>
<g id="a_node31"><a xlink:href="_i_plug_parameter_8h_source.html" target="_top" xlink:title="IPlugParameter.h">
<polygon fill="white" stroke="black" points="980,-168.5 980,-187.5 1072,-187.5 1072,-168.5 980,-168.5"/>
<text text-anchor="middle" x="1026" y="-175.5" font-family="Helvetica,sans-Serif" font-size="10.00">IPlugParameter.h</text>
</a>
</g>
</g>
<!-- Node29&#45;&gt;Node31 -->
<g id="edge60" class="edge"><title>Node29&#45;&gt;Node31</title>
<path fill="none" stroke="midnightblue" d="M1319.98,-226.106C1259.47,-216.41 1149.16,-198.735 1082.23,-188.01"/>
<polygon fill="midnightblue" stroke="midnightblue" points="1082.7,-184.541 1072.27,-186.415 1081.59,-191.453 1082.7,-184.541"/>
</g>
<!-- Node32 -->
<g id="node32" class="node"><title>Node32</title>
<g id="a_node32"><a xlink:href="_i_plug_midi_8h_source.html" target="_top" xlink:title="IPlugMidi.h">
<polygon fill="white" stroke="black" points="1269.5,-168.5 1269.5,-187.5 1334.5,-187.5 1334.5,-168.5 1269.5,-168.5"/>
<text text-anchor="middle" x="1302" y="-175.5" font-family="Helvetica,sans-Serif" font-size="10.00">IPlugMidi.h</text>
</a>
</g>
</g>
<!-- Node29&#45;&gt;Node32 -->
<g id="edge65" class="edge"><title>Node29&#45;&gt;Node32</title>
<path fill="none" stroke="midnightblue" d="M1353.2,-224.324C1344.18,-216.341 1330.59,-204.313 1319.68,-194.653"/>
<polygon fill="midnightblue" stroke="midnightblue" points="1321.79,-191.842 1311.98,-187.834 1317.15,-197.083 1321.79,-191.842"/>
</g>
<!-- Node31&#45;&gt;Node3 -->
<g id="edge61" class="edge"><title>Node31&#45;&gt;Node3</title>
<path fill="none" stroke="midnightblue" d="M1038.68,-168.462C1049.8,-160.332 1065.63,-147.119 1075,-132 1093.53,-102.111 1072.37,-81.102 1097,-56 1126.65,-25.779 1176.17,-15.766 1208.96,-12.4998"/>
<polygon fill="midnightblue" stroke="midnightblue" points="1209.3,-15.9838 1218.97,-11.6594 1208.71,-9.00834 1209.3,-15.9838"/>
</g>
<!-- Node31&#45;&gt;Node6 -->
<g id="edge63" class="edge"><title>Node31&#45;&gt;Node6</title>
<path fill="none" stroke="midnightblue" d="M979.847,-175.614C873.727,-171.951 619.494,-160.287 594,-132 582.911,-119.696 585.509,-100.163 589.753,-85.7186"/>
<polygon fill="midnightblue" stroke="midnightblue" points="593.197,-86.4631 593.119,-75.8685 586.573,-84.199 593.197,-86.4631"/>
</g>
<!-- Node31&#45;&gt;Node18 -->
<g id="edge64" class="edge"><title>Node31&#45;&gt;Node18</title>
<path fill="none" stroke="midnightblue" d="M1026,-168.083C1026,-161.006 1026,-150.861 1026,-141.986"/>
<polygon fill="midnightblue" stroke="midnightblue" points="1029.5,-141.751 1026,-131.751 1022.5,-141.751 1029.5,-141.751"/>
</g>
<!-- Node31&#45;&gt;Node23 -->
<g id="edge62" class="edge"><title>Node31&#45;&gt;Node23</title>
<path fill="none" stroke="midnightblue" d="M979.571,-170.74C925.215,-163.168 832.281,-149.467 743.759,-132.24"/>
<polygon fill="midnightblue" stroke="midnightblue" points="744.312,-128.782 733.824,-130.288 742.962,-135.651 744.312,-128.782"/>
</g>
<!-- Node32&#45;&gt;Node14 -->
<g id="edge67" class="edge"><title>Node32&#45;&gt;Node14</title>
<path fill="none" stroke="midnightblue" d="M1301.17,-168.083C1300.52,-161.006 1299.58,-150.861 1298.76,-141.986"/>
<polygon fill="midnightblue" stroke="midnightblue" points="1302.22,-141.386 1297.81,-131.751 1295.25,-142.031 1302.22,-141.386"/>
</g>
<!-- Node32&#45;&gt;Node16 -->
<g id="edge66" class="edge"><title>Node32&#45;&gt;Node16</title>
<path fill="none" stroke="midnightblue" d="M1311.8,-168.324C1320.82,-160.341 1334.41,-148.313 1345.32,-138.653"/>
<polygon fill="midnightblue" stroke="midnightblue" points="1347.85,-141.083 1353.02,-131.834 1343.21,-135.842 1347.85,-141.083"/>
</g>
</g>
</svg>
