<?xml version="1.0" encoding="UTF-8" standalone="no"?>
<!DOCTYPE svg PUBLIC "-//W3C//DTD SVG 1.1//EN"
 "http://www.w3.org/Graphics/SVG/1.1/DTD/svg11.dtd">
<!-- Generated by graphviz version 2.36.0 (20140111.2315)
 -->
<!-- Title: IGraphics.h Pages: 1 -->
<!--zoomable 252 -->
<svg id="main" version="1.1" xmlns="http://www.w3.org/2000/svg" xmlns:xlink="http://www.w3.org/1999/xlink" xml:space="preserve" onload="init(evt)">
<style type="text/css"><![CDATA[
.edge:hover path { stroke: red; }
.edge:hover polygon { stroke: red; fill: red; }
]]></style>
<script type="text/javascript"><![CDATA[
var edges = document.getElementsByTagName('g');
if (edges && edges.length) {
  for (var i=0;i<edges.length;i++) {
    if (edges[i].id.substr(0,4)=='edge') {
      edges[i].setAttribute('class','edge');
    }
  }
}
]]></script>
        <defs>
                <circle id="rim" cx="0" cy="0" r="7"/>
                <circle id="rim2" cx="0" cy="0" r="3.5"/>
                <g id="zoomPlus">
                        <use xlink:href="#rim" fill="#404040">
                                <set attributeName="fill" to="#808080" begin="zoomplus.mouseover" end="zoomplus.mouseout"/>
                        </use>
                        <path d="M-4,0h8M0,-4v8" fill="none" stroke="white" stroke-width="1.5" pointer-events="none"/>
                </g>
                <g id="zoomMin">
                        <use xlink:href="#rim" fill="#404040">
                                <set attributeName="fill" to="#808080" begin="zoomminus.mouseover" end="zoomminus.mouseout"/>
                        </use>
                        <path d="M-4,0h8" fill="none" stroke="white" stroke-width="1.5" pointer-events="none"/>
                </g>
                <g id="dirArrow">
                        <path fill="none" stroke="white" stroke-width="1.5" d="M0,-3.0v7 M-2.5,-0.5L0,-3.0L2.5,-0.5"/>
                </g>
               <g id="resetDef">
                       <use xlink:href="#rim2" fill="#404040">
                               <set attributeName="fill" to="#808080" begin="reset.mouseover" end="reset.mouseout"/>
                       </use>
               </g>
        </defs>

<script type="text/javascript">
var viewWidth = 1409;
var viewHeight = 252;
var sectionId = 'dynsection-0';
</script>
<script xlink:href="svgpan.js"/>
<svg id="graph" class="graph">
<g id="viewport">
<title>IGraphics.h</title>
<polygon fill="white" stroke="none" points="-4,4 -4,-248 1405.11,-248 1405.11,4 -4,4"/>
<!-- Node1 -->
<g id="node1" class="node"><title>Node1</title>
<polygon fill="#bfbfbf" stroke="black" points="669.5,-224.5 669.5,-243.5 736.5,-243.5 736.5,-224.5 669.5,-224.5"/>
<text text-anchor="middle" x="703" y="-231.5" font-family="Helvetica,sans-Serif" font-size="10.00">IGraphics.h</text>
</g>
<!-- Node2 -->
<g id="node2" class="node"><title>Node2</title>
<g id="a_node2"><a xlink:href="_i_plug_constants_8h.html" target="_top" xlink:title="Constant definitions, Types, magic numbers. ">
<polygon fill="white" stroke="black" points="0,-56.5 0,-75.5 92,-75.5 92,-56.5 0,-56.5"/>
<text text-anchor="middle" x="46" y="-63.5" font-family="Helvetica,sans-Serif" font-size="10.00">IPlugConstants.h</text>
</a>
</g>
</g>
<!-- Node1&#45;&gt;Node2 -->
<g id="edge1" class="edge"><title>Node1&#45;&gt;Node2</title>
<path fill="none" stroke="midnightblue" d="M669.456,-231.496C554.865,-225.762 180.842,-201.947 87,-132 70.989,-120.066 59.6851,-99.868 53.0572,-85.1486"/>
<polygon fill="midnightblue" stroke="midnightblue" points="56.1478,-83.4676 49.057,-75.5954 49.691,-86.1712 56.1478,-83.4676"/>
</g>
<!-- Node3 -->
<g id="node3" class="node"><title>Node3</title>
<g id="a_node3"><a xlink:href="_i_plug_logger_8h.html" target="_top" xlink:title="IPlug logging a.k.a tracing functionality. ">
<polygon fill="white" stroke="black" points="296.5,-168.5 296.5,-187.5 373.5,-187.5 373.5,-168.5 296.5,-168.5"/>
<text text-anchor="middle" x="335" y="-175.5" font-family="Helvetica,sans-Serif" font-size="10.00">IPlugLogger.h</text>
</a>
</g>
</g>
<!-- Node1&#45;&gt;Node3 -->
<g id="edge2" class="edge"><title>Node1&#45;&gt;Node3</title>
<path fill="none" stroke="midnightblue" d="M669.367,-228.065C604.04,-218.479 459.761,-197.307 383.862,-186.17"/>
<polygon fill="midnightblue" stroke="midnightblue" points="384.023,-182.656 373.621,-184.667 383.007,-189.582 384.023,-182.656"/>
</g>
<!-- Node18 -->
<g id="node18" class="node"><title>Node18</title>
<g id="a_node18"><a xlink:href="_i_graphics_constants_8h_source.html" target="_top" xlink:title="IGraphicsConstants.h">
<polygon fill="white" stroke="black" points="691,-112.5 691,-131.5 803,-131.5 803,-112.5 691,-112.5"/>
<text text-anchor="middle" x="747" y="-119.5" font-family="Helvetica,sans-Serif" font-size="10.00">IGraphicsConstants.h</text>
</a>
</g>
</g>
<!-- Node1&#45;&gt;Node18 -->
<g id="edge25" class="edge"><title>Node1&#45;&gt;Node18</title>
<path fill="none" stroke="midnightblue" d="M696.41,-224.19C687.644,-211.308 674.316,-186.817 684,-168 691.077,-154.247 704.521,-143.766 717.178,-136.394"/>
<polygon fill="midnightblue" stroke="midnightblue" points="718.999,-139.389 726.153,-131.573 715.687,-133.222 718.999,-139.389"/>
</g>
<!-- Node19 -->
<g id="node19" class="node"><title>Node19</title>
<g id="a_node19"><a xlink:href="_i_graphics_structs_8h_source.html" target="_top" xlink:title="IGraphicsStructs.h">
<polygon fill="white" stroke="black" points="1031,-168.5 1031,-187.5 1129,-187.5 1129,-168.5 1031,-168.5"/>
<text text-anchor="middle" x="1080" y="-175.5" font-family="Helvetica,sans-Serif" font-size="10.00">IGraphicsStructs.h</text>
</a>
</g>
</g>
<!-- Node1&#45;&gt;Node19 -->
<g id="edge27" class="edge"><title>Node1&#45;&gt;Node19</title>
<path fill="none" stroke="midnightblue" d="M736.788,-228.16C800.916,-218.975 940.996,-198.91 1020.96,-187.457"/>
<polygon fill="midnightblue" stroke="midnightblue" points="1021.47,-190.919 1030.88,-186.036 1020.48,-183.99 1021.47,-190.919"/>
</g>
<!-- Node25 -->
<g id="node25" class="node"><title>Node25</title>
<g id="a_node25"><a xlink:href="_i_graphics_utilites_8h_source.html" target="_top" xlink:title="IGraphicsUtilites.h">
<polygon fill="white" stroke="black" points="693,-168.5 693,-187.5 791,-187.5 791,-168.5 693,-168.5"/>
<text text-anchor="middle" x="742" y="-175.5" font-family="Helvetica,sans-Serif" font-size="10.00">IGraphicsUtilites.h</text>
</a>
</g>
</g>
<!-- Node1&#45;&gt;Node25 -->
<g id="edge39" class="edge"><title>Node1&#45;&gt;Node25</title>
<path fill="none" stroke="midnightblue" d="M709.44,-224.083C714.949,-216.455 723.031,-205.264 729.765,-195.941"/>
<polygon fill="midnightblue" stroke="midnightblue" points="732.662,-197.907 735.68,-187.751 726.987,-193.809 732.662,-197.907"/>
</g>
<!-- Node26 -->
<g id="node26" class="node"><title>Node26</title>
<g id="a_node26"><a xlink:href="_i_graphics_popup_menu_8h.html" target="_top" xlink:title="A class for setting the contents of a pop up menu NOTE: An IPopupMenu must not be declared as a tempo...">
<polygon fill="white" stroke="black" points="809.5,-168.5 809.5,-187.5 928.5,-187.5 928.5,-168.5 809.5,-168.5"/>
<text text-anchor="middle" x="869" y="-175.5" font-family="Helvetica,sans-Serif" font-size="10.00">IGraphicsPopupMenu.h</text>
</a>
</g>
</g>
<!-- Node1&#45;&gt;Node26 -->
<g id="edge41" class="edge"><title>Node1&#45;&gt;Node26</title>
<path fill="none" stroke="midnightblue" d="M729.303,-224.444C757.351,-215.32 801.944,-200.813 833.184,-190.651"/>
<polygon fill="midnightblue" stroke="midnightblue" points="834.393,-193.938 842.82,-187.516 832.228,-187.282 834.393,-193.938"/>
</g>
<!-- Node3&#45;&gt;Node2 -->
<g id="edge12" class="edge"><title>Node3&#45;&gt;Node2</title>
<path fill="none" stroke="midnightblue" d="M296.166,-174.824C251.547,-171.011 177.136,-160.56 120,-132 95.9961,-120.001 73.6125,-98.2861 59.8836,-83.2767"/>
<polygon fill="midnightblue" stroke="midnightblue" points="62.4457,-80.8907 53.1915,-75.7323 57.209,-85.5359 62.4457,-80.8907"/>
</g>
<!-- Node4 -->
<g id="node4" class="node"><title>Node4</title>
<polygon fill="white" stroke="#bfbfbf" points="400.5,-56.5 400.5,-75.5 443.5,-75.5 443.5,-56.5 400.5,-56.5"/>
<text text-anchor="middle" x="422" y="-63.5" font-family="Helvetica,sans-Serif" font-size="10.00">cstdio</text>
</g>
<!-- Node3&#45;&gt;Node4 -->
<g id="edge3" class="edge"><title>Node3&#45;&gt;Node4</title>
<path fill="none" stroke="midnightblue" d="M296.391,-176.575C228.001,-174.511 96.7522,-163.898 141,-112 157.045,-93.181 319.881,-76.2725 390.078,-69.7978"/>
<polygon fill="midnightblue" stroke="midnightblue" points="390.482,-73.2756 400.124,-68.8843 389.848,-66.3043 390.482,-73.2756"/>
</g>
<!-- Node5 -->
<g id="node5" class="node"><title>Node5</title>
<polygon fill="white" stroke="#bfbfbf" points="223,-56.5 223,-75.5 269,-75.5 269,-56.5 223,-56.5"/>
<text text-anchor="middle" x="246" y="-63.5" font-family="Helvetica,sans-Serif" font-size="10.00">cctype</text>
</g>
<!-- Node3&#45;&gt;Node5 -->
<g id="edge4" class="edge"><title>Node3&#45;&gt;Node5</title>
<path fill="none" stroke="midnightblue" d="M296.328,-174.202C242.593,-169.419 149.604,-157.591 129,-132 103.03,-99.7446 169.918,-80.8979 212.964,-72.4227"/>
<polygon fill="midnightblue" stroke="midnightblue" points="213.612,-75.8624 222.797,-70.5827 212.324,-68.9818 213.612,-75.8624"/>
</g>
<!-- Node6 -->
<g id="node6" class="node"><title>Node6</title>
<polygon fill="white" stroke="#bfbfbf" points="150.5,-112.5 150.5,-131.5 199.5,-131.5 199.5,-112.5 150.5,-112.5"/>
<text text-anchor="middle" x="175" y="-119.5" font-family="Helvetica,sans-Serif" font-size="10.00">cstdarg</text>
</g>
<!-- Node3&#45;&gt;Node6 -->
<g id="edge5" class="edge"><title>Node3&#45;&gt;Node6</title>
<path fill="none" stroke="midnightblue" d="M309.648,-168.444C282.572,-159.306 239.5,-144.769 209.383,-134.604"/>
<polygon fill="midnightblue" stroke="midnightblue" points="210.302,-131.221 199.708,-131.339 208.064,-137.853 210.302,-131.221"/>
</g>
<!-- Node7 -->
<g id="node7" class="node"><title>Node7</title>
<polygon fill="white" stroke="#bfbfbf" points="218,-112.5 218,-131.5 264,-131.5 264,-112.5 218,-112.5"/>
<text text-anchor="middle" x="241" y="-119.5" font-family="Helvetica,sans-Serif" font-size="10.00">cstdint</text>
</g>
<!-- Node3&#45;&gt;Node7 -->
<g id="edge6" class="edge"><title>Node3&#45;&gt;Node7</title>
<path fill="none" stroke="midnightblue" d="M319.897,-168.324C305.097,-159.822 282.306,-146.729 265.018,-136.797"/>
<polygon fill="midnightblue" stroke="midnightblue" points="266.48,-133.601 256.065,-131.655 262.993,-139.671 266.48,-133.601"/>
</g>
<!-- Node8 -->
<g id="node8" class="node"><title>Node8</title>
<polygon fill="white" stroke="#bfbfbf" points="570,-0.5 570,-19.5 616,-19.5 616,-0.5 570,-0.5"/>
<text text-anchor="middle" x="593" y="-7.5" font-family="Helvetica,sans-Serif" font-size="10.00">cstring</text>
</g>
<!-- Node3&#45;&gt;Node8 -->
<g id="edge7" class="edge"><title>Node3&#45;&gt;Node8</title>
<path fill="none" stroke="midnightblue" d="M373.745,-172.639C425.629,-166.109 514.054,-152.341 539,-132 547.489,-125.078 573.239,-61.4748 585.865,-29.3661"/>
<polygon fill="midnightblue" stroke="midnightblue" points="589.219,-30.3998 589.6,-19.8118 582.699,-27.8511 589.219,-30.3998"/>
</g>
<!-- Node9 -->
<g id="node9" class="node"><title>Node9</title>
<polygon fill="white" stroke="#bfbfbf" points="282.5,-112.5 282.5,-131.5 323.5,-131.5 323.5,-112.5 282.5,-112.5"/>
<text text-anchor="middle" x="303" y="-119.5" font-family="Helvetica,sans-Serif" font-size="10.00">ctime</text>
</g>
<!-- Node3&#45;&gt;Node9 -->
<g id="edge8" class="edge"><title>Node3&#45;&gt;Node9</title>
<path fill="none" stroke="midnightblue" d="M329.716,-168.083C325.289,-160.613 318.837,-149.724 313.382,-140.52"/>
<polygon fill="midnightblue" stroke="midnightblue" points="316.295,-138.57 308.186,-131.751 310.273,-142.138 316.295,-138.57"/>
</g>
<!-- Node10 -->
<g id="node10" class="node"><title>Node10</title>
<polygon fill="white" stroke="#bfbfbf" points="624.5,-112.5 624.5,-131.5 673.5,-131.5 673.5,-112.5 624.5,-112.5"/>
<text text-anchor="middle" x="649" y="-119.5" font-family="Helvetica,sans-Serif" font-size="10.00">cassert</text>
</g>
<!-- Node3&#45;&gt;Node10 -->
<g id="edge9" class="edge"><title>Node3&#45;&gt;Node10</title>
<path fill="none" stroke="midnightblue" d="M373.852,-171.451C427.246,-163.641 526.223,-148.503 610,-132 611.449,-131.715 612.926,-131.415 614.416,-131.104"/>
<polygon fill="midnightblue" stroke="midnightblue" points="615.267,-134.501 624.294,-128.955 613.779,-127.661 615.267,-134.501"/>
</g>
<!-- Node11 -->
<g id="node11" class="node"><title>Node11</title>
<polygon fill="white" stroke="#bfbfbf" points="733,-56.5 733,-75.5 797,-75.5 797,-56.5 733,-56.5"/>
<text text-anchor="middle" x="765" y="-63.5" font-family="Helvetica,sans-Serif" font-size="10.00">wdlstring.h</text>
</g>
<!-- Node3&#45;&gt;Node11 -->
<g id="edge10" class="edge"><title>Node3&#45;&gt;Node11</title>
<path fill="none" stroke="midnightblue" d="M373.905,-172.618C421.47,-166.58 504.029,-153.885 572,-132 592.063,-125.54 595.299,-119.492 615,-112 650.846,-98.368 692.729,-86.0965 723.114,-77.8249"/>
<polygon fill="midnightblue" stroke="midnightblue" points="724.206,-81.1557 732.953,-75.1769 722.387,-74.3963 724.206,-81.1557"/>
</g>
<!-- Node12 -->
<g id="node12" class="node"><title>Node12</title>
<polygon fill="white" stroke="#bfbfbf" points="342,-112.5 342,-131.5 394,-131.5 394,-112.5 342,-112.5"/>
<text text-anchor="middle" x="368" y="-119.5" font-family="Helvetica,sans-Serif" font-size="10.00">mutex.h</text>
</g>
<!-- Node3&#45;&gt;Node12 -->
<g id="edge11" class="edge"><title>Node3&#45;&gt;Node12</title>
<path fill="none" stroke="midnightblue" d="M340.449,-168.083C345.014,-160.613 351.668,-149.724 357.293,-140.52"/>
<polygon fill="midnightblue" stroke="midnightblue" points="360.424,-142.109 362.652,-131.751 354.451,-138.459 360.424,-142.109"/>
</g>
<!-- Node13 -->
<g id="node13" class="node"><title>Node13</title>
<g id="a_node13"><a xlink:href="_i_plug_utilities_8h.html" target="_top" xlink:title="Utility functions and macros. ">
<polygon fill="white" stroke="black" points="450,-112.5 450,-131.5 530,-131.5 530,-112.5 450,-112.5"/>
<text text-anchor="middle" x="490" y="-119.5" font-family="Helvetica,sans-Serif" font-size="10.00">IPlugUtilities.h</text>
</a>
</g>
</g>
<!-- Node3&#45;&gt;Node13 -->
<g id="edge13" class="edge"><title>Node3&#45;&gt;Node13</title>
<path fill="none" stroke="midnightblue" d="M359.56,-168.444C385.523,-159.399 426.668,-145.064 455.797,-134.916"/>
<polygon fill="midnightblue" stroke="midnightblue" points="457.263,-138.112 465.555,-131.516 454.96,-131.501 457.263,-138.112"/>
</g>
<!-- Node13&#45;&gt;Node2 -->
<g id="edge21" class="edge"><title>Node13&#45;&gt;Node2</title>
<path fill="none" stroke="midnightblue" d="M449.815,-116.113C370.372,-106.451 193.067,-84.8865 102.139,-73.8277"/>
<polygon fill="midnightblue" stroke="midnightblue" points="102.371,-70.3302 92.0212,-72.5972 101.525,-77.279 102.371,-70.3302"/>
</g>
<!-- Node13&#45;&gt;Node4 -->
<g id="edge16" class="edge"><title>Node13&#45;&gt;Node4</title>
<path fill="none" stroke="midnightblue" d="M479.075,-112.324C468.825,-104.185 453.279,-91.8395 440.999,-82.0874"/>
<polygon fill="midnightblue" stroke="midnightblue" points="443.132,-79.3119 433.124,-75.8339 438.779,-84.7937 443.132,-79.3119"/>
</g>
<!-- Node13&#45;&gt;Node5 -->
<g id="edge19" class="edge"><title>Node13&#45;&gt;Node5</title>
<path fill="none" stroke="midnightblue" d="M451.337,-112.444C403.715,-101.904 323.64,-84.1826 278.854,-74.271"/>
<polygon fill="midnightblue" stroke="midnightblue" points="279.583,-70.8477 269.063,-72.1041 278.071,-77.6823 279.583,-70.8477"/>
</g>
<!-- Node13&#45;&gt;Node8 -->
<g id="edge18" class="edge"><title>Node13&#45;&gt;Node8</title>
<path fill="none" stroke="midnightblue" d="M496.639,-112.273C506.495,-99.4939 525.796,-75.1308 544,-56 553.853,-45.6455 565.63,-34.7863 575.169,-26.33"/>
<polygon fill="midnightblue" stroke="midnightblue" points="577.65,-28.8097 582.87,-19.5903 573.04,-23.5419 577.65,-28.8097"/>
</g>
<!-- Node13&#45;&gt;Node11 -->
<g id="edge20" class="edge"><title>Node13&#45;&gt;Node11</title>
<path fill="none" stroke="midnightblue" d="M530.282,-113.09C581.751,-102.983 670.43,-85.5701 722.803,-75.2859"/>
<polygon fill="midnightblue" stroke="midnightblue" points="723.634,-78.6897 732.772,-73.3284 722.285,-71.8209 723.634,-78.6897"/>
</g>
<!-- Node14 -->
<g id="node14" class="node"><title>Node14</title>
<polygon fill="white" stroke="#bfbfbf" points="1173,-56.5 1173,-75.5 1229,-75.5 1229,-56.5 1173,-56.5"/>
<text text-anchor="middle" x="1201" y="-63.5" font-family="Helvetica,sans-Serif" font-size="10.00">algorithm</text>
</g>
<!-- Node13&#45;&gt;Node14 -->
<g id="edge14" class="edge"><title>Node13&#45;&gt;Node14</title>
<path fill="none" stroke="midnightblue" d="M530.006,-117.962C655.463,-108.433 1040.1,-79.2203 1162.9,-69.894"/>
<polygon fill="midnightblue" stroke="midnightblue" points="1163.25,-73.3776 1172.95,-69.1302 1162.72,-66.3977 1163.25,-73.3776"/>
</g>
<!-- Node15 -->
<g id="node15" class="node"><title>Node15</title>
<polygon fill="white" stroke="#bfbfbf" points="897,-56.5 897,-75.5 941,-75.5 941,-56.5 897,-56.5"/>
<text text-anchor="middle" x="919" y="-63.5" font-family="Helvetica,sans-Serif" font-size="10.00">cmath</text>
</g>
<!-- Node13&#45;&gt;Node15 -->
<g id="edge15" class="edge"><title>Node13&#45;&gt;Node15</title>
<path fill="none" stroke="midnightblue" d="M530.359,-115.92C615.024,-105.263 809.713,-80.7564 886.761,-71.0581"/>
<polygon fill="midnightblue" stroke="midnightblue" points="887.343,-74.5125 896.828,-69.7909 886.469,-67.5673 887.343,-74.5125"/>
</g>
<!-- Node16 -->
<g id="node16" class="node"><title>Node16</title>
<polygon fill="white" stroke="#bfbfbf" points="465.5,-0.5 465.5,-19.5 510.5,-19.5 510.5,-0.5 465.5,-0.5"/>
<text text-anchor="middle" x="488" y="-7.5" font-family="Helvetica,sans-Serif" font-size="10.00">cstdlib</text>
</g>
<!-- Node13&#45;&gt;Node16 -->
<g id="edge17" class="edge"><title>Node13&#45;&gt;Node16</title>
<path fill="none" stroke="midnightblue" d="M489.843,-112.368C489.52,-94.617 488.776,-53.6664 488.338,-29.5974"/>
<polygon fill="midnightblue" stroke="midnightblue" points="491.838,-29.5261 488.156,-19.5914 484.839,-29.6534 491.838,-29.5261"/>
</g>
<!-- Node17 -->
<g id="node17" class="node"><title>Node17</title>
<g id="a_node17"><a xlink:href="_i_plug_platform_8h.html" target="_top" xlink:title="Include to get consistently named preprocessor macros for different platforms and logging functionali...">
<polygon fill="white" stroke="black" points="586,-56.5 586,-75.5 670,-75.5 670,-56.5 586,-56.5"/>
<text text-anchor="middle" x="628" y="-63.5" font-family="Helvetica,sans-Serif" font-size="10.00">IPlugPlatform.h</text>
</a>
</g>
</g>
<!-- Node13&#45;&gt;Node17 -->
<g id="edge22" class="edge"><title>Node13&#45;&gt;Node17</title>
<path fill="none" stroke="midnightblue" d="M511.867,-112.444C534.779,-103.478 570.975,-89.314 596.866,-79.1827"/>
<polygon fill="midnightblue" stroke="midnightblue" points="598.199,-82.4198 606.236,-75.5164 595.648,-75.9011 598.199,-82.4198"/>
</g>
<!-- Node17&#45;&gt;Node8 -->
<g id="edge23" class="edge"><title>Node17&#45;&gt;Node8</title>
<path fill="none" stroke="midnightblue" d="M622.22,-56.083C617.328,-48.5341 610.173,-37.4948 604.167,-28.2298"/>
<polygon fill="midnightblue" stroke="midnightblue" points="607.048,-26.239 598.672,-19.7511 601.174,-30.0463 607.048,-26.239"/>
</g>
<!-- Node17&#45;&gt;Node16 -->
<g id="edge24" class="edge"><title>Node17&#45;&gt;Node16</title>
<path fill="none" stroke="midnightblue" d="M605.817,-56.4435C582.572,-47.4776 545.851,-33.314 519.585,-23.1827"/>
<polygon fill="midnightblue" stroke="midnightblue" points="520.669,-19.8497 510.08,-19.5164 518.15,-26.3807 520.669,-19.8497"/>
</g>
<!-- Node18&#45;&gt;Node17 -->
<g id="edge26" class="edge"><title>Node18&#45;&gt;Node17</title>
<path fill="none" stroke="midnightblue" d="M728.144,-112.444C708.734,-103.636 678.27,-89.8116 656.035,-79.722"/>
<polygon fill="midnightblue" stroke="midnightblue" points="657.32,-76.4615 646.768,-75.5164 654.428,-82.836 657.32,-76.4615"/>
</g>
<!-- Node19&#45;&gt;Node10 -->
<g id="edge29" class="edge"><title>Node19&#45;&gt;Node10</title>
<path fill="none" stroke="midnightblue" d="M1030.93,-173.889C957.345,-168.691 813.982,-156.502 683.908,-132.125"/>
<polygon fill="midnightblue" stroke="midnightblue" points="684.249,-128.627 673.771,-130.194 682.939,-135.503 684.249,-128.627"/>
</g>
<!-- Node19&#45;&gt;Node11 -->
<g id="edge34" class="edge"><title>Node19&#45;&gt;Node11</title>
<path fill="none" stroke="midnightblue" d="M1075.53,-168.141C1067.77,-153.78 1050.39,-125.654 1027,-112 990.472,-90.6749 871.936,-76.8178 807.554,-70.667"/>
<polygon fill="midnightblue" stroke="midnightblue" points="807.611,-67.1571 797.329,-69.7114 806.96,-74.1268 807.611,-67.1571"/>
</g>
<!-- Node19&#45;&gt;Node14 -->
<g id="edge31" class="edge"><title>Node19&#45;&gt;Node14</title>
<path fill="none" stroke="midnightblue" d="M1129.11,-177.38C1208.27,-176.828 1358.59,-170.576 1392,-132 1435.97,-81.2325 1306.92,-70.0496 1239.37,-67.6342"/>
<polygon fill="midnightblue" stroke="midnightblue" points="1239.2,-64.1273 1229.09,-67.3171 1238.98,-71.1239 1239.2,-64.1273"/>
</g>
<!-- Node19&#45;&gt;Node15 -->
<g id="edge28" class="edge"><title>Node19&#45;&gt;Node15</title>
<path fill="none" stroke="midnightblue" d="M1129.03,-176.387C1200.82,-174.332 1329.16,-165.881 1358,-132 1363.76,-125.231 1363.96,-118.598 1358,-112 1330.82,-81.886 1048.09,-70.7983 951.297,-67.8678"/>
<polygon fill="midnightblue" stroke="midnightblue" points="951.316,-64.3669 941.218,-67.572 951.111,-71.3639 951.316,-64.3669"/>
</g>
<!-- Node19&#45;&gt;Node17 -->
<g id="edge37" class="edge"><title>Node19&#45;&gt;Node17</title>
<path fill="none" stroke="midnightblue" d="M1069.85,-168.361C1050.76,-152.284 1009.88,-118.785 993,-112 964.628,-100.597 774.327,-81.061 680.333,-71.9497"/>
<polygon fill="midnightblue" stroke="midnightblue" points="680.472,-68.4469 670.182,-70.9699 679.799,-75.4145 680.472,-68.4469"/>
</g>
<!-- Node19&#45;&gt;Node18 -->
<g id="edge38" class="edge"><title>Node19&#45;&gt;Node18</title>
<path fill="none" stroke="midnightblue" d="M1030.86,-169.032C972.133,-159.508 873.76,-143.556 809.626,-133.156"/>
<polygon fill="midnightblue" stroke="midnightblue" points="810.07,-129.682 799.638,-131.536 808.949,-136.592 810.07,-129.682"/>
</g>
<!-- Node20 -->
<g id="node20" class="node"><title>Node20</title>
<polygon fill="white" stroke="#bfbfbf" points="1079.5,-112.5 1079.5,-131.5 1138.5,-131.5 1138.5,-112.5 1079.5,-112.5"/>
<text text-anchor="middle" x="1109" y="-119.5" font-family="Helvetica,sans-Serif" font-size="10.00">functional</text>
</g>
<!-- Node19&#45;&gt;Node20 -->
<g id="edge30" class="edge"><title>Node19&#45;&gt;Node20</title>
<path fill="none" stroke="midnightblue" d="M1084.79,-168.083C1088.76,-160.691 1094.53,-149.953 1099.43,-140.811"/>
<polygon fill="midnightblue" stroke="midnightblue" points="1102.65,-142.217 1104.3,-131.751 1096.49,-138.905 1102.65,-142.217"/>
</g>
<!-- Node21 -->
<g id="node21" class="node"><title>Node21</title>
<polygon fill="white" stroke="#bfbfbf" points="1156.5,-112.5 1156.5,-131.5 1205.5,-131.5 1205.5,-112.5 1156.5,-112.5"/>
<text text-anchor="middle" x="1181" y="-119.5" font-family="Helvetica,sans-Serif" font-size="10.00">random</text>
</g>
<!-- Node19&#45;&gt;Node21 -->
<g id="edge32" class="edge"><title>Node19&#45;&gt;Node21</title>
<path fill="none" stroke="midnightblue" d="M1096.23,-168.324C1112.35,-159.703 1137.3,-146.364 1155.96,-136.386"/>
<polygon fill="midnightblue" stroke="midnightblue" points="1157.64,-139.456 1164.81,-131.655 1154.34,-133.283 1157.64,-139.456"/>
</g>
<!-- Node22 -->
<g id="node22" class="node"><title>Node22</title>
<polygon fill="white" stroke="#bfbfbf" points="1224,-112.5 1224,-131.5 1270,-131.5 1270,-112.5 1224,-112.5"/>
<text text-anchor="middle" x="1247" y="-119.5" font-family="Helvetica,sans-Serif" font-size="10.00">chrono</text>
</g>
<!-- Node19&#45;&gt;Node22 -->
<g id="edge33" class="edge"><title>Node19&#45;&gt;Node22</title>
<path fill="none" stroke="midnightblue" d="M1106.46,-168.444C1135.67,-158.998 1182.73,-143.783 1214.24,-133.592"/>
<polygon fill="midnightblue" stroke="midnightblue" points="1215.45,-136.88 1223.89,-130.473 1213.3,-130.22 1215.45,-136.88"/>
</g>
<!-- Node23 -->
<g id="node23" class="node"><title>Node23</title>
<polygon fill="white" stroke="#bfbfbf" points="935.5,-112.5 935.5,-131.5 984.5,-131.5 984.5,-112.5 935.5,-112.5"/>
<text text-anchor="middle" x="960" y="-119.5" font-family="Helvetica,sans-Serif" font-size="10.00">ptrlist.h</text>
</g>
<!-- Node19&#45;&gt;Node23 -->
<g id="edge35" class="edge"><title>Node19&#45;&gt;Node23</title>
<path fill="none" stroke="midnightblue" d="M1060.99,-168.444C1041.41,-159.636 1010.69,-145.812 988.271,-135.722"/>
<polygon fill="midnightblue" stroke="midnightblue" points="989.481,-132.428 978.925,-131.516 986.608,-138.812 989.481,-132.428"/>
</g>
<!-- Node24 -->
<g id="node24" class="node"><title>Node24</title>
<polygon fill="white" stroke="#bfbfbf" points="1288,-112.5 1288,-131.5 1350,-131.5 1350,-112.5 1288,-112.5"/>
<text text-anchor="middle" x="1319" y="-119.5" font-family="Helvetica,sans-Serif" font-size="10.00">nanosvg.h</text>
</g>
<!-- Node19&#45;&gt;Node24 -->
<g id="edge36" class="edge"><title>Node19&#45;&gt;Node24</title>
<path fill="none" stroke="midnightblue" d="M1117.87,-168.444C1161.46,-158.594 1232.82,-142.471 1277.78,-132.313"/>
<polygon fill="midnightblue" stroke="midnightblue" points="1278.8,-135.672 1287.78,-130.054 1277.26,-128.844 1278.8,-135.672"/>
</g>
<!-- Node25&#45;&gt;Node18 -->
<g id="edge40" class="edge"><title>Node25&#45;&gt;Node18</title>
<path fill="none" stroke="midnightblue" d="M742.826,-168.083C743.481,-161.006 744.42,-150.861 745.242,-141.986"/>
<polygon fill="midnightblue" stroke="midnightblue" points="748.753,-142.031 746.19,-131.751 741.783,-141.386 748.753,-142.031"/>
</g>
<!-- Node26&#45;&gt;Node4 -->
<g id="edge44" class="edge"><title>Node26&#45;&gt;Node4</title>
<path fill="none" stroke="midnightblue" d="M809.44,-169.229C805.909,-168.803 802.409,-168.39 799,-168 719.563,-158.901 502.497,-183.1 441,-132 427.597,-120.863 423.345,-100.833 422.14,-85.9413"/>
<polygon fill="midnightblue" stroke="midnightblue" points="425.631,-85.6308 421.712,-75.7872 418.637,-85.9258 425.631,-85.6308"/>
</g>
<!-- Node26&#45;&gt;Node8 -->
<g id="edge43" class="edge"><title>Node26&#45;&gt;Node8</title>
<path fill="none" stroke="midnightblue" d="M867.176,-168.332C861.972,-145.876 844.855,-85.506 806,-56 778.121,-34.8294 679.066,-20.7353 626.435,-14.5613"/>
<polygon fill="midnightblue" stroke="midnightblue" points="626.59,-11.0562 616.257,-13.3983 625.795,-18.011 626.59,-11.0562"/>
</g>
<!-- Node26&#45;&gt;Node10 -->
<g id="edge45" class="edge"><title>Node26&#45;&gt;Node10</title>
<path fill="none" stroke="midnightblue" d="M832.018,-168.447C796.302,-160.11 740.443,-146.87 683.698,-132.387"/>
<polygon fill="midnightblue" stroke="midnightblue" points="684.401,-128.954 673.845,-129.862 682.663,-135.735 684.401,-128.954"/>
</g>
<!-- Node26&#45;&gt;Node11 -->
<g id="edge46" class="edge"><title>Node26&#45;&gt;Node11</title>
<path fill="none" stroke="midnightblue" d="M861.671,-168.42C850.839,-155.824 829.803,-131.686 811,-112 801.547,-102.103 790.608,-91.3742 781.77,-82.8753"/>
<polygon fill="midnightblue" stroke="midnightblue" points="783.995,-80.1609 774.346,-75.7851 779.16,-85.223 783.995,-80.1609"/>
</g>
<!-- Node26&#45;&gt;Node15 -->
<g id="edge42" class="edge"><title>Node26&#45;&gt;Node15</title>
<path fill="none" stroke="midnightblue" d="M872.923,-168.368C881.065,-150.456 899.944,-108.923 910.842,-84.9482"/>
<polygon fill="midnightblue" stroke="midnightblue" points="914.143,-86.1434 915.095,-75.5914 907.77,-83.2468 914.143,-86.1434"/>
</g>
<!-- Node26&#45;&gt;Node23 -->
<g id="edge47" class="edge"><title>Node26&#45;&gt;Node23</title>
<path fill="none" stroke="midnightblue" d="M883.621,-168.324C897.949,-159.822 920.013,-146.729 936.749,-136.797"/>
<polygon fill="midnightblue" stroke="midnightblue" points="938.602,-139.768 945.416,-131.655 935.03,-133.748 938.602,-139.768"/>
</g>
</g>
</svg>
        <g id="navigator" transform="translate(0 0)" fill="#404254">
                <rect fill="#f2f5e9" fill-opacity="0.5" stroke="#606060" stroke-width=".5" x="0" y="0" width="60" height="60"/>
                <use id="zoomplus" xlink:href="#zoomPlus" x="17" y="9" onmousedown="handleZoom(evt,'in')"/>
                <use id="zoomminus" xlink:href="#zoomMin" x="42" y="9" onmousedown="handleZoom(evt,'out')"/>
                <use id="reset" xlink:href="#resetDef" x="30" y="36" onmousedown="handleReset()"/>
                <g id="arrowUp" xlink:href="#dirArrow" transform="translate(30 24)" onmousedown="handlePan(0,-1)">
                  <use xlink:href="#rim" fill="#404040">
                        <set attributeName="fill" to="#808080" begin="arrowUp.mouseover" end="arrowUp.mouseout"/>
                  </use>
                  <path fill="none" stroke="white" stroke-width="1.5" d="M0,-3.0v7 M-2.5,-0.5L0,-3.0L2.5,-0.5"/>
                </g>
                <g id="arrowRight" xlink:href="#dirArrow" transform="rotate(90) translate(36 -43)" onmousedown="handlePan(1,0)">
                  <use xlink:href="#rim" fill="#404040">
                        <set attributeName="fill" to="#808080" begin="arrowRight.mouseover" end="arrowRight.mouseout"/>
                  </use>
                  <path fill="none" stroke="white" stroke-width="1.5" d="M0,-3.0v7 M-2.5,-0.5L0,-3.0L2.5,-0.5"/>
                </g>
                <g id="arrowDown" xlink:href="#dirArrow" transform="rotate(180) translate(-30 -48)" onmousedown="handlePan(0,1)">
                  <use xlink:href="#rim" fill="#404040">
                        <set attributeName="fill" to="#808080" begin="arrowDown.mouseover" end="arrowDown.mouseout"/>
                  </use>
                  <path fill="none" stroke="white" stroke-width="1.5" d="M0,-3.0v7 M-2.5,-0.5L0,-3.0L2.5,-0.5"/>
                </g>
                <g id="arrowLeft" xlink:href="#dirArrow" transform="rotate(270) translate(-36 17)" onmousedown="handlePan(-1,0)">
                  <use xlink:href="#rim" fill="#404040">
                        <set attributeName="fill" to="#808080" begin="arrowLeft.mouseover" end="arrowLeft.mouseout"/>
                  </use>
                  <path fill="none" stroke="white" stroke-width="1.5" d="M0,-3.0v7 M-2.5,-0.5L0,-3.0L2.5,-0.5"/>
                </g>
        </g>
        <svg viewBox="0 0 15 15" width="100%" height="30px" preserveAspectRatio="xMaxYMin meet">
         <g id="arrow_out" transform="scale(0.3 0.3)">
          <a xlink:href="_i_graphics_8h__incl_org.svg" target="_base">
           <rect id="button" ry="5" rx="5" y="6" x="6" height="38" width="38"
                fill="#f2f5e9" fill-opacity="0.5" stroke="#606060" stroke-width="1.0"/>
           <path id="arrow"
             d="M 11.500037,31.436501 C 11.940474,20.09759 22.043105,11.32322 32.158766,21.979434 L 37.068811,17.246167 C 37.068811,17.246167 37.088388,32 37.088388,32 L 22.160133,31.978069 C 22.160133,31.978069 26.997745,27.140456 26.997745,27.140456 C 18.528582,18.264221 13.291696,25.230495 11.500037,31.436501 z"
             style="fill:#404040;"/>
          </a>
         </g>
        </svg>
</svg>
