<?xml version="1.0" encoding="UTF-8" standalone="no"?>
<!DOCTYPE svg PUBLIC "-//W3C//DTD SVG 1.1//EN"
 "http://www.w3.org/Graphics/SVG/1.1/DTD/svg11.dtd">
<!-- Generated by graphviz version 2.36.0 (20140111.2315)
 -->
<!-- Title: IGraphicsPopupMenu.h Pages: 1 -->
<!--zoomable 252 -->
<svg id="main" version="1.1" xmlns="http://www.w3.org/2000/svg" xmlns:xlink="http://www.w3.org/1999/xlink" xml:space="preserve" onload="init(evt)">
<style type="text/css"><![CDATA[
.edge:hover path { stroke: red; }
.edge:hover polygon { stroke: red; fill: red; }
]]></style>
<script type="text/javascript"><![CDATA[
var edges = document.getElementsByTagName('g');
if (edges && edges.length) {
  for (var i=0;i<edges.length;i++) {
    if (edges[i].id.substr(0,4)=='edge') {
      edges[i].setAttribute('class','edge');
    }
  }
}
]]></script>
        <defs>
                <circle id="rim" cx="0" cy="0" r="7"/>
                <circle id="rim2" cx="0" cy="0" r="3.5"/>
                <g id="zoomPlus">
                        <use xlink:href="#rim" fill="#404040">
                                <set attributeName="fill" to="#808080" begin="zoomplus.mouseover" end="zoomplus.mouseout"/>
                        </use>
                        <path d="M-4,0h8M0,-4v8" fill="none" stroke="white" stroke-width="1.5" pointer-events="none"/>
                </g>
                <g id="zoomMin">
                        <use xlink:href="#rim" fill="#404040">
                                <set attributeName="fill" to="#808080" begin="zoomminus.mouseover" end="zoomminus.mouseout"/>
                        </use>
                        <path d="M-4,0h8" fill="none" stroke="white" stroke-width="1.5" pointer-events="none"/>
                </g>
                <g id="dirArrow">
                        <path fill="none" stroke="white" stroke-width="1.5" d="M0,-3.0v7 M-2.5,-0.5L0,-3.0L2.5,-0.5"/>
                </g>
               <g id="resetDef">
                       <use xlink:href="#rim2" fill="#404040">
                               <set attributeName="fill" to="#808080" begin="reset.mouseover" end="reset.mouseout"/>
                       </use>
               </g>
        </defs>

<script type="text/javascript">
var viewWidth = 1656;
var viewHeight = 252;
var sectionId = 'dynsection-1';
</script>
<script xlink:href="svgpan.js"/>
<svg id="graph" class="graph">
<g id="viewport">
<title>IGraphicsPopupMenu.h</title>
<polygon fill="white" stroke="none" points="-4,4 -4,-248 1652.1,-248 1652.1,4 -4,4"/>
<!-- Node1 -->
<g id="node1" class="node"><title>Node1</title>
<polygon fill="#bfbfbf" stroke="black" points="528.597,-224.5 528.597,-243.5 647.597,-243.5 647.597,-224.5 528.597,-224.5"/>
<text text-anchor="middle" x="588.097" y="-231.5" font-family="Helvetica,sans-Serif" font-size="10.00">IGraphicsPopupMenu.h</text>
</g>
<!-- Node2 -->
<g id="node2" class="node"><title>Node2</title>
<g id="a_node2"><a xlink:href="_i_graphics_8h.html" target="_top" xlink:title="The lowest level base class of an IGraphics context. ">
<polygon fill="white" stroke="black" points="554.597,-168.5 554.597,-187.5 621.597,-187.5 621.597,-168.5 554.597,-168.5"/>
<text text-anchor="middle" x="588.097" y="-175.5" font-family="Helvetica,sans-Serif" font-size="10.00">IGraphics.h</text>
</a>
</g>
</g>
<!-- Node1&#45;&gt;Node2 -->
<g id="edge1" class="edge"><title>Node1&#45;&gt;Node2</title>
<path fill="none" stroke="midnightblue" d="M588.097,-213.805C588.097,-204.91 588.097,-194.78 588.097,-187.751"/>
<polygon fill="midnightblue" stroke="midnightblue" points="584.597,-214.083 588.097,-224.083 591.597,-214.083 584.597,-214.083"/>
</g>
<!-- Node3 -->
<g id="node3" class="node"><title>Node3</title>
<g id="a_node3"><a xlink:href="_i_plug_graphics_delegate_8cpp_source.html" target="_top" xlink:title="IPlugGraphicsDelegate.cpp">
<polygon fill="white" stroke="black" points="14.0966,-56.5 14.0966,-75.5 150.097,-75.5 150.097,-56.5 14.0966,-56.5"/>
<text text-anchor="middle" x="82.0966" y="-63.5" font-family="Helvetica,sans-Serif" font-size="10.00">IPlugGraphicsDelegate.cpp</text>
</a>
</g>
</g>
<!-- Node2&#45;&gt;Node3 -->
<g id="edge2" class="edge"><title>Node2&#45;&gt;Node3</title>
<path fill="none" stroke="midnightblue" d="M544.44,-167.509C447.3,-146.392 214.545,-95.7931 121.505,-75.5671"/>
<polygon fill="midnightblue" stroke="midnightblue" points="543.989,-170.993 554.505,-169.697 545.476,-164.153 543.989,-170.993"/>
</g>
<!-- Node4 -->
<g id="node4" class="node"><title>Node4</title>
<g id="a_node4"><a xlink:href="_i_graphics_lice_8h_source.html" target="_top" xlink:title="IGraphicsLice.h">
<polygon fill="white" stroke="black" points="1441.6,-112.5 1441.6,-131.5 1526.6,-131.5 1526.6,-112.5 1441.6,-112.5"/>
<text text-anchor="middle" x="1484.1" y="-119.5" font-family="Helvetica,sans-Serif" font-size="10.00">IGraphicsLice.h</text>
</a>
</g>
</g>
<!-- Node2&#45;&gt;Node4 -->
<g id="edge3" class="edge"><title>Node2&#45;&gt;Node4</title>
<path fill="none" stroke="midnightblue" d="M632.243,-174.339C785.116,-165.126 1290.77,-134.651 1441.4,-125.573"/>
<polygon fill="midnightblue" stroke="midnightblue" points="631.627,-170.87 621.856,-174.965 632.048,-177.857 631.627,-170.87"/>
</g>
<!-- Node6 -->
<g id="node6" class="node"><title>Node6</title>
<g id="a_node6"><a xlink:href="_i_control_8h.html" target="_top" xlink:title="The lowest level base class of an IGraphics control. ">
<polygon fill="white" stroke="black" points="558.597,-112.5 558.597,-131.5 617.597,-131.5 617.597,-112.5 558.597,-112.5"/>
<text text-anchor="middle" x="588.097" y="-119.5" font-family="Helvetica,sans-Serif" font-size="10.00">IControl.h</text>
</a>
</g>
</g>
<!-- Node2&#45;&gt;Node6 -->
<g id="edge5" class="edge"><title>Node2&#45;&gt;Node6</title>
<path fill="none" stroke="midnightblue" d="M588.097,-157.805C588.097,-148.91 588.097,-138.78 588.097,-131.751"/>
<polygon fill="midnightblue" stroke="midnightblue" points="584.597,-158.083 588.097,-168.083 591.597,-158.083 584.597,-158.083"/>
</g>
<!-- Node9 -->
<g id="node9" class="node"><title>Node9</title>
<g id="a_node9"><a xlink:href="_i_graphics_8cpp_source.html" target="_top" xlink:title="IGraphics.cpp">
<polygon fill="white" stroke="black" points="356.597,-0.5 356.597,-19.5 433.597,-19.5 433.597,-0.5 356.597,-0.5"/>
<text text-anchor="middle" x="395.097" y="-7.5" font-family="Helvetica,sans-Serif" font-size="10.00">IGraphics.cpp</text>
</a>
</g>
</g>
<!-- Node2&#45;&gt;Node9 -->
<g id="edge20" class="edge"><title>Node2&#45;&gt;Node9</title>
<path fill="none" stroke="midnightblue" d="M543.951,-176.444C419.99,-173.848 73.3101,-159.149 5.09659,-76 -40.4536,-20.4765 249.025,-12.2934 356.271,-11.1564"/>
<polygon fill="midnightblue" stroke="midnightblue" points="544.145,-179.948 554.21,-176.641 544.279,-172.949 544.145,-179.948"/>
</g>
<!-- Node19 -->
<g id="node19" class="node"><title>Node19</title>
<g id="a_node19"><a xlink:href="_i_graphics_path_base_8h_source.html" target="_top" xlink:title="IGraphicsPathBase.h">
<polygon fill="white" stroke="black" points="1201.1,-112.5 1201.1,-131.5 1311.1,-131.5 1311.1,-112.5 1201.1,-112.5"/>
<text text-anchor="middle" x="1256.1" y="-119.5" font-family="Helvetica,sans-Serif" font-size="10.00">IGraphicsPathBase.h</text>
</a>
</g>
</g>
<!-- Node2&#45;&gt;Node19 -->
<g id="edge21" class="edge"><title>Node2&#45;&gt;Node19</title>
<path fill="none" stroke="midnightblue" d="M631.738,-173.472C749.125,-163.983 1071.47,-137.925 1201.07,-127.448"/>
<polygon fill="midnightblue" stroke="midnightblue" points="631.366,-169.991 621.681,-174.285 631.93,-176.968 631.366,-169.991"/>
</g>
<!-- Node5 -->
<g id="node5" class="node"><title>Node5</title>
<g id="a_node5"><a xlink:href="_i_graphics_lice_8cpp_source.html" target="_top" xlink:title="IGraphicsLice.cpp">
<polygon fill="white" stroke="black" points="1548.6,-56.5 1548.6,-75.5 1643.6,-75.5 1643.6,-56.5 1548.6,-56.5"/>
<text text-anchor="middle" x="1596.1" y="-63.5" font-family="Helvetica,sans-Serif" font-size="10.00">IGraphicsLice.cpp</text>
</a>
</g>
</g>
<!-- Node4&#45;&gt;Node5 -->
<g id="edge4" class="edge"><title>Node4&#45;&gt;Node5</title>
<path fill="none" stroke="midnightblue" d="M1511.35,-107.862C1532.11,-97.8492 1560.12,-84.3458 1578.15,-75.6545"/>
<polygon fill="midnightblue" stroke="midnightblue" points="1509.58,-104.828 1502.09,-112.324 1512.62,-111.134 1509.58,-104.828"/>
</g>
<!-- Node6&#45;&gt;Node3 -->
<g id="edge6" class="edge"><title>Node6&#45;&gt;Node3</title>
<path fill="none" stroke="midnightblue" d="M548.391,-116.994C472.657,-109.317 302.339,-91.8834 159.097,-76 156.154,-75.6737 153.148,-75.337 150.112,-74.9941"/>
<polygon fill="midnightblue" stroke="midnightblue" points="548.136,-120.486 558.438,-118.011 548.841,-113.521 548.136,-120.486"/>
</g>
<!-- Node7 -->
<g id="node7" class="node"><title>Node7</title>
<g id="a_node7"><a xlink:href="_i_controls_8h.html" target="_top" xlink:title="A collection of IControls for common UI widgets, such as knobs, sliders, switches. ">
<polygon fill="white" stroke="black" points="440.597,-56.5 440.597,-75.5 505.597,-75.5 505.597,-56.5 440.597,-56.5"/>
<text text-anchor="middle" x="473.097" y="-63.5" font-family="Helvetica,sans-Serif" font-size="10.00">IControls.h</text>
</a>
</g>
</g>
<!-- Node6&#45;&gt;Node7 -->
<g id="edge7" class="edge"><title>Node6&#45;&gt;Node7</title>
<path fill="none" stroke="midnightblue" d="M560.616,-108.096C539.131,-98.0073 509.875,-84.2697 491.233,-75.5164"/>
<polygon fill="midnightblue" stroke="midnightblue" points="559.335,-111.361 569.874,-112.444 562.31,-105.025 559.335,-111.361"/>
</g>
<!-- Node6&#45;&gt;Node9 -->
<g id="edge15" class="edge"><title>Node6&#45;&gt;Node9</title>
<path fill="none" stroke="midnightblue" d="M548.283,-118.061C514.009,-113.702 464.878,-102.878 431.097,-76 412.321,-61.0612 401.824,-33.5173 397.488,-19.5712"/>
<polygon fill="midnightblue" stroke="midnightblue" points="548.077,-121.56 558.41,-119.217 548.871,-114.606 548.077,-121.56"/>
</g>
<!-- Node10 -->
<g id="node10" class="node"><title>Node10</title>
<g id="a_node10"><a xlink:href="_i_v_drop_down_list_control_8h_source.html" target="_top" xlink:title="IVDropDownListControl.h">
<polygon fill="white" stroke="black" points="524.097,-56.5 524.097,-75.5 652.097,-75.5 652.097,-56.5 524.097,-56.5"/>
<text text-anchor="middle" x="588.097" y="-63.5" font-family="Helvetica,sans-Serif" font-size="10.00">IVDropDownListControl.h</text>
</a>
</g>
</g>
<!-- Node6&#45;&gt;Node10 -->
<g id="edge10" class="edge"><title>Node6&#45;&gt;Node10</title>
<path fill="none" stroke="midnightblue" d="M588.097,-101.805C588.097,-92.9102 588.097,-82.7798 588.097,-75.7511"/>
<polygon fill="midnightblue" stroke="midnightblue" points="584.597,-102.083 588.097,-112.083 591.597,-102.083 584.597,-102.083"/>
</g>
<!-- Node11 -->
<g id="node11" class="node"><title>Node11</title>
<g id="a_node11"><a xlink:href="_i_v_keyboard_control_8h_source.html" target="_top" xlink:title="IVKeyboardControl.h">
<polygon fill="white" stroke="black" points="670.597,-56.5 670.597,-75.5 777.597,-75.5 777.597,-56.5 670.597,-56.5"/>
<text text-anchor="middle" x="724.097" y="-63.5" font-family="Helvetica,sans-Serif" font-size="10.00">IVKeyboardControl.h</text>
</a>
</g>
</g>
<!-- Node6&#45;&gt;Node11 -->
<g id="edge11" class="edge"><title>Node6&#45;&gt;Node11</title>
<path fill="none" stroke="midnightblue" d="M619.231,-108.638C644.753,-98.504 680.205,-84.4274 702.648,-75.5164"/>
<polygon fill="midnightblue" stroke="midnightblue" points="617.649,-105.5 609.646,-112.444 620.232,-112.006 617.649,-105.5"/>
</g>
<!-- Node12 -->
<g id="node12" class="node"><title>Node12</title>
<g id="a_node12"><a xlink:href="_i_v_meter_control_8h_source.html" target="_top" xlink:title="IVMeterControl.h">
<polygon fill="white" stroke="black" points="795.597,-56.5 795.597,-75.5 886.597,-75.5 886.597,-56.5 795.597,-56.5"/>
<text text-anchor="middle" x="841.097" y="-63.5" font-family="Helvetica,sans-Serif" font-size="10.00">IVMeterControl.h</text>
</a>
</g>
</g>
<!-- Node6&#45;&gt;Node12 -->
<g id="edge12" class="edge"><title>Node6&#45;&gt;Node12</title>
<path fill="none" stroke="midnightblue" d="M627.475,-112.595C674.694,-102.517 753.406,-85.7165 800.96,-75.5667"/>
<polygon fill="midnightblue" stroke="midnightblue" points="626.663,-109.189 617.614,-114.7 628.124,-116.035 626.663,-109.189"/>
</g>
<!-- Node13 -->
<g id="node13" class="node"><title>Node13</title>
<g id="a_node13"><a xlink:href="_i_v_scope_control_8h_source.html" target="_top" xlink:title="IVScopeControl.h">
<polygon fill="white" stroke="black" points="905.097,-56.5 905.097,-75.5 999.097,-75.5 999.097,-56.5 905.097,-56.5"/>
<text text-anchor="middle" x="952.097" y="-63.5" font-family="Helvetica,sans-Serif" font-size="10.00">IVScopeControl.h</text>
</a>
</g>
</g>
<!-- Node6&#45;&gt;Node13 -->
<g id="edge13" class="edge"><title>Node6&#45;&gt;Node13</title>
<path fill="none" stroke="midnightblue" d="M627.681,-115.34C686.177,-106.945 799.142,-90.6075 895.097,-76 898.266,-75.5175 901.534,-75.015 904.825,-74.5051"/>
<polygon fill="midnightblue" stroke="midnightblue" points="627.151,-111.881 617.749,-116.765 628.145,-118.81 627.151,-111.881"/>
</g>
<!-- Node14 -->
<g id="node14" class="node"><title>Node14</title>
<g id="a_node14"><a xlink:href="_i_control_8cpp_source.html" target="_top" xlink:title="IControl.cpp">
<polygon fill="white" stroke="black" points="1017.1,-56.5 1017.1,-75.5 1087.1,-75.5 1087.1,-56.5 1017.1,-56.5"/>
<text text-anchor="middle" x="1052.1" y="-63.5" font-family="Helvetica,sans-Serif" font-size="10.00">IControl.cpp</text>
</a>
</g>
</g>
<!-- Node6&#45;&gt;Node14 -->
<g id="edge14" class="edge"><title>Node6&#45;&gt;Node14</title>
<path fill="none" stroke="midnightblue" d="M628.128,-117.986C703.014,-112.065 869.273,-97.5849 1008.1,-76 1011.02,-75.5448 1014.05,-75.0264 1017.09,-74.4737"/>
<polygon fill="midnightblue" stroke="midnightblue" points="627.453,-114.528 617.757,-118.797 627.999,-121.507 627.453,-114.528"/>
</g>
<!-- Node15 -->
<g id="node15" class="node"><title>Node15</title>
<g id="a_node15"><a xlink:href="_i_graphics_live_edit_8h_source.html" target="_top" xlink:title="IGraphicsLiveEdit.h">
<polygon fill="white" stroke="black" points="168.097,-56.5 168.097,-75.5 270.097,-75.5 270.097,-56.5 168.097,-56.5"/>
<text text-anchor="middle" x="219.097" y="-63.5" font-family="Helvetica,sans-Serif" font-size="10.00">IGraphicsLiveEdit.h</text>
</a>
</g>
</g>
<!-- Node6&#45;&gt;Node15 -->
<g id="edge16" class="edge"><title>Node6&#45;&gt;Node15</title>
<path fill="none" stroke="midnightblue" d="M548.267,-115.255C489.407,-106.753 375.726,-90.2833 279.097,-76 276.179,-75.5687 273.182,-75.1241 270.157,-74.6743"/>
<polygon fill="midnightblue" stroke="midnightblue" points="547.864,-118.733 558.261,-116.698 548.864,-111.805 547.864,-118.733"/>
</g>
<!-- Node16 -->
<g id="node16" class="node"><title>Node16</title>
<g id="a_node16"><a xlink:href="_i_graphics_web_8h_source.html" target="_top" xlink:title="IGraphicsWeb.h">
<polygon fill="white" stroke="black" points="1105.6,-56.5 1105.6,-75.5 1192.6,-75.5 1192.6,-56.5 1105.6,-56.5"/>
<text text-anchor="middle" x="1149.1" y="-63.5" font-family="Helvetica,sans-Serif" font-size="10.00">IGraphicsWeb.h</text>
</a>
</g>
</g>
<!-- Node6&#45;&gt;Node16 -->
<g id="edge17" class="edge"><title>Node6&#45;&gt;Node16</title>
<path fill="none" stroke="midnightblue" d="M627.745,-118.57C713.441,-113.08 922.235,-98.426 1096.1,-76 1099.15,-75.606 1102.3,-75.164 1105.47,-74.693"/>
<polygon fill="midnightblue" stroke="midnightblue" points="627.434,-115.083 617.676,-119.209 627.878,-122.068 627.434,-115.083"/>
</g>
<!-- Node18 -->
<g id="node18" class="node"><title>Node18</title>
<g id="a_node18"><a xlink:href="_i_graphics_win_8cpp_source.html" target="_top" xlink:title="IGraphicsWin.cpp">
<polygon fill="white" stroke="black" points="288.597,-56.5 288.597,-75.5 383.597,-75.5 383.597,-56.5 288.597,-56.5"/>
<text text-anchor="middle" x="336.097" y="-63.5" font-family="Helvetica,sans-Serif" font-size="10.00">IGraphicsWin.cpp</text>
</a>
</g>
</g>
<!-- Node6&#45;&gt;Node18 -->
<g id="edge19" class="edge"><title>Node6&#45;&gt;Node18</title>
<path fill="none" stroke="midnightblue" d="M548.345,-112.482C501.196,-102.379 423.067,-85.6364 375.896,-75.5285"/>
<polygon fill="midnightblue" stroke="midnightblue" points="547.688,-115.92 558.199,-114.593 549.155,-109.076 547.688,-115.92"/>
</g>
<!-- Node8 -->
<g id="node8" class="node"><title>Node8</title>
<g id="a_node8"><a xlink:href="_i_controls_8cpp_source.html" target="_top" xlink:title="IControls.cpp">
<polygon fill="white" stroke="black" points="451.597,-0.5 451.597,-19.5 526.597,-19.5 526.597,-0.5 451.597,-0.5"/>
<text text-anchor="middle" x="489.097" y="-7.5" font-family="Helvetica,sans-Serif" font-size="10.00">IControls.cpp</text>
</a>
</g>
</g>
<!-- Node7&#45;&gt;Node8 -->
<g id="edge8" class="edge"><title>Node7&#45;&gt;Node8</title>
<path fill="none" stroke="midnightblue" d="M478.609,-46.3956C481.286,-37.362 484.375,-26.936 486.504,-19.7511"/>
<polygon fill="midnightblue" stroke="midnightblue" points="475.224,-45.5007 475.739,-56.083 481.935,-47.4893 475.224,-45.5007"/>
</g>
<!-- Node7&#45;&gt;Node9 -->
<g id="edge9" class="edge"><title>Node7&#45;&gt;Node9</title>
<path fill="none" stroke="midnightblue" d="M452.329,-50.6221C438.079,-40.7574 419.64,-27.9919 407.598,-19.6545"/>
<polygon fill="midnightblue" stroke="midnightblue" points="450.35,-53.5095 460.565,-56.324 454.335,-47.7541 450.35,-53.5095"/>
</g>
<!-- Node17 -->
<g id="node17" class="node"><title>Node17</title>
<g id="a_node17"><a xlink:href="_i_graphics_web_8cpp_source.html" target="_top" xlink:title="IGraphicsWeb.cpp">
<polygon fill="white" stroke="black" points="1078.1,-0.5 1078.1,-19.5 1176.1,-19.5 1176.1,-0.5 1078.1,-0.5"/>
<text text-anchor="middle" x="1127.1" y="-7.5" font-family="Helvetica,sans-Serif" font-size="10.00">IGraphicsWeb.cpp</text>
</a>
</g>
</g>
<!-- Node16&#45;&gt;Node17 -->
<g id="edge18" class="edge"><title>Node16&#45;&gt;Node17</title>
<path fill="none" stroke="midnightblue" d="M1141.64,-46.6897C1137.93,-37.589 1133.62,-27.0141 1130.66,-19.7511"/>
<polygon fill="midnightblue" stroke="midnightblue" points="1138.45,-48.1426 1145.46,-56.083 1144.93,-45.5015 1138.45,-48.1426"/>
</g>
<!-- Node19&#45;&gt;Node16 -->
<g id="edge29" class="edge"><title>Node19&#45;&gt;Node16</title>
<path fill="none" stroke="midnightblue" d="M1229.79,-107.726C1209.98,-97.7271 1183.39,-84.3065 1166.25,-75.6545"/>
<polygon fill="midnightblue" stroke="midnightblue" points="1228.4,-110.943 1238.91,-112.324 1231.55,-104.694 1228.4,-110.943"/>
</g>
<!-- Node20 -->
<g id="node20" class="node"><title>Node20</title>
<g id="a_node20"><a xlink:href="_i_graphics_a_g_g_8h_source.html" target="_top" xlink:title="IGraphicsAGG.h">
<polygon fill="white" stroke="black" points="1441.6,-56.5 1441.6,-75.5 1530.6,-75.5 1530.6,-56.5 1441.6,-56.5"/>
<text text-anchor="middle" x="1486.1" y="-63.5" font-family="Helvetica,sans-Serif" font-size="10.00">IGraphicsAGG.h</text>
</a>
</g>
</g>
<!-- Node19&#45;&gt;Node20 -->
<g id="edge22" class="edge"><title>Node19&#45;&gt;Node20</title>
<path fill="none" stroke="midnightblue" d="M1302.3,-110.153C1345.75,-99.95 1409.94,-84.8809 1449.82,-75.5164"/>
<polygon fill="midnightblue" stroke="midnightblue" points="1301.48,-106.75 1292.54,-112.444 1303.08,-113.565 1301.48,-106.75"/>
</g>
<!-- Node22 -->
<g id="node22" class="node"><title>Node22</title>
<g id="a_node22"><a xlink:href="_i_graphics_cairo_8h_source.html" target="_top" xlink:title="IGraphicsCairo.h">
<polygon fill="white" stroke="black" points="1211.1,-56.5 1211.1,-75.5 1301.1,-75.5 1301.1,-56.5 1211.1,-56.5"/>
<text text-anchor="middle" x="1256.1" y="-63.5" font-family="Helvetica,sans-Serif" font-size="10.00">IGraphicsCairo.h</text>
</a>
</g>
</g>
<!-- Node19&#45;&gt;Node22 -->
<g id="edge24" class="edge"><title>Node19&#45;&gt;Node22</title>
<path fill="none" stroke="midnightblue" d="M1256.1,-101.805C1256.1,-92.9102 1256.1,-82.7798 1256.1,-75.7511"/>
<polygon fill="midnightblue" stroke="midnightblue" points="1252.6,-102.083 1256.1,-112.083 1259.6,-102.083 1252.6,-102.083"/>
</g>
<!-- Node24 -->
<g id="node24" class="node"><title>Node24</title>
<g id="a_node24"><a xlink:href="_i_graphics_nano_v_g_8h_source.html" target="_top" xlink:title="IGraphicsNanoVG.h">
<polygon fill="white" stroke="black" points="1319.1,-56.5 1319.1,-75.5 1423.1,-75.5 1423.1,-56.5 1319.1,-56.5"/>
<text text-anchor="middle" x="1371.1" y="-63.5" font-family="Helvetica,sans-Serif" font-size="10.00">IGraphicsNanoVG.h</text>
</a>
</g>
</g>
<!-- Node19&#45;&gt;Node24 -->
<g id="edge26" class="edge"><title>Node19&#45;&gt;Node24</title>
<path fill="none" stroke="midnightblue" d="M1283.58,-108.096C1305.06,-98.0073 1334.32,-84.2697 1352.96,-75.5164"/>
<polygon fill="midnightblue" stroke="midnightblue" points="1281.88,-105.025 1274.32,-112.444 1284.86,-111.361 1281.88,-105.025"/>
</g>
<!-- Node21 -->
<g id="node21" class="node"><title>Node21</title>
<g id="a_node21"><a xlink:href="_i_graphics_a_g_g_8cpp_source.html" target="_top" xlink:title="IGraphicsAGG.cpp">
<polygon fill="white" stroke="black" points="1548.6,-0.5 1548.6,-19.5 1647.6,-19.5 1647.6,-0.5 1548.6,-0.5"/>
<text text-anchor="middle" x="1598.1" y="-7.5" font-family="Helvetica,sans-Serif" font-size="10.00">IGraphicsAGG.cpp</text>
</a>
</g>
</g>
<!-- Node20&#45;&gt;Node21 -->
<g id="edge23" class="edge"><title>Node20&#45;&gt;Node21</title>
<path fill="none" stroke="midnightblue" d="M1513.35,-51.8622C1534.11,-41.8492 1562.12,-28.3458 1580.15,-19.6545"/>
<polygon fill="midnightblue" stroke="midnightblue" points="1511.58,-48.8282 1504.09,-56.324 1514.62,-55.1336 1511.58,-48.8282"/>
</g>
<!-- Node23 -->
<g id="node23" class="node"><title>Node23</title>
<g id="a_node23"><a xlink:href="_i_graphics_cairo_8cpp_source.html" target="_top" xlink:title="IGraphicsCairo.cpp">
<polygon fill="white" stroke="black" points="1194.6,-0.5 1194.6,-19.5 1295.6,-19.5 1295.6,-0.5 1194.6,-0.5"/>
<text text-anchor="middle" x="1245.1" y="-7.5" font-family="Helvetica,sans-Serif" font-size="10.00">IGraphicsCairo.cpp</text>
</a>
</g>
</g>
<!-- Node22&#45;&gt;Node23 -->
<g id="edge25" class="edge"><title>Node22&#45;&gt;Node23</title>
<path fill="none" stroke="midnightblue" d="M1252.25,-46.1005C1250.42,-37.1357 1248.33,-26.8579 1246.88,-19.7511"/>
<polygon fill="midnightblue" stroke="midnightblue" points="1248.85,-46.9829 1254.28,-56.083 1255.71,-45.5856 1248.85,-46.9829"/>
</g>
<!-- Node25 -->
<g id="node25" class="node"><title>Node25</title>
<g id="a_node25"><a xlink:href="_i_graphics_nano_v_g_8cpp_source.html" target="_top" xlink:title="IGraphicsNanoVG.cpp">
<polygon fill="white" stroke="black" points="1313.6,-0.5 1313.6,-19.5 1428.6,-19.5 1428.6,-0.5 1313.6,-0.5"/>
<text text-anchor="middle" x="1371.1" y="-7.5" font-family="Helvetica,sans-Serif" font-size="10.00">IGraphicsNanoVG.cpp</text>
</a>
</g>
</g>
<!-- Node24&#45;&gt;Node25 -->
<g id="edge27" class="edge"><title>Node24&#45;&gt;Node25</title>
<path fill="none" stroke="midnightblue" d="M1371.1,-45.8045C1371.1,-36.9102 1371.1,-26.7798 1371.1,-19.7511"/>
<polygon fill="midnightblue" stroke="midnightblue" points="1367.6,-46.083 1371.1,-56.083 1374.6,-46.083 1367.6,-46.083"/>
</g>
<!-- Node26 -->
<g id="node26" class="node"><title>Node26</title>
<g id="a_node26"><a xlink:href="_i_graphics_i_o_s_8h_source.html" target="_top" xlink:title="IGraphicsIOS.h">
<polygon fill="white" stroke="black" points="1446.1,-0.5 1446.1,-19.5 1530.1,-19.5 1530.1,-0.5 1446.1,-0.5"/>
<text text-anchor="middle" x="1488.1" y="-7.5" font-family="Helvetica,sans-Serif" font-size="10.00">IGraphicsIOS.h</text>
</a>
</g>
</g>
<!-- Node24&#45;&gt;Node26 -->
<g id="edge28" class="edge"><title>Node24&#45;&gt;Node26</title>
<path fill="none" stroke="midnightblue" d="M1398.76,-52.2321C1420.65,-42.1312 1450.59,-28.3091 1469.64,-19.5164"/>
<polygon fill="midnightblue" stroke="midnightblue" points="1397.25,-49.075 1389.64,-56.4435 1400.18,-55.4308 1397.25,-49.075"/>
</g>
</g>
</svg>
        <g id="navigator" transform="translate(0 0)" fill="#404254">
                <rect fill="#f2f5e9" fill-opacity="0.5" stroke="#606060" stroke-width=".5" x="0" y="0" width="60" height="60"/>
                <use id="zoomplus" xlink:href="#zoomPlus" x="17" y="9" onmousedown="handleZoom(evt,'in')"/>
                <use id="zoomminus" xlink:href="#zoomMin" x="42" y="9" onmousedown="handleZoom(evt,'out')"/>
                <use id="reset" xlink:href="#resetDef" x="30" y="36" onmousedown="handleReset()"/>
                <g id="arrowUp" xlink:href="#dirArrow" transform="translate(30 24)" onmousedown="handlePan(0,-1)">
                  <use xlink:href="#rim" fill="#404040">
                        <set attributeName="fill" to="#808080" begin="arrowUp.mouseover" end="arrowUp.mouseout"/>
                  </use>
                  <path fill="none" stroke="white" stroke-width="1.5" d="M0,-3.0v7 M-2.5,-0.5L0,-3.0L2.5,-0.5"/>
                </g>
                <g id="arrowRight" xlink:href="#dirArrow" transform="rotate(90) translate(36 -43)" onmousedown="handlePan(1,0)">
                  <use xlink:href="#rim" fill="#404040">
                        <set attributeName="fill" to="#808080" begin="arrowRight.mouseover" end="arrowRight.mouseout"/>
                  </use>
                  <path fill="none" stroke="white" stroke-width="1.5" d="M0,-3.0v7 M-2.5,-0.5L0,-3.0L2.5,-0.5"/>
                </g>
                <g id="arrowDown" xlink:href="#dirArrow" transform="rotate(180) translate(-30 -48)" onmousedown="handlePan(0,1)">
                  <use xlink:href="#rim" fill="#404040">
                        <set attributeName="fill" to="#808080" begin="arrowDown.mouseover" end="arrowDown.mouseout"/>
                  </use>
                  <path fill="none" stroke="white" stroke-width="1.5" d="M0,-3.0v7 M-2.5,-0.5L0,-3.0L2.5,-0.5"/>
                </g>
                <g id="arrowLeft" xlink:href="#dirArrow" transform="rotate(270) translate(-36 17)" onmousedown="handlePan(-1,0)">
                  <use xlink:href="#rim" fill="#404040">
                        <set attributeName="fill" to="#808080" begin="arrowLeft.mouseover" end="arrowLeft.mouseout"/>
                  </use>
                  <path fill="none" stroke="white" stroke-width="1.5" d="M0,-3.0v7 M-2.5,-0.5L0,-3.0L2.5,-0.5"/>
                </g>
        </g>
        <svg viewBox="0 0 15 15" width="100%" height="30px" preserveAspectRatio="xMaxYMin meet">
         <g id="arrow_out" transform="scale(0.3 0.3)">
          <a xlink:href="_i_graphics_popup_menu_8h__dep__incl_org.svg" target="_base">
           <rect id="button" ry="5" rx="5" y="6" x="6" height="38" width="38"
                fill="#f2f5e9" fill-opacity="0.5" stroke="#606060" stroke-width="1.0"/>
           <path id="arrow"
             d="M 11.500037,31.436501 C 11.940474,20.09759 22.043105,11.32322 32.158766,21.979434 L 37.068811,17.246167 C 37.068811,17.246167 37.088388,32 37.088388,32 L 22.160133,31.978069 C 22.160133,31.978069 26.997745,27.140456 26.997745,27.140456 C 18.528582,18.264221 13.291696,25.230495 11.500037,31.436501 z"
             style="fill:#404040;"/>
          </a>
         </g>
        </svg>
</svg>
