<?xml version="1.0" encoding="UTF-8" standalone="no"?>
<!DOCTYPE svg PUBLIC "-//W3C//DTD SVG 1.1//EN"
 "http://www.w3.org/Graphics/SVG/1.1/DTD/svg11.dtd">
<!-- Generated by graphviz version 2.36.0 (20140111.2315)
 -->
<!-- Title: IPlugLogger.h Pages: 1 -->
<svg width="2953pt" height="252pt"
 viewBox="0.00 0.00 2953.00 252.00" xmlns="http://www.w3.org/2000/svg" xmlns:xlink="http://www.w3.org/1999/xlink">
<g id="graph0" class="graph" transform="scale(1 1) rotate(0) translate(4 248)">
<title>IPlugLogger.h</title>
<polygon fill="white" stroke="none" points="-4,4 -4,-248 2949,-248 2949,4 -4,4"/>
<!-- Node1 -->
<g id="node1" class="node"><title>Node1</title>
<polygon fill="#bfbfbf" stroke="black" points="554.5,-224.5 554.5,-243.5 631.5,-243.5 631.5,-224.5 554.5,-224.5"/>
<text text-anchor="middle" x="593" y="-231.5" font-family="Helvetica,sans-Serif" font-size="10.00">IPlugLogger.h</text>
</g>
<!-- Node2 -->
<g id="node2" class="node"><title>Node2</title>
<g id="a_node2"><a xlink:href="_i_plug_a_p_p__host_8cpp_source.html" target="_top" xlink:title="IPlugAPP_host.cpp">
<polygon fill="white" stroke="black" points="416,-168.5 416,-187.5 518,-187.5 518,-168.5 416,-168.5"/>
<text text-anchor="middle" x="467" y="-175.5" font-family="Helvetica,sans-Serif" font-size="10.00">IPlugAPP_host.cpp</text>
</a>
</g>
</g>
<!-- Node1&#45;&gt;Node2 -->
<g id="edge1" class="edge"><title>Node1&#45;&gt;Node2</title>
<path fill="none" stroke="midnightblue" d="M563.84,-220.503C540.219,-210.38 507.572,-196.388 486.872,-187.516"/>
<polygon fill="midnightblue" stroke="midnightblue" points="562.465,-223.721 573.035,-224.444 565.222,-217.287 562.465,-223.721"/>
</g>
<!-- Node3 -->
<g id="node3" class="node"><title>Node3</title>
<g id="a_node3"><a xlink:href="_i_plug_plugin_delegate_8h_source.html" target="_top" xlink:title="IPlugPluginDelegate.h">
<polygon fill="white" stroke="black" points="536.5,-168.5 536.5,-187.5 649.5,-187.5 649.5,-168.5 536.5,-168.5"/>
<text text-anchor="middle" x="593" y="-175.5" font-family="Helvetica,sans-Serif" font-size="10.00">IPlugPluginDelegate.h</text>
</a>
</g>
</g>
<!-- Node1&#45;&gt;Node3 -->
<g id="edge2" class="edge"><title>Node1&#45;&gt;Node3</title>
<path fill="none" stroke="midnightblue" d="M593,-213.805C593,-204.91 593,-194.78 593,-187.751"/>
<polygon fill="midnightblue" stroke="midnightblue" points="589.5,-214.083 593,-224.083 596.5,-214.083 589.5,-214.083"/>
</g>
<!-- Node27 -->
<g id="node27" class="node"><title>Node27</title>
<g id="a_node27"><a xlink:href="_i_graphics_8h.html" target="_top" xlink:title="The lowest level base class of an IGraphics context. ">
<polygon fill="white" stroke="black" points="1265.5,-168.5 1265.5,-187.5 1332.5,-187.5 1332.5,-168.5 1265.5,-168.5"/>
<text text-anchor="middle" x="1299" y="-175.5" font-family="Helvetica,sans-Serif" font-size="10.00">IGraphics.h</text>
</a>
</g>
</g>
<!-- Node1&#45;&gt;Node27 -->
<g id="edge27" class="edge"><title>Node1&#45;&gt;Node27</title>
<path fill="none" stroke="midnightblue" d="M641.729,-229.273C776.267,-218.982 1150.49,-190.359 1265.16,-181.588"/>
<polygon fill="midnightblue" stroke="midnightblue" points="641.415,-225.787 631.711,-230.039 641.949,-232.766 641.415,-225.787"/>
</g>
<!-- Node4 -->
<g id="node4" class="node"><title>Node4</title>
<g id="a_node4"><a xlink:href="_i_plug_base_8h.html" target="_top" xlink:title="The base class of an IPlug plug&#45;in, which interacts with the different plug&#45;in APIs. ">
<polygon fill="white" stroke="black" points="558,-112.5 558,-131.5 628,-131.5 628,-112.5 558,-112.5"/>
<text text-anchor="middle" x="593" y="-119.5" font-family="Helvetica,sans-Serif" font-size="10.00">IPlugBase.h</text>
</a>
</g>
</g>
<!-- Node3&#45;&gt;Node4 -->
<g id="edge3" class="edge"><title>Node3&#45;&gt;Node4</title>
<path fill="none" stroke="midnightblue" d="M593,-157.805C593,-148.91 593,-138.78 593,-131.751"/>
<polygon fill="midnightblue" stroke="midnightblue" points="589.5,-158.083 593,-168.083 596.5,-158.083 589.5,-158.083"/>
</g>
<!-- Node14 -->
<g id="node14" class="node"><title>Node14</title>
<g id="a_node14"><a xlink:href="_i_plug_v_s_t2_8cpp_source.html" target="_top" xlink:title="IPlugVST2.cpp">
<polygon fill="white" stroke="black" points="-0.5,-0.5 -0.5,-19.5 82.5,-19.5 82.5,-0.5 -0.5,-0.5"/>
<text text-anchor="middle" x="41" y="-7.5" font-family="Helvetica,sans-Serif" font-size="10.00">IPlugVST2.cpp</text>
</a>
</g>
</g>
<!-- Node3&#45;&gt;Node14 -->
<g id="edge25" class="edge"><title>Node3&#45;&gt;Node14</title>
<path fill="none" stroke="midnightblue" d="M530.783,-166.765C405.635,-145.833 132.192,-98.2353 95,-76 71.5786,-61.9976 53.6852,-34.0294 45.6509,-19.7812"/>
<polygon fill="midnightblue" stroke="midnightblue" points="530.538,-170.272 540.977,-168.466 531.69,-163.367 530.538,-170.272"/>
</g>
<!-- Node25 -->
<g id="node25" class="node"><title>Node25</title>
<g id="a_node25"><a xlink:href="_i_plug_plugin_delegate_8cpp_source.html" target="_top" xlink:title="IPlugPluginDelegate.cpp">
<polygon fill="white" stroke="black" points="416,-112.5 416,-131.5 540,-131.5 540,-112.5 416,-112.5"/>
<text text-anchor="middle" x="478" y="-119.5" font-family="Helvetica,sans-Serif" font-size="10.00">IPlugPluginDelegate.cpp</text>
</a>
</g>
</g>
<!-- Node3&#45;&gt;Node25 -->
<g id="edge24" class="edge"><title>Node3&#45;&gt;Node25</title>
<path fill="none" stroke="midnightblue" d="M565.519,-164.096C544.034,-154.007 514.778,-140.27 496.137,-131.516"/>
<polygon fill="midnightblue" stroke="midnightblue" points="564.238,-167.361 574.778,-168.444 567.214,-161.025 564.238,-167.361"/>
</g>
<!-- Node26 -->
<g id="node26" class="node"><title>Node26</title>
<g id="a_node26"><a xlink:href="_i_graphics_8cpp_source.html" target="_top" xlink:title="IGraphics.cpp">
<polygon fill="white" stroke="black" points="1273.5,-0.5 1273.5,-19.5 1350.5,-19.5 1350.5,-0.5 1273.5,-0.5"/>
<text text-anchor="middle" x="1312" y="-7.5" font-family="Helvetica,sans-Serif" font-size="10.00">IGraphics.cpp</text>
</a>
</g>
</g>
<!-- Node3&#45;&gt;Node26 -->
<g id="edge26" class="edge"><title>Node3&#45;&gt;Node26</title>
<path fill="none" stroke="midnightblue" d="M655.236,-166.766C751.186,-150.496 940.722,-116.407 1099,-76 1127.87,-68.6286 1134.51,-64.7525 1163,-56 1204.85,-43.1431 1253.4,-28.5379 1283.41,-19.5457"/>
<polygon fill="midnightblue" stroke="midnightblue" points="654.404,-163.356 645.126,-168.472 655.569,-170.259 654.404,-163.356"/>
</g>
<!-- Node5 -->
<g id="node5" class="node"><title>Node5</title>
<g id="a_node5"><a xlink:href="_i_plug_a_a_x_8h.html" target="_top" xlink:title="AAX API base class for an IPlug plug&#45;in, inherits from IPlugBase. ">
<polygon fill="white" stroke="black" points="390,-56.5 390,-75.5 458,-75.5 458,-56.5 390,-56.5"/>
<text text-anchor="middle" x="424" y="-63.5" font-family="Helvetica,sans-Serif" font-size="10.00">IPlugAAX.h</text>
</a>
</g>
</g>
<!-- Node4&#45;&gt;Node5 -->
<g id="edge4" class="edge"><title>Node4&#45;&gt;Node5</title>
<path fill="none" stroke="midnightblue" d="M556.397,-109.304C524.553,-99.1294 479.158,-84.6246 450.653,-75.5164"/>
<polygon fill="midnightblue" stroke="midnightblue" points="555.631,-112.734 566.221,-112.444 557.761,-106.066 555.631,-112.734"/>
</g>
<!-- Node7 -->
<g id="node7" class="node"><title>Node7</title>
<g id="a_node7"><a xlink:href="_i_plug_a_p_p_8h.html" target="_top" xlink:title="Standalone application base class for an IPlug plug&#45;in, inherits from IPlugBase. ">
<polygon fill="white" stroke="black" points="476,-56.5 476,-75.5 544,-75.5 544,-56.5 476,-56.5"/>
<text text-anchor="middle" x="510" y="-63.5" font-family="Helvetica,sans-Serif" font-size="10.00">IPlugAPP.h</text>
</a>
</g>
</g>
<!-- Node4&#45;&gt;Node7 -->
<g id="edge6" class="edge"><title>Node4&#45;&gt;Node7</title>
<path fill="none" stroke="midnightblue" d="M570.901,-106.622C555.738,-96.7574 536.117,-83.9919 523.302,-75.6545"/>
<polygon fill="midnightblue" stroke="midnightblue" points="569.374,-109.804 579.665,-112.324 573.191,-103.937 569.374,-109.804"/>
</g>
<!-- Node9 -->
<g id="node9" class="node"><title>Node9</title>
<g id="a_node9"><a xlink:href="_i_plug_a_u_8h.html" target="_top" xlink:title="AudioUnit v2 API base class for an IPlug plug&#45;in, inherits from IPlugBase. ">
<polygon fill="white" stroke="black" points="562,-56.5 562,-75.5 624,-75.5 624,-56.5 562,-56.5"/>
<text text-anchor="middle" x="593" y="-63.5" font-family="Helvetica,sans-Serif" font-size="10.00">IPlugAU.h</text>
</a>
</g>
</g>
<!-- Node4&#45;&gt;Node9 -->
<g id="edge8" class="edge"><title>Node4&#45;&gt;Node9</title>
<path fill="none" stroke="midnightblue" d="M593,-101.805C593,-92.9102 593,-82.7798 593,-75.7511"/>
<polygon fill="midnightblue" stroke="midnightblue" points="589.5,-102.083 593,-112.083 596.5,-102.083 589.5,-102.083"/>
</g>
<!-- Node11 -->
<g id="node11" class="node"><title>Node11</title>
<g id="a_node11"><a xlink:href="_i_plug_base_8cpp_source.html" target="_top" xlink:title="IPlugBase.cpp">
<polygon fill="white" stroke="black" points="642,-56.5 642,-75.5 722,-75.5 722,-56.5 642,-56.5"/>
<text text-anchor="middle" x="682" y="-63.5" font-family="Helvetica,sans-Serif" font-size="10.00">IPlugBase.cpp</text>
</a>
</g>
</g>
<!-- Node4&#45;&gt;Node11 -->
<g id="edge10" class="edge"><title>Node4&#45;&gt;Node11</title>
<path fill="none" stroke="midnightblue" d="M616.238,-106.901C632.558,-96.9986 653.865,-84.0705 667.736,-75.6545"/>
<polygon fill="midnightblue" stroke="midnightblue" points="614.033,-104.144 607.299,-112.324 617.664,-110.129 614.033,-104.144"/>
</g>
<!-- Node12 -->
<g id="node12" class="node"><title>Node12</title>
<g id="a_node12"><a xlink:href="_i_plug_v_s_t2_8h.html" target="_top" xlink:title="IPlugVST2.h">
<polygon fill="white" stroke="black" points="104,-56.5 104,-75.5 176,-75.5 176,-56.5 104,-56.5"/>
<text text-anchor="middle" x="140" y="-63.5" font-family="Helvetica,sans-Serif" font-size="10.00">IPlugVST2.h</text>
</a>
</g>
</g>
<!-- Node4&#45;&gt;Node12 -->
<g id="edge11" class="edge"><title>Node4&#45;&gt;Node12</title>
<path fill="none" stroke="midnightblue" d="M547.755,-112.115C392.124,-88.9624 350.505,-95.3578 199,-76 191.6,-75.0545 183.695,-73.9289 176.155,-72.7993"/>
<polygon fill="midnightblue" stroke="midnightblue" points="547.273,-115.581 557.682,-113.608 548.314,-108.659 547.273,-115.581"/>
</g>
<!-- Node15 -->
<g id="node15" class="node"><title>Node15</title>
<g id="a_node15"><a xlink:href="_i_plug_v_s_t3_8h.html" target="_top" xlink:title="VST3 base class for an IPlug plug&#45;in, inherits from IPlugBase. ">
<polygon fill="white" stroke="black" points="740,-56.5 740,-75.5 812,-75.5 812,-56.5 740,-56.5"/>
<text text-anchor="middle" x="776" y="-63.5" font-family="Helvetica,sans-Serif" font-size="10.00">IPlugVST3.h</text>
</a>
</g>
</g>
<!-- Node4&#45;&gt;Node15 -->
<g id="edge14" class="edge"><title>Node4&#45;&gt;Node15</title>
<path fill="none" stroke="midnightblue" d="M631.743,-109.568C666.265,-99.381 716.005,-84.7034 747.139,-75.5164"/>
<polygon fill="midnightblue" stroke="midnightblue" points="630.597,-106.256 621.997,-112.444 632.579,-112.97 630.597,-106.256"/>
</g>
<!-- Node17 -->
<g id="node17" class="node"><title>Node17</title>
<g id="a_node17"><a xlink:href="_i_plug_v_s_t3___controller_8h_source.html" target="_top" xlink:title="IPlugVST3_Controller.h">
<polygon fill="white" stroke="black" points="830.5,-56.5 830.5,-75.5 949.5,-75.5 949.5,-56.5 830.5,-56.5"/>
<text text-anchor="middle" x="890" y="-63.5" font-family="Helvetica,sans-Serif" font-size="10.00">IPlugVST3_Controller.h</text>
</a>
</g>
</g>
<!-- Node4&#45;&gt;Node17 -->
<g id="edge16" class="edge"><title>Node4&#45;&gt;Node17</title>
<path fill="none" stroke="midnightblue" d="M638.114,-112.797C693.484,-102.73 786.917,-85.7424 843.093,-75.5285"/>
<polygon fill="midnightblue" stroke="midnightblue" points="637.449,-109.361 628.236,-114.593 638.701,-116.248 637.449,-109.361"/>
</g>
<!-- Node19 -->
<g id="node19" class="node"><title>Node19</title>
<g id="a_node19"><a xlink:href="_i_plug_v_s_t3___processor_8h_source.html" target="_top" xlink:title="IPlugVST3_Processor.h">
<polygon fill="white" stroke="black" points="968,-56.5 968,-75.5 1090,-75.5 1090,-56.5 968,-56.5"/>
<text text-anchor="middle" x="1029" y="-63.5" font-family="Helvetica,sans-Serif" font-size="10.00">IPlugVST3_Processor.h</text>
</a>
</g>
</g>
<!-- Node4&#45;&gt;Node19 -->
<g id="edge18" class="edge"><title>Node4&#45;&gt;Node19</title>
<path fill="none" stroke="midnightblue" d="M638.331,-115.462C707.343,-107.019 842.901,-90.3901 958,-76 961.206,-75.5992 964.492,-75.187 967.811,-74.7699"/>
<polygon fill="midnightblue" stroke="midnightblue" points="637.741,-112.008 628.24,-116.696 638.591,-118.956 637.741,-112.008"/>
</g>
<!-- Node21 -->
<g id="node21" class="node"><title>Node21</title>
<g id="a_node21"><a xlink:href="_i_plug_w_a_m_8h_source.html" target="_top" xlink:title="IPlugWAM.h">
<polygon fill="white" stroke="black" points="208,-56.5 208,-75.5 280,-75.5 280,-56.5 208,-56.5"/>
<text text-anchor="middle" x="244" y="-63.5" font-family="Helvetica,sans-Serif" font-size="10.00">IPlugWAM.h</text>
</a>
</g>
</g>
<!-- Node4&#45;&gt;Node21 -->
<g id="edge20" class="edge"><title>Node4&#45;&gt;Node21</title>
<path fill="none" stroke="midnightblue" d="M547.548,-112.015C434.345,-92.8977 403.986,-93.3654 295,-76 290.205,-75.236 285.164,-74.3939 280.194,-73.5406"/>
<polygon fill="midnightblue" stroke="midnightblue" points="547.216,-115.509 557.662,-113.738 548.391,-108.608 547.216,-115.509"/>
</g>
<!-- Node23 -->
<g id="node23" class="node"><title>Node23</title>
<g id="a_node23"><a xlink:href="_i_plug_web_8h_source.html" target="_top" xlink:title="IPlugWeb.h">
<polygon fill="white" stroke="black" points="304,-56.5 304,-75.5 372,-75.5 372,-56.5 304,-56.5"/>
<text text-anchor="middle" x="338" y="-63.5" font-family="Helvetica,sans-Serif" font-size="10.00">IPlugWeb.h</text>
</a>
</g>
</g>
<!-- Node4&#45;&gt;Node23 -->
<g id="edge22" class="edge"><title>Node4&#45;&gt;Node23</title>
<path fill="none" stroke="midnightblue" d="M547.859,-111.441C497.541,-100.785 417.308,-83.7946 372.015,-74.2032"/>
<polygon fill="midnightblue" stroke="midnightblue" points="547.303,-114.901 557.811,-113.548 548.753,-108.052 547.303,-114.901"/>
</g>
<!-- Node6 -->
<g id="node6" class="node"><title>Node6</title>
<g id="a_node6"><a xlink:href="_i_plug_a_a_x_8cpp_source.html" target="_top" xlink:title="IPlugAAX.cpp">
<polygon fill="white" stroke="black" points="395,-0.5 395,-19.5 473,-19.5 473,-0.5 395,-0.5"/>
<text text-anchor="middle" x="434" y="-7.5" font-family="Helvetica,sans-Serif" font-size="10.00">IPlugAAX.cpp</text>
</a>
</g>
</g>
<!-- Node5&#45;&gt;Node6 -->
<g id="edge5" class="edge"><title>Node5&#45;&gt;Node6</title>
<path fill="none" stroke="midnightblue" d="M427.5,-46.1005C429.16,-37.1357 431.063,-26.8579 432.379,-19.7511"/>
<polygon fill="midnightblue" stroke="midnightblue" points="424.031,-45.6128 425.651,-56.083 430.914,-46.8875 424.031,-45.6128"/>
</g>
<!-- Node8 -->
<g id="node8" class="node"><title>Node8</title>
<g id="a_node8"><a xlink:href="_i_plug_a_p_p_8cpp_source.html" target="_top" xlink:title="IPlugAPP.cpp">
<polygon fill="white" stroke="black" points="491,-0.5 491,-19.5 569,-19.5 569,-0.5 491,-0.5"/>
<text text-anchor="middle" x="530" y="-7.5" font-family="Helvetica,sans-Serif" font-size="10.00">IPlugAPP.cpp</text>
</a>
</g>
</g>
<!-- Node7&#45;&gt;Node8 -->
<g id="edge7" class="edge"><title>Node7&#45;&gt;Node8</title>
<path fill="none" stroke="midnightblue" d="M516.782,-46.6897C520.152,-37.589 524.069,-27.0141 526.759,-19.7511"/>
<polygon fill="midnightblue" stroke="midnightblue" points="513.494,-45.4899 513.303,-56.083 520.058,-47.9211 513.494,-45.4899"/>
</g>
<!-- Node10 -->
<g id="node10" class="node"><title>Node10</title>
<g id="a_node10"><a xlink:href="_i_plug_a_u_8cpp_source.html" target="_top" xlink:title="IPlugAU.cpp">
<polygon fill="white" stroke="black" points="587,-0.5 587,-19.5 659,-19.5 659,-0.5 587,-0.5"/>
<text text-anchor="middle" x="623" y="-7.5" font-family="Helvetica,sans-Serif" font-size="10.00">IPlugAU.cpp</text>
</a>
</g>
</g>
<!-- Node9&#45;&gt;Node10 -->
<g id="edge9" class="edge"><title>Node9&#45;&gt;Node10</title>
<path fill="none" stroke="midnightblue" d="M602.847,-47.2747C607.975,-38.0454 614.016,-27.1703 618.138,-19.7511"/>
<polygon fill="midnightblue" stroke="midnightblue" points="599.751,-45.6416 597.954,-56.083 605.87,-49.0412 599.751,-45.6416"/>
</g>
<!-- Node13 -->
<g id="node13" class="node"><title>Node13</title>
<g id="a_node13"><a xlink:href="_i_plug_reaper_8h_source.html" target="_top" xlink:title="IPlugReaper.h">
<polygon fill="white" stroke="black" points="100.5,-0.5 100.5,-19.5 179.5,-19.5 179.5,-0.5 100.5,-0.5"/>
<text text-anchor="middle" x="140" y="-7.5" font-family="Helvetica,sans-Serif" font-size="10.00">IPlugReaper.h</text>
</a>
</g>
</g>
<!-- Node12&#45;&gt;Node13 -->
<g id="edge12" class="edge"><title>Node12&#45;&gt;Node13</title>
<path fill="none" stroke="midnightblue" d="M140,-45.8045C140,-36.9102 140,-26.7798 140,-19.7511"/>
<polygon fill="midnightblue" stroke="midnightblue" points="136.5,-46.083 140,-56.083 143.5,-46.083 136.5,-46.083"/>
</g>
<!-- Node12&#45;&gt;Node14 -->
<g id="edge13" class="edge"><title>Node12&#45;&gt;Node14</title>
<path fill="none" stroke="midnightblue" d="M115.163,-51.4526C96.8864,-41.4835 72.5844,-28.2279 56.8666,-19.6545"/>
<polygon fill="midnightblue" stroke="midnightblue" points="113.639,-54.608 124.094,-56.324 116.991,-48.4628 113.639,-54.608"/>
</g>
<!-- Node16 -->
<g id="node16" class="node"><title>Node16</title>
<g id="a_node16"><a xlink:href="_i_plug_v_s_t3_8cpp_source.html" target="_top" xlink:title="IPlugVST3.cpp">
<polygon fill="white" stroke="black" points="723.5,-0.5 723.5,-19.5 806.5,-19.5 806.5,-0.5 723.5,-0.5"/>
<text text-anchor="middle" x="765" y="-7.5" font-family="Helvetica,sans-Serif" font-size="10.00">IPlugVST3.cpp</text>
</a>
</g>
</g>
<!-- Node15&#45;&gt;Node16 -->
<g id="edge15" class="edge"><title>Node15&#45;&gt;Node16</title>
<path fill="none" stroke="midnightblue" d="M772.15,-46.1005C770.324,-37.1357 768.23,-26.8579 766.783,-19.7511"/>
<polygon fill="midnightblue" stroke="midnightblue" points="768.758,-46.9829 774.184,-56.083 775.617,-45.5856 768.758,-46.9829"/>
</g>
<!-- Node18 -->
<g id="node18" class="node"><title>Node18</title>
<g id="a_node18"><a xlink:href="_i_plug_v_s_t3___controller_8cpp_source.html" target="_top" xlink:title="IPlugVST3_Controller.cpp">
<polygon fill="white" stroke="black" points="825,-0.5 825,-19.5 955,-19.5 955,-0.5 825,-0.5"/>
<text text-anchor="middle" x="890" y="-7.5" font-family="Helvetica,sans-Serif" font-size="10.00">IPlugVST3_Controller.cpp</text>
</a>
</g>
</g>
<!-- Node17&#45;&gt;Node18 -->
<g id="edge17" class="edge"><title>Node17&#45;&gt;Node18</title>
<path fill="none" stroke="midnightblue" d="M890,-45.8045C890,-36.9102 890,-26.7798 890,-19.7511"/>
<polygon fill="midnightblue" stroke="midnightblue" points="886.5,-46.083 890,-56.083 893.5,-46.083 886.5,-46.083"/>
</g>
<!-- Node20 -->
<g id="node20" class="node"><title>Node20</title>
<g id="a_node20"><a xlink:href="_i_plug_v_s_t3___processor_8cpp_source.html" target="_top" xlink:title="IPlugVST3_Processor.cpp">
<polygon fill="white" stroke="black" points="973,-0.5 973,-19.5 1105,-19.5 1105,-0.5 973,-0.5"/>
<text text-anchor="middle" x="1039" y="-7.5" font-family="Helvetica,sans-Serif" font-size="10.00">IPlugVST3_Processor.cpp</text>
</a>
</g>
</g>
<!-- Node19&#45;&gt;Node20 -->
<g id="edge19" class="edge"><title>Node19&#45;&gt;Node20</title>
<path fill="none" stroke="midnightblue" d="M1032.5,-46.1005C1034.16,-37.1357 1036.06,-26.8579 1037.38,-19.7511"/>
<polygon fill="midnightblue" stroke="midnightblue" points="1029.03,-45.6128 1030.65,-56.083 1035.91,-46.8875 1029.03,-45.6128"/>
</g>
<!-- Node22 -->
<g id="node22" class="node"><title>Node22</title>
<g id="a_node22"><a xlink:href="_i_plug_w_a_m_8cpp_source.html" target="_top" xlink:title="IPlugWAM.cpp">
<polygon fill="white" stroke="black" points="197.5,-0.5 197.5,-19.5 280.5,-19.5 280.5,-0.5 197.5,-0.5"/>
<text text-anchor="middle" x="239" y="-7.5" font-family="Helvetica,sans-Serif" font-size="10.00">IPlugWAM.cpp</text>
</a>
</g>
</g>
<!-- Node21&#45;&gt;Node22 -->
<g id="edge21" class="edge"><title>Node21&#45;&gt;Node22</title>
<path fill="none" stroke="midnightblue" d="M242.25,-46.1005C241.42,-37.1357 240.468,-26.8579 239.81,-19.7511"/>
<polygon fill="midnightblue" stroke="midnightblue" points="238.767,-46.4483 243.174,-56.083 245.737,-45.8029 238.767,-46.4483"/>
</g>
<!-- Node24 -->
<g id="node24" class="node"><title>Node24</title>
<g id="a_node24"><a xlink:href="_i_plug_web_8cpp_source.html" target="_top" xlink:title="IPlugWeb.cpp">
<polygon fill="white" stroke="black" points="299,-0.5 299,-19.5 377,-19.5 377,-0.5 299,-0.5"/>
<text text-anchor="middle" x="338" y="-7.5" font-family="Helvetica,sans-Serif" font-size="10.00">IPlugWeb.cpp</text>
</a>
</g>
</g>
<!-- Node23&#45;&gt;Node24 -->
<g id="edge23" class="edge"><title>Node23&#45;&gt;Node24</title>
<path fill="none" stroke="midnightblue" d="M338,-45.8045C338,-36.9102 338,-26.7798 338,-19.7511"/>
<polygon fill="midnightblue" stroke="midnightblue" points="334.5,-46.083 338,-56.083 341.5,-46.083 334.5,-46.083"/>
</g>
<!-- Node27&#45;&gt;Node26 -->
<g id="edge46" class="edge"><title>Node27&#45;&gt;Node26</title>
<path fill="none" stroke="midnightblue" d="M1255.6,-166.538C1235.2,-159.684 1211.92,-148.793 1196,-132 1171.89,-106.571 1154.45,-84.3838 1175,-56 1197.24,-25.28 1241.14,-15.1599 1273.27,-12.0167"/>
<polygon fill="midnightblue" stroke="midnightblue" points="1254.74,-169.939 1265.33,-169.587 1256.84,-163.259 1254.74,-169.939"/>
</g>
<!-- Node28 -->
<g id="node28" class="node"><title>Node28</title>
<g id="a_node28"><a xlink:href="_i_plug_graphics_delegate_8cpp_source.html" target="_top" xlink:title="IPlugGraphicsDelegate.cpp">
<polygon fill="white" stroke="black" points="1298,-56.5 1298,-75.5 1434,-75.5 1434,-56.5 1298,-56.5"/>
<text text-anchor="middle" x="1366" y="-63.5" font-family="Helvetica,sans-Serif" font-size="10.00">IPlugGraphicsDelegate.cpp</text>
</a>
</g>
</g>
<!-- Node27&#45;&gt;Node28 -->
<g id="edge28" class="edge"><title>Node27&#45;&gt;Node28</title>
<path fill="none" stroke="midnightblue" d="M1309.57,-159.64C1324.13,-135.744 1349.78,-93.6286 1360.77,-75.5914"/>
<polygon fill="midnightblue" stroke="midnightblue" points="1306.47,-158.007 1304.26,-168.368 1312.45,-161.649 1306.47,-158.007"/>
</g>
<!-- Node29 -->
<g id="node29" class="node"><title>Node29</title>
<g id="a_node29"><a xlink:href="_i_graphics_lice_8h_source.html" target="_top" xlink:title="IGraphicsLice.h">
<polygon fill="white" stroke="black" points="1205.5,-112.5 1205.5,-131.5 1290.5,-131.5 1290.5,-112.5 1205.5,-112.5"/>
<text text-anchor="middle" x="1248" y="-119.5" font-family="Helvetica,sans-Serif" font-size="10.00">IGraphicsLice.h</text>
</a>
</g>
</g>
<!-- Node27&#45;&gt;Node29 -->
<g id="edge29" class="edge"><title>Node27&#45;&gt;Node29</title>
<path fill="none" stroke="midnightblue" d="M1283.62,-160.718C1274.63,-151.2 1263.64,-139.561 1256.26,-131.751"/>
<polygon fill="midnightblue" stroke="midnightblue" points="1281.17,-163.216 1290.58,-168.083 1286.26,-158.41 1281.17,-163.216"/>
</g>
<!-- Node31 -->
<g id="node31" class="node"><title>Node31</title>
<g id="a_node31"><a xlink:href="_i_control_8h.html" target="_top" xlink:title="The lowest level base class of an IGraphics control. ">
<polygon fill="white" stroke="black" points="1832.5,-112.5 1832.5,-131.5 1891.5,-131.5 1891.5,-112.5 1832.5,-112.5"/>
<text text-anchor="middle" x="1862" y="-119.5" font-family="Helvetica,sans-Serif" font-size="10.00">IControl.h</text>
</a>
</g>
</g>
<!-- Node27&#45;&gt;Node31 -->
<g id="edge31" class="edge"><title>Node27&#45;&gt;Node31</title>
<path fill="none" stroke="midnightblue" d="M1342.62,-172.816C1452.67,-162.26 1739.47,-134.752 1832.44,-125.835"/>
<polygon fill="midnightblue" stroke="midnightblue" points="1342.15,-169.345 1332.53,-173.784 1342.82,-176.313 1342.15,-169.345"/>
</g>
<!-- Node43 -->
<g id="node43" class="node"><title>Node43</title>
<g id="a_node43"><a xlink:href="_i_graphics_path_base_8h_source.html" target="_top" xlink:title="IGraphicsPathBase.h">
<polygon fill="white" stroke="black" points="2488,-112.5 2488,-131.5 2598,-131.5 2598,-112.5 2488,-112.5"/>
<text text-anchor="middle" x="2543" y="-119.5" font-family="Helvetica,sans-Serif" font-size="10.00">IGraphicsPathBase.h</text>
</a>
</g>
</g>
<!-- Node27&#45;&gt;Node43 -->
<g id="edge47" class="edge"><title>Node27&#45;&gt;Node43</title>
<path fill="none" stroke="midnightblue" d="M1342.7,-175.103C1531.57,-166.904 2277.61,-134.52 2487.68,-125.401"/>
<polygon fill="midnightblue" stroke="midnightblue" points="1342.43,-171.611 1332.6,-175.542 1342.74,-178.605 1342.43,-171.611"/>
</g>
<!-- Node30 -->
<g id="node30" class="node"><title>Node30</title>
<g id="a_node30"><a xlink:href="_i_graphics_lice_8cpp_source.html" target="_top" xlink:title="IGraphicsLice.cpp">
<polygon fill="white" stroke="black" points="1184.5,-56.5 1184.5,-75.5 1279.5,-75.5 1279.5,-56.5 1184.5,-56.5"/>
<text text-anchor="middle" x="1232" y="-63.5" font-family="Helvetica,sans-Serif" font-size="10.00">IGraphicsLice.cpp</text>
</a>
</g>
</g>
<!-- Node29&#45;&gt;Node30 -->
<g id="edge30" class="edge"><title>Node29&#45;&gt;Node30</title>
<path fill="none" stroke="midnightblue" d="M1242.49,-102.396C1239.81,-93.362 1236.72,-82.936 1234.59,-75.7511"/>
<polygon fill="midnightblue" stroke="midnightblue" points="1239.16,-103.489 1245.36,-112.083 1245.87,-101.501 1239.16,-103.489"/>
</g>
<!-- Node31&#45;&gt;Node26 -->
<g id="edge41" class="edge"><title>Node31&#45;&gt;Node26</title>
<path fill="none" stroke="midnightblue" d="M1821.86,-121.033C1751.29,-120.051 1601.1,-113.286 1481,-76 1462.77,-70.3413 1460.52,-63.5669 1443,-56 1408.67,-41.1741 1367.71,-27.7561 1340.84,-19.5058"/>
<polygon fill="midnightblue" stroke="midnightblue" points="1822.04,-124.535 1832.08,-121.142 1822.12,-117.536 1822.04,-124.535"/>
</g>
<!-- Node31&#45;&gt;Node28 -->
<g id="edge32" class="edge"><title>Node31&#45;&gt;Node28</title>
<path fill="none" stroke="midnightblue" d="M1822.15,-116.683C1748.34,-108.682 1585.35,-91.0018 1448,-76 1443.44,-75.5024 1438.75,-74.9886 1434.01,-74.4703"/>
<polygon fill="midnightblue" stroke="midnightblue" points="1822.06,-120.193 1832.38,-117.791 1822.82,-113.234 1822.06,-120.193"/>
</g>
<!-- Node32 -->
<g id="node32" class="node"><title>Node32</title>
<g id="a_node32"><a xlink:href="_i_controls_8h.html" target="_top" xlink:title="A collection of IControls for common UI widgets, such as knobs, sliders, switches. ">
<polygon fill="white" stroke="black" points="2304.5,-56.5 2304.5,-75.5 2369.5,-75.5 2369.5,-56.5 2304.5,-56.5"/>
<text text-anchor="middle" x="2337" y="-63.5" font-family="Helvetica,sans-Serif" font-size="10.00">IControls.h</text>
</a>
</g>
</g>
<!-- Node31&#45;&gt;Node32 -->
<g id="edge33" class="edge"><title>Node31&#45;&gt;Node32</title>
<path fill="none" stroke="midnightblue" d="M1901.68,-118.311C1978.12,-112.814 2150.99,-98.8449 2295,-76 2297.95,-75.5327 2301,-74.9916 2304.05,-74.4114"/>
<polygon fill="midnightblue" stroke="midnightblue" points="1901.27,-114.831 1891.54,-119.031 1901.77,-121.814 1901.27,-114.831"/>
</g>
<!-- Node34 -->
<g id="node34" class="node"><title>Node34</title>
<g id="a_node34"><a xlink:href="_i_v_drop_down_list_control_8h_source.html" target="_top" xlink:title="IVDropDownListControl.h">
<polygon fill="white" stroke="black" points="1490,-56.5 1490,-75.5 1618,-75.5 1618,-56.5 1490,-56.5"/>
<text text-anchor="middle" x="1554" y="-63.5" font-family="Helvetica,sans-Serif" font-size="10.00">IVDropDownListControl.h</text>
</a>
</g>
</g>
<!-- Node31&#45;&gt;Node34 -->
<g id="edge36" class="edge"><title>Node31&#45;&gt;Node34</title>
<path fill="none" stroke="midnightblue" d="M1822.54,-114.081C1766.33,-104.227 1663.3,-86.1637 1602.51,-75.5048"/>
<polygon fill="midnightblue" stroke="midnightblue" points="1822.01,-117.543 1832.47,-115.822 1823.22,-110.648 1822.01,-117.543"/>
</g>
<!-- Node35 -->
<g id="node35" class="node"><title>Node35</title>
<g id="a_node35"><a xlink:href="_i_v_keyboard_control_8h_source.html" target="_top" xlink:title="IVKeyboardControl.h">
<polygon fill="white" stroke="black" points="1636.5,-56.5 1636.5,-75.5 1743.5,-75.5 1743.5,-56.5 1636.5,-56.5"/>
<text text-anchor="middle" x="1690" y="-63.5" font-family="Helvetica,sans-Serif" font-size="10.00">IVKeyboardControl.h</text>
</a>
</g>
</g>
<!-- Node31&#45;&gt;Node35 -->
<g id="edge37" class="edge"><title>Node31&#45;&gt;Node35</title>
<path fill="none" stroke="midnightblue" d="M1825.17,-109.436C1792.74,-99.2551 1746.26,-84.664 1717.13,-75.5164"/>
<polygon fill="midnightblue" stroke="midnightblue" points="1824.16,-112.787 1834.75,-112.444 1826.25,-106.109 1824.16,-112.787"/>
</g>
<!-- Node36 -->
<g id="node36" class="node"><title>Node36</title>
<g id="a_node36"><a xlink:href="_i_v_meter_control_8h_source.html" target="_top" xlink:title="IVMeterControl.h">
<polygon fill="white" stroke="black" points="1761.5,-56.5 1761.5,-75.5 1852.5,-75.5 1852.5,-56.5 1761.5,-56.5"/>
<text text-anchor="middle" x="1807" y="-63.5" font-family="Helvetica,sans-Serif" font-size="10.00">IVMeterControl.h</text>
</a>
</g>
</g>
<!-- Node31&#45;&gt;Node36 -->
<g id="edge38" class="edge"><title>Node31&#45;&gt;Node36</title>
<path fill="none" stroke="midnightblue" d="M1845.71,-105.002C1835.96,-95.4329 1823.95,-83.6389 1815.91,-75.7511"/>
<polygon fill="midnightblue" stroke="midnightblue" points="1843.33,-107.575 1852.92,-112.083 1848.23,-102.58 1843.33,-107.575"/>
</g>
<!-- Node37 -->
<g id="node37" class="node"><title>Node37</title>
<g id="a_node37"><a xlink:href="_i_v_scope_control_8h_source.html" target="_top" xlink:title="IVScopeControl.h">
<polygon fill="white" stroke="black" points="1871,-56.5 1871,-75.5 1965,-75.5 1965,-56.5 1871,-56.5"/>
<text text-anchor="middle" x="1918" y="-63.5" font-family="Helvetica,sans-Serif" font-size="10.00">IVScopeControl.h</text>
</a>
</g>
</g>
<!-- Node31&#45;&gt;Node37 -->
<g id="edge39" class="edge"><title>Node31&#45;&gt;Node37</title>
<path fill="none" stroke="midnightblue" d="M1878.33,-105.253C1888.26,-95.6731 1900.59,-83.7906 1908.84,-75.8339"/>
<polygon fill="midnightblue" stroke="midnightblue" points="1875.77,-102.863 1871,-112.324 1880.63,-107.902 1875.77,-102.863"/>
</g>
<!-- Node38 -->
<g id="node38" class="node"><title>Node38</title>
<g id="a_node38"><a xlink:href="_i_control_8cpp_source.html" target="_top" xlink:title="IControl.cpp">
<polygon fill="white" stroke="black" points="1983,-56.5 1983,-75.5 2053,-75.5 2053,-56.5 1983,-56.5"/>
<text text-anchor="middle" x="2018" y="-63.5" font-family="Helvetica,sans-Serif" font-size="10.00">IControl.cpp</text>
</a>
</g>
</g>
<!-- Node31&#45;&gt;Node38 -->
<g id="edge40" class="edge"><title>Node31&#45;&gt;Node38</title>
<path fill="none" stroke="midnightblue" d="M1896.17,-109.172C1925.54,-99.0039 1967.2,-84.5852 1993.4,-75.5164"/>
<polygon fill="midnightblue" stroke="midnightblue" points="1895.02,-105.865 1886.72,-112.444 1897.31,-112.48 1895.02,-105.865"/>
</g>
<!-- Node39 -->
<g id="node39" class="node"><title>Node39</title>
<g id="a_node39"><a xlink:href="_i_graphics_live_edit_8h_source.html" target="_top" xlink:title="IGraphicsLiveEdit.h">
<polygon fill="white" stroke="black" points="2071,-56.5 2071,-75.5 2173,-75.5 2173,-56.5 2071,-56.5"/>
<text text-anchor="middle" x="2122" y="-63.5" font-family="Helvetica,sans-Serif" font-size="10.00">IGraphicsLiveEdit.h</text>
</a>
</g>
</g>
<!-- Node31&#45;&gt;Node39 -->
<g id="edge42" class="edge"><title>Node31&#45;&gt;Node39</title>
<path fill="none" stroke="midnightblue" d="M1901.38,-112.821C1949.84,-102.757 2031.71,-85.7518 2080.93,-75.5298"/>
<polygon fill="midnightblue" stroke="midnightblue" points="1900.65,-109.398 1891.57,-114.858 1902.07,-116.251 1900.65,-109.398"/>
</g>
<!-- Node40 -->
<g id="node40" class="node"><title>Node40</title>
<g id="a_node40"><a xlink:href="_i_graphics_web_8h_source.html" target="_top" xlink:title="IGraphicsWeb.h">
<polygon fill="white" stroke="black" points="2387.5,-56.5 2387.5,-75.5 2474.5,-75.5 2474.5,-56.5 2387.5,-56.5"/>
<text text-anchor="middle" x="2431" y="-63.5" font-family="Helvetica,sans-Serif" font-size="10.00">IGraphicsWeb.h</text>
</a>
</g>
</g>
<!-- Node31&#45;&gt;Node40 -->
<g id="edge43" class="edge"><title>Node31&#45;&gt;Node40</title>
<path fill="none" stroke="midnightblue" d="M1901.96,-118.625C1988.81,-113.22 2201.19,-98.6835 2378,-76 2381.05,-75.6081 2384.2,-75.1676 2387.37,-74.6977"/>
<polygon fill="midnightblue" stroke="midnightblue" points="1901.52,-115.145 1891.76,-119.254 1901.95,-122.132 1901.52,-115.145"/>
</g>
<!-- Node42 -->
<g id="node42" class="node"><title>Node42</title>
<g id="a_node42"><a xlink:href="_i_graphics_win_8cpp_source.html" target="_top" xlink:title="IGraphicsWin.cpp">
<polygon fill="white" stroke="black" points="2191.5,-56.5 2191.5,-75.5 2286.5,-75.5 2286.5,-56.5 2191.5,-56.5"/>
<text text-anchor="middle" x="2239" y="-63.5" font-family="Helvetica,sans-Serif" font-size="10.00">IGraphicsWin.cpp</text>
</a>
</g>
</g>
<!-- Node31&#45;&gt;Node42 -->
<g id="edge45" class="edge"><title>Node31&#45;&gt;Node42</title>
<path fill="none" stroke="midnightblue" d="M1902.19,-115.512C1962.69,-107.208 2080.79,-90.8424 2181,-76 2184.33,-75.5073 2187.76,-74.9921 2191.22,-74.4684"/>
<polygon fill="midnightblue" stroke="midnightblue" points="1901.36,-112.093 1891.93,-116.919 1902.31,-119.028 1901.36,-112.093"/>
</g>
<!-- Node32&#45;&gt;Node26 -->
<g id="edge35" class="edge"><title>Node32&#45;&gt;Node26</title>
<path fill="none" stroke="midnightblue" d="M2293.92,-56.1025C1921.83,-8.85748 1481.7,-9.20548 1350.61,-10.4823"/>
<polygon fill="midnightblue" stroke="midnightblue" points="2293.71,-59.6047 2304.07,-57.4064 2294.6,-52.6616 2293.71,-59.6047"/>
</g>
<!-- Node33 -->
<g id="node33" class="node"><title>Node33</title>
<g id="a_node33"><a xlink:href="_i_controls_8cpp_source.html" target="_top" xlink:title="IControls.cpp">
<polygon fill="white" stroke="black" points="2283.5,-0.5 2283.5,-19.5 2358.5,-19.5 2358.5,-0.5 2283.5,-0.5"/>
<text text-anchor="middle" x="2321" y="-7.5" font-family="Helvetica,sans-Serif" font-size="10.00">IControls.cpp</text>
</a>
</g>
</g>
<!-- Node32&#45;&gt;Node33 -->
<g id="edge34" class="edge"><title>Node32&#45;&gt;Node33</title>
<path fill="none" stroke="midnightblue" d="M2331.49,-46.3956C2328.81,-37.362 2325.72,-26.936 2323.59,-19.7511"/>
<polygon fill="midnightblue" stroke="midnightblue" points="2328.16,-47.4893 2334.36,-56.083 2334.87,-45.5007 2328.16,-47.4893"/>
</g>
<!-- Node41 -->
<g id="node41" class="node"><title>Node41</title>
<g id="a_node41"><a xlink:href="_i_graphics_web_8cpp_source.html" target="_top" xlink:title="IGraphicsWeb.cpp">
<polygon fill="white" stroke="black" points="2376,-0.5 2376,-19.5 2474,-19.5 2474,-0.5 2376,-0.5"/>
<text text-anchor="middle" x="2425" y="-7.5" font-family="Helvetica,sans-Serif" font-size="10.00">IGraphicsWeb.cpp</text>
</a>
</g>
</g>
<!-- Node40&#45;&gt;Node41 -->
<g id="edge44" class="edge"><title>Node40&#45;&gt;Node41</title>
<path fill="none" stroke="midnightblue" d="M2428.9,-46.1005C2427.9,-37.1357 2426.76,-26.8579 2425.97,-19.7511"/>
<polygon fill="midnightblue" stroke="midnightblue" points="2425.43,-46.5307 2430.01,-56.083 2432.38,-45.7576 2425.43,-46.5307"/>
</g>
<!-- Node43&#45;&gt;Node40 -->
<g id="edge55" class="edge"><title>Node43&#45;&gt;Node40</title>
<path fill="none" stroke="midnightblue" d="M2515.75,-107.862C2494.98,-97.8492 2466.98,-84.3458 2448.95,-75.6545"/>
<polygon fill="midnightblue" stroke="midnightblue" points="2514.48,-111.134 2525.01,-112.324 2517.52,-104.828 2514.48,-111.134"/>
</g>
<!-- Node44 -->
<g id="node44" class="node"><title>Node44</title>
<g id="a_node44"><a xlink:href="_i_graphics_a_g_g_8h_source.html" target="_top" xlink:title="IGraphicsAGG.h">
<polygon fill="white" stroke="black" points="2795.5,-56.5 2795.5,-75.5 2884.5,-75.5 2884.5,-56.5 2795.5,-56.5"/>
<text text-anchor="middle" x="2840" y="-63.5" font-family="Helvetica,sans-Serif" font-size="10.00">IGraphicsAGG.h</text>
</a>
</g>
</g>
<!-- Node43&#45;&gt;Node44 -->
<g id="edge48" class="edge"><title>Node43&#45;&gt;Node44</title>
<path fill="none" stroke="midnightblue" d="M2599.97,-110.643C2656.79,-100.31 2742.94,-84.6465 2795.1,-75.1629"/>
<polygon fill="midnightblue" stroke="midnightblue" points="2599.27,-107.211 2590.06,-112.444 2600.53,-114.098 2599.27,-107.211"/>
</g>
<!-- Node46 -->
<g id="node46" class="node"><title>Node46</title>
<g id="a_node46"><a xlink:href="_i_graphics_cairo_8h_source.html" target="_top" xlink:title="IGraphicsCairo.h">
<polygon fill="white" stroke="black" points="2498,-56.5 2498,-75.5 2588,-75.5 2588,-56.5 2498,-56.5"/>
<text text-anchor="middle" x="2543" y="-63.5" font-family="Helvetica,sans-Serif" font-size="10.00">IGraphicsCairo.h</text>
</a>
</g>
</g>
<!-- Node43&#45;&gt;Node46 -->
<g id="edge50" class="edge"><title>Node43&#45;&gt;Node46</title>
<path fill="none" stroke="midnightblue" d="M2543,-101.805C2543,-92.9102 2543,-82.7798 2543,-75.7511"/>
<polygon fill="midnightblue" stroke="midnightblue" points="2539.5,-102.083 2543,-112.083 2546.5,-102.083 2539.5,-102.083"/>
</g>
<!-- Node48 -->
<g id="node48" class="node"><title>Node48</title>
<g id="a_node48"><a xlink:href="_i_graphics_nano_v_g_8h_source.html" target="_top" xlink:title="IGraphicsNanoVG.h">
<polygon fill="white" stroke="black" points="2617,-56.5 2617,-75.5 2721,-75.5 2721,-56.5 2617,-56.5"/>
<text text-anchor="middle" x="2669" y="-63.5" font-family="Helvetica,sans-Serif" font-size="10.00">IGraphicsNanoVG.h</text>
</a>
</g>
</g>
<!-- Node43&#45;&gt;Node48 -->
<g id="edge52" class="edge"><title>Node43&#45;&gt;Node48</title>
<path fill="none" stroke="midnightblue" d="M2572.16,-108.503C2595.78,-98.3795 2628.43,-84.388 2649.13,-75.5164"/>
<polygon fill="midnightblue" stroke="midnightblue" points="2570.78,-105.287 2562.97,-112.444 2573.54,-111.721 2570.78,-105.287"/>
</g>
<!-- Node45 -->
<g id="node45" class="node"><title>Node45</title>
<g id="a_node45"><a xlink:href="_i_graphics_a_g_g_8cpp_source.html" target="_top" xlink:title="IGraphicsAGG.cpp">
<polygon fill="white" stroke="black" points="2846.5,-0.5 2846.5,-19.5 2945.5,-19.5 2945.5,-0.5 2846.5,-0.5"/>
<text text-anchor="middle" x="2896" y="-7.5" font-family="Helvetica,sans-Serif" font-size="10.00">IGraphicsAGG.cpp</text>
</a>
</g>
</g>
<!-- Node44&#45;&gt;Node45 -->
<g id="edge49" class="edge"><title>Node44&#45;&gt;Node45</title>
<path fill="none" stroke="midnightblue" d="M2856.33,-49.2533C2866.26,-39.6731 2878.59,-27.7906 2886.84,-19.8339"/>
<polygon fill="midnightblue" stroke="midnightblue" points="2853.77,-46.8631 2849,-56.324 2858.63,-51.902 2853.77,-46.8631"/>
</g>
<!-- Node47 -->
<g id="node47" class="node"><title>Node47</title>
<g id="a_node47"><a xlink:href="_i_graphics_cairo_8cpp_source.html" target="_top" xlink:title="IGraphicsCairo.cpp">
<polygon fill="white" stroke="black" points="2492.5,-0.5 2492.5,-19.5 2593.5,-19.5 2593.5,-0.5 2492.5,-0.5"/>
<text text-anchor="middle" x="2543" y="-7.5" font-family="Helvetica,sans-Serif" font-size="10.00">IGraphicsCairo.cpp</text>
</a>
</g>
</g>
<!-- Node46&#45;&gt;Node47 -->
<g id="edge51" class="edge"><title>Node46&#45;&gt;Node47</title>
<path fill="none" stroke="midnightblue" d="M2543,-45.8045C2543,-36.9102 2543,-26.7798 2543,-19.7511"/>
<polygon fill="midnightblue" stroke="midnightblue" points="2539.5,-46.083 2543,-56.083 2546.5,-46.083 2539.5,-46.083"/>
</g>
<!-- Node49 -->
<g id="node49" class="node"><title>Node49</title>
<g id="a_node49"><a xlink:href="_i_graphics_nano_v_g_8cpp_source.html" target="_top" xlink:title="IGraphicsNanoVG.cpp">
<polygon fill="white" stroke="black" points="2611.5,-0.5 2611.5,-19.5 2726.5,-19.5 2726.5,-0.5 2611.5,-0.5"/>
<text text-anchor="middle" x="2669" y="-7.5" font-family="Helvetica,sans-Serif" font-size="10.00">IGraphicsNanoVG.cpp</text>
</a>
</g>
</g>
<!-- Node48&#45;&gt;Node49 -->
<g id="edge53" class="edge"><title>Node48&#45;&gt;Node49</title>
<path fill="none" stroke="midnightblue" d="M2669,-45.8045C2669,-36.9102 2669,-26.7798 2669,-19.7511"/>
<polygon fill="midnightblue" stroke="midnightblue" points="2665.5,-46.083 2669,-56.083 2672.5,-46.083 2665.5,-46.083"/>
</g>
<!-- Node50 -->
<g id="node50" class="node"><title>Node50</title>
<g id="a_node50"><a xlink:href="_i_graphics_i_o_s_8h_source.html" target="_top" xlink:title="IGraphicsIOS.h">
<polygon fill="white" stroke="black" points="2744,-0.5 2744,-19.5 2828,-19.5 2828,-0.5 2744,-0.5"/>
<text text-anchor="middle" x="2786" y="-7.5" font-family="Helvetica,sans-Serif" font-size="10.00">IGraphicsIOS.h</text>
</a>
</g>
</g>
<!-- Node48&#45;&gt;Node50 -->
<g id="edge54" class="edge"><title>Node48&#45;&gt;Node50</title>
<path fill="none" stroke="midnightblue" d="M2696.66,-52.2321C2718.55,-42.1312 2748.5,-28.3091 2767.55,-19.5164"/>
<polygon fill="midnightblue" stroke="midnightblue" points="2695.15,-49.075 2687.54,-56.4435 2698.09,-55.4308 2695.15,-49.075"/>
</g>
</g>
</svg>
