<?xml version="1.0" encoding="UTF-8" standalone="no"?>
<!DOCTYPE svg PUBLIC "-//W3C//DTD SVG 1.1//EN"
 "http://www.w3.org/Graphics/SVG/1.1/DTD/svg11.dtd">
<!-- Generated by graphviz version 2.36.0 (20140111.2315)
 -->
<!-- Title: IPlugConstants.h Pages: 1 -->
<svg width="2340pt" height="364pt"
 viewBox="0.00 0.00 2340.00 364.00" xmlns="http://www.w3.org/2000/svg" xmlns:xlink="http://www.w3.org/1999/xlink">
<g id="graph0" class="graph" transform="scale(1 1) rotate(0) translate(4 360)">
<title>IPlugConstants.h</title>
<polygon fill="white" stroke="none" points="-4,4 -4,-360 2336,-360 2336,4 -4,4"/>
<!-- Node1 -->
<g id="node1" class="node"><title>Node1</title>
<polygon fill="#bfbfbf" stroke="black" points="1463,-336.5 1463,-355.5 1555,-355.5 1555,-336.5 1463,-336.5"/>
<text text-anchor="middle" x="1509" y="-343.5" font-family="Helvetica,sans-Serif" font-size="10.00">IPlugConstants.h</text>
</g>
<!-- Node2 -->
<g id="node2" class="node"><title>Node2</title>
<g id="a_node2"><a xlink:href="_i_plug_a_p_p__host_8h_source.html" target="_top" xlink:title="IPlugAPP_host.h">
<polygon fill="white" stroke="black" points="752,-280.5 752,-299.5 844,-299.5 844,-280.5 752,-280.5"/>
<text text-anchor="middle" x="798" y="-287.5" font-family="Helvetica,sans-Serif" font-size="10.00">IPlugAPP_host.h</text>
</a>
</g>
</g>
<!-- Node1&#45;&gt;Node2 -->
<g id="edge1" class="edge"><title>Node1&#45;&gt;Node2</title>
<path fill="none" stroke="midnightblue" d="M1452.67,-340.722C1316.24,-330.36 970.092,-304.07 844.46,-294.529"/>
<polygon fill="midnightblue" stroke="midnightblue" points="1452.66,-344.231 1462.9,-341.499 1453.19,-337.251 1452.66,-344.231"/>
</g>
<!-- Node5 -->
<g id="node5" class="node"><title>Node5</title>
<g id="a_node5"><a xlink:href="_i_plug_utilities_8h.html" target="_top" xlink:title="Utility functions and macros. ">
<polygon fill="white" stroke="black" points="1401,-280.5 1401,-299.5 1481,-299.5 1481,-280.5 1401,-280.5"/>
<text text-anchor="middle" x="1441" y="-287.5" font-family="Helvetica,sans-Serif" font-size="10.00">IPlugUtilities.h</text>
</a>
</g>
</g>
<!-- Node1&#45;&gt;Node5 -->
<g id="edge4" class="edge"><title>Node1&#45;&gt;Node5</title>
<path fill="none" stroke="midnightblue" d="M1490.24,-330.101C1478,-320.382 1462.44,-308.027 1452.12,-299.834"/>
<polygon fill="midnightblue" stroke="midnightblue" points="1488.07,-332.846 1498.07,-336.324 1492.42,-327.364 1488.07,-332.846"/>
</g>
<!-- Node18 -->
<g id="node18" class="node"><title>Node18</title>
<g id="a_node18"><a xlink:href="_i_plug_base_8h.html" target="_top" xlink:title="The base class of an IPlug plug&#45;in, which interacts with the different plug&#45;in APIs. ">
<polygon fill="white" stroke="black" points="1534,-112.5 1534,-131.5 1604,-131.5 1604,-112.5 1534,-112.5"/>
<text text-anchor="middle" x="1569" y="-119.5" font-family="Helvetica,sans-Serif" font-size="10.00">IPlugBase.h</text>
</a>
</g>
</g>
<!-- Node1&#45;&gt;Node18 -->
<g id="edge73" class="edge"><title>Node1&#45;&gt;Node18</title>
<path fill="none" stroke="midnightblue" d="M1510.85,-326.173C1513.5,-302.144 1519.17,-259.442 1529,-224 1538.77,-188.742 1556.71,-148.92 1564.82,-131.699"/>
<polygon fill="midnightblue" stroke="midnightblue" points="1507.35,-326.046 1509.79,-336.355 1514.31,-326.773 1507.35,-326.046"/>
</g>
<!-- Node41 -->
<g id="node41" class="node"><title>Node41</title>
<g id="a_node41"><a xlink:href="_i_plug_logger_8h.html" target="_top" xlink:title="IPlug logging a.k.a tracing functionality. ">
<polygon fill="white" stroke="black" points="1080.5,-224.5 1080.5,-243.5 1157.5,-243.5 1157.5,-224.5 1080.5,-224.5"/>
<text text-anchor="middle" x="1119" y="-231.5" font-family="Helvetica,sans-Serif" font-size="10.00">IPlugLogger.h</text>
</a>
</g>
</g>
<!-- Node1&#45;&gt;Node41 -->
<g id="edge72" class="edge"><title>Node1&#45;&gt;Node41</title>
<path fill="none" stroke="midnightblue" d="M1468.75,-333.646C1390.37,-311.539 1218.86,-263.167 1149.26,-243.535"/>
<polygon fill="midnightblue" stroke="midnightblue" points="1468.15,-337.114 1478.72,-336.46 1470.05,-330.377 1468.15,-337.114"/>
</g>
<!-- Node42 -->
<g id="node42" class="node"><title>Node42</title>
<g id="a_node42"><a xlink:href="_i_graphics_8h.html" target="_top" xlink:title="The lowest level base class of an IGraphics context. ">
<polygon fill="white" stroke="black" points="807.5,-168.5 807.5,-187.5 874.5,-187.5 874.5,-168.5 807.5,-168.5"/>
<text text-anchor="middle" x="841" y="-175.5" font-family="Helvetica,sans-Serif" font-size="10.00">IGraphics.h</text>
</a>
</g>
</g>
<!-- Node1&#45;&gt;Node42 -->
<g id="edge77" class="edge"><title>Node1&#45;&gt;Node42</title>
<path fill="none" stroke="midnightblue" d="M1452.75,-335.371C1405.4,-326.971 1336,-313.968 1276,-300 1120.44,-263.787 936.949,-208.57 868.526,-187.538"/>
<polygon fill="midnightblue" stroke="midnightblue" points="1452.35,-338.854 1462.8,-337.145 1453.56,-331.961 1452.35,-338.854"/>
</g>
<!-- Node46 -->
<g id="node46" class="node"><title>Node46</title>
<g id="a_node46"><a xlink:href="_i_plug_processor_8h.html" target="_top" xlink:title="The base class for IPlug Audio Processing. ">
<polygon fill="white" stroke="black" points="1785,-112.5 1785,-131.5 1877,-131.5 1877,-112.5 1785,-112.5"/>
<text text-anchor="middle" x="1831" y="-119.5" font-family="Helvetica,sans-Serif" font-size="10.00">IPlugProcessor.h</text>
</a>
</g>
</g>
<!-- Node1&#45;&gt;Node46 -->
<g id="edge76" class="edge"><title>Node1&#45;&gt;Node46</title>
<path fill="none" stroke="midnightblue" d="M1530.15,-330.416C1591.74,-287.958 1769.62,-165.316 1818.46,-131.643"/>
<polygon fill="midnightblue" stroke="midnightblue" points="1527.87,-327.74 1521.62,-336.297 1531.84,-333.503 1527.87,-327.74"/>
</g>
<!-- Node48 -->
<g id="node48" class="node"><title>Node48</title>
<g id="a_node48"><a xlink:href="_i_plug_structs_8h_source.html" target="_top" xlink:title="IPlugStructs.h">
<polygon fill="white" stroke="black" points="1537.5,-224.5 1537.5,-243.5 1616.5,-243.5 1616.5,-224.5 1537.5,-224.5"/>
<text text-anchor="middle" x="1577" y="-231.5" font-family="Helvetica,sans-Serif" font-size="10.00">IPlugStructs.h</text>
</a>
</g>
</g>
<!-- Node1&#45;&gt;Node48 -->
<g id="edge68" class="edge"><title>Node1&#45;&gt;Node48</title>
<path fill="none" stroke="midnightblue" d="M1519.73,-327.64C1534.5,-303.744 1560.54,-261.629 1571.69,-243.591"/>
<polygon fill="midnightblue" stroke="midnightblue" points="1516.62,-326.022 1514.34,-336.368 1522.57,-329.703 1516.62,-326.022"/>
</g>
<!-- Node49 -->
<g id="node49" class="node"><title>Node49</title>
<g id="a_node49"><a xlink:href="_i_plug_paths_i_o_s_8mm_source.html" target="_top" xlink:title="IPlugPathsIOS.mm">
<polygon fill="white" stroke="black" points="1711.5,-280.5 1711.5,-299.5 1812.5,-299.5 1812.5,-280.5 1711.5,-280.5"/>
<text text-anchor="middle" x="1762" y="-287.5" font-family="Helvetica,sans-Serif" font-size="10.00">IPlugPathsIOS.mm</text>
</a>
</g>
</g>
<!-- Node1&#45;&gt;Node49 -->
<g id="edge74" class="edge"><title>Node1&#45;&gt;Node49</title>
<path fill="none" stroke="midnightblue" d="M1558.92,-334.346C1606.73,-324.141 1677.95,-308.94 1722.1,-299.516"/>
<polygon fill="midnightblue" stroke="midnightblue" points="1558.14,-330.933 1549.09,-336.444 1559.6,-337.779 1558.14,-330.933"/>
</g>
<!-- Node50 -->
<g id="node50" class="node"><title>Node50</title>
<g id="a_node50"><a xlink:href="_i_plug_paths_mac_8mm_source.html" target="_top" xlink:title="IPlugPathsMac.mm">
<polygon fill="white" stroke="black" points="1830.5,-280.5 1830.5,-299.5 1933.5,-299.5 1933.5,-280.5 1830.5,-280.5"/>
<text text-anchor="middle" x="1882" y="-287.5" font-family="Helvetica,sans-Serif" font-size="10.00">IPlugPathsMac.mm</text>
</a>
</g>
</g>
<!-- Node1&#45;&gt;Node50 -->
<g id="edge75" class="edge"><title>Node1&#45;&gt;Node50</title>
<path fill="none" stroke="midnightblue" d="M1565.3,-336.935C1627.79,-327.972 1731.61,-313.04 1821,-300 1824.07,-299.552 1827.23,-299.09 1830.42,-298.623"/>
<polygon fill="midnightblue" stroke="midnightblue" points="1564.66,-333.491 1555.26,-338.376 1565.66,-340.42 1564.66,-333.491"/>
</g>
<!-- Node3 -->
<g id="node3" class="node"><title>Node3</title>
<g id="a_node3"><a xlink:href="_i_plug_a_p_p__dialog_8cpp_source.html" target="_top" xlink:title="IPlugAPP_dialog.cpp">
<polygon fill="white" stroke="black" points="660.5,-224.5 660.5,-243.5 769.5,-243.5 769.5,-224.5 660.5,-224.5"/>
<text text-anchor="middle" x="715" y="-231.5" font-family="Helvetica,sans-Serif" font-size="10.00">IPlugAPP_dialog.cpp</text>
</a>
</g>
</g>
<!-- Node2&#45;&gt;Node3 -->
<g id="edge2" class="edge"><title>Node2&#45;&gt;Node3</title>
<path fill="none" stroke="midnightblue" d="M775.901,-274.622C760.738,-264.757 741.117,-251.992 728.302,-243.655"/>
<polygon fill="midnightblue" stroke="midnightblue" points="774.374,-277.804 784.665,-280.324 778.191,-271.937 774.374,-277.804"/>
</g>
<!-- Node4 -->
<g id="node4" class="node"><title>Node4</title>
<g id="a_node4"><a xlink:href="_i_plug_a_p_p__host_8cpp_source.html" target="_top" xlink:title="IPlugAPP_host.cpp">
<polygon fill="white" stroke="black" points="687,-168.5 687,-187.5 789,-187.5 789,-168.5 687,-168.5"/>
<text text-anchor="middle" x="738" y="-175.5" font-family="Helvetica,sans-Serif" font-size="10.00">IPlugAPP_host.cpp</text>
</a>
</g>
</g>
<!-- Node2&#45;&gt;Node4 -->
<g id="edge3" class="edge"><title>Node2&#45;&gt;Node4</title>
<path fill="none" stroke="midnightblue" d="M794.436,-270.11C791.374,-256.656 786.143,-238.47 778,-224 770.003,-209.789 756.899,-196.188 747.881,-187.73"/>
<polygon fill="midnightblue" stroke="midnightblue" points="791.053,-271.033 796.514,-280.112 797.907,-269.609 791.053,-271.033"/>
</g>
<!-- Node6 -->
<g id="node6" class="node"><title>Node6</title>
<g id="a_node6"><a xlink:href="_i_plug_parameter_8h_source.html" target="_top" xlink:title="IPlugParameter.h">
<polygon fill="white" stroke="black" points="1176,-224.5 1176,-243.5 1268,-243.5 1268,-224.5 1176,-224.5"/>
<text text-anchor="middle" x="1222" y="-231.5" font-family="Helvetica,sans-Serif" font-size="10.00">IPlugParameter.h</text>
</a>
</g>
</g>
<!-- Node5&#45;&gt;Node6 -->
<g id="edge5" class="edge"><title>Node5&#45;&gt;Node6</title>
<path fill="none" stroke="midnightblue" d="M1396.49,-278.024C1355.12,-267.823 1294.36,-252.841 1256.54,-243.516"/>
<polygon fill="midnightblue" stroke="midnightblue" points="1395.75,-281.448 1406.3,-280.444 1397.43,-274.651 1395.75,-281.448"/>
</g>
<!-- Node5&#45;&gt;Node18 -->
<g id="edge57" class="edge"><title>Node5&#45;&gt;Node18</title>
<path fill="none" stroke="midnightblue" d="M1445.48,-270.576C1452.45,-245.068 1467.98,-198.676 1495,-168 1509.61,-151.413 1531.84,-139.038 1548.12,-131.506"/>
<polygon fill="midnightblue" stroke="midnightblue" points="1442.05,-269.852 1442.94,-280.41 1448.83,-271.604 1442.05,-269.852"/>
</g>
<!-- Node5&#45;&gt;Node41 -->
<g id="edge47" class="edge"><title>Node5&#45;&gt;Node41</title>
<path fill="none" stroke="midnightblue" d="M1390.38,-281.036C1335.34,-272.297 1244.83,-257.686 1167,-244 1163.99,-243.471 1160.88,-242.913 1157.76,-242.345"/>
<polygon fill="midnightblue" stroke="midnightblue" points="1390.14,-284.542 1400.56,-282.651 1391.23,-277.628 1390.14,-284.542"/>
</g>
<!-- Node5&#45;&gt;Node46 -->
<g id="edge58" class="edge"><title>Node5&#45;&gt;Node46</title>
<path fill="none" stroke="midnightblue" d="M1491.1,-287.285C1530.9,-283.611 1586.14,-273.111 1625,-244 1656.24,-220.6 1638.13,-191.883 1669,-168 1702.48,-142.101 1750,-131.104 1784.92,-126.436"/>
<polygon fill="midnightblue" stroke="midnightblue" points="1490.76,-283.801 1481.08,-288.097 1491.33,-290.778 1490.76,-283.801"/>
</g>
<!-- Node7 -->
<g id="node7" class="node"><title>Node7</title>
<g id="a_node7"><a xlink:href="_i_plug_delegate_8h_source.html" target="_top" xlink:title="IPlugDelegate.h">
<polygon fill="white" stroke="red" points="910,-168.5 910,-187.5 996,-187.5 996,-168.5 910,-168.5"/>
<text text-anchor="middle" x="953" y="-175.5" font-family="Helvetica,sans-Serif" font-size="10.00">IPlugDelegate.h</text>
</a>
</g>
</g>
<!-- Node6&#45;&gt;Node7 -->
<g id="edge6" class="edge"><title>Node6&#45;&gt;Node7</title>
<path fill="none" stroke="midnightblue" d="M1169.56,-222.473C1118.72,-212.268 1042.56,-196.979 995.424,-187.516"/>
<polygon fill="midnightblue" stroke="midnightblue" points="1168.88,-225.907 1179.38,-224.444 1170.26,-219.044 1168.88,-225.907"/>
</g>
<!-- Node11 -->
<g id="node11" class="node"><title>Node11</title>
<g id="a_node11"><a xlink:href="_i_graphics_8cpp_source.html" target="_top" xlink:title="IGraphics.cpp">
<polygon fill="white" stroke="black" points="863.5,-0.5 863.5,-19.5 940.5,-19.5 940.5,-0.5 863.5,-0.5"/>
<text text-anchor="middle" x="902" y="-7.5" font-family="Helvetica,sans-Serif" font-size="10.00">IGraphics.cpp</text>
</a>
</g>
</g>
<!-- Node6&#45;&gt;Node11 -->
<g id="edge45" class="edge"><title>Node6&#45;&gt;Node11</title>
<path fill="none" stroke="midnightblue" d="M1195.89,-219.125C1183.69,-211.436 1169.92,-200.828 1161,-188 1126.14,-137.883 1167.85,-97.4204 1123,-56 1096.9,-31.8914 996.719,-19.3484 940.624,-14.0897"/>
<polygon fill="midnightblue" stroke="midnightblue" points="1194.42,-222.324 1204.81,-224.424 1198,-216.307 1194.42,-222.324"/>
</g>
<!-- Node15 -->
<g id="node15" class="node"><title>Node15</title>
<g id="a_node15"><a xlink:href="_i_control_8cpp_source.html" target="_top" xlink:title="IControl.cpp">
<polygon fill="white" stroke="black" points="1044,-56.5 1044,-75.5 1114,-75.5 1114,-56.5 1044,-56.5"/>
<text text-anchor="middle" x="1079" y="-63.5" font-family="Helvetica,sans-Serif" font-size="10.00">IControl.cpp</text>
</a>
</g>
</g>
<!-- Node6&#45;&gt;Node15 -->
<g id="edge44" class="edge"><title>Node6&#45;&gt;Node15</title>
<path fill="none" stroke="midnightblue" d="M1180.97,-220.933C1162.77,-213.832 1142.29,-203.197 1128,-188 1096.33,-154.314 1084.02,-97.4789 1080.32,-75.7795"/>
<polygon fill="midnightblue" stroke="midnightblue" points="1179.92,-224.275 1190.51,-224.424 1182.32,-217.701 1179.92,-224.275"/>
</g>
<!-- Node16 -->
<g id="node16" class="node"><title>Node16</title>
<g id="a_node16"><a xlink:href="_i_graphics_win_8cpp_source.html" target="_top" xlink:title="IGraphicsWin.cpp">
<polygon fill="white" stroke="black" points="930.5,-56.5 930.5,-75.5 1025.5,-75.5 1025.5,-56.5 930.5,-56.5"/>
<text text-anchor="middle" x="978" y="-63.5" font-family="Helvetica,sans-Serif" font-size="10.00">IGraphicsWin.cpp</text>
</a>
</g>
</g>
<!-- Node6&#45;&gt;Node16 -->
<g id="edge46" class="edge"><title>Node6&#45;&gt;Node16</title>
<path fill="none" stroke="midnightblue" d="M1183.57,-221.194C1161.43,-213.487 1133.59,-202.214 1111,-188 1057.1,-154.083 1004.65,-97.3851 985.562,-75.7509"/>
<polygon fill="midnightblue" stroke="midnightblue" points="1182.72,-224.598 1193.31,-224.482 1184.96,-217.966 1182.72,-224.598"/>
</g>
<!-- Node17 -->
<g id="node17" class="node"><title>Node17</title>
<g id="a_node17"><a xlink:href="_i_plug_plugin_delegate_8h_source.html" target="_top" xlink:title="IPlugPluginDelegate.h">
<polygon fill="white" stroke="black" points="1291.5,-168.5 1291.5,-187.5 1404.5,-187.5 1404.5,-168.5 1291.5,-168.5"/>
<text text-anchor="middle" x="1348" y="-175.5" font-family="Helvetica,sans-Serif" font-size="10.00">IPlugPluginDelegate.h</text>
</a>
</g>
</g>
<!-- Node6&#45;&gt;Node17 -->
<g id="edge17" class="edge"><title>Node6&#45;&gt;Node17</title>
<path fill="none" stroke="midnightblue" d="M1251.16,-220.503C1274.78,-210.38 1307.43,-196.388 1328.13,-187.516"/>
<polygon fill="midnightblue" stroke="midnightblue" points="1249.78,-217.287 1241.97,-224.444 1252.54,-223.721 1249.78,-217.287"/>
</g>
<!-- Node6&#45;&gt;Node18 -->
<g id="edge42" class="edge"><title>Node6&#45;&gt;Node18</title>
<path fill="none" stroke="midnightblue" d="M1278.23,-222.762C1316.71,-215.027 1368.61,-203.157 1413,-188 1433.33,-181.059 1437.25,-176.451 1457,-168 1488.02,-154.727 1524.32,-140.351 1546.99,-131.508"/>
<polygon fill="midnightblue" stroke="midnightblue" points="1277.38,-219.362 1268.25,-224.736 1278.74,-226.229 1277.38,-219.362"/>
</g>
<!-- Node40 -->
<g id="node40" class="node"><title>Node40</title>
<g id="a_node40"><a xlink:href="_i_plug_parameter_8cpp_source.html" target="_top" xlink:title="IPlugParameter.cpp">
<polygon fill="white" stroke="black" points="1170.5,-168.5 1170.5,-187.5 1273.5,-187.5 1273.5,-168.5 1170.5,-168.5"/>
<text text-anchor="middle" x="1222" y="-175.5" font-family="Helvetica,sans-Serif" font-size="10.00">IPlugParameter.cpp</text>
</a>
</g>
</g>
<!-- Node6&#45;&gt;Node40 -->
<g id="edge43" class="edge"><title>Node6&#45;&gt;Node40</title>
<path fill="none" stroke="midnightblue" d="M1222,-213.805C1222,-204.91 1222,-194.78 1222,-187.751"/>
<polygon fill="midnightblue" stroke="midnightblue" points="1218.5,-214.083 1222,-224.083 1225.5,-214.083 1218.5,-214.083"/>
</g>
<!-- Node8 -->
<g id="node8" class="node"><title>Node8</title>
<g id="a_node8"><a xlink:href="_i_control_8h.html" target="_top" xlink:title="The lowest level base class of an IGraphics control. ">
<polygon fill="white" stroke="red" points="811.5,-112.5 811.5,-131.5 870.5,-131.5 870.5,-112.5 811.5,-112.5"/>
<text text-anchor="middle" x="841" y="-119.5" font-family="Helvetica,sans-Serif" font-size="10.00">IControl.h</text>
</a>
</g>
</g>
<!-- Node7&#45;&gt;Node8 -->
<g id="edge7" class="edge"><title>Node7&#45;&gt;Node8</title>
<path fill="none" stroke="midnightblue" d="M925.751,-163.862C904.984,-153.849 876.977,-140.346 858.95,-131.655"/>
<polygon fill="midnightblue" stroke="midnightblue" points="924.477,-167.134 935.005,-168.324 927.518,-160.828 924.477,-167.134"/>
</g>
<!-- Node9 -->
<g id="node9" class="node"><title>Node9</title>
<g id="a_node9"><a xlink:href="_i_plug_graphics_delegate_8cpp_source.html" target="_top" xlink:title="IPlugGraphicsDelegate.cpp">
<polygon fill="white" stroke="black" points="274,-56.5 274,-75.5 410,-75.5 410,-56.5 274,-56.5"/>
<text text-anchor="middle" x="342" y="-63.5" font-family="Helvetica,sans-Serif" font-size="10.00">IPlugGraphicsDelegate.cpp</text>
</a>
</g>
</g>
<!-- Node8&#45;&gt;Node9 -->
<g id="edge8" class="edge"><title>Node8&#45;&gt;Node9</title>
<path fill="none" stroke="midnightblue" d="M800.929,-116.863C725.935,-109.092 559.28,-91.6772 419,-76 416.057,-75.6711 413.052,-75.3323 410.016,-74.9877"/>
<polygon fill="midnightblue" stroke="midnightblue" points="801.007,-120.39 811.314,-117.939 801.728,-113.427 801.007,-120.39"/>
</g>
<!-- Node10 -->
<g id="node10" class="node"><title>Node10</title>
<g id="a_node10"><a xlink:href="_i_controls_8h.html" target="_top" xlink:title="A collection of IControls for common UI widgets, such as knobs, sliders, switches. ">
<polygon fill="white" stroke="red" points="808.5,-56.5 808.5,-75.5 873.5,-75.5 873.5,-56.5 808.5,-56.5"/>
<text text-anchor="middle" x="841" y="-63.5" font-family="Helvetica,sans-Serif" font-size="10.00">IControls.h</text>
</a>
</g>
</g>
<!-- Node8&#45;&gt;Node10 -->
<g id="edge9" class="edge"><title>Node8&#45;&gt;Node10</title>
<path fill="none" stroke="midnightblue" d="M841,-101.805C841,-92.9102 841,-82.7798 841,-75.7511"/>
<polygon fill="midnightblue" stroke="midnightblue" points="837.5,-102.083 841,-112.083 844.5,-102.083 837.5,-102.083"/>
</g>
<!-- Node8&#45;&gt;Node11 -->
<g id="edge15" class="edge"><title>Node8&#45;&gt;Node11</title>
<path fill="none" stroke="midnightblue" d="M858.714,-105.105C866.779,-97.0614 875.87,-86.739 882,-76 892.536,-57.5432 898.143,-32.9063 900.544,-19.9048"/>
<polygon fill="midnightblue" stroke="midnightblue" points="855.966,-102.888 851.139,-112.32 860.794,-107.957 855.966,-102.888"/>
</g>
<!-- Node12 -->
<g id="node12" class="node"><title>Node12</title>
<g id="a_node12"><a xlink:href="_i_v_drop_down_list_control_8h_source.html" target="_top" xlink:title="IVDropDownListControl.h">
<polygon fill="white" stroke="black" points="428,-56.5 428,-75.5 556,-75.5 556,-56.5 428,-56.5"/>
<text text-anchor="middle" x="492" y="-63.5" font-family="Helvetica,sans-Serif" font-size="10.00">IVDropDownListControl.h</text>
</a>
</g>
</g>
<!-- Node8&#45;&gt;Node12 -->
<g id="edge11" class="edge"><title>Node8&#45;&gt;Node12</title>
<path fill="none" stroke="midnightblue" d="M801.016,-114.813C738.583,-105.153 617.793,-86.4637 547.138,-75.5313"/>
<polygon fill="midnightblue" stroke="midnightblue" points="800.827,-118.326 811.244,-116.396 801.897,-111.408 800.827,-118.326"/>
</g>
<!-- Node13 -->
<g id="node13" class="node"><title>Node13</title>
<g id="a_node13"><a xlink:href="_i_v_keyboard_control_8h_source.html" target="_top" xlink:title="IVKeyboardControl.h">
<polygon fill="white" stroke="black" points="574.5,-56.5 574.5,-75.5 681.5,-75.5 681.5,-56.5 574.5,-56.5"/>
<text text-anchor="middle" x="628" y="-63.5" font-family="Helvetica,sans-Serif" font-size="10.00">IVKeyboardControl.h</text>
</a>
</g>
</g>
<!-- Node8&#45;&gt;Node13 -->
<g id="edge12" class="edge"><title>Node8&#45;&gt;Node13</title>
<path fill="none" stroke="midnightblue" d="M801.646,-111.023C761.409,-100.822 699.575,-85.1458 661.574,-75.5118"/>
<polygon fill="midnightblue" stroke="midnightblue" points="800.83,-114.427 811.383,-113.492 802.55,-107.641 800.83,-114.427"/>
</g>
<!-- Node14 -->
<g id="node14" class="node"><title>Node14</title>
<g id="a_node14"><a xlink:href="_i_v_meter_control_8h_source.html" target="_top" xlink:title="IVMeterControl.h">
<polygon fill="white" stroke="black" points="699.5,-56.5 699.5,-75.5 790.5,-75.5 790.5,-56.5 699.5,-56.5"/>
<text text-anchor="middle" x="745" y="-63.5" font-family="Helvetica,sans-Serif" font-size="10.00">IVMeterControl.h</text>
</a>
</g>
</g>
<!-- Node8&#45;&gt;Node14 -->
<g id="edge13" class="edge"><title>Node8&#45;&gt;Node14</title>
<path fill="none" stroke="midnightblue" d="M816.426,-107.177C798.761,-97.2407 775.487,-84.1492 760.386,-75.6545"/>
<polygon fill="midnightblue" stroke="midnightblue" points="815.144,-110.472 825.576,-112.324 818.576,-104.371 815.144,-110.472"/>
</g>
<!-- Node8&#45;&gt;Node15 -->
<g id="edge14" class="edge"><title>Node8&#45;&gt;Node15</title>
<path fill="none" stroke="midnightblue" d="M880.484,-112.042C926.056,-101.702 1000.31,-84.8533 1043.93,-74.9572"/>
<polygon fill="midnightblue" stroke="midnightblue" points="879.639,-108.644 870.662,-114.27 881.188,-115.471 879.639,-108.644"/>
</g>
<!-- Node8&#45;&gt;Node16 -->
<g id="edge16" class="edge"><title>Node8&#45;&gt;Node16</title>
<path fill="none" stroke="midnightblue" d="M872.023,-108.772C897.757,-98.6287 933.686,-84.4669 956.394,-75.5164"/>
<polygon fill="midnightblue" stroke="midnightblue" points="870.728,-105.52 862.708,-112.444 873.295,-112.033 870.728,-105.52"/>
</g>
<!-- Node10&#45;&gt;Node11 -->
<g id="edge10" class="edge"><title>Node10&#45;&gt;Node11</title>
<path fill="none" stroke="midnightblue" d="M858.467,-49.5372C869.344,-39.9087 882.944,-27.8694 892.021,-19.8339"/>
<polygon fill="midnightblue" stroke="midnightblue" points="855.968,-47.0749 850.801,-56.324 860.608,-52.3162 855.968,-47.0749"/>
</g>
<!-- Node17&#45;&gt;Node11 -->
<g id="edge41" class="edge"><title>Node17&#45;&gt;Node11</title>
<path fill="none" stroke="midnightblue" d="M1297.83,-166.084C1260.86,-157.269 1214.43,-144.342 1199,-132 1168.69,-107.76 1187.68,-78.4114 1156,-56 1122,-31.9488 1003.32,-19.0918 940.961,-13.8589"/>
<polygon fill="midnightblue" stroke="midnightblue" points="1297.44,-169.588 1307.98,-168.458 1299.04,-162.772 1297.44,-169.588"/>
</g>
<!-- Node17&#45;&gt;Node18 -->
<g id="edge18" class="edge"><title>Node17&#45;&gt;Node18</title>
<path fill="none" stroke="midnightblue" d="M1392.92,-166.024C1434.67,-155.823 1495.98,-140.841 1534.15,-131.516"/>
<polygon fill="midnightblue" stroke="midnightblue" points="1391.9,-162.67 1383.02,-168.444 1393.56,-169.47 1391.9,-162.67"/>
</g>
<!-- Node28 -->
<g id="node28" class="node"><title>Node28</title>
<g id="a_node28"><a xlink:href="_i_plug_v_s_t2_8cpp_source.html" target="_top" xlink:title="IPlugVST2.cpp">
<polygon fill="white" stroke="black" points="1324.5,-0.5 1324.5,-19.5 1407.5,-19.5 1407.5,-0.5 1324.5,-0.5"/>
<text text-anchor="middle" x="1366" y="-7.5" font-family="Helvetica,sans-Serif" font-size="10.00">IPlugVST2.cpp</text>
</a>
</g>
</g>
<!-- Node17&#45;&gt;Node28 -->
<g id="edge40" class="edge"><title>Node17&#45;&gt;Node28</title>
<path fill="none" stroke="midnightblue" d="M1350.07,-157.93C1353.97,-121.92 1362.29,-45.2312 1365.07,-19.5681"/>
<polygon fill="midnightblue" stroke="midnightblue" points="1346.57,-157.756 1348.97,-168.075 1353.53,-158.511 1346.57,-157.756"/>
</g>
<!-- Node39 -->
<g id="node39" class="node"><title>Node39</title>
<g id="a_node39"><a xlink:href="_i_plug_plugin_delegate_8cpp_source.html" target="_top" xlink:title="IPlugPluginDelegate.cpp">
<polygon fill="white" stroke="black" points="1208,-112.5 1208,-131.5 1332,-131.5 1332,-112.5 1208,-112.5"/>
<text text-anchor="middle" x="1270" y="-119.5" font-family="Helvetica,sans-Serif" font-size="10.00">IPlugPluginDelegate.cpp</text>
</a>
</g>
</g>
<!-- Node17&#45;&gt;Node39 -->
<g id="edge39" class="edge"><title>Node17&#45;&gt;Node39</title>
<path fill="none" stroke="midnightblue" d="M1327.23,-162.622C1312.98,-152.757 1294.54,-139.992 1282.5,-131.655"/>
<polygon fill="midnightblue" stroke="midnightblue" points="1325.25,-165.51 1335.47,-168.324 1329.24,-159.754 1325.25,-165.51"/>
</g>
<!-- Node19 -->
<g id="node19" class="node"><title>Node19</title>
<g id="a_node19"><a xlink:href="_i_plug_a_a_x_8h.html" target="_top" xlink:title="AAX API base class for an IPlug plug&#45;in, inherits from IPlugBase. ">
<polygon fill="white" stroke="black" points="2058,-56.5 2058,-75.5 2126,-75.5 2126,-56.5 2058,-56.5"/>
<text text-anchor="middle" x="2092" y="-63.5" font-family="Helvetica,sans-Serif" font-size="10.00">IPlugAAX.h</text>
</a>
</g>
</g>
<!-- Node18&#45;&gt;Node19 -->
<g id="edge19" class="edge"><title>Node18&#45;&gt;Node19</title>
<path fill="none" stroke="midnightblue" d="M1614.22,-118.468C1699.57,-113.311 1890.11,-99.9981 2049,-76 2051.87,-75.5672 2054.83,-75.0645 2057.8,-74.5224"/>
<polygon fill="midnightblue" stroke="midnightblue" points="1613.87,-114.982 1604.1,-119.071 1614.29,-121.97 1613.87,-114.982"/>
</g>
<!-- Node21 -->
<g id="node21" class="node"><title>Node21</title>
<g id="a_node21"><a xlink:href="_i_plug_a_p_p_8h.html" target="_top" xlink:title="Standalone application base class for an IPlug plug&#45;in, inherits from IPlugBase. ">
<polygon fill="white" stroke="black" points="2144,-56.5 2144,-75.5 2212,-75.5 2212,-56.5 2144,-56.5"/>
<text text-anchor="middle" x="2178" y="-63.5" font-family="Helvetica,sans-Serif" font-size="10.00">IPlugAPP.h</text>
</a>
</g>
</g>
<!-- Node18&#45;&gt;Node21 -->
<g id="edge21" class="edge"><title>Node18&#45;&gt;Node21</title>
<path fill="none" stroke="midnightblue" d="M1614.54,-119.342C1710.97,-115.403 1942.68,-103.658 2135,-76 2137.87,-75.5874 2140.83,-75.0991 2143.8,-74.5665"/>
<polygon fill="midnightblue" stroke="midnightblue" points="1614.13,-115.856 1604.28,-119.753 1614.41,-122.851 1614.13,-115.856"/>
</g>
<!-- Node23 -->
<g id="node23" class="node"><title>Node23</title>
<g id="a_node23"><a xlink:href="_i_plug_a_u_8h.html" target="_top" xlink:title="AudioUnit v2 API base class for an IPlug plug&#45;in, inherits from IPlugBase. ">
<polygon fill="white" stroke="black" points="1658,-56.5 1658,-75.5 1720,-75.5 1720,-56.5 1658,-56.5"/>
<text text-anchor="middle" x="1689" y="-63.5" font-family="Helvetica,sans-Serif" font-size="10.00">IPlugAU.h</text>
</a>
</g>
</g>
<!-- Node18&#45;&gt;Node23 -->
<g id="edge23" class="edge"><title>Node18&#45;&gt;Node23</title>
<path fill="none" stroke="midnightblue" d="M1597.37,-108.232C1619.82,-98.1312 1650.54,-84.3091 1670.07,-75.5164"/>
<polygon fill="midnightblue" stroke="midnightblue" points="1595.7,-105.148 1588.01,-112.444 1598.57,-111.532 1595.7,-105.148"/>
</g>
<!-- Node25 -->
<g id="node25" class="node"><title>Node25</title>
<g id="a_node25"><a xlink:href="_i_plug_base_8cpp_source.html" target="_top" xlink:title="IPlugBase.cpp">
<polygon fill="white" stroke="black" points="1470,-56.5 1470,-75.5 1550,-75.5 1550,-56.5 1470,-56.5"/>
<text text-anchor="middle" x="1510" y="-63.5" font-family="Helvetica,sans-Serif" font-size="10.00">IPlugBase.cpp</text>
</a>
</g>
</g>
<!-- Node18&#45;&gt;Node25 -->
<g id="edge25" class="edge"><title>Node18&#45;&gt;Node25</title>
<path fill="none" stroke="midnightblue" d="M1552.11,-105.537C1541.59,-95.9087 1528.43,-83.8694 1519.65,-75.8339"/>
<polygon fill="midnightblue" stroke="midnightblue" points="1549.78,-108.154 1559.52,-112.324 1554.51,-102.99 1549.78,-108.154"/>
</g>
<!-- Node26 -->
<g id="node26" class="node"><title>Node26</title>
<g id="a_node26"><a xlink:href="_i_plug_v_s_t2_8h.html" target="_top" xlink:title="IPlugVST2.h">
<polygon fill="white" stroke="black" points="1568,-56.5 1568,-75.5 1640,-75.5 1640,-56.5 1568,-56.5"/>
<text text-anchor="middle" x="1604" y="-63.5" font-family="Helvetica,sans-Serif" font-size="10.00">IPlugVST2.h</text>
</a>
</g>
</g>
<!-- Node18&#45;&gt;Node26 -->
<g id="edge26" class="edge"><title>Node18&#45;&gt;Node26</title>
<path fill="none" stroke="midnightblue" d="M1580.3,-103.566C1586.32,-94.2747 1593.47,-83.2484 1598.33,-75.7511"/>
<polygon fill="midnightblue" stroke="midnightblue" points="1577.28,-101.788 1574.78,-112.083 1583.16,-105.595 1577.28,-101.788"/>
</g>
<!-- Node29 -->
<g id="node29" class="node"><title>Node29</title>
<g id="a_node29"><a xlink:href="_i_plug_v_s_t3_8h.html" target="_top" xlink:title="VST3 base class for an IPlug plug&#45;in, inherits from IPlugBase. ">
<polygon fill="white" stroke="black" points="1738,-56.5 1738,-75.5 1810,-75.5 1810,-56.5 1738,-56.5"/>
<text text-anchor="middle" x="1774" y="-63.5" font-family="Helvetica,sans-Serif" font-size="10.00">IPlugVST3.h</text>
</a>
</g>
</g>
<!-- Node18&#45;&gt;Node29 -->
<g id="edge29" class="edge"><title>Node18&#45;&gt;Node29</title>
<path fill="none" stroke="midnightblue" d="M1611.41,-109.829C1650.11,-99.6333 1706.49,-84.7823 1741.67,-75.5164"/>
<polygon fill="midnightblue" stroke="midnightblue" points="1610.26,-106.512 1601.48,-112.444 1612.04,-113.281 1610.26,-106.512"/>
</g>
<!-- Node31 -->
<g id="node31" class="node"><title>Node31</title>
<g id="a_node31"><a xlink:href="_i_plug_v_s_t3___controller_8h_source.html" target="_top" xlink:title="IPlugVST3_Controller.h">
<polygon fill="white" stroke="black" points="1208.5,-56.5 1208.5,-75.5 1327.5,-75.5 1327.5,-56.5 1208.5,-56.5"/>
<text text-anchor="middle" x="1268" y="-63.5" font-family="Helvetica,sans-Serif" font-size="10.00">IPlugVST3_Controller.h</text>
</a>
</g>
</g>
<!-- Node18&#45;&gt;Node31 -->
<g id="edge31" class="edge"><title>Node18&#45;&gt;Node31</title>
<path fill="none" stroke="midnightblue" d="M1523.89,-112.907C1467.84,-102.851 1372.62,-85.7699 1315.49,-75.5198"/>
<polygon fill="midnightblue" stroke="midnightblue" points="1523.42,-116.379 1533.88,-114.7 1524.66,-109.489 1523.42,-116.379"/>
</g>
<!-- Node33 -->
<g id="node33" class="node"><title>Node33</title>
<g id="a_node33"><a xlink:href="_i_plug_v_s_t3___processor_8h_source.html" target="_top" xlink:title="IPlugVST3_Processor.h">
<polygon fill="white" stroke="black" points="1828,-56.5 1828,-75.5 1950,-75.5 1950,-56.5 1828,-56.5"/>
<text text-anchor="middle" x="1889" y="-63.5" font-family="Helvetica,sans-Serif" font-size="10.00">IPlugVST3_Processor.h</text>
</a>
</g>
</g>
<!-- Node18&#45;&gt;Node33 -->
<g id="edge33" class="edge"><title>Node18&#45;&gt;Node33</title>
<path fill="none" stroke="midnightblue" d="M1614.33,-113.35C1673.55,-103.357 1776.93,-85.9123 1838.56,-75.5111"/>
<polygon fill="midnightblue" stroke="midnightblue" points="1613.44,-109.951 1604.16,-115.067 1614.6,-116.854 1613.44,-109.951"/>
</g>
<!-- Node35 -->
<g id="node35" class="node"><title>Node35</title>
<g id="a_node35"><a xlink:href="_i_plug_w_a_m_8h_source.html" target="_top" xlink:title="IPlugWAM.h">
<polygon fill="white" stroke="black" points="1968,-56.5 1968,-75.5 2040,-75.5 2040,-56.5 1968,-56.5"/>
<text text-anchor="middle" x="2004" y="-63.5" font-family="Helvetica,sans-Serif" font-size="10.00">IPlugWAM.h</text>
</a>
</g>
</g>
<!-- Node18&#45;&gt;Node35 -->
<g id="edge35" class="edge"><title>Node18&#45;&gt;Node35</title>
<path fill="none" stroke="midnightblue" d="M1614.29,-116.998C1687.15,-110.285 1834.83,-95.5471 1959,-76 1961.83,-75.554 1964.76,-75.0554 1967.7,-74.5279"/>
<polygon fill="midnightblue" stroke="midnightblue" points="1613.73,-113.535 1604.09,-117.93 1614.37,-120.506 1613.73,-113.535"/>
</g>
<!-- Node37 -->
<g id="node37" class="node"><title>Node37</title>
<g id="a_node37"><a xlink:href="_i_plug_web_8h_source.html" target="_top" xlink:title="IPlugWeb.h">
<polygon fill="white" stroke="black" points="1384,-56.5 1384,-75.5 1452,-75.5 1452,-56.5 1384,-56.5"/>
<text text-anchor="middle" x="1418" y="-63.5" font-family="Helvetica,sans-Serif" font-size="10.00">IPlugWeb.h</text>
</a>
</g>
</g>
<!-- Node18&#45;&gt;Node37 -->
<g id="edge37" class="edge"><title>Node18&#45;&gt;Node37</title>
<path fill="none" stroke="midnightblue" d="M1535.55,-109.039C1507.14,-98.8786 1467.06,-84.5457 1441.81,-75.5164"/>
<polygon fill="midnightblue" stroke="midnightblue" points="1534.48,-112.372 1545.07,-112.444 1536.84,-105.781 1534.48,-112.372"/>
</g>
<!-- Node20 -->
<g id="node20" class="node"><title>Node20</title>
<g id="a_node20"><a xlink:href="_i_plug_a_a_x_8cpp_source.html" target="_top" xlink:title="IPlugAAX.cpp">
<polygon fill="white" stroke="black" points="2075,-0.5 2075,-19.5 2153,-19.5 2153,-0.5 2075,-0.5"/>
<text text-anchor="middle" x="2114" y="-7.5" font-family="Helvetica,sans-Serif" font-size="10.00">IPlugAAX.cpp</text>
</a>
</g>
</g>
<!-- Node19&#45;&gt;Node20 -->
<g id="edge20" class="edge"><title>Node19&#45;&gt;Node20</title>
<path fill="none" stroke="midnightblue" d="M2099.46,-46.6897C2103.17,-37.589 2107.48,-27.0141 2110.43,-19.7511"/>
<polygon fill="midnightblue" stroke="midnightblue" points="2096.16,-45.5015 2095.63,-56.083 2102.65,-48.1426 2096.16,-45.5015"/>
</g>
<!-- Node22 -->
<g id="node22" class="node"><title>Node22</title>
<g id="a_node22"><a xlink:href="_i_plug_a_p_p_8cpp_source.html" target="_top" xlink:title="IPlugAPP.cpp">
<polygon fill="white" stroke="black" points="2171,-0.5 2171,-19.5 2249,-19.5 2249,-0.5 2171,-0.5"/>
<text text-anchor="middle" x="2210" y="-7.5" font-family="Helvetica,sans-Serif" font-size="10.00">IPlugAPP.cpp</text>
</a>
</g>
</g>
<!-- Node21&#45;&gt;Node22 -->
<g id="edge22" class="edge"><title>Node21&#45;&gt;Node22</title>
<path fill="none" stroke="midnightblue" d="M2188.5,-47.2747C2193.97,-38.0454 2200.42,-27.1703 2204.81,-19.7511"/>
<polygon fill="midnightblue" stroke="midnightblue" points="2185.37,-45.6957 2183.28,-56.083 2191.39,-49.2644 2185.37,-45.6957"/>
</g>
<!-- Node24 -->
<g id="node24" class="node"><title>Node24</title>
<g id="a_node24"><a xlink:href="_i_plug_a_u_8cpp_source.html" target="_top" xlink:title="IPlugAU.cpp">
<polygon fill="white" stroke="black" points="1631,-0.5 1631,-19.5 1703,-19.5 1703,-0.5 1631,-0.5"/>
<text text-anchor="middle" x="1667" y="-7.5" font-family="Helvetica,sans-Serif" font-size="10.00">IPlugAU.cpp</text>
</a>
</g>
</g>
<!-- Node23&#45;&gt;Node24 -->
<g id="edge24" class="edge"><title>Node23&#45;&gt;Node24</title>
<path fill="none" stroke="midnightblue" d="M1681.54,-46.6897C1677.83,-37.589 1673.52,-27.0141 1670.57,-19.7511"/>
<polygon fill="midnightblue" stroke="midnightblue" points="1678.35,-48.1426 1685.37,-56.083 1684.84,-45.5015 1678.35,-48.1426"/>
</g>
<!-- Node27 -->
<g id="node27" class="node"><title>Node27</title>
<g id="a_node27"><a xlink:href="_i_plug_reaper_8h_source.html" target="_top" xlink:title="IPlugReaper.h">
<polygon fill="white" stroke="black" points="1533.5,-0.5 1533.5,-19.5 1612.5,-19.5 1612.5,-0.5 1533.5,-0.5"/>
<text text-anchor="middle" x="1573" y="-7.5" font-family="Helvetica,sans-Serif" font-size="10.00">IPlugReaper.h</text>
</a>
</g>
</g>
<!-- Node26&#45;&gt;Node27 -->
<g id="edge27" class="edge"><title>Node26&#45;&gt;Node27</title>
<path fill="none" stroke="midnightblue" d="M1593.82,-47.2747C1588.53,-38.0454 1582.28,-27.1703 1578.02,-19.7511"/>
<polygon fill="midnightblue" stroke="midnightblue" points="1590.87,-49.153 1598.88,-56.083 1596.94,-45.6679 1590.87,-49.153"/>
</g>
<!-- Node26&#45;&gt;Node28 -->
<g id="edge28" class="edge"><title>Node26&#45;&gt;Node28</title>
<path fill="none" stroke="midnightblue" d="M1558.07,-54.5785C1513.14,-44.3839 1445.53,-29.0446 1403.67,-19.5467"/>
<polygon fill="midnightblue" stroke="midnightblue" points="1557.33,-57.9991 1567.85,-56.7986 1558.88,-51.1726 1557.33,-57.9991"/>
</g>
<!-- Node30 -->
<g id="node30" class="node"><title>Node30</title>
<g id="a_node30"><a xlink:href="_i_plug_v_s_t3_8cpp_source.html" target="_top" xlink:title="IPlugVST3.cpp">
<polygon fill="white" stroke="black" points="1721.5,-0.5 1721.5,-19.5 1804.5,-19.5 1804.5,-0.5 1721.5,-0.5"/>
<text text-anchor="middle" x="1763" y="-7.5" font-family="Helvetica,sans-Serif" font-size="10.00">IPlugVST3.cpp</text>
</a>
</g>
</g>
<!-- Node29&#45;&gt;Node30 -->
<g id="edge30" class="edge"><title>Node29&#45;&gt;Node30</title>
<path fill="none" stroke="midnightblue" d="M1770.15,-46.1005C1768.32,-37.1357 1766.23,-26.8579 1764.78,-19.7511"/>
<polygon fill="midnightblue" stroke="midnightblue" points="1766.76,-46.9829 1772.18,-56.083 1773.62,-45.5856 1766.76,-46.9829"/>
</g>
<!-- Node32 -->
<g id="node32" class="node"><title>Node32</title>
<g id="a_node32"><a xlink:href="_i_plug_v_s_t3___controller_8cpp_source.html" target="_top" xlink:title="IPlugVST3_Controller.cpp">
<polygon fill="white" stroke="black" points="1176,-0.5 1176,-19.5 1306,-19.5 1306,-0.5 1176,-0.5"/>
<text text-anchor="middle" x="1241" y="-7.5" font-family="Helvetica,sans-Serif" font-size="10.00">IPlugVST3_Controller.cpp</text>
</a>
</g>
</g>
<!-- Node31&#45;&gt;Node32 -->
<g id="edge32" class="edge"><title>Node31&#45;&gt;Node32</title>
<path fill="none" stroke="midnightblue" d="M1258.99,-46.9827C1254.41,-37.8168 1249.05,-27.0922 1245.38,-19.7511"/>
<polygon fill="midnightblue" stroke="midnightblue" points="1255.94,-48.704 1263.54,-56.083 1262.2,-45.5734 1255.94,-48.704"/>
</g>
<!-- Node34 -->
<g id="node34" class="node"><title>Node34</title>
<g id="a_node34"><a xlink:href="_i_plug_v_s_t3___processor_8cpp_source.html" target="_top" xlink:title="IPlugVST3_Processor.cpp">
<polygon fill="white" stroke="black" points="1823,-0.5 1823,-19.5 1955,-19.5 1955,-0.5 1823,-0.5"/>
<text text-anchor="middle" x="1889" y="-7.5" font-family="Helvetica,sans-Serif" font-size="10.00">IPlugVST3_Processor.cpp</text>
</a>
</g>
</g>
<!-- Node33&#45;&gt;Node34 -->
<g id="edge34" class="edge"><title>Node33&#45;&gt;Node34</title>
<path fill="none" stroke="midnightblue" d="M1889,-45.8045C1889,-36.9102 1889,-26.7798 1889,-19.7511"/>
<polygon fill="midnightblue" stroke="midnightblue" points="1885.5,-46.083 1889,-56.083 1892.5,-46.083 1885.5,-46.083"/>
</g>
<!-- Node36 -->
<g id="node36" class="node"><title>Node36</title>
<g id="a_node36"><a xlink:href="_i_plug_w_a_m_8cpp_source.html" target="_top" xlink:title="IPlugWAM.cpp">
<polygon fill="white" stroke="black" points="1973.5,-0.5 1973.5,-19.5 2056.5,-19.5 2056.5,-0.5 1973.5,-0.5"/>
<text text-anchor="middle" x="2015" y="-7.5" font-family="Helvetica,sans-Serif" font-size="10.00">IPlugWAM.cpp</text>
</a>
</g>
</g>
<!-- Node35&#45;&gt;Node36 -->
<g id="edge36" class="edge"><title>Node35&#45;&gt;Node36</title>
<path fill="none" stroke="midnightblue" d="M2007.85,-46.1005C2009.68,-37.1357 2011.77,-26.8579 2013.22,-19.7511"/>
<polygon fill="midnightblue" stroke="midnightblue" points="2004.38,-45.5856 2005.82,-56.083 2011.24,-46.9829 2004.38,-45.5856"/>
</g>
<!-- Node38 -->
<g id="node38" class="node"><title>Node38</title>
<g id="a_node38"><a xlink:href="_i_plug_web_8cpp_source.html" target="_top" xlink:title="IPlugWeb.cpp">
<polygon fill="white" stroke="black" points="1426,-0.5 1426,-19.5 1504,-19.5 1504,-0.5 1426,-0.5"/>
<text text-anchor="middle" x="1465" y="-7.5" font-family="Helvetica,sans-Serif" font-size="10.00">IPlugWeb.cpp</text>
</a>
</g>
</g>
<!-- Node37&#45;&gt;Node38 -->
<g id="edge38" class="edge"><title>Node37&#45;&gt;Node38</title>
<path fill="none" stroke="midnightblue" d="M1432.42,-48.4314C1440.66,-38.9673 1450.65,-27.4827 1457.38,-19.7511"/>
<polygon fill="midnightblue" stroke="midnightblue" points="1429.69,-46.2421 1425.76,-56.083 1434.97,-50.8378 1429.69,-46.2421"/>
</g>
<!-- Node41&#45;&gt;Node4 -->
<g id="edge48" class="edge"><title>Node41&#45;&gt;Node4</title>
<path fill="none" stroke="midnightblue" d="M1070.42,-226.337C1007.52,-217.678 894.54,-202.007 798,-188 795.081,-187.577 792.083,-187.138 789.058,-186.693"/>
<polygon fill="midnightblue" stroke="midnightblue" points="1070.06,-229.821 1080.44,-227.717 1071.01,-222.886 1070.06,-229.821"/>
</g>
<!-- Node41&#45;&gt;Node17 -->
<g id="edge49" class="edge"><title>Node41&#45;&gt;Node17</title>
<path fill="none" stroke="midnightblue" d="M1165.27,-222.088C1208.54,-211.887 1272.26,-196.861 1311.88,-187.516"/>
<polygon fill="midnightblue" stroke="midnightblue" points="1164.22,-218.742 1155.29,-224.444 1165.82,-225.555 1164.22,-218.742"/>
</g>
<!-- Node41&#45;&gt;Node42 -->
<g id="edge50" class="edge"><title>Node41&#45;&gt;Node42</title>
<path fill="none" stroke="midnightblue" d="M1070.28,-223.537C1014.13,-212.629 923.321,-194.99 874.542,-185.515"/>
<polygon fill="midnightblue" stroke="midnightblue" points="1069.86,-227.02 1080.35,-225.492 1071.2,-220.149 1069.86,-227.02"/>
</g>
<!-- Node42&#45;&gt;Node8 -->
<g id="edge54" class="edge"><title>Node42&#45;&gt;Node8</title>
<path fill="none" stroke="midnightblue" d="M841,-157.805C841,-148.91 841,-138.78 841,-131.751"/>
<polygon fill="midnightblue" stroke="midnightblue" points="837.5,-158.083 841,-168.083 844.5,-158.083 837.5,-158.083"/>
</g>
<!-- Node42&#45;&gt;Node9 -->
<g id="edge51" class="edge"><title>Node42&#45;&gt;Node9</title>
<path fill="none" stroke="midnightblue" d="M797.525,-167.416C701.45,-146.237 472.341,-95.7326 380.779,-75.5485"/>
<polygon fill="midnightblue" stroke="midnightblue" points="796.965,-170.877 807.484,-169.612 798.472,-164.041 796.965,-170.877"/>
</g>
<!-- Node42&#45;&gt;Node11 -->
<g id="edge55" class="edge"><title>Node42&#45;&gt;Node11</title>
<path fill="none" stroke="midnightblue" d="M797.317,-168.055C797.211,-168.037 797.106,-168.018 797,-168 558.908,-126.816 100.274,-232.774 265,-56 305.814,-12.2011 731.244,-10.2767 863.194,-10.7446"/>
<polygon fill="midnightblue" stroke="midnightblue" points="796.94,-171.544 807.408,-169.909 798.205,-164.659 796.94,-171.544"/>
</g>
<!-- Node43 -->
<g id="node43" class="node"><title>Node43</title>
<g id="a_node43"><a xlink:href="_i_graphics_lice_8h_source.html" target="_top" xlink:title="IGraphicsLice.h">
<polygon fill="white" stroke="black" points="4.5,-112.5 4.5,-131.5 89.5,-131.5 89.5,-112.5 4.5,-112.5"/>
<text text-anchor="middle" x="47" y="-119.5" font-family="Helvetica,sans-Serif" font-size="10.00">IGraphicsLice.h</text>
</a>
</g>
</g>
<!-- Node42&#45;&gt;Node43 -->
<g id="edge52" class="edge"><title>Node42&#45;&gt;Node43</title>
<path fill="none" stroke="midnightblue" d="M797.319,-168.041C797.213,-168.027 797.106,-168.014 797,-168 488.853,-128.764 407.707,-166.55 99,-132 95.9042,-131.654 92.7136,-131.24 89.5078,-130.784"/>
<polygon fill="midnightblue" stroke="midnightblue" points="797.039,-171.539 807.454,-169.598 798.102,-164.62 797.039,-171.539"/>
</g>
<!-- Node45 -->
<g id="node45" class="node"><title>Node45</title>
<g id="a_node45"><a xlink:href="_i_graphics_path_base_8h_source.html" target="_top" xlink:title="IGraphicsPathBase.h">
<polygon fill="white" stroke="red" points="108,-112.5 108,-131.5 218,-131.5 218,-112.5 108,-112.5"/>
<text text-anchor="middle" x="163" y="-119.5" font-family="Helvetica,sans-Serif" font-size="10.00">IGraphicsPathBase.h</text>
</a>
</g>
</g>
<!-- Node42&#45;&gt;Node45 -->
<g id="edge56" class="edge"><title>Node42&#45;&gt;Node45</title>
<path fill="none" stroke="midnightblue" d="M797.319,-168.043C797.213,-168.028 797.106,-168.014 797,-168 547.592,-134.709 482.446,-156.285 232,-132 227.551,-131.569 222.947,-131.074 218.325,-130.543"/>
<polygon fill="midnightblue" stroke="midnightblue" points="797.026,-171.54 807.449,-169.64 798.116,-164.625 797.026,-171.54"/>
</g>
<!-- Node44 -->
<g id="node44" class="node"><title>Node44</title>
<g id="a_node44"><a xlink:href="_i_graphics_lice_8cpp_source.html" target="_top" xlink:title="IGraphicsLice.cpp">
<polygon fill="white" stroke="black" points="-0.5,-56.5 -0.5,-75.5 94.5,-75.5 94.5,-56.5 -0.5,-56.5"/>
<text text-anchor="middle" x="47" y="-63.5" font-family="Helvetica,sans-Serif" font-size="10.00">IGraphicsLice.cpp</text>
</a>
</g>
</g>
<!-- Node43&#45;&gt;Node44 -->
<g id="edge53" class="edge"><title>Node43&#45;&gt;Node44</title>
<path fill="none" stroke="midnightblue" d="M47,-101.805C47,-92.9102 47,-82.7798 47,-75.7511"/>
<polygon fill="midnightblue" stroke="midnightblue" points="43.5001,-102.083 47,-112.083 50.5001,-102.083 43.5001,-102.083"/>
</g>
<!-- Node46&#45;&gt;Node19 -->
<g id="edge59" class="edge"><title>Node46&#45;&gt;Node19</title>
<path fill="none" stroke="midnightblue" d="M1882.32,-110.449C1926.5,-101.354 1991.96,-87.8566 2049,-76 2051.84,-75.4102 2054.78,-74.7971 2057.73,-74.1808"/>
<polygon fill="midnightblue" stroke="midnightblue" points="1881.48,-107.047 1872.39,-112.491 1882.89,-113.903 1881.48,-107.047"/>
</g>
<!-- Node46&#45;&gt;Node21 -->
<g id="edge60" class="edge"><title>Node46&#45;&gt;Node21</title>
<path fill="none" stroke="midnightblue" d="M1887.44,-113.666C1948.6,-105.481 2048.98,-91.3546 2135,-76 2137.85,-75.4907 2140.81,-74.9343 2143.77,-74.356"/>
<polygon fill="midnightblue" stroke="midnightblue" points="1886.68,-110.236 1877.23,-115.026 1887.61,-117.175 1886.68,-110.236"/>
</g>
<!-- Node46&#45;&gt;Node23 -->
<g id="edge61" class="edge"><title>Node46&#45;&gt;Node23</title>
<path fill="none" stroke="midnightblue" d="M1798.84,-108.772C1772.17,-98.6287 1734.93,-84.4669 1711.4,-75.5164"/>
<polygon fill="midnightblue" stroke="midnightblue" points="1797.91,-112.16 1808.5,-112.444 1800.4,-105.618 1797.91,-112.16"/>
</g>
<!-- Node46&#45;&gt;Node26 -->
<g id="edge64" class="edge"><title>Node46&#45;&gt;Node26</title>
<path fill="none" stroke="midnightblue" d="M1785.13,-110.088C1742.25,-99.8865 1679.08,-84.8612 1639.8,-75.5164"/>
<polygon fill="midnightblue" stroke="midnightblue" points="1784.49,-113.534 1795.03,-112.444 1786.11,-106.724 1784.49,-113.534"/>
</g>
<!-- Node46&#45;&gt;Node29 -->
<g id="edge65" class="edge"><title>Node46&#45;&gt;Node29</title>
<path fill="none" stroke="midnightblue" d="M1814.38,-105.253C1804.27,-95.6731 1791.72,-83.7906 1783.32,-75.8339"/>
<polygon fill="midnightblue" stroke="midnightblue" points="1812.18,-107.987 1821.84,-112.324 1816.99,-102.906 1812.18,-107.987"/>
</g>
<!-- Node46&#45;&gt;Node33 -->
<g id="edge66" class="edge"><title>Node46&#45;&gt;Node33</title>
<path fill="none" stroke="midnightblue" d="M1847.91,-105.253C1858.2,-95.6731 1870.97,-83.7906 1879.51,-75.8339"/>
<polygon fill="midnightblue" stroke="midnightblue" points="1845.25,-102.948 1840.32,-112.324 1850.02,-108.071 1845.25,-102.948"/>
</g>
<!-- Node46&#45;&gt;Node35 -->
<g id="edge67" class="edge"><title>Node46&#45;&gt;Node35</title>
<path fill="none" stroke="midnightblue" d="M1868.05,-109.436C1900.66,-99.2551 1947.41,-84.664 1976.72,-75.5164"/>
<polygon fill="midnightblue" stroke="midnightblue" points="1866.92,-106.123 1858.41,-112.444 1869,-112.805 1866.92,-106.123"/>
</g>
<!-- Node47 -->
<g id="node47" class="node"><title>Node47</title>
<g id="a_node47"><a xlink:href="_i_plug_processor_8cpp_source.html" target="_top" xlink:title="IPlugProcessor.cpp">
<polygon fill="white" stroke="black" points="2230,-56.5 2230,-75.5 2332,-75.5 2332,-56.5 2230,-56.5"/>
<text text-anchor="middle" x="2281" y="-63.5" font-family="Helvetica,sans-Serif" font-size="10.00">IPlugProcessor.cpp</text>
</a>
</g>
</g>
<!-- Node46&#45;&gt;Node47 -->
<g id="edge62" class="edge"><title>Node46&#45;&gt;Node47</title>
<path fill="none" stroke="midnightblue" d="M1887.27,-114.44C1961.71,-106.207 2096.65,-91.3013 2212,-76 2217.74,-75.2382 2223.79,-74.3883 2229.83,-73.5233"/>
<polygon fill="midnightblue" stroke="midnightblue" points="1886.73,-110.978 1877.18,-115.557 1887.5,-117.936 1886.73,-110.978"/>
</g>
<!-- Node47&#45;&gt;Node46 -->
<g id="edge63" class="edge"><title>Node47&#45;&gt;Node46</title>
<path fill="none" stroke="midnightblue" d="M2223.49,-76.8517C2095.19,-93.6991 1949.89,-109.454 1877.18,-116.758"/>
<polygon fill="midnightblue" stroke="midnightblue" points="2224.02,-80.3115 2233.48,-75.5329 2223.11,-73.3717 2224.02,-80.3115"/>
</g>
<!-- Node48&#45;&gt;Node17 -->
<g id="edge69" class="edge"><title>Node48&#45;&gt;Node17</title>
<path fill="none" stroke="midnightblue" d="M1530.73,-222.088C1487.46,-211.887 1423.74,-196.861 1384.12,-187.516"/>
<polygon fill="midnightblue" stroke="midnightblue" points="1530.18,-225.555 1540.71,-224.444 1531.78,-218.742 1530.18,-225.555"/>
</g>
<!-- Node48&#45;&gt;Node18 -->
<g id="edge70" class="edge"><title>Node48&#45;&gt;Node18</title>
<path fill="none" stroke="midnightblue" d="M1575.64,-214.348C1573.89,-190.254 1570.91,-149.308 1569.62,-131.591"/>
<polygon fill="midnightblue" stroke="midnightblue" points="1572.16,-214.649 1576.37,-224.368 1579.14,-214.141 1572.16,-214.649"/>
</g>
<!-- Node48&#45;&gt;Node46 -->
<g id="edge71" class="edge"><title>Node48&#45;&gt;Node46</title>
<path fill="none" stroke="midnightblue" d="M1586.97,-215.469C1596.39,-200.535 1611.91,-179.69 1631,-168 1678.35,-139.006 1742.26,-128.638 1784.96,-124.963"/>
<polygon fill="midnightblue" stroke="midnightblue" points="1583.83,-213.899 1581.68,-224.274 1589.83,-217.503 1583.83,-213.899"/>
</g>
</g>
</svg>
