<?xml version="1.0" encoding="UTF-8" standalone="no"?>
<!DOCTYPE svg PUBLIC "-//W3C//DTD SVG 1.1//EN"
 "http://www.w3.org/Graphics/SVG/1.1/DTD/svg11.dtd">
<!-- Generated by graphviz version 2.36.0 (20140111.2315)
 -->
<!-- Title: IPlugAAX.h Pages: 1 -->
<svg width="2210pt" height="476pt"
 viewBox="0.00 0.00 2210.00 476.00" xmlns="http://www.w3.org/2000/svg" xmlns:xlink="http://www.w3.org/1999/xlink">
<g id="graph0" class="graph" transform="scale(1 1) rotate(0) translate(4 472)">
<title>IPlugAAX.h</title>
<polygon fill="white" stroke="none" points="-4,4 -4,-472 2206,-472 2206,4 -4,4"/>
<!-- Node1 -->
<g id="node1" class="node"><title>Node1</title>
<polygon fill="#bfbfbf" stroke="black" points="1645,-448.5 1645,-467.5 1713,-467.5 1713,-448.5 1645,-448.5"/>
<text text-anchor="middle" x="1679" y="-455.5" font-family="Helvetica,sans-Serif" font-size="10.00">IPlugAAX.h</text>
</g>
<!-- Node2 -->
<g id="node2" class="node"><title>Node2</title>
<g id="a_node2"><a xlink:href="_i_plug_platform_8h.html" target="_top" xlink:title="Include to get consistently named preprocessor macros for different platforms and logging functionali...">
<polygon fill="white" stroke="black" points="1361,-56.5 1361,-75.5 1445,-75.5 1445,-56.5 1361,-56.5"/>
<text text-anchor="middle" x="1403" y="-63.5" font-family="Helvetica,sans-Serif" font-size="10.00">IPlugPlatform.h</text>
</a>
</g>
</g>
<!-- Node1&#45;&gt;Node2 -->
<g id="edge1" class="edge"><title>Node1&#45;&gt;Node2</title>
<path fill="none" stroke="midnightblue" d="M1657.71,-448.492C1641.81,-441.099 1620.72,-428.908 1608,-412 1589.9,-387.951 1589,-377.098 1589,-347 1589,-347 1589,-347 1589,-177 1589,-114.487 1510.2,-86.75 1455.18,-75.0022"/>
<polygon fill="midnightblue" stroke="midnightblue" points="1455.7,-71.5371 1445.21,-72.9899 1454.32,-78.3988 1455.7,-71.5371"/>
</g>
<!-- Node5 -->
<g id="node5" class="node"><title>Node5</title>
<g id="a_node5"><a xlink:href="_i_plug_base_8h.html" target="_top" xlink:title="The base class of an IPlug plug&#45;in, which interacts with the different plug&#45;in APIs. ">
<polygon fill="white" stroke="black" points="1174,-392.5 1174,-411.5 1244,-411.5 1244,-392.5 1174,-392.5"/>
<text text-anchor="middle" x="1209" y="-399.5" font-family="Helvetica,sans-Serif" font-size="10.00">IPlugBase.h</text>
</a>
</g>
</g>
<!-- Node1&#45;&gt;Node5 -->
<g id="edge4" class="edge"><title>Node1&#45;&gt;Node5</title>
<path fill="none" stroke="midnightblue" d="M1644.82,-453.073C1561.44,-443.493 1347.61,-418.926 1254.01,-408.172"/>
<polygon fill="midnightblue" stroke="midnightblue" points="1254.34,-404.686 1244.01,-407.022 1253.54,-411.641 1254.34,-404.686"/>
</g>
<!-- Node33 -->
<g id="node33" class="node"><title>Node33</title>
<g id="a_node33"><a xlink:href="_i_plug_processor_8h.html" target="_top" xlink:title="The base class for IPlug Audio Processing. ">
<polygon fill="white" stroke="black" points="838,-280.5 838,-299.5 930,-299.5 930,-280.5 838,-280.5"/>
<text text-anchor="middle" x="884" y="-287.5" font-family="Helvetica,sans-Serif" font-size="10.00">IPlugProcessor.h</text>
</a>
</g>
</g>
<!-- Node1&#45;&gt;Node33 -->
<g id="edge67" class="edge"><title>Node1&#45;&gt;Node33</title>
<path fill="none" stroke="midnightblue" d="M1644.98,-456.477C1562.11,-454.674 1343.5,-446.725 1165,-412 1081.51,-395.757 1058.91,-392.329 982,-356 952.518,-342.073 921.68,-320.225 902.652,-305.76"/>
<polygon fill="midnightblue" stroke="midnightblue" points="904.606,-302.847 894.552,-299.503 900.327,-308.386 904.606,-302.847"/>
</g>
<!-- Node38 -->
<g id="node38" class="node"><title>Node38</title>
<polygon fill="white" stroke="#bfbfbf" points="1617.5,-392.5 1617.5,-411.5 1740.5,-411.5 1740.5,-392.5 1617.5,-392.5"/>
<text text-anchor="middle" x="1679" y="-399.5" font-family="Helvetica,sans-Serif" font-size="10.00">IPlugAAX_Parameters.h</text>
</g>
<!-- Node1&#45;&gt;Node38 -->
<g id="edge84" class="edge"><title>Node1&#45;&gt;Node38</title>
<path fill="none" stroke="midnightblue" d="M1679,-448.083C1679,-441.006 1679,-430.861 1679,-421.986"/>
<polygon fill="midnightblue" stroke="midnightblue" points="1682.5,-421.751 1679,-411.751 1675.5,-421.751 1682.5,-421.751"/>
</g>
<!-- Node39 -->
<g id="node39" class="node"><title>Node39</title>
<polygon fill="white" stroke="#bfbfbf" points="1759,-392.5 1759,-411.5 1861,-411.5 1861,-392.5 1759,-392.5"/>
<text text-anchor="middle" x="1810" y="-399.5" font-family="Helvetica,sans-Serif" font-size="10.00">AAX_CEffectGUI.h</text>
</g>
<!-- Node1&#45;&gt;Node39 -->
<g id="edge85" class="edge"><title>Node1&#45;&gt;Node39</title>
<path fill="none" stroke="midnightblue" d="M1699.76,-448.444C1721.32,-439.557 1755.26,-425.563 1779.79,-415.451"/>
<polygon fill="midnightblue" stroke="midnightblue" points="1781.43,-418.563 1789.34,-411.516 1778.76,-412.092 1781.43,-418.563"/>
</g>
<!-- Node40 -->
<g id="node40" class="node"><title>Node40</title>
<polygon fill="white" stroke="#bfbfbf" points="1879,-392.5 1879,-411.5 2047,-411.5 2047,-392.5 1879,-392.5"/>
<text text-anchor="middle" x="1963" y="-399.5" font-family="Helvetica,sans-Serif" font-size="10.00">AAX_Push8ByteStructAlignment.h</text>
</g>
<!-- Node1&#45;&gt;Node40 -->
<g id="edge86" class="edge"><title>Node1&#45;&gt;Node40</title>
<path fill="none" stroke="midnightblue" d="M1713.26,-450.486C1761.55,-441.304 1850.18,-424.452 1907.82,-413.491"/>
<polygon fill="midnightblue" stroke="midnightblue" points="1908.69,-416.89 1917.86,-411.584 1907.38,-410.013 1908.69,-416.89"/>
</g>
<!-- Node41 -->
<g id="node41" class="node"><title>Node41</title>
<polygon fill="white" stroke="#bfbfbf" points="2065.5,-392.5 2065.5,-411.5 2202.5,-411.5 2202.5,-392.5 2065.5,-392.5"/>
<text text-anchor="middle" x="2134" y="-399.5" font-family="Helvetica,sans-Serif" font-size="10.00">AAX_PopStructAlignment.h</text>
</g>
<!-- Node1&#45;&gt;Node41 -->
<g id="edge87" class="edge"><title>Node1&#45;&gt;Node41</title>
<path fill="none" stroke="midnightblue" d="M1713.2,-452.941C1785.33,-444.381 1954.66,-424.285 2055.15,-412.358"/>
<polygon fill="midnightblue" stroke="midnightblue" points="2055.74,-415.813 2065.25,-411.159 2054.91,-408.862 2055.74,-415.813"/>
</g>
<!-- Node3 -->
<g id="node3" class="node"><title>Node3</title>
<polygon fill="white" stroke="#bfbfbf" points="566,-0.5 566,-19.5 612,-19.5 612,-0.5 566,-0.5"/>
<text text-anchor="middle" x="589" y="-7.5" font-family="Helvetica,sans-Serif" font-size="10.00">cstring</text>
</g>
<!-- Node2&#45;&gt;Node3 -->
<g id="edge2" class="edge"><title>Node2&#45;&gt;Node3</title>
<path fill="none" stroke="midnightblue" d="M1360.86,-57.765C1356.2,-57.1014 1351.5,-56.4942 1347,-56 1067.65,-25.3376 727.919,-14.5374 622.082,-11.7823"/>
<polygon fill="midnightblue" stroke="midnightblue" points="622.103,-8.28176 612.017,-11.5264 621.925,-15.2795 622.103,-8.28176"/>
</g>
<!-- Node4 -->
<g id="node4" class="node"><title>Node4</title>
<polygon fill="white" stroke="#bfbfbf" points="1187.5,-0.5 1187.5,-19.5 1232.5,-19.5 1232.5,-0.5 1187.5,-0.5"/>
<text text-anchor="middle" x="1210" y="-7.5" font-family="Helvetica,sans-Serif" font-size="10.00">cstdlib</text>
</g>
<!-- Node2&#45;&gt;Node4 -->
<g id="edge3" class="edge"><title>Node2&#45;&gt;Node4</title>
<path fill="none" stroke="midnightblue" d="M1372.42,-56.4435C1337.01,-46.5369 1278.92,-30.2846 1242.66,-20.1375"/>
<polygon fill="midnightblue" stroke="midnightblue" points="1243.17,-16.6469 1232.6,-17.323 1241.29,-23.388 1243.17,-16.6469"/>
</g>
<!-- Node5&#45;&gt;Node2 -->
<g id="edge9" class="edge"><title>Node5&#45;&gt;Node2</title>
<path fill="none" stroke="midnightblue" d="M1244.08,-398.446C1310.45,-393.132 1451.56,-379.394 1494,-356 1527.65,-337.453 1551,-329.423 1551,-291 1551,-291 1551,-291 1551,-177 1551,-124.022 1489.16,-93.5711 1445.42,-78.6612"/>
<polygon fill="midnightblue" stroke="midnightblue" points="1446.44,-75.3109 1435.85,-75.542 1444.27,-81.9668 1446.44,-75.3109"/>
</g>
<!-- Node5&#45;&gt;Node3 -->
<g id="edge5" class="edge"><title>Node5&#45;&gt;Node3</title>
<path fill="none" stroke="midnightblue" d="M1173.8,-399.689C974.832,-392.055 0,-351.561 0,-291 0,-291 0,-291 0,-121 0,-77.8889 32.472,-73.2076 72,-56 159.475,-17.9198 456.047,-12.0479 555.886,-11.1556"/>
<polygon fill="midnightblue" stroke="midnightblue" points="556.024,-14.6547 565.997,-11.0765 555.969,-7.6549 556.024,-14.6547"/>
</g>
<!-- Node6 -->
<g id="node6" class="node"><title>Node6</title>
<polygon fill="white" stroke="#bfbfbf" points="863,-112.5 863,-131.5 909,-131.5 909,-112.5 863,-112.5"/>
<text text-anchor="middle" x="886" y="-119.5" font-family="Helvetica,sans-Serif" font-size="10.00">cstdint</text>
</g>
<!-- Node5&#45;&gt;Node6 -->
<g id="edge6" class="edge"><title>Node5&#45;&gt;Node6</title>
<path fill="none" stroke="midnightblue" d="M1191.29,-392.497C1174.76,-384.199 1149.75,-370.706 1130,-356 1034.39,-284.803 936.582,-179.544 900.502,-139.383"/>
<polygon fill="midnightblue" stroke="midnightblue" points="903.034,-136.964 893.763,-131.836 897.813,-141.627 903.034,-136.964"/>
</g>
<!-- Node7 -->
<g id="node7" class="node"><title>Node7</title>
<polygon fill="white" stroke="#bfbfbf" points="1217.5,-168.5 1217.5,-187.5 1266.5,-187.5 1266.5,-168.5 1217.5,-168.5"/>
<text text-anchor="middle" x="1242" y="-175.5" font-family="Helvetica,sans-Serif" font-size="10.00">ptrlist.h</text>
</g>
<!-- Node5&#45;&gt;Node7 -->
<g id="edge7" class="edge"><title>Node5&#45;&gt;Node7</title>
<path fill="none" stroke="midnightblue" d="M1209.33,-392.435C1210.44,-366.692 1214.77,-287.855 1228,-224 1229.85,-215.087 1232.73,-205.422 1235.4,-197.342"/>
<polygon fill="midnightblue" stroke="midnightblue" points="1238.73,-198.425 1238.69,-187.83 1232.12,-196.14 1238.73,-198.425"/>
</g>
<!-- Node8 -->
<g id="node8" class="node"><title>Node8</title>
<polygon fill="white" stroke="#bfbfbf" points="1139,-112.5 1139,-131.5 1191,-131.5 1191,-112.5 1139,-112.5"/>
<text text-anchor="middle" x="1165" y="-119.5" font-family="Helvetica,sans-Serif" font-size="10.00">mutex.h</text>
</g>
<!-- Node5&#45;&gt;Node8 -->
<g id="edge8" class="edge"><title>Node5&#45;&gt;Node8</title>
<path fill="none" stroke="midnightblue" d="M1221.61,-392.162C1255.1,-367.501 1342.14,-295.077 1318,-224 1307.91,-194.287 1299.94,-187.044 1275,-168 1253,-151.202 1223.85,-139.652 1201.09,-132.463"/>
<polygon fill="midnightblue" stroke="midnightblue" points="1202.03,-129.091 1191.44,-129.555 1200.01,-135.793 1202.03,-129.091"/>
</g>
<!-- Node9 -->
<g id="node9" class="node"><title>Node9</title>
<g id="a_node9"><a xlink:href="_i_plug_plugin_delegate_8h_source.html" target="_top" xlink:title="IPlugPluginDelegate.h">
<polygon fill="white" stroke="black" points="712.5,-336.5 712.5,-355.5 825.5,-355.5 825.5,-336.5 712.5,-336.5"/>
<text text-anchor="middle" x="769" y="-343.5" font-family="Helvetica,sans-Serif" font-size="10.00">IPlugPluginDelegate.h</text>
</a>
</g>
</g>
<!-- Node5&#45;&gt;Node9 -->
<g id="edge10" class="edge"><title>Node5&#45;&gt;Node9</title>
<path fill="none" stroke="midnightblue" d="M1173.74,-396.672C1100.44,-387.677 930.615,-366.835 835.894,-355.21"/>
<polygon fill="midnightblue" stroke="midnightblue" points="836.199,-351.721 825.847,-353.977 835.346,-358.669 836.199,-351.721"/>
</g>
<!-- Node15 -->
<g id="node15" class="node"><title>Node15</title>
<g id="a_node15"><a xlink:href="_i_plug_parameter_8h_source.html" target="_top" xlink:title="IPlugParameter.h">
<polygon fill="white" stroke="black" points="403,-168.5 403,-187.5 495,-187.5 495,-168.5 403,-168.5"/>
<text text-anchor="middle" x="449" y="-175.5" font-family="Helvetica,sans-Serif" font-size="10.00">IPlugParameter.h</text>
</a>
</g>
</g>
<!-- Node5&#45;&gt;Node15 -->
<g id="edge58" class="edge"><title>Node5&#45;&gt;Node15</title>
<path fill="none" stroke="midnightblue" d="M1173.84,-401.095C1090.81,-400.627 876.525,-395.351 703,-356 633.601,-340.262 614.382,-336.003 553,-300 519.817,-280.537 511.727,-273.47 487,-244 474.814,-229.477 464.24,-210.547 457.361,-196.865"/>
<polygon fill="midnightblue" stroke="midnightblue" points="460.372,-195.053 452.857,-187.585 454.075,-198.11 460.372,-195.053"/>
</g>
<!-- Node18 -->
<g id="node18" class="node"><title>Node18</title>
<g id="a_node18"><a xlink:href="_i_plug_utilities_8h.html" target="_top" xlink:title="Utility functions and macros. ">
<polygon fill="white" stroke="black" points="965,-112.5 965,-131.5 1045,-131.5 1045,-112.5 965,-112.5"/>
<text text-anchor="middle" x="1005" y="-119.5" font-family="Helvetica,sans-Serif" font-size="10.00">IPlugUtilities.h</text>
</a>
</g>
</g>
<!-- Node5&#45;&gt;Node18 -->
<g id="edge57" class="edge"><title>Node5&#45;&gt;Node18</title>
<path fill="none" stroke="midnightblue" d="M1197.73,-392.278C1169.87,-370.216 1096.94,-309.278 1054,-244 1032.18,-210.833 1017.28,-166.401 1010.04,-141.651"/>
<polygon fill="midnightblue" stroke="midnightblue" points="1013.34,-140.451 1007.26,-131.775 1006.6,-142.349 1013.34,-140.451"/>
</g>
<!-- Node23 -->
<g id="node23" class="node"><title>Node23</title>
<g id="a_node23"><a xlink:href="_i_plug_constants_8h.html" target="_top" xlink:title="Constant definitions, Types, magic numbers. ">
<polygon fill="white" stroke="black" points="1173,-56.5 1173,-75.5 1265,-75.5 1265,-56.5 1173,-56.5"/>
<text text-anchor="middle" x="1219" y="-63.5" font-family="Helvetica,sans-Serif" font-size="10.00">IPlugConstants.h</text>
</a>
</g>
</g>
<!-- Node5&#45;&gt;Node23 -->
<g id="edge55" class="edge"><title>Node5&#45;&gt;Node23</title>
<path fill="none" stroke="midnightblue" d="M1229.11,-392.349C1245.84,-384.5 1269.63,-371.759 1287,-356 1309.65,-335.446 1315.87,-328.491 1327,-300 1336.12,-276.636 1332.44,-269.034 1334,-244 1334.55,-235.128 1336.34,-232.576 1334,-224 1317.49,-163.478 1264.44,-108.16 1236.53,-82.3335"/>
<polygon fill="midnightblue" stroke="midnightblue" points="1238.82,-79.688 1229.06,-75.5709 1234.13,-84.8771 1238.82,-79.688"/>
</g>
<!-- Node25 -->
<g id="node25" class="node"><title>Node25</title>
<g id="a_node25"><a xlink:href="_i_plug_structs_8h_source.html" target="_top" xlink:title="IPlugStructs.h">
<polygon fill="white" stroke="black" points="1063.5,-224.5 1063.5,-243.5 1142.5,-243.5 1142.5,-224.5 1063.5,-224.5"/>
<text text-anchor="middle" x="1103" y="-231.5" font-family="Helvetica,sans-Serif" font-size="10.00">IPlugStructs.h</text>
</a>
</g>
</g>
<!-- Node5&#45;&gt;Node25 -->
<g id="edge56" class="edge"><title>Node5&#45;&gt;Node25</title>
<path fill="none" stroke="midnightblue" d="M1203.3,-392.075C1186.4,-365.606 1136.34,-287.209 1113.99,-252.21"/>
<polygon fill="midnightblue" stroke="midnightblue" points="1116.8,-250.113 1108.47,-243.568 1110.9,-253.88 1116.8,-250.113"/>
</g>
<!-- Node29 -->
<g id="node29" class="node"><title>Node29</title>
<g id="a_node29"><a xlink:href="_i_plug_queue_8h_source.html" target="_top" xlink:title="IPlugQueue.h">
<polygon fill="white" stroke="black" points="1409,-336.5 1409,-355.5 1485,-355.5 1485,-336.5 1409,-336.5"/>
<text text-anchor="middle" x="1447" y="-343.5" font-family="Helvetica,sans-Serif" font-size="10.00">IPlugQueue.h</text>
</a>
</g>
</g>
<!-- Node5&#45;&gt;Node29 -->
<g id="edge59" class="edge"><title>Node5&#45;&gt;Node29</title>
<path fill="none" stroke="midnightblue" d="M1244.12,-393.032C1285.23,-383.704 1353.52,-368.209 1399.38,-357.805"/>
<polygon fill="midnightblue" stroke="midnightblue" points="1400.4,-361.162 1409.38,-355.536 1398.85,-354.335 1400.4,-361.162"/>
</g>
<!-- Node32 -->
<g id="node32" class="node"><title>Node32</title>
<g id="a_node32"><a xlink:href="_i_plug_timer_8h_source.html" target="_top" xlink:title="IPlugTimer.h">
<polygon fill="white" stroke="black" points="1237,-224.5 1237,-243.5 1309,-243.5 1309,-224.5 1237,-224.5"/>
<text text-anchor="middle" x="1273" y="-231.5" font-family="Helvetica,sans-Serif" font-size="10.00">IPlugTimer.h</text>
</a>
</g>
</g>
<!-- Node5&#45;&gt;Node32 -->
<g id="edge62" class="edge"><title>Node5&#45;&gt;Node32</title>
<path fill="none" stroke="midnightblue" d="M1212.44,-392.075C1222.56,-365.832 1252.36,-288.545 1266.02,-253.117"/>
<polygon fill="midnightblue" stroke="midnightblue" points="1269.36,-254.158 1269.7,-243.568 1262.83,-251.64 1269.36,-254.158"/>
</g>
<!-- Node10 -->
<g id="node10" class="node"><title>Node10</title>
<polygon fill="white" stroke="#bfbfbf" points="770.5,-280.5 770.5,-299.5 819.5,-299.5 819.5,-280.5 770.5,-280.5"/>
<text text-anchor="middle" x="795" y="-287.5" font-family="Helvetica,sans-Serif" font-size="10.00">random</text>
</g>
<!-- Node9&#45;&gt;Node10 -->
<g id="edge11" class="edge"><title>Node9&#45;&gt;Node10</title>
<path fill="none" stroke="midnightblue" d="M773.293,-336.083C776.852,-328.691 782.022,-317.953 786.424,-308.811"/>
<polygon fill="midnightblue" stroke="midnightblue" points="789.602,-310.279 790.787,-299.751 783.295,-307.243 789.602,-310.279"/>
</g>
<!-- Node11 -->
<g id="node11" class="node"><title>Node11</title>
<g id="a_node11"><a xlink:href="_i_plug_delegate__select_8h_source.html" target="_top" xlink:title="IPlugDelegate_select.h">
<polygon fill="white" stroke="black" points="596,-280.5 596,-299.5 714,-299.5 714,-280.5 596,-280.5"/>
<text text-anchor="middle" x="655" y="-287.5" font-family="Helvetica,sans-Serif" font-size="10.00">IPlugDelegate_select.h</text>
</a>
</g>
</g>
<!-- Node9&#45;&gt;Node11 -->
<g id="edge12" class="edge"><title>Node9&#45;&gt;Node11</title>
<path fill="none" stroke="midnightblue" d="M750.936,-336.444C732.425,-327.675 703.419,-313.935 682.145,-303.858"/>
<polygon fill="midnightblue" stroke="midnightblue" points="683.515,-300.634 672.979,-299.516 680.518,-306.96 683.515,-300.634"/>
</g>
<!-- Node9&#45;&gt;Node15 -->
<g id="edge35" class="edge"><title>Node9&#45;&gt;Node15</title>
<path fill="none" stroke="midnightblue" d="M712.387,-338.11C675.154,-331.905 626.241,-320.485 587,-300 534.722,-272.709 485.905,-221.635 462.869,-195.431"/>
<polygon fill="midnightblue" stroke="midnightblue" points="465.263,-192.848 456.077,-187.568 459.965,-197.424 465.263,-192.848"/>
</g>
<!-- Node9&#45;&gt;Node25 -->
<g id="edge36" class="edge"><title>Node9&#45;&gt;Node25</title>
<path fill="none" stroke="midnightblue" d="M806.515,-336.424C841.212,-328.174 894.051,-314.799 939,-300 987.245,-284.116 1041.81,-261.533 1074.26,-247.597"/>
<polygon fill="midnightblue" stroke="midnightblue" points="1075.79,-250.745 1083.59,-243.566 1073.02,-244.32 1075.79,-250.745"/>
</g>
<!-- Node26 -->
<g id="node26" class="node"><title>Node26</title>
<g id="a_node26"><a xlink:href="_i_plug_logger_8h.html" target="_top" xlink:title="IPlug logging a.k.a tracing functionality. ">
<polygon fill="white" stroke="black" points="774.5,-168.5 774.5,-187.5 851.5,-187.5 851.5,-168.5 774.5,-168.5"/>
<text text-anchor="middle" x="813" y="-175.5" font-family="Helvetica,sans-Serif" font-size="10.00">IPlugLogger.h</text>
</a>
</g>
</g>
<!-- Node9&#45;&gt;Node26 -->
<g id="edge43" class="edge"><title>Node9&#45;&gt;Node26</title>
<path fill="none" stroke="midnightblue" d="M766.008,-336.247C759.47,-315.542 745.882,-262.412 764,-224 769.716,-211.881 780.315,-201.504 790.197,-193.779"/>
<polygon fill="midnightblue" stroke="midnightblue" points="792.529,-196.411 798.556,-187.697 788.41,-190.751 792.529,-196.411"/>
</g>
<!-- Node12 -->
<g id="node12" class="node"><title>Node12</title>
<g id="a_node12"><a xlink:href="_i_plug_delegate_8h_source.html" target="_top" xlink:title="IPlugDelegate.h">
<polygon fill="white" stroke="black" points="612,-224.5 612,-243.5 698,-243.5 698,-224.5 612,-224.5"/>
<text text-anchor="middle" x="655" y="-231.5" font-family="Helvetica,sans-Serif" font-size="10.00">IPlugDelegate.h</text>
</a>
</g>
</g>
<!-- Node11&#45;&gt;Node12 -->
<g id="edge13" class="edge"><title>Node11&#45;&gt;Node12</title>
<path fill="none" stroke="midnightblue" d="M655,-280.083C655,-273.006 655,-262.861 655,-253.986"/>
<polygon fill="midnightblue" stroke="midnightblue" points="658.5,-253.751 655,-243.751 651.5,-253.751 658.5,-253.751"/>
</g>
<!-- Node12&#45;&gt;Node3 -->
<g id="edge15" class="edge"><title>Node12&#45;&gt;Node3</title>
<path fill="none" stroke="midnightblue" d="M629.945,-224.447C595.004,-210.998 533.008,-181.235 507,-132 494.792,-108.888 522.613,-63.1304 528,-56 537.482,-43.4486 551.408,-32.8076 563.561,-25.0293"/>
<polygon fill="midnightblue" stroke="midnightblue" points="565.678,-27.839 572.406,-19.6551 562.043,-21.8567 565.678,-27.839"/>
</g>
<!-- Node12&#45;&gt;Node7 -->
<g id="edge17" class="edge"><title>Node12&#45;&gt;Node7</title>
<path fill="none" stroke="midnightblue" d="M698.164,-229.029C809.656,-218.773 1105.62,-191.546 1207.2,-182.201"/>
<polygon fill="midnightblue" stroke="midnightblue" points="1207.6,-185.679 1217.24,-181.278 1206.96,-178.709 1207.6,-185.679"/>
</g>
<!-- Node13 -->
<g id="node13" class="node"><title>Node13</title>
<polygon fill="white" stroke="#bfbfbf" points="575.5,-112.5 575.5,-131.5 624.5,-131.5 624.5,-112.5 575.5,-112.5"/>
<text text-anchor="middle" x="600" y="-119.5" font-family="Helvetica,sans-Serif" font-size="10.00">cassert</text>
</g>
<!-- Node12&#45;&gt;Node13 -->
<g id="edge14" class="edge"><title>Node12&#45;&gt;Node13</title>
<path fill="none" stroke="midnightblue" d="M644.883,-224.397C635.699,-216.029 622.482,-202.488 615,-188 607.527,-173.53 603.738,-155.343 601.84,-141.89"/>
<polygon fill="midnightblue" stroke="midnightblue" points="605.307,-141.405 600.652,-131.888 598.356,-142.231 605.307,-141.405"/>
</g>
<!-- Node14 -->
<g id="node14" class="node"><title>Node14</title>
<polygon fill="white" stroke="#bfbfbf" points="707.5,-168.5 707.5,-187.5 756.5,-187.5 756.5,-168.5 707.5,-168.5"/>
<text text-anchor="middle" x="732" y="-175.5" font-family="Helvetica,sans-Serif" font-size="10.00">stdint.h</text>
</g>
<!-- Node12&#45;&gt;Node14 -->
<g id="edge16" class="edge"><title>Node12&#45;&gt;Node14</title>
<path fill="none" stroke="midnightblue" d="M667.371,-224.324C679.158,-216.058 697.132,-203.453 711.136,-193.632"/>
<polygon fill="midnightblue" stroke="midnightblue" points="713.482,-196.262 719.659,-187.655 709.462,-190.531 713.482,-196.262"/>
</g>
<!-- Node12&#45;&gt;Node15 -->
<g id="edge18" class="edge"><title>Node12&#45;&gt;Node15</title>
<path fill="none" stroke="midnightblue" d="M622.359,-224.444C586.95,-215.162 530.291,-200.309 491.447,-190.127"/>
<polygon fill="midnightblue" stroke="midnightblue" points="492.049,-186.667 481.489,-187.516 490.274,-193.438 492.049,-186.667"/>
</g>
<!-- Node24 -->
<g id="node24" class="node"><title>Node24</title>
<g id="a_node24"><a xlink:href="_i_plug_midi_8h_source.html" target="_top" xlink:title="IPlugMidi.h">
<polygon fill="white" stroke="black" points="624.5,-168.5 624.5,-187.5 689.5,-187.5 689.5,-168.5 624.5,-168.5"/>
<text text-anchor="middle" x="657" y="-175.5" font-family="Helvetica,sans-Serif" font-size="10.00">IPlugMidi.h</text>
</a>
</g>
</g>
<!-- Node12&#45;&gt;Node24 -->
<g id="edge32" class="edge"><title>Node12&#45;&gt;Node24</title>
<path fill="none" stroke="midnightblue" d="M655.33,-224.083C655.592,-217.006 655.968,-206.861 656.297,-197.986"/>
<polygon fill="midnightblue" stroke="midnightblue" points="659.803,-197.874 656.676,-187.751 652.808,-197.615 659.803,-197.874"/>
</g>
<!-- Node15&#45;&gt;Node3 -->
<g id="edge19" class="edge"><title>Node15&#45;&gt;Node3</title>
<path fill="none" stroke="midnightblue" d="M413.202,-168.443C379.083,-158.437 335.332,-139.645 353,-112 397.662,-42.1168 502.1,-20.4629 555.808,-13.8478"/>
<polygon fill="midnightblue" stroke="midnightblue" points="556.296,-17.315 565.84,-12.7154 555.511,-10.3591 556.296,-17.315"/>
</g>
<!-- Node16 -->
<g id="node16" class="node"><title>Node16</title>
<polygon fill="white" stroke="#bfbfbf" points="362.5,-112.5 362.5,-131.5 421.5,-131.5 421.5,-112.5 362.5,-112.5"/>
<text text-anchor="middle" x="392" y="-119.5" font-family="Helvetica,sans-Serif" font-size="10.00">functional</text>
</g>
<!-- Node15&#45;&gt;Node16 -->
<g id="edge20" class="edge"><title>Node15&#45;&gt;Node16</title>
<path fill="none" stroke="midnightblue" d="M439.842,-168.324C431.499,-160.42 418.968,-148.548 408.823,-138.938"/>
<polygon fill="midnightblue" stroke="midnightblue" points="410.991,-136.171 401.325,-131.834 406.177,-141.252 410.991,-136.171"/>
</g>
<!-- Node17 -->
<g id="node17" class="node"><title>Node17</title>
<polygon fill="white" stroke="#bfbfbf" points="743,-56.5 743,-75.5 807,-75.5 807,-56.5 743,-56.5"/>
<text text-anchor="middle" x="775" y="-63.5" font-family="Helvetica,sans-Serif" font-size="10.00">wdlstring.h</text>
</g>
<!-- Node15&#45;&gt;Node17 -->
<g id="edge21" class="edge"><title>Node15&#45;&gt;Node17</title>
<path fill="none" stroke="midnightblue" d="M454.114,-168.127C462.913,-153.747 482.371,-125.593 507,-112 545.13,-90.9559 667.651,-76.8604 733.008,-70.6362"/>
<polygon fill="midnightblue" stroke="midnightblue" points="733.354,-74.1192 742.985,-69.7049 732.703,-67.1495 733.354,-74.1192"/>
</g>
<!-- Node15&#45;&gt;Node18 -->
<g id="edge22" class="edge"><title>Node15&#45;&gt;Node18</title>
<path fill="none" stroke="midnightblue" d="M495.276,-172.675C579.431,-164.783 763.148,-147.438 918,-132 929.803,-130.823 942.504,-129.527 954.456,-128.293"/>
<polygon fill="midnightblue" stroke="midnightblue" points="955.138,-131.741 964.724,-127.229 954.417,-124.778 955.138,-131.741"/>
</g>
<!-- Node18&#45;&gt;Node2 -->
<g id="edge31" class="edge"><title>Node18&#45;&gt;Node2</title>
<path fill="none" stroke="midnightblue" d="M1045.35,-115.525C1117.79,-105.697 1269.81,-85.0707 1350.34,-74.1444"/>
<polygon fill="midnightblue" stroke="midnightblue" points="1351.31,-77.546 1360.74,-72.7332 1350.36,-70.6095 1351.31,-77.546"/>
</g>
<!-- Node18&#45;&gt;Node3 -->
<g id="edge27" class="edge"><title>Node18&#45;&gt;Node3</title>
<path fill="none" stroke="midnightblue" d="M997.72,-112.499C984.87,-98.1358 956.615,-69.3286 926,-56 871.838,-32.42 696.36,-18.2038 622.38,-13.1236"/>
<polygon fill="midnightblue" stroke="midnightblue" points="622.441,-9.61983 612.228,-12.4403 621.97,-16.604 622.441,-9.61983"/>
</g>
<!-- Node18&#45;&gt;Node4 -->
<g id="edge26" class="edge"><title>Node18&#45;&gt;Node4</title>
<path fill="none" stroke="midnightblue" d="M1010.06,-112.465C1018.74,-98.5715 1037.77,-71.1012 1061,-56 1096.93,-32.6438 1145.51,-20.9564 1177.29,-15.4435"/>
<polygon fill="midnightblue" stroke="midnightblue" points="1178.08,-18.8624 1187.39,-13.8026 1176.95,-11.9531 1178.08,-18.8624"/>
</g>
<!-- Node18&#45;&gt;Node17 -->
<g id="edge29" class="edge"><title>Node18&#45;&gt;Node17</title>
<path fill="none" stroke="midnightblue" d="M968.556,-112.444C927.395,-102.78 860.517,-87.0778 817.144,-76.8947"/>
<polygon fill="midnightblue" stroke="midnightblue" points="817.727,-73.4364 807.191,-74.558 816.127,-80.2511 817.727,-73.4364"/>
</g>
<!-- Node19 -->
<g id="node19" class="node"><title>Node19</title>
<polygon fill="white" stroke="#bfbfbf" points="1070,-56.5 1070,-75.5 1126,-75.5 1126,-56.5 1070,-56.5"/>
<text text-anchor="middle" x="1098" y="-63.5" font-family="Helvetica,sans-Serif" font-size="10.00">algorithm</text>
</g>
<!-- Node18&#45;&gt;Node19 -->
<g id="edge23" class="edge"><title>Node18&#45;&gt;Node19</title>
<path fill="none" stroke="midnightblue" d="M1019.94,-112.324C1034.59,-103.822 1057.13,-90.7288 1074.24,-80.7975"/>
<polygon fill="midnightblue" stroke="midnightblue" points="1076.2,-83.7027 1083.1,-75.6545 1072.69,-77.6491 1076.2,-83.7027"/>
</g>
<!-- Node20 -->
<g id="node20" class="node"><title>Node20</title>
<polygon fill="white" stroke="#bfbfbf" points="537,-56.5 537,-75.5 581,-75.5 581,-56.5 537,-56.5"/>
<text text-anchor="middle" x="559" y="-63.5" font-family="Helvetica,sans-Serif" font-size="10.00">cmath</text>
</g>
<!-- Node18&#45;&gt;Node20 -->
<g id="edge24" class="edge"><title>Node18&#45;&gt;Node20</title>
<path fill="none" stroke="midnightblue" d="M964.756,-116.732C878.444,-107.527 677.878,-85.8463 610,-76 603.901,-75.1153 597.411,-74.0591 591.178,-72.9866"/>
<polygon fill="midnightblue" stroke="midnightblue" points="591.5,-69.4894 581.043,-71.1939 590.281,-76.3824 591.5,-69.4894"/>
</g>
<!-- Node21 -->
<g id="node21" class="node"><title>Node21</title>
<polygon fill="white" stroke="#bfbfbf" points="619.5,-56.5 619.5,-75.5 662.5,-75.5 662.5,-56.5 619.5,-56.5"/>
<text text-anchor="middle" x="641" y="-63.5" font-family="Helvetica,sans-Serif" font-size="10.00">cstdio</text>
</g>
<!-- Node18&#45;&gt;Node21 -->
<g id="edge25" class="edge"><title>Node18&#45;&gt;Node21</title>
<path fill="none" stroke="midnightblue" d="M964.655,-115.015C891.713,-104.194 739.329,-81.5873 672.997,-71.7468"/>
<polygon fill="midnightblue" stroke="midnightblue" points="673.153,-68.2317 662.747,-70.2262 672.125,-75.1559 673.153,-68.2317"/>
</g>
<!-- Node22 -->
<g id="node22" class="node"><title>Node22</title>
<polygon fill="white" stroke="#bfbfbf" points="871,-56.5 871,-75.5 917,-75.5 917,-56.5 871,-56.5"/>
<text text-anchor="middle" x="894" y="-63.5" font-family="Helvetica,sans-Serif" font-size="10.00">cctype</text>
</g>
<!-- Node18&#45;&gt;Node22 -->
<g id="edge28" class="edge"><title>Node18&#45;&gt;Node22</title>
<path fill="none" stroke="midnightblue" d="M987.166,-112.324C969.284,-103.625 941.525,-90.1202 920.954,-80.113"/>
<polygon fill="midnightblue" stroke="midnightblue" points="922.313,-76.8819 911.79,-75.6545 919.251,-83.1765 922.313,-76.8819"/>
</g>
<!-- Node18&#45;&gt;Node23 -->
<g id="edge30" class="edge"><title>Node18&#45;&gt;Node23</title>
<path fill="none" stroke="midnightblue" d="M1038.91,-112.444C1075.85,-103.122 1135.05,-88.1828 1175.42,-77.9972"/>
<polygon fill="midnightblue" stroke="midnightblue" points="1176.41,-81.3568 1185.25,-75.5164 1174.7,-74.5695 1176.41,-81.3568"/>
</g>
<!-- Node24&#45;&gt;Node6 -->
<g id="edge34" class="edge"><title>Node24&#45;&gt;Node6</title>
<path fill="none" stroke="midnightblue" d="M689.72,-169.657C737.065,-159.003 822.355,-139.694 853,-132 853.101,-131.975 853.202,-131.949 853.303,-131.924"/>
<polygon fill="midnightblue" stroke="midnightblue" points="854.156,-135.319 862.952,-129.414 852.393,-128.544 854.156,-135.319"/>
</g>
<!-- Node24&#45;&gt;Node13 -->
<g id="edge33" class="edge"><title>Node24&#45;&gt;Node13</title>
<path fill="none" stroke="midnightblue" d="M647.842,-168.324C639.499,-160.42 626.968,-148.548 616.823,-138.938"/>
<polygon fill="midnightblue" stroke="midnightblue" points="618.991,-136.171 609.325,-131.834 614.177,-141.252 618.991,-136.171"/>
</g>
<!-- Node25&#45;&gt;Node2 -->
<g id="edge41" class="edge"><title>Node25&#45;&gt;Node2</title>
<path fill="none" stroke="midnightblue" d="M1116.9,-224.312C1143.32,-207.814 1198.96,-173.131 1208,-168 1266.9,-134.58 1337.94,-98.9121 1375.92,-80.2056"/>
<polygon fill="midnightblue" stroke="midnightblue" points="1377.85,-83.1602 1385.28,-75.6107 1374.76,-76.8769 1377.85,-83.1602"/>
</g>
<!-- Node25&#45;&gt;Node7 -->
<g id="edge39" class="edge"><title>Node25&#45;&gt;Node7</title>
<path fill="none" stroke="midnightblue" d="M1125.02,-224.444C1148.1,-215.478 1184.56,-201.314 1210.64,-191.183"/>
<polygon fill="midnightblue" stroke="midnightblue" points="1212.02,-194.4 1220.08,-187.516 1209.49,-187.875 1212.02,-194.4"/>
</g>
<!-- Node25&#45;&gt;Node17 -->
<g id="edge38" class="edge"><title>Node25&#45;&gt;Node17</title>
<path fill="none" stroke="midnightblue" d="M1090.76,-224.353C1055.58,-199.618 954.423,-129.239 918,-112 885.382,-96.5625 846.149,-84.6469 817.034,-76.9666"/>
<polygon fill="midnightblue" stroke="midnightblue" points="817.742,-73.5348 807.185,-74.4277 815.995,-80.3132 817.742,-73.5348"/>
</g>
<!-- Node25&#45;&gt;Node19 -->
<g id="edge37" class="edge"><title>Node25&#45;&gt;Node19</title>
<path fill="none" stroke="midnightblue" d="M1102.73,-224.075C1101.94,-197.945 1099.63,-121.211 1098.56,-85.577"/>
<polygon fill="midnightblue" stroke="midnightblue" points="1102.06,-85.4582 1098.26,-75.5681 1095.06,-85.669 1102.06,-85.4582"/>
</g>
<!-- Node25&#45;&gt;Node23 -->
<g id="edge40" class="edge"><title>Node25&#45;&gt;Node23</title>
<path fill="none" stroke="midnightblue" d="M1111.43,-224.465C1124.45,-211.505 1150.51,-186.424 1175,-168 1199.25,-149.762 1218.25,-158.513 1233,-132 1241.14,-117.37 1235.56,-98.4543 1229.2,-84.8047"/>
<polygon fill="midnightblue" stroke="midnightblue" points="1232.11,-82.8129 1224.39,-75.5515 1225.9,-86.0392 1232.11,-82.8129"/>
</g>
<!-- Node25&#45;&gt;Node24 -->
<g id="edge42" class="edge"><title>Node25&#45;&gt;Node24</title>
<path fill="none" stroke="midnightblue" d="M1063.43,-229.998C992.435,-224.309 838.582,-210.611 699.594,-188.119"/>
<polygon fill="midnightblue" stroke="midnightblue" points="700.048,-184.647 689.614,-186.484 698.917,-191.555 700.048,-184.647"/>
</g>
<!-- Node26&#45;&gt;Node3 -->
<g id="edge48" class="edge"><title>Node26&#45;&gt;Node3</title>
<path fill="none" stroke="midnightblue" d="M798.558,-168.474C784.576,-159.953 763.05,-146.122 746,-132 709.452,-101.729 708.866,-84.6047 671,-56 654.319,-43.3991 633.679,-32.092 617.28,-23.9639"/>
<polygon fill="midnightblue" stroke="midnightblue" points="618.702,-20.764 608.176,-19.5597 615.654,-27.0654 618.702,-20.764"/>
</g>
<!-- Node26&#45;&gt;Node6 -->
<g id="edge47" class="edge"><title>Node26&#45;&gt;Node6</title>
<path fill="none" stroke="midnightblue" d="M824.729,-168.324C835.837,-160.107 852.742,-147.602 865.983,-137.807"/>
<polygon fill="midnightblue" stroke="midnightblue" points="868.1,-140.595 874.058,-131.834 863.937,-134.967 868.1,-140.595"/>
</g>
<!-- Node26&#45;&gt;Node8 -->
<g id="edge52" class="edge"><title>Node26&#45;&gt;Node8</title>
<path fill="none" stroke="midnightblue" d="M851.677,-171.067C920.165,-160.56 1061.83,-138.827 1128.63,-128.579"/>
<polygon fill="midnightblue" stroke="midnightblue" points="1129.34,-132.012 1138.69,-127.036 1128.27,-125.093 1129.34,-132.012"/>
</g>
<!-- Node26&#45;&gt;Node13 -->
<g id="edge50" class="edge"><title>Node26&#45;&gt;Node13</title>
<path fill="none" stroke="midnightblue" d="M779.25,-168.444C739.646,-158.403 674.333,-141.845 634.436,-131.73"/>
<polygon fill="midnightblue" stroke="midnightblue" points="635.182,-128.309 624.628,-129.244 633.461,-135.094 635.182,-128.309"/>
</g>
<!-- Node26&#45;&gt;Node17 -->
<g id="edge51" class="edge"><title>Node26&#45;&gt;Node17</title>
<path fill="none" stroke="midnightblue" d="M793.704,-168.48C779.571,-161.081 761.443,-148.887 753,-132 745.208,-116.416 753.499,-97.4237 762.04,-84.0036"/>
<polygon fill="midnightblue" stroke="midnightblue" points="764.968,-85.9232 767.799,-75.7134 759.219,-81.9298 764.968,-85.9232"/>
</g>
<!-- Node26&#45;&gt;Node18 -->
<g id="edge54" class="edge"><title>Node26&#45;&gt;Node18</title>
<path fill="none" stroke="midnightblue" d="M843.423,-168.444C876.285,-159.201 928.785,-144.436 964.974,-134.257"/>
<polygon fill="midnightblue" stroke="midnightblue" points="966.04,-137.593 974.719,-131.516 964.145,-130.855 966.04,-137.593"/>
</g>
<!-- Node26&#45;&gt;Node21 -->
<g id="edge44" class="edge"><title>Node26&#45;&gt;Node21</title>
<path fill="none" stroke="midnightblue" d="M777.729,-168.455C742.85,-159.463 692.507,-144.858 677,-132 662.297,-119.809 652.559,-99.9764 646.961,-85.4198"/>
<polygon fill="midnightblue" stroke="midnightblue" points="650.241,-84.1966 643.605,-75.9374 643.642,-86.5322 650.241,-84.1966"/>
</g>
<!-- Node26&#45;&gt;Node22 -->
<g id="edge45" class="edge"><title>Node26&#45;&gt;Node22</title>
<path fill="none" stroke="midnightblue" d="M804.444,-168.485C792.515,-155.551 773.664,-130.504 786,-112 802.538,-87.1931 835.615,-76.0394 860.829,-71.0376"/>
<polygon fill="midnightblue" stroke="midnightblue" points="861.493,-74.4746 870.739,-69.3009 860.285,-67.5796 861.493,-74.4746"/>
</g>
<!-- Node26&#45;&gt;Node23 -->
<g id="edge53" class="edge"><title>Node26&#45;&gt;Node23</title>
<path fill="none" stroke="midnightblue" d="M851.508,-172.12C899.527,-165.51 983.845,-152.168 1054,-132 1103.61,-117.738 1159.01,-94.278 1191.34,-79.7845"/>
<polygon fill="midnightblue" stroke="midnightblue" points="1192.93,-82.9057 1200.6,-75.5945 1190.04,-76.5282 1192.93,-82.9057"/>
</g>
<!-- Node27 -->
<g id="node27" class="node"><title>Node27</title>
<polygon fill="white" stroke="#bfbfbf" points="795.5,-112.5 795.5,-131.5 844.5,-131.5 844.5,-112.5 795.5,-112.5"/>
<text text-anchor="middle" x="820" y="-119.5" font-family="Helvetica,sans-Serif" font-size="10.00">cstdarg</text>
</g>
<!-- Node26&#45;&gt;Node27 -->
<g id="edge46" class="edge"><title>Node26&#45;&gt;Node27</title>
<path fill="none" stroke="midnightblue" d="M814.156,-168.083C815.084,-160.927 816.418,-150.635 817.577,-141.691"/>
<polygon fill="midnightblue" stroke="midnightblue" points="821.051,-142.118 818.866,-131.751 814.109,-141.218 821.051,-142.118"/>
</g>
<!-- Node28 -->
<g id="node28" class="node"><title>Node28</title>
<polygon fill="white" stroke="#bfbfbf" points="516.5,-112.5 516.5,-131.5 557.5,-131.5 557.5,-112.5 516.5,-112.5"/>
<text text-anchor="middle" x="537" y="-119.5" font-family="Helvetica,sans-Serif" font-size="10.00">ctime</text>
</g>
<!-- Node26&#45;&gt;Node28 -->
<g id="edge49" class="edge"><title>Node26&#45;&gt;Node28</title>
<path fill="none" stroke="midnightblue" d="M774.492,-169.757C771.281,-169.16 768.085,-168.568 765,-168 679.715,-152.29 655.024,-153.267 567.349,-132.107"/>
<polygon fill="midnightblue" stroke="midnightblue" points="568.053,-128.676 557.508,-129.704 566.393,-135.476 568.053,-128.676"/>
</g>
<!-- Node30 -->
<g id="node30" class="node"><title>Node30</title>
<polygon fill="white" stroke="#bfbfbf" points="1477,-280.5 1477,-299.5 1523,-299.5 1523,-280.5 1477,-280.5"/>
<text text-anchor="middle" x="1500" y="-287.5" font-family="Helvetica,sans-Serif" font-size="10.00">atomic</text>
</g>
<!-- Node29&#45;&gt;Node30 -->
<g id="edge60" class="edge"><title>Node29&#45;&gt;Node30</title>
<path fill="none" stroke="midnightblue" d="M1455.75,-336.083C1463.47,-328.22 1474.9,-316.569 1484.22,-307.081"/>
<polygon fill="midnightblue" stroke="midnightblue" points="1486.9,-309.34 1491.41,-299.751 1481.91,-304.436 1486.9,-309.34"/>
</g>
<!-- Node31 -->
<g id="node31" class="node"><title>Node31</title>
<polygon fill="white" stroke="#bfbfbf" points="1409.5,-280.5 1409.5,-299.5 1458.5,-299.5 1458.5,-280.5 1409.5,-280.5"/>
<text text-anchor="middle" x="1434" y="-287.5" font-family="Helvetica,sans-Serif" font-size="10.00">cstddef</text>
</g>
<!-- Node29&#45;&gt;Node31 -->
<g id="edge61" class="edge"><title>Node29&#45;&gt;Node31</title>
<path fill="none" stroke="midnightblue" d="M1444.85,-336.083C1443.13,-328.927 1440.65,-318.635 1438.5,-309.691"/>
<polygon fill="midnightblue" stroke="midnightblue" points="1441.85,-308.654 1436.11,-299.751 1435.04,-310.293 1441.85,-308.654"/>
</g>
<!-- Node32&#45;&gt;Node2 -->
<g id="edge66" class="edge"><title>Node32&#45;&gt;Node2</title>
<path fill="none" stroke="midnightblue" d="M1293.82,-224.439C1310.06,-216.877 1332.28,-204.486 1347,-188 1374.4,-157.319 1390.74,-110.929 1398.18,-85.4225"/>
<polygon fill="midnightblue" stroke="midnightblue" points="1401.61,-86.1608 1400.9,-75.5895 1394.86,-84.2931 1401.61,-86.1608"/>
</g>
<!-- Node32&#45;&gt;Node3 -->
<g id="edge63" class="edge"><title>Node32&#45;&gt;Node3</title>
<path fill="none" stroke="midnightblue" d="M1276.72,-224.13C1288.12,-195.37 1319.16,-103.799 1274,-56 1228.92,-8.2889 754.128,-9.3692 622.607,-10.5979"/>
<polygon fill="midnightblue" stroke="midnightblue" points="622.31,-7.10065 612.346,-10.7008 622.38,-14.1003 622.31,-7.10065"/>
</g>
<!-- Node32&#45;&gt;Node7 -->
<g id="edge65" class="edge"><title>Node32&#45;&gt;Node7</title>
<path fill="none" stroke="midnightblue" d="M1267.88,-224.083C1263.59,-216.613 1257.34,-205.724 1252.06,-196.52"/>
<polygon fill="midnightblue" stroke="midnightblue" points="1255.04,-194.681 1247.02,-187.751 1248.97,-198.166 1255.04,-194.681"/>
</g>
<!-- Node32&#45;&gt;Node14 -->
<g id="edge64" class="edge"><title>Node32&#45;&gt;Node14</title>
<path fill="none" stroke="midnightblue" d="M1236.85,-230.172C1134.01,-222.079 842.83,-198.801 767.015,-187.899"/>
<polygon fill="midnightblue" stroke="midnightblue" points="767.185,-184.382 756.758,-186.26 766.081,-191.294 767.185,-184.382"/>
</g>
<!-- Node33&#45;&gt;Node2 -->
<g id="edge71" class="edge"><title>Node33&#45;&gt;Node2</title>
<path fill="none" stroke="midnightblue" d="M930.061,-288.331C1027.48,-286.261 1250.98,-277.853 1318,-244 1371.92,-216.766 1378.39,-190.078 1395,-132 1399.35,-116.781 1401.34,-98.8917 1402.24,-85.7372"/>
<polygon fill="midnightblue" stroke="midnightblue" points="1405.75,-85.7567 1402.79,-75.5822 1398.76,-85.3784 1405.75,-85.7567"/>
</g>
<!-- Node33&#45;&gt;Node3 -->
<g id="edge68" class="edge"><title>Node33&#45;&gt;Node3</title>
<path fill="none" stroke="midnightblue" d="M837.881,-281.413C834.539,-280.917 831.219,-280.441 828,-280 740.325,-267.999 38,-267.492 38,-179 38,-179 38,-179 38,-121 38,-14.8294 436.391,-9.68174 555.659,-10.5195"/>
<polygon fill="midnightblue" stroke="midnightblue" points="555.645,-14.0195 565.676,-10.6091 555.708,-7.01975 555.645,-14.0195"/>
</g>
<!-- Node33&#45;&gt;Node6 -->
<g id="edge69" class="edge"><title>Node33&#45;&gt;Node6</title>
<path fill="none" stroke="midnightblue" d="M884.108,-280.075C884.422,-253.945 885.347,-177.211 885.776,-141.577"/>
<polygon fill="midnightblue" stroke="midnightblue" points="889.276,-141.61 885.897,-131.568 882.276,-141.525 889.276,-141.61"/>
</g>
<!-- Node33&#45;&gt;Node7 -->
<g id="edge70" class="edge"><title>Node33&#45;&gt;Node7</title>
<path fill="none" stroke="midnightblue" d="M930.13,-287.498C984.772,-284.32 1077.63,-274.468 1151,-244 1179.66,-232.098 1208.01,-209.718 1225.26,-194.585"/>
<polygon fill="midnightblue" stroke="midnightblue" points="1227.69,-197.104 1232.79,-187.815 1223.01,-191.898 1227.69,-197.104"/>
</g>
<!-- Node33&#45;&gt;Node18 -->
<g id="edge74" class="edge"><title>Node33&#45;&gt;Node18</title>
<path fill="none" stroke="midnightblue" d="M890.505,-280.075C909.882,-253.493 967.433,-174.538 992.781,-139.763"/>
<polygon fill="midnightblue" stroke="midnightblue" points="995.693,-141.711 998.755,-131.568 990.036,-137.588 995.693,-141.711"/>
</g>
<!-- Node33&#45;&gt;Node23 -->
<g id="edge72" class="edge"><title>Node33&#45;&gt;Node23</title>
<path fill="none" stroke="midnightblue" d="M903.634,-280.355C969.372,-251.26 1178.81,-157.305 1200,-132 1210.96,-118.912 1215.6,-99.7623 1217.56,-85.6364"/>
<polygon fill="midnightblue" stroke="midnightblue" points="1221.05,-85.9113 1218.63,-75.5965 1214.09,-85.1689 1221.05,-85.9113"/>
</g>
<!-- Node33&#45;&gt;Node25 -->
<g id="edge73" class="edge"><title>Node33&#45;&gt;Node25</title>
<path fill="none" stroke="midnightblue" d="M918.701,-280.444C956.585,-271.102 1017.35,-256.119 1058.66,-245.933"/>
<polygon fill="midnightblue" stroke="midnightblue" points="1059.59,-249.309 1068.46,-243.516 1057.91,-242.512 1059.59,-249.309"/>
</g>
<!-- Node34 -->
<g id="node34" class="node"><title>Node34</title>
<polygon fill="white" stroke="#bfbfbf" points="773.5,-224.5 773.5,-243.5 854.5,-243.5 854.5,-224.5 773.5,-224.5"/>
<text text-anchor="middle" x="814" y="-231.5" font-family="Helvetica,sans-Serif" font-size="10.00">NChanDelay.h</text>
</g>
<!-- Node33&#45;&gt;Node34 -->
<g id="edge75" class="edge"><title>Node33&#45;&gt;Node34</title>
<path fill="none" stroke="midnightblue" d="M872.753,-280.324C862.203,-272.185 846.199,-259.839 833.558,-250.087"/>
<polygon fill="midnightblue" stroke="midnightblue" points="835.507,-247.171 825.451,-243.834 831.231,-252.713 835.507,-247.171"/>
</g>
<!-- Node35 -->
<g id="node35" class="node"><title>Node35</title>
<g id="a_node35"><a xlink:href="_i_plug_processor_8cpp_source.html" target="_top" xlink:title="IPlugProcessor.cpp">
<polygon fill="white" stroke="black" points="283,-168.5 283,-187.5 385,-187.5 385,-168.5 283,-168.5"/>
<text text-anchor="middle" x="334" y="-175.5" font-family="Helvetica,sans-Serif" font-size="10.00">IPlugProcessor.cpp</text>
</a>
</g>
</g>
<!-- Node33&#45;&gt;Node35 -->
<g id="edge76" class="edge"><title>Node33&#45;&gt;Node35</title>
<path fill="none" stroke="midnightblue" d="M837.776,-282.993C831.421,-281.993 825.028,-280.967 819,-280 719.006,-263.965 693.296,-263.908 594,-244 513.128,-227.786 419.752,-204.087 369.724,-190.234"/>
<polygon fill="midnightblue" stroke="midnightblue" points="370.593,-186.843 360.02,-187.517 368.706,-193.584 370.593,-186.843"/>
</g>
<!-- Node35&#45;&gt;Node13 -->
<g id="edge80" class="edge"><title>Node35&#45;&gt;Node13</title>
<path fill="none" stroke="midnightblue" d="M383.082,-168.468C427.971,-160.444 496.422,-147.652 565.043,-132.095"/>
<polygon fill="midnightblue" stroke="midnightblue" points="566.197,-135.421 575.165,-129.78 564.637,-128.598 566.197,-135.421"/>
</g>
<!-- Node35&#45;&gt;Node20 -->
<g id="edge77" class="edge"><title>Node35&#45;&gt;Node20</title>
<path fill="none" stroke="midnightblue" d="M328.083,-168.347C319.606,-154.776 306.442,-128.35 320,-112 345.88,-80.7919 467.434,-71.0825 526.551,-68.179"/>
<polygon fill="midnightblue" stroke="midnightblue" points="526.995,-71.6626 536.826,-67.7124 526.677,-64.6698 526.995,-71.6626"/>
</g>
<!-- Node35&#45;&gt;Node21 -->
<g id="edge78" class="edge"><title>Node35&#45;&gt;Node21</title>
<path fill="none" stroke="midnightblue" d="M333.794,-168.308C333.97,-154.189 336.544,-126.401 353,-112 392.923,-77.0631 536.638,-84.5241 589,-76 595.528,-74.9373 602.509,-73.7583 609.169,-72.6131"/>
<polygon fill="midnightblue" stroke="midnightblue" points="610.003,-76.0207 619.258,-70.8629 608.807,-69.1237 610.003,-76.0207"/>
</g>
<!-- Node35&#45;&gt;Node28 -->
<g id="edge79" class="edge"><title>Node35&#45;&gt;Node28</title>
<path fill="none" stroke="midnightblue" d="M366.166,-168.444C404.692,-158.195 468.745,-141.156 506.511,-131.11"/>
<polygon fill="midnightblue" stroke="midnightblue" points="507.659,-134.427 516.423,-128.474 505.86,-127.662 507.659,-134.427"/>
</g>
<!-- Node35&#45;&gt;Node33 -->
<g id="edge83" class="edge"><title>Node35&#45;&gt;Node33</title>
<path fill="none" stroke="midnightblue" d="M371.391,-187.517C424.827,-200.786 525.557,-226.668 612,-244 707.999,-263.247 735.217,-263.94 829.939,-278.881"/>
<polygon fill="midnightblue" stroke="midnightblue" points="829.517,-282.358 839.943,-280.472 830.617,-275.445 829.517,-282.358"/>
</g>
<!-- Node36 -->
<g id="node36" class="node"><title>Node36</title>
<polygon fill="white" stroke="#bfbfbf" points="66,-112.5 66,-131.5 134,-131.5 134,-112.5 66,-112.5"/>
<text text-anchor="middle" x="100" y="-119.5" font-family="Helvetica,sans-Serif" font-size="10.00">wdlendian.h</text>
</g>
<!-- Node35&#45;&gt;Node36 -->
<g id="edge81" class="edge"><title>Node35&#45;&gt;Node36</title>
<path fill="none" stroke="midnightblue" d="M296.922,-168.444C255.436,-158.87 188.269,-143.37 144.116,-133.181"/>
<polygon fill="midnightblue" stroke="midnightblue" points="144.771,-129.74 134.24,-130.902 143.197,-136.561 144.771,-129.74"/>
</g>
<!-- Node37 -->
<g id="node37" class="node"><title>Node37</title>
<polygon fill="white" stroke="#bfbfbf" points="152.5,-112.5 152.5,-131.5 229.5,-131.5 229.5,-112.5 152.5,-112.5"/>
<text text-anchor="middle" x="191" y="-119.5" font-family="Helvetica,sans-Serif" font-size="10.00">wdl_base64.h</text>
</g>
<!-- Node35&#45;&gt;Node37 -->
<g id="edge82" class="edge"><title>Node35&#45;&gt;Node37</title>
<path fill="none" stroke="midnightblue" d="M311.341,-168.444C287.598,-159.478 250.091,-145.314 223.262,-135.183"/>
<polygon fill="midnightblue" stroke="midnightblue" points="224.144,-131.775 213.553,-131.516 221.671,-138.324 224.144,-131.775"/>
</g>
</g>
</svg>
