<?xml version="1.0" encoding="UTF-8" standalone="no"?>
<!DOCTYPE svg PUBLIC "-//W3C//DTD SVG 1.1//EN"
 "http://www.w3.org/Graphics/SVG/1.1/DTD/svg11.dtd">
<!-- Generated by graphviz version 2.36.0 (20140111.2315)
 -->
<!-- Title: IPlugVST3.h Pages: 1 -->
<svg width="1551pt" height="488pt"
 viewBox="0.00 0.00 1551.03 488.00" xmlns="http://www.w3.org/2000/svg" xmlns:xlink="http://www.w3.org/1999/xlink">
<g id="graph0" class="graph" transform="scale(1 1) rotate(0) translate(4 484)">
<title>IPlugVST3.h</title>
<polygon fill="white" stroke="none" points="-4,4 -4,-484 1547.03,-484 1547.03,4 -4,4"/>
<!-- Node1 -->
<g id="node1" class="node"><title>Node1</title>
<polygon fill="#bfbfbf" stroke="black" points="558.035,-460.5 558.035,-479.5 630.035,-479.5 630.035,-460.5 558.035,-460.5"/>
<text text-anchor="middle" x="594.035" y="-467.5" font-family="Helvetica,sans-Serif" font-size="10.00">IPlugVST3.h</text>
</g>
<!-- Node2 -->
<g id="node2" class="node"><title>Node2</title>
<polygon fill="white" stroke="#bfbfbf" points="199.035,-398.5 199.035,-417.5 243.035,-417.5 243.035,-398.5 199.035,-398.5"/>
<text text-anchor="middle" x="221.035" y="-405.5" font-family="Helvetica,sans-Serif" font-size="10.00">vector</text>
</g>
<!-- Node1&#45;&gt;Node2 -->
<g id="edge1" class="edge"><title>Node1&#45;&gt;Node2</title>
<path fill="none" stroke="midnightblue" d="M557.799,-468.014C494.492,-465.463 360.184,-456.361 252.035,-424 249.894,-423.359 247.717,-422.586 245.561,-421.733"/>
<polygon fill="midnightblue" stroke="midnightblue" points="246.971,-418.529 236.413,-417.639 244.112,-424.918 246.971,-418.529"/>
</g>
<!-- Node3 -->
<g id="node3" class="node"><title>Node3</title>
<polygon fill="white" stroke="#bfbfbf" points="261.035,-393 261.035,-423 401.035,-423 401.035,-393 261.035,-393"/>
<text text-anchor="start" x="269.035" y="-411" font-family="Helvetica,sans-Serif" font-size="10.00">public.sdk/source/vst</text>
<text text-anchor="middle" x="331.035" y="-400" font-family="Helvetica,sans-Serif" font-size="10.00">/vstsinglecomponenteffect.h</text>
</g>
<!-- Node1&#45;&gt;Node3 -->
<g id="edge2" class="edge"><title>Node1&#45;&gt;Node3</title>
<path fill="none" stroke="midnightblue" d="M558.017,-460.783C518.121,-451.681 452.783,-436.775 402.428,-425.287"/>
<polygon fill="midnightblue" stroke="midnightblue" points="403.097,-421.85 392.569,-423.038 401.54,-428.675 403.097,-421.85"/>
</g>
<!-- Node4 -->
<g id="node4" class="node"><title>Node4</title>
<polygon fill="white" stroke="#bfbfbf" points="419.035,-393 419.035,-423 529.035,-423 529.035,-393 419.035,-393"/>
<text text-anchor="start" x="427.035" y="-411" font-family="Helvetica,sans-Serif" font-size="10.00">pluginterfaces/vst</text>
<text text-anchor="middle" x="474.035" y="-400" font-family="Helvetica,sans-Serif" font-size="10.00">/ivstprocesscontext.h</text>
</g>
<!-- Node1&#45;&gt;Node4 -->
<g id="edge3" class="edge"><title>Node1&#45;&gt;Node4</title>
<path fill="none" stroke="midnightblue" d="M576.842,-460.403C559.83,-451.898 533.238,-438.602 511.362,-427.663"/>
<polygon fill="midnightblue" stroke="midnightblue" points="512.826,-424.483 502.316,-423.141 509.695,-430.744 512.826,-424.483"/>
</g>
<!-- Node5 -->
<g id="node5" class="node"><title>Node5</title>
<polygon fill="white" stroke="#bfbfbf" points="547.035,-393 547.035,-423 641.035,-423 641.035,-393 547.035,-393"/>
<text text-anchor="start" x="555.035" y="-411" font-family="Helvetica,sans-Serif" font-size="10.00">pluginterfaces/vst</text>
<text text-anchor="middle" x="594.035" y="-400" font-family="Helvetica,sans-Serif" font-size="10.00">/vsttypes.h</text>
</g>
<!-- Node1&#45;&gt;Node5 -->
<g id="edge4" class="edge"><title>Node1&#45;&gt;Node5</title>
<path fill="none" stroke="midnightblue" d="M594.035,-460.403C594.035,-453.341 594.035,-442.975 594.035,-433.399"/>
<polygon fill="midnightblue" stroke="midnightblue" points="597.535,-433.141 594.035,-423.141 590.535,-433.141 597.535,-433.141"/>
</g>
<!-- Node6 -->
<g id="node6" class="node"><title>Node6</title>
<polygon fill="white" stroke="#bfbfbf" points="659.035,-393 659.035,-423 759.035,-423 759.035,-393 659.035,-393"/>
<text text-anchor="start" x="667.035" y="-411" font-family="Helvetica,sans-Serif" font-size="10.00">pluginterfaces/vst</text>
<text text-anchor="middle" x="709.035" y="-400" font-family="Helvetica,sans-Serif" font-size="10.00">/ivstcontextmenu.h</text>
</g>
<!-- Node1&#45;&gt;Node6 -->
<g id="edge5" class="edge"><title>Node1&#45;&gt;Node6</title>
<path fill="none" stroke="midnightblue" d="M610.511,-460.403C626.742,-451.936 652.071,-438.72 672.982,-427.81"/>
<polygon fill="midnightblue" stroke="midnightblue" points="674.685,-430.87 681.932,-423.141 671.447,-424.663 674.685,-430.87"/>
</g>
<!-- Node7 -->
<g id="node7" class="node"><title>Node7</title>
<g id="a_node7"><a xlink:href="_i_plug_base_8h.html" target="_top" xlink:title="The base class of an IPlug plug&#45;in, which interacts with the different plug&#45;in APIs. ">
<polygon fill="white" stroke="black" points="777.035,-398.5 777.035,-417.5 847.035,-417.5 847.035,-398.5 777.035,-398.5"/>
<text text-anchor="middle" x="812.035" y="-405.5" font-family="Helvetica,sans-Serif" font-size="10.00">IPlugBase.h</text>
</a>
</g>
</g>
<!-- Node1&#45;&gt;Node7 -->
<g id="edge6" class="edge"><title>Node1&#45;&gt;Node7</title>
<path fill="none" stroke="midnightblue" d="M630.245,-460.48C665.595,-451.964 720.805,-438.136 768.035,-424 771.384,-422.998 774.859,-421.905 778.322,-420.782"/>
<polygon fill="midnightblue" stroke="midnightblue" points="779.55,-424.062 787.933,-417.582 777.34,-417.42 779.55,-424.062"/>
</g>
<!-- Node38 -->
<g id="node38" class="node"><title>Node38</title>
<g id="a_node38"><a xlink:href="_i_plug_processor_8h.html" target="_top" xlink:title="The base class for IPlug Audio Processing. ">
<polygon fill="white" stroke="black" points="1010.03,-280.5 1010.03,-299.5 1102.03,-299.5 1102.03,-280.5 1010.03,-280.5"/>
<text text-anchor="middle" x="1056.03" y="-287.5" font-family="Helvetica,sans-Serif" font-size="10.00">IPlugProcessor.h</text>
</a>
</g>
</g>
<!-- Node1&#45;&gt;Node38 -->
<g id="edge71" class="edge"><title>Node1&#45;&gt;Node38</title>
<path fill="none" stroke="midnightblue" d="M630.399,-467.275C682.118,-463.827 779.172,-453.645 856.035,-424 908.606,-403.724 916.154,-387.258 963.035,-356 988.387,-339.096 1017.06,-318.888 1035.78,-305.541"/>
<polygon fill="midnightblue" stroke="midnightblue" points="1038.01,-308.247 1044.11,-299.584 1033.94,-302.552 1038.01,-308.247"/>
</g>
<!-- Node8 -->
<g id="node8" class="node"><title>Node8</title>
<polygon fill="white" stroke="#bfbfbf" points="647.035,-0.5 647.035,-19.5 693.035,-19.5 693.035,-0.5 647.035,-0.5"/>
<text text-anchor="middle" x="670.035" y="-7.5" font-family="Helvetica,sans-Serif" font-size="10.00">cstring</text>
</g>
<!-- Node7&#45;&gt;Node8 -->
<g id="edge7" class="edge"><title>Node7&#45;&gt;Node8</title>
<path fill="none" stroke="midnightblue" d="M847.412,-406.039C961.307,-402.637 1317.41,-389.521 1427.03,-356 1483.55,-338.719 1543.03,-350.098 1543.03,-291 1543.03,-291 1543.03,-291 1543.03,-121 1543.03,-42.5949 1455.54,-73.1384 1379.03,-56 1247.75,-26.5912 825.31,-14.6256 703.313,-11.7311"/>
<polygon fill="midnightblue" stroke="midnightblue" points="703.183,-8.22723 693.104,-11.4936 703.02,-15.2253 703.183,-8.22723"/>
</g>
<!-- Node9 -->
<g id="node9" class="node"><title>Node9</title>
<polygon fill="white" stroke="#bfbfbf" points="535.035,-112.5 535.035,-131.5 581.035,-131.5 581.035,-112.5 535.035,-112.5"/>
<text text-anchor="middle" x="558.035" y="-119.5" font-family="Helvetica,sans-Serif" font-size="10.00">cstdint</text>
</g>
<!-- Node7&#45;&gt;Node9 -->
<g id="edge8" class="edge"><title>Node7&#45;&gt;Node9</title>
<path fill="none" stroke="midnightblue" d="M786.734,-398.445C759.009,-388.871 713.374,-372.525 675.035,-356 614.982,-330.115 543.035,-356.394 543.035,-291 543.035,-291 543.035,-291 543.035,-233 543.035,-200.502 549.542,-163.095 553.984,-141.343"/>
<polygon fill="midnightblue" stroke="midnightblue" points="557.42,-142.013 556.074,-131.504 550.573,-140.559 557.42,-142.013"/>
</g>
<!-- Node10 -->
<g id="node10" class="node"><title>Node10</title>
<polygon fill="white" stroke="#bfbfbf" points="647.535,-168.5 647.535,-187.5 696.535,-187.5 696.535,-168.5 647.535,-168.5"/>
<text text-anchor="middle" x="672.035" y="-175.5" font-family="Helvetica,sans-Serif" font-size="10.00">ptrlist.h</text>
</g>
<!-- Node7&#45;&gt;Node10 -->
<g id="edge9" class="edge"><title>Node7&#45;&gt;Node10</title>
<path fill="none" stroke="midnightblue" d="M806.718,-398.341C786.057,-364.694 710.871,-242.247 682.748,-196.447"/>
<polygon fill="midnightblue" stroke="midnightblue" points="685.573,-194.358 677.357,-187.668 679.607,-198.021 685.573,-194.358"/>
</g>
<!-- Node11 -->
<g id="node11" class="node"><title>Node11</title>
<polygon fill="white" stroke="#bfbfbf" points="23.0348,-112.5 23.0348,-131.5 75.0348,-131.5 75.0348,-112.5 23.0348,-112.5"/>
<text text-anchor="middle" x="49.0348" y="-119.5" font-family="Helvetica,sans-Serif" font-size="10.00">mutex.h</text>
</g>
<!-- Node7&#45;&gt;Node11 -->
<g id="edge10" class="edge"><title>Node7&#45;&gt;Node11</title>
<path fill="none" stroke="midnightblue" d="M790.402,-398.419C783.371,-395.958 775.465,-393.529 768.035,-392 565.44,-350.3 507.624,-392.537 304.035,-356 200.321,-337.387 76.0348,-396.371 76.0348,-291 76.0348,-291 76.0348,-291 76.0348,-233 76.0348,-199.861 64.3337,-162.682 56.3375,-141.144"/>
<polygon fill="midnightblue" stroke="midnightblue" points="59.5433,-139.73 52.6761,-131.662 53.0132,-142.252 59.5433,-139.73"/>
</g>
<!-- Node12 -->
<g id="node12" class="node"><title>Node12</title>
<g id="a_node12"><a xlink:href="_i_plug_platform_8h.html" target="_top" xlink:title="Include to get consistently named preprocessor macros for different platforms and logging functionali...">
<polygon fill="white" stroke="black" points="1287.03,-56.5 1287.03,-75.5 1371.03,-75.5 1371.03,-56.5 1287.03,-56.5"/>
<text text-anchor="middle" x="1329.03" y="-63.5" font-family="Helvetica,sans-Serif" font-size="10.00">IPlugPlatform.h</text>
</a>
</g>
</g>
<!-- Node7&#45;&gt;Node12 -->
<g id="edge11" class="edge"><title>Node7&#45;&gt;Node12</title>
<path fill="none" stroke="midnightblue" d="M847.227,-407.132C933.44,-406.704 1161.54,-401.028 1345.03,-356 1419.58,-337.707 1505.03,-367.755 1505.03,-291 1505.03,-291 1505.03,-291 1505.03,-177 1505.03,-117.93 1432.86,-89.4053 1380.95,-76.5283"/>
<polygon fill="midnightblue" stroke="midnightblue" points="1381.73,-73.1155 1371.19,-74.2295 1380.12,-79.929 1381.73,-73.1155"/>
</g>
<!-- Node14 -->
<g id="node14" class="node"><title>Node14</title>
<g id="a_node14"><a xlink:href="_i_plug_plugin_delegate_8h_source.html" target="_top" xlink:title="IPlugPluginDelegate.h">
<polygon fill="white" stroke="black" points="366.535,-336.5 366.535,-355.5 479.535,-355.5 479.535,-336.5 366.535,-336.5"/>
<text text-anchor="middle" x="423.035" y="-343.5" font-family="Helvetica,sans-Serif" font-size="10.00">IPlugPluginDelegate.h</text>
</a>
</g>
</g>
<!-- Node7&#45;&gt;Node14 -->
<g id="edge14" class="edge"><title>Node7&#45;&gt;Node14</title>
<path fill="none" stroke="midnightblue" d="M789.901,-398.496C782.982,-396.098 775.266,-393.686 768.035,-392 716.666,-380.02 574.813,-363.441 489.846,-354.115"/>
<polygon fill="midnightblue" stroke="midnightblue" points="490.097,-350.622 479.776,-353.014 489.336,-357.58 490.097,-350.622"/>
</g>
<!-- Node20 -->
<g id="node20" class="node"><title>Node20</title>
<g id="a_node20"><a xlink:href="_i_plug_parameter_8h_source.html" target="_top" xlink:title="IPlugParameter.h">
<polygon fill="white" stroke="black" points="138.035,-168.5 138.035,-187.5 230.035,-187.5 230.035,-168.5 138.035,-168.5"/>
<text text-anchor="middle" x="184.035" y="-175.5" font-family="Helvetica,sans-Serif" font-size="10.00">IPlugParameter.h</text>
</a>
</g>
</g>
<!-- Node7&#45;&gt;Node20 -->
<g id="edge62" class="edge"><title>Node7&#45;&gt;Node20</title>
<path fill="none" stroke="midnightblue" d="M790.393,-398.464C783.362,-396.005 775.458,-393.566 768.035,-392 588.62,-354.141 530.831,-414.463 357.035,-356 280.519,-330.261 259.605,-310.637 214.035,-244 204.07,-229.429 195.928,-211.018 190.653,-197.514"/>
<polygon fill="midnightblue" stroke="midnightblue" points="193.84,-196.042 187.058,-187.902 187.284,-198.495 193.84,-196.042"/>
</g>
<!-- Node23 -->
<g id="node23" class="node"><title>Node23</title>
<g id="a_node23"><a xlink:href="_i_plug_utilities_8h.html" target="_top" xlink:title="Utility functions and macros. ">
<polygon fill="white" stroke="black" points="713.035,-112.5 713.035,-131.5 793.035,-131.5 793.035,-112.5 713.035,-112.5"/>
<text text-anchor="middle" x="753.035" y="-119.5" font-family="Helvetica,sans-Serif" font-size="10.00">IPlugUtilities.h</text>
</a>
</g>
</g>
<!-- Node7&#45;&gt;Node23 -->
<g id="edge61" class="edge"><title>Node7&#45;&gt;Node23</title>
<path fill="none" stroke="midnightblue" d="M816.028,-398.276C830.345,-366.475 877.497,-256.913 863.035,-224 845.681,-184.508 804.42,-153.686 777.658,-136.947"/>
<polygon fill="midnightblue" stroke="midnightblue" points="779.227,-133.806 768.859,-131.622 775.602,-139.794 779.227,-133.806"/>
</g>
<!-- Node28 -->
<g id="node28" class="node"><title>Node28</title>
<g id="a_node28"><a xlink:href="_i_plug_constants_8h.html" target="_top" xlink:title="Constant definitions, Types, magic numbers. ">
<polygon fill="white" stroke="black" points="921.035,-56.5 921.035,-75.5 1013.03,-75.5 1013.03,-56.5 921.035,-56.5"/>
<text text-anchor="middle" x="967.035" y="-63.5" font-family="Helvetica,sans-Serif" font-size="10.00">IPlugConstants.h</text>
</a>
</g>
</g>
<!-- Node7&#45;&gt;Node28 -->
<g id="edge59" class="edge"><title>Node7&#45;&gt;Node28</title>
<path fill="none" stroke="midnightblue" d="M847.25,-404.532C983.301,-394.533 1467.03,-354.517 1467.03,-291 1467.03,-291 1467.03,-291 1467.03,-177 1467.03,-87.0006 1154.13,-70.5558 1023.39,-67.6128"/>
<polygon fill="midnightblue" stroke="midnightblue" points="1023.25,-64.1092 1013.18,-67.4022 1023.1,-71.1077 1023.25,-64.1092"/>
</g>
<!-- Node30 -->
<g id="node30" class="node"><title>Node30</title>
<g id="a_node30"><a xlink:href="_i_plug_structs_8h_source.html" target="_top" xlink:title="IPlugStructs.h">
<polygon fill="white" stroke="black" points="775.535,-224.5 775.535,-243.5 854.535,-243.5 854.535,-224.5 775.535,-224.5"/>
<text text-anchor="middle" x="815.035" y="-231.5" font-family="Helvetica,sans-Serif" font-size="10.00">IPlugStructs.h</text>
</a>
</g>
</g>
<!-- Node7&#45;&gt;Node30 -->
<g id="edge60" class="edge"><title>Node7&#45;&gt;Node30</title>
<path fill="none" stroke="midnightblue" d="M812.188,-398.234C812.653,-371.548 814.06,-290.877 814.705,-253.893"/>
<polygon fill="midnightblue" stroke="midnightblue" points="818.211,-253.604 814.886,-243.544 811.212,-253.482 818.211,-253.604"/>
</g>
<!-- Node34 -->
<g id="node34" class="node"><title>Node34</title>
<g id="a_node34"><a xlink:href="_i_plug_queue_8h_source.html" target="_top" xlink:title="IPlugQueue.h">
<polygon fill="white" stroke="black" points="878.035,-336.5 878.035,-355.5 954.035,-355.5 954.035,-336.5 878.035,-336.5"/>
<text text-anchor="middle" x="916.035" y="-343.5" font-family="Helvetica,sans-Serif" font-size="10.00">IPlugQueue.h</text>
</a>
</g>
</g>
<!-- Node7&#45;&gt;Node34 -->
<g id="edge63" class="edge"><title>Node7&#45;&gt;Node34</title>
<path fill="none" stroke="midnightblue" d="M826.935,-398.403C844.003,-388.557 872.196,-372.291 892.297,-360.695"/>
<polygon fill="midnightblue" stroke="midnightblue" points="894.249,-363.61 901.162,-355.581 890.751,-357.546 894.249,-363.61"/>
</g>
<!-- Node37 -->
<g id="node37" class="node"><title>Node37</title>
<g id="a_node37"><a xlink:href="_i_plug_timer_8h_source.html" target="_top" xlink:title="IPlugTimer.h">
<polygon fill="white" stroke="black" points="609.035,-224.5 609.035,-243.5 681.035,-243.5 681.035,-224.5 609.035,-224.5"/>
<text text-anchor="middle" x="645.035" y="-231.5" font-family="Helvetica,sans-Serif" font-size="10.00">IPlugTimer.h</text>
</a>
</g>
</g>
<!-- Node7&#45;&gt;Node37 -->
<g id="edge66" class="edge"><title>Node7&#45;&gt;Node37</title>
<path fill="none" stroke="midnightblue" d="M786.557,-398.432C756.328,-387.843 708.341,-369.564 695.035,-356 666.611,-327.024 653.512,-279.596 648.189,-253.558"/>
<polygon fill="midnightblue" stroke="midnightblue" points="651.593,-252.718 646.312,-243.533 644.712,-254.006 651.593,-252.718"/>
</g>
<!-- Node12&#45;&gt;Node8 -->
<g id="edge12" class="edge"><title>Node12&#45;&gt;Node8</title>
<path fill="none" stroke="midnightblue" d="M1286.89,-57.834C1282.22,-57.1575 1277.53,-56.5284 1273.03,-56 1056.41,-30.5557 794.208,-16.771 703.108,-12.4803"/>
<polygon fill="midnightblue" stroke="midnightblue" points="703.257,-8.98356 693.105,-12.0152 702.931,-15.976 703.257,-8.98356"/>
</g>
<!-- Node13 -->
<g id="node13" class="node"><title>Node13</title>
<polygon fill="white" stroke="#bfbfbf" points="1057.53,-0.5 1057.53,-19.5 1102.53,-19.5 1102.53,-0.5 1057.53,-0.5"/>
<text text-anchor="middle" x="1080.03" y="-7.5" font-family="Helvetica,sans-Serif" font-size="10.00">cstdlib</text>
</g>
<!-- Node12&#45;&gt;Node13 -->
<g id="edge13" class="edge"><title>Node12&#45;&gt;Node13</title>
<path fill="none" stroke="midnightblue" d="M1289.58,-56.4435C1240.6,-45.8213 1157.98,-27.9038 1112.49,-18.039"/>
<polygon fill="midnightblue" stroke="midnightblue" points="1113.09,-14.5866 1102.57,-15.8876 1111.6,-21.4275 1113.09,-14.5866"/>
</g>
<!-- Node15 -->
<g id="node15" class="node"><title>Node15</title>
<polygon fill="white" stroke="#bfbfbf" points="458.535,-280.5 458.535,-299.5 507.535,-299.5 507.535,-280.5 458.535,-280.5"/>
<text text-anchor="middle" x="483.035" y="-287.5" font-family="Helvetica,sans-Serif" font-size="10.00">random</text>
</g>
<!-- Node14&#45;&gt;Node15 -->
<g id="edge15" class="edge"><title>Node14&#45;&gt;Node15</title>
<path fill="none" stroke="midnightblue" d="M432.675,-336.324C441.544,-328.341 454.909,-316.313 465.643,-306.653"/>
<polygon fill="midnightblue" stroke="midnightblue" points="468.128,-309.125 473.219,-299.834 463.445,-303.922 468.128,-309.125"/>
</g>
<!-- Node16 -->
<g id="node16" class="node"><title>Node16</title>
<g id="a_node16"><a xlink:href="_i_plug_delegate__select_8h_source.html" target="_top" xlink:title="IPlugDelegate_select.h">
<polygon fill="white" stroke="black" points="322.035,-280.5 322.035,-299.5 440.035,-299.5 440.035,-280.5 322.035,-280.5"/>
<text text-anchor="middle" x="381.035" y="-287.5" font-family="Helvetica,sans-Serif" font-size="10.00">IPlugDelegate_select.h</text>
</a>
</g>
</g>
<!-- Node14&#45;&gt;Node16 -->
<g id="edge16" class="edge"><title>Node14&#45;&gt;Node16</title>
<path fill="none" stroke="midnightblue" d="M416.099,-336.083C410.106,-328.377 401.283,-317.033 393.987,-307.653"/>
<polygon fill="midnightblue" stroke="midnightblue" points="396.743,-305.496 387.841,-299.751 391.218,-309.793 396.743,-305.496"/>
</g>
<!-- Node14&#45;&gt;Node20 -->
<g id="edge39" class="edge"><title>Node14&#45;&gt;Node20</title>
<path fill="none" stroke="midnightblue" d="M384.762,-336.427C358.596,-329.388 323.922,-317.665 297.035,-300 253.176,-271.184 214.4,-221.924 195.765,-196.039"/>
<polygon fill="midnightblue" stroke="midnightblue" points="198.464,-193.794 189.839,-187.641 192.745,-197.83 198.464,-193.794"/>
</g>
<!-- Node14&#45;&gt;Node30 -->
<g id="edge40" class="edge"><title>Node14&#45;&gt;Node30</title>
<path fill="none" stroke="midnightblue" d="M453.468,-336.46C523.45,-316.822 695.831,-268.45 774.596,-246.348"/>
<polygon fill="midnightblue" stroke="midnightblue" points="775.938,-249.606 784.621,-243.535 774.047,-242.867 775.938,-249.606"/>
</g>
<!-- Node31 -->
<g id="node31" class="node"><title>Node31</title>
<g id="a_node31"><a xlink:href="_i_plug_logger_8h.html" target="_top" xlink:title="IPlug logging a.k.a tracing functionality. ">
<polygon fill="white" stroke="black" points="248.535,-168.5 248.535,-187.5 325.535,-187.5 325.535,-168.5 248.535,-168.5"/>
<text text-anchor="middle" x="287.035" y="-175.5" font-family="Helvetica,sans-Serif" font-size="10.00">IPlugLogger.h</text>
</a>
</g>
</g>
<!-- Node14&#45;&gt;Node31 -->
<g id="edge47" class="edge"><title>Node14&#45;&gt;Node31</title>
<path fill="none" stroke="midnightblue" d="M376.343,-336.467C354.093,-330.059 328.93,-318.984 313.035,-300 288.523,-270.725 285.513,-223.789 285.965,-197.817"/>
<polygon fill="midnightblue" stroke="midnightblue" points="289.463,-197.911 286.334,-187.789 282.468,-197.654 289.463,-197.911"/>
</g>
<!-- Node17 -->
<g id="node17" class="node"><title>Node17</title>
<g id="a_node17"><a xlink:href="_i_plug_delegate_8h_source.html" target="_top" xlink:title="IPlugDelegate.h">
<polygon fill="white" stroke="black" points="338.035,-224.5 338.035,-243.5 424.035,-243.5 424.035,-224.5 338.035,-224.5"/>
<text text-anchor="middle" x="381.035" y="-231.5" font-family="Helvetica,sans-Serif" font-size="10.00">IPlugDelegate.h</text>
</a>
</g>
</g>
<!-- Node16&#45;&gt;Node17 -->
<g id="edge17" class="edge"><title>Node16&#45;&gt;Node17</title>
<path fill="none" stroke="midnightblue" d="M381.035,-280.083C381.035,-273.006 381.035,-262.861 381.035,-253.986"/>
<polygon fill="midnightblue" stroke="midnightblue" points="384.535,-253.751 381.035,-243.751 377.535,-253.751 384.535,-253.751"/>
</g>
<!-- Node17&#45;&gt;Node8 -->
<g id="edge19" class="edge"><title>Node17&#45;&gt;Node8</title>
<path fill="none" stroke="midnightblue" d="M337.859,-233.859C224.712,-234.575 -66.2936,-225.695 14.0348,-112 57.0251,-51.1522 99.2534,-71.9216 172.035,-56 344.096,-18.3599 556.231,-12.117 636.844,-11.1467"/>
<polygon fill="midnightblue" stroke="midnightblue" points="636.927,-14.6461 646.891,-11.0455 636.856,-7.6465 636.927,-14.6461"/>
</g>
<!-- Node17&#45;&gt;Node10 -->
<g id="edge21" class="edge"><title>Node17&#45;&gt;Node10</title>
<path fill="none" stroke="midnightblue" d="M424.286,-224.974C482.323,-214.204 584.247,-195.29 637.469,-185.414"/>
<polygon fill="midnightblue" stroke="midnightblue" points="638.243,-188.83 647.436,-183.565 636.966,-181.948 638.243,-188.83"/>
</g>
<!-- Node18 -->
<g id="node18" class="node"><title>Node18</title>
<polygon fill="white" stroke="#bfbfbf" points="467.535,-112.5 467.535,-131.5 516.535,-131.5 516.535,-112.5 467.535,-112.5"/>
<text text-anchor="middle" x="492.035" y="-119.5" font-family="Helvetica,sans-Serif" font-size="10.00">cassert</text>
</g>
<!-- Node17&#45;&gt;Node18 -->
<g id="edge18" class="edge"><title>Node17&#45;&gt;Node18</title>
<path fill="none" stroke="midnightblue" d="M376.467,-224.114C370.278,-210.695 361.272,-185.024 373.035,-168 382.977,-153.612 426.156,-139.805 457.646,-131.366"/>
<polygon fill="midnightblue" stroke="midnightblue" points="458.61,-134.731 467.403,-128.82 456.843,-127.958 458.61,-134.731"/>
</g>
<!-- Node19 -->
<g id="node19" class="node"><title>Node19</title>
<polygon fill="white" stroke="#bfbfbf" points="382.535,-168.5 382.535,-187.5 431.535,-187.5 431.535,-168.5 382.535,-168.5"/>
<text text-anchor="middle" x="407.035" y="-175.5" font-family="Helvetica,sans-Serif" font-size="10.00">stdint.h</text>
</g>
<!-- Node17&#45;&gt;Node19 -->
<g id="edge20" class="edge"><title>Node17&#45;&gt;Node19</title>
<path fill="none" stroke="midnightblue" d="M385.328,-224.083C388.887,-216.691 394.057,-205.953 398.459,-196.811"/>
<polygon fill="midnightblue" stroke="midnightblue" points="401.637,-198.279 402.821,-187.751 395.33,-195.243 401.637,-198.279"/>
</g>
<!-- Node17&#45;&gt;Node20 -->
<g id="edge22" class="edge"><title>Node17&#45;&gt;Node20</title>
<path fill="none" stroke="midnightblue" d="M349.82,-224.444C316.102,-215.201 262.235,-200.436 225.103,-190.257"/>
<polygon fill="midnightblue" stroke="midnightblue" points="225.673,-186.785 215.104,-187.516 223.823,-193.536 225.673,-186.785"/>
</g>
<!-- Node29 -->
<g id="node29" class="node"><title>Node29</title>
<g id="a_node29"><a xlink:href="_i_plug_midi_8h_source.html" target="_top" xlink:title="IPlugMidi.h">
<polygon fill="white" stroke="black" points="449.535,-168.5 449.535,-187.5 514.535,-187.5 514.535,-168.5 449.535,-168.5"/>
<text text-anchor="middle" x="482.035" y="-175.5" font-family="Helvetica,sans-Serif" font-size="10.00">IPlugMidi.h</text>
</a>
</g>
</g>
<!-- Node17&#45;&gt;Node29 -->
<g id="edge36" class="edge"><title>Node17&#45;&gt;Node29</title>
<path fill="none" stroke="midnightblue" d="M397.262,-224.324C413.386,-215.703 438.335,-202.364 456.999,-192.386"/>
<polygon fill="midnightblue" stroke="midnightblue" points="458.679,-195.456 465.848,-187.655 455.379,-189.283 458.679,-195.456"/>
</g>
<!-- Node20&#45;&gt;Node8 -->
<g id="edge23" class="edge"><title>Node20&#45;&gt;Node8</title>
<path fill="none" stroke="midnightblue" d="M164.983,-168.469C141.373,-156.685 106.088,-134.34 122.035,-112 182.412,-27.4161 527.417,-13.6679 636.783,-11.4335"/>
<polygon fill="midnightblue" stroke="midnightblue" points="636.971,-14.9307 646.905,-11.2464 636.842,-7.93192 636.971,-14.9307"/>
</g>
<!-- Node21 -->
<g id="node21" class="node"><title>Node21</title>
<polygon fill="white" stroke="#bfbfbf" points="131.535,-112.5 131.535,-131.5 190.535,-131.5 190.535,-112.5 131.535,-112.5"/>
<text text-anchor="middle" x="161.035" y="-119.5" font-family="Helvetica,sans-Serif" font-size="10.00">functional</text>
</g>
<!-- Node20&#45;&gt;Node21 -->
<g id="edge24" class="edge"><title>Node20&#45;&gt;Node21</title>
<path fill="none" stroke="midnightblue" d="M180.237,-168.083C177.122,-160.77 172.612,-150.181 168.745,-141.103"/>
<polygon fill="midnightblue" stroke="midnightblue" points="171.901,-139.58 164.762,-131.751 165.461,-142.323 171.901,-139.58"/>
</g>
<!-- Node22 -->
<g id="node22" class="node"><title>Node22</title>
<polygon fill="white" stroke="#bfbfbf" points="310.035,-56.5 310.035,-75.5 374.035,-75.5 374.035,-56.5 310.035,-56.5"/>
<text text-anchor="middle" x="342.035" y="-63.5" font-family="Helvetica,sans-Serif" font-size="10.00">wdlstring.h</text>
</g>
<!-- Node20&#45;&gt;Node22 -->
<g id="edge25" class="edge"><title>Node20&#45;&gt;Node22</title>
<path fill="none" stroke="midnightblue" d="M196.433,-168.368C223.43,-149.573 287.786,-104.768 321.16,-81.5334"/>
<polygon fill="midnightblue" stroke="midnightblue" points="323.487,-84.1776 329.694,-75.5914 319.488,-78.4327 323.487,-84.1776"/>
</g>
<!-- Node20&#45;&gt;Node23 -->
<g id="edge26" class="edge"><title>Node20&#45;&gt;Node23</title>
<path fill="none" stroke="midnightblue" d="M230.212,-169.186C233.194,-168.761 236.155,-168.361 239.035,-168 408.489,-146.748 610.626,-132.192 702.782,-126.145"/>
<polygon fill="midnightblue" stroke="midnightblue" points="703.187,-129.626 712.938,-125.484 702.732,-122.641 703.187,-129.626"/>
</g>
<!-- Node23&#45;&gt;Node8 -->
<g id="edge31" class="edge"><title>Node23&#45;&gt;Node8</title>
<path fill="none" stroke="midnightblue" d="M748.029,-112.281C740.561,-99.5112 725.791,-75.16 711.035,-56 703.215,-45.8474 693.606,-35.2172 685.655,-26.8394"/>
<polygon fill="midnightblue" stroke="midnightblue" points="688.118,-24.3505 678.654,-19.5863 683.081,-29.212 688.118,-24.3505"/>
</g>
<!-- Node23&#45;&gt;Node12 -->
<g id="edge35" class="edge"><title>Node23&#45;&gt;Node12</title>
<path fill="none" stroke="midnightblue" d="M793.081,-117.246C894.763,-107.713 1162.9,-82.5747 1276.74,-71.903"/>
<polygon fill="midnightblue" stroke="midnightblue" points="1277.31,-75.365 1286.94,-70.9467 1276.65,-68.3955 1277.31,-75.365"/>
</g>
<!-- Node23&#45;&gt;Node13 -->
<g id="edge30" class="edge"><title>Node23&#45;&gt;Node13</title>
<path fill="none" stroke="midnightblue" d="M763.009,-112.307C779.772,-98.1868 815.187,-70.3977 850.035,-56 916.703,-28.4558 1001.34,-17.4801 1047.08,-13.3346"/>
<polygon fill="midnightblue" stroke="midnightblue" points="1047.64,-16.8001 1057.3,-12.4643 1047.04,-9.82534 1047.64,-16.8001"/>
</g>
<!-- Node23&#45;&gt;Node22 -->
<g id="edge33" class="edge"><title>Node23&#45;&gt;Node22</title>
<path fill="none" stroke="midnightblue" d="M712.878,-115.724C634.974,-105.488 464.006,-83.0254 384.388,-72.5647"/>
<polygon fill="midnightblue" stroke="midnightblue" points="384.604,-69.063 374.233,-71.2304 383.692,-76.0034 384.604,-69.063"/>
</g>
<!-- Node24 -->
<g id="node24" class="node"><title>Node24</title>
<polygon fill="white" stroke="#bfbfbf" points="647.035,-56.5 647.035,-75.5 703.035,-75.5 703.035,-56.5 647.035,-56.5"/>
<text text-anchor="middle" x="675.035" y="-63.5" font-family="Helvetica,sans-Serif" font-size="10.00">algorithm</text>
</g>
<!-- Node23&#45;&gt;Node24 -->
<g id="edge27" class="edge"><title>Node23&#45;&gt;Node24</title>
<path fill="none" stroke="midnightblue" d="M740.503,-112.324C728.449,-103.979 710.008,-91.2122 695.766,-81.3524"/>
<polygon fill="midnightblue" stroke="midnightblue" points="697.75,-78.469 687.536,-75.6545 693.765,-84.2243 697.75,-78.469"/>
</g>
<!-- Node25 -->
<g id="node25" class="node"><title>Node25</title>
<polygon fill="white" stroke="#bfbfbf" points="859.035,-56.5 859.035,-75.5 903.035,-75.5 903.035,-56.5 859.035,-56.5"/>
<text text-anchor="middle" x="881.035" y="-63.5" font-family="Helvetica,sans-Serif" font-size="10.00">cmath</text>
</g>
<!-- Node23&#45;&gt;Node25 -->
<g id="edge28" class="edge"><title>Node23&#45;&gt;Node25</title>
<path fill="none" stroke="midnightblue" d="M773.317,-112.444C794.382,-103.557 827.552,-89.5632 851.52,-79.4514"/>
<polygon fill="midnightblue" stroke="midnightblue" points="852.994,-82.6283 860.848,-75.5164 850.274,-76.1787 852.994,-82.6283"/>
</g>
<!-- Node26 -->
<g id="node26" class="node"><title>Node26</title>
<polygon fill="white" stroke="#bfbfbf" points="759.535,-56.5 759.535,-75.5 802.535,-75.5 802.535,-56.5 759.535,-56.5"/>
<text text-anchor="middle" x="781.035" y="-63.5" font-family="Helvetica,sans-Serif" font-size="10.00">cstdio</text>
</g>
<!-- Node23&#45;&gt;Node26 -->
<g id="edge29" class="edge"><title>Node23&#45;&gt;Node26</title>
<path fill="none" stroke="midnightblue" d="M757.658,-112.083C761.491,-104.691 767.059,-93.9533 771.799,-84.8111"/>
<polygon fill="midnightblue" stroke="midnightblue" points="775.001,-86.2398 776.497,-75.7511 768.787,-83.0175 775.001,-86.2398"/>
</g>
<!-- Node27 -->
<g id="node27" class="node"><title>Node27</title>
<polygon fill="white" stroke="#bfbfbf" points="440.035,-56.5 440.035,-75.5 486.035,-75.5 486.035,-56.5 440.035,-56.5"/>
<text text-anchor="middle" x="463.035" y="-63.5" font-family="Helvetica,sans-Serif" font-size="10.00">cctype</text>
</g>
<!-- Node23&#45;&gt;Node27 -->
<g id="edge32" class="edge"><title>Node23&#45;&gt;Node27</title>
<path fill="none" stroke="midnightblue" d="M713.016,-113.548C655.331,-102.807 549.869,-83.1691 496.244,-73.1839"/>
<polygon fill="midnightblue" stroke="midnightblue" points="496.712,-69.7108 486.24,-71.321 495.431,-76.5926 496.712,-69.7108"/>
</g>
<!-- Node23&#45;&gt;Node28 -->
<g id="edge34" class="edge"><title>Node23&#45;&gt;Node28</title>
<path fill="none" stroke="midnightblue" d="M786.944,-112.444C823.884,-103.122 883.088,-88.1828 923.453,-77.9972"/>
<polygon fill="midnightblue" stroke="midnightblue" points="924.445,-81.3568 933.284,-75.5164 922.732,-74.5695 924.445,-81.3568"/>
</g>
<!-- Node29&#45;&gt;Node9 -->
<g id="edge38" class="edge"><title>Node29&#45;&gt;Node9</title>
<path fill="none" stroke="midnightblue" d="M494.245,-168.324C505.811,-160.107 523.41,-147.602 537.195,-137.807"/>
<polygon fill="midnightblue" stroke="midnightblue" points="539.477,-140.479 545.602,-131.834 535.423,-134.773 539.477,-140.479"/>
</g>
<!-- Node29&#45;&gt;Node18 -->
<g id="edge37" class="edge"><title>Node29&#45;&gt;Node18</title>
<path fill="none" stroke="midnightblue" d="M483.686,-168.083C485.011,-160.927 486.917,-150.635 488.573,-141.691"/>
<polygon fill="midnightblue" stroke="midnightblue" points="492.035,-142.221 490.414,-131.751 485.152,-140.947 492.035,-142.221"/>
</g>
<!-- Node30&#45;&gt;Node10 -->
<g id="edge43" class="edge"><title>Node30&#45;&gt;Node10</title>
<path fill="none" stroke="midnightblue" d="M792.376,-224.444C768.633,-215.478 731.126,-201.314 704.296,-191.183"/>
<polygon fill="midnightblue" stroke="midnightblue" points="705.179,-187.775 694.588,-187.516 702.706,-194.324 705.179,-187.775"/>
</g>
<!-- Node30&#45;&gt;Node12 -->
<g id="edge45" class="edge"><title>Node30&#45;&gt;Node12</title>
<path fill="none" stroke="midnightblue" d="M854.873,-229.774C910.58,-224.575 1014.52,-212.363 1100.03,-188 1161.72,-170.426 1176.65,-162.572 1233.03,-132 1260.99,-116.843 1291,-95.6396 1309.88,-81.6244"/>
<polygon fill="midnightblue" stroke="midnightblue" points="1312.07,-84.3606 1317.97,-75.559 1307.87,-78.7617 1312.07,-84.3606"/>
</g>
<!-- Node30&#45;&gt;Node22 -->
<g id="edge42" class="edge"><title>Node30&#45;&gt;Node22</title>
<path fill="none" stroke="midnightblue" d="M800.583,-224.44C771.283,-207.088 707.44,-169.294 705.035,-168 654.967,-141.073 644.063,-129.685 590.035,-112 519.76,-88.9977 434.204,-76.7554 384.16,-71.0903"/>
<polygon fill="midnightblue" stroke="midnightblue" points="384.36,-67.5914 374.038,-69.9798 383.597,-74.5497 384.36,-67.5914"/>
</g>
<!-- Node30&#45;&gt;Node24 -->
<g id="edge41" class="edge"><title>Node30&#45;&gt;Node24</title>
<path fill="none" stroke="midnightblue" d="M804.36,-224.26C779.651,-203.88 719.455,-153.324 704.035,-132 693.636,-117.62 685.778,-98.9189 680.883,-85.2697"/>
<polygon fill="midnightblue" stroke="midnightblue" points="684.125,-83.9325 677.6,-75.5855 677.496,-86.1798 684.125,-83.9325"/>
</g>
<!-- Node30&#45;&gt;Node28 -->
<g id="edge44" class="edge"><title>Node30&#45;&gt;Node28</title>
<path fill="none" stroke="midnightblue" d="M821.583,-224.442C837.242,-204.159 878.432,-151.875 917.035,-112 927.087,-101.617 939.104,-90.7564 948.838,-82.3069"/>
<polygon fill="midnightblue" stroke="midnightblue" points="951.38,-84.7383 956.697,-75.5746 946.826,-79.4221 951.38,-84.7383"/>
</g>
<!-- Node30&#45;&gt;Node29 -->
<g id="edge46" class="edge"><title>Node30&#45;&gt;Node29</title>
<path fill="none" stroke="midnightblue" d="M775.528,-226.593C712.567,-216.384 589.961,-196.502 524.931,-185.956"/>
<polygon fill="midnightblue" stroke="midnightblue" points="525.438,-182.493 515.007,-184.347 524.318,-189.402 525.438,-182.493"/>
</g>
<!-- Node31&#45;&gt;Node8 -->
<g id="edge52" class="edge"><title>Node31&#45;&gt;Node8</title>
<path fill="none" stroke="midnightblue" d="M284.914,-168.492C279.974,-146.42 270.326,-86.8984 301.035,-56 324.536,-32.3536 550.502,-17.5624 636.781,-12.7369"/>
<polygon fill="midnightblue" stroke="midnightblue" points="637.03,-16.2286 646.823,-12.1852 636.646,-9.23915 637.03,-16.2286"/>
</g>
<!-- Node31&#45;&gt;Node9 -->
<g id="edge51" class="edge"><title>Node31&#45;&gt;Node9</title>
<path fill="none" stroke="midnightblue" d="M325.566,-170.684C372.795,-162.719 455.169,-148.105 525.035,-132 525.136,-131.977 525.237,-131.953 525.339,-131.93"/>
<polygon fill="midnightblue" stroke="midnightblue" points="526.152,-135.334 535.015,-129.529 524.466,-128.54 526.152,-135.334"/>
</g>
<!-- Node31&#45;&gt;Node11 -->
<g id="edge56" class="edge"><title>Node31&#45;&gt;Node11</title>
<path fill="none" stroke="midnightblue" d="M249.323,-168.444C204.209,-158.208 129.237,-141.197 84.939,-131.146"/>
<polygon fill="midnightblue" stroke="midnightblue" points="85.7007,-127.73 75.1742,-128.931 84.1518,-134.557 85.7007,-127.73"/>
</g>
<!-- Node31&#45;&gt;Node18 -->
<g id="edge54" class="edge"><title>Node31&#45;&gt;Node18</title>
<path fill="none" stroke="midnightblue" d="M319.518,-168.444C357.242,-158.506 419.204,-142.185 457.701,-132.044"/>
<polygon fill="midnightblue" stroke="midnightblue" points="458.646,-135.415 467.425,-129.483 456.863,-128.645 458.646,-135.415"/>
</g>
<!-- Node31&#45;&gt;Node22 -->
<g id="edge55" class="edge"><title>Node31&#45;&gt;Node22</title>
<path fill="none" stroke="midnightblue" d="M291.341,-168.148C297.446,-155.62 308.995,-132.012 319.035,-112 323.566,-102.968 328.675,-92.9547 332.925,-84.6712"/>
<polygon fill="midnightblue" stroke="midnightblue" points="336.126,-86.1009 337.587,-75.6073 329.901,-82.8994 336.126,-86.1009"/>
</g>
<!-- Node31&#45;&gt;Node23 -->
<g id="edge58" class="edge"><title>Node31&#45;&gt;Node23</title>
<path fill="none" stroke="midnightblue" d="M325.566,-172.535C409.534,-162.805 608.987,-139.692 702.723,-128.83"/>
<polygon fill="midnightblue" stroke="midnightblue" points="703.277,-132.289 712.808,-127.662 702.471,-125.336 703.277,-132.289"/>
</g>
<!-- Node31&#45;&gt;Node26 -->
<g id="edge48" class="edge"><title>Node31&#45;&gt;Node26</title>
<path fill="none" stroke="midnightblue" d="M316.068,-168.437C343.119,-160.147 384.375,-146.703 419.035,-132 436.968,-124.393 439.461,-117.871 458.035,-112 471.859,-107.63 670.407,-81.4363 749.175,-71.1461"/>
<polygon fill="midnightblue" stroke="midnightblue" points="750,-74.5682 759.463,-69.8036 749.094,-67.6271 750,-74.5682"/>
</g>
<!-- Node31&#45;&gt;Node27 -->
<g id="edge49" class="edge"><title>Node31&#45;&gt;Node27</title>
<path fill="none" stroke="midnightblue" d="M293.759,-168.317C304.687,-154.704 327.558,-128.222 352.035,-112 376.193,-95.9895 406.947,-84.0739 429.955,-76.5401"/>
<polygon fill="midnightblue" stroke="midnightblue" points="431.135,-79.8378 439.614,-73.4843 429.024,-73.1638 431.135,-79.8378"/>
</g>
<!-- Node31&#45;&gt;Node28 -->
<g id="edge57" class="edge"><title>Node31&#45;&gt;Node28</title>
<path fill="none" stroke="midnightblue" d="M325.548,-172.799C340.383,-171.225 357.491,-169.465 373.035,-168 563.527,-150.042 617.106,-181.103 802.035,-132 822.406,-126.591 825.575,-120.098 845.035,-112 874.161,-99.8785 907.843,-87.5814 932.428,-78.9124"/>
<polygon fill="midnightblue" stroke="midnightblue" points="933.755,-82.1559 942.035,-75.5458 931.44,-75.5497 933.755,-82.1559"/>
</g>
<!-- Node32 -->
<g id="node32" class="node"><title>Node32</title>
<polygon fill="white" stroke="#bfbfbf" points="361.535,-112.5 361.535,-131.5 410.535,-131.5 410.535,-112.5 361.535,-112.5"/>
<text text-anchor="middle" x="386.035" y="-119.5" font-family="Helvetica,sans-Serif" font-size="10.00">cstdarg</text>
</g>
<!-- Node31&#45;&gt;Node32 -->
<g id="edge50" class="edge"><title>Node31&#45;&gt;Node32</title>
<path fill="none" stroke="midnightblue" d="M302.941,-168.324C318.673,-159.743 342.977,-146.486 361.244,-136.522"/>
<polygon fill="midnightblue" stroke="midnightblue" points="363.065,-139.516 370.168,-131.655 359.713,-133.37 363.065,-139.516"/>
</g>
<!-- Node33 -->
<g id="node33" class="node"><title>Node33</title>
<polygon fill="white" stroke="#bfbfbf" points="925.535,-112.5 925.535,-131.5 966.535,-131.5 966.535,-112.5 925.535,-112.5"/>
<text text-anchor="middle" x="946.035" y="-119.5" font-family="Helvetica,sans-Serif" font-size="10.00">ctime</text>
</g>
<!-- Node31&#45;&gt;Node33 -->
<g id="edge53" class="edge"><title>Node31&#45;&gt;Node33</title>
<path fill="none" stroke="midnightblue" d="M325.543,-172.75C340.378,-171.17 357.487,-169.419 373.035,-168 578.138,-149.28 629.727,-148.322 835.035,-132 862.032,-129.854 892.719,-127.362 914.974,-125.545"/>
<polygon fill="midnightblue" stroke="midnightblue" points="915.487,-129.014 925.169,-124.711 914.917,-122.038 915.487,-129.014"/>
</g>
<!-- Node35 -->
<g id="node35" class="node"><title>Node35</title>
<polygon fill="white" stroke="#bfbfbf" points="878.035,-280.5 878.035,-299.5 924.035,-299.5 924.035,-280.5 878.035,-280.5"/>
<text text-anchor="middle" x="901.035" y="-287.5" font-family="Helvetica,sans-Serif" font-size="10.00">atomic</text>
</g>
<!-- Node34&#45;&gt;Node35 -->
<g id="edge64" class="edge"><title>Node34&#45;&gt;Node35</title>
<path fill="none" stroke="midnightblue" d="M913.558,-336.083C911.548,-328.849 908.648,-318.409 906.145,-309.397"/>
<polygon fill="midnightblue" stroke="midnightblue" points="909.514,-308.449 903.466,-299.751 902.77,-310.323 909.514,-308.449"/>
</g>
<!-- Node36 -->
<g id="node36" class="node"><title>Node36</title>
<polygon fill="white" stroke="#bfbfbf" points="942.535,-280.5 942.535,-299.5 991.535,-299.5 991.535,-280.5 942.535,-280.5"/>
<text text-anchor="middle" x="967.035" y="-287.5" font-family="Helvetica,sans-Serif" font-size="10.00">cstddef</text>
</g>
<!-- Node34&#45;&gt;Node36 -->
<g id="edge65" class="edge"><title>Node34&#45;&gt;Node36</title>
<path fill="none" stroke="midnightblue" d="M924.456,-336.083C931.883,-328.22 942.886,-316.569 951.847,-307.081"/>
<polygon fill="midnightblue" stroke="midnightblue" points="954.448,-309.424 958.77,-299.751 949.359,-304.618 954.448,-309.424"/>
</g>
<!-- Node37&#45;&gt;Node8 -->
<g id="edge67" class="edge"><title>Node37&#45;&gt;Node8</title>
<path fill="none" stroke="midnightblue" d="M642.632,-224.245C635.851,-197.974 618.297,-117.815 638.035,-56 641.375,-45.538 648.135,-35.4277 654.584,-27.4496"/>
<polygon fill="midnightblue" stroke="midnightblue" points="657.382,-29.5641 661.283,-19.7136 652.091,-24.9815 657.382,-29.5641"/>
</g>
<!-- Node37&#45;&gt;Node10 -->
<g id="edge69" class="edge"><title>Node37&#45;&gt;Node10</title>
<path fill="none" stroke="midnightblue" d="M649.493,-224.083C653.189,-216.691 658.558,-205.953 663.129,-196.811"/>
<polygon fill="midnightblue" stroke="midnightblue" points="666.318,-198.261 667.659,-187.751 660.057,-195.13 666.318,-198.261"/>
</g>
<!-- Node37&#45;&gt;Node12 -->
<g id="edge70" class="edge"><title>Node37&#45;&gt;Node12</title>
<path fill="none" stroke="midnightblue" d="M659.763,-224.463C699.655,-201.787 813.747,-139.884 917.035,-112 1043.18,-77.9444 1197.68,-69.5605 1276.83,-67.5639"/>
<polygon fill="midnightblue" stroke="midnightblue" points="1277.1,-71.0586 1287.02,-67.3318 1276.94,-64.0604 1277.1,-71.0586"/>
</g>
<!-- Node37&#45;&gt;Node19 -->
<g id="edge68" class="edge"><title>Node37&#45;&gt;Node19</title>
<path fill="none" stroke="midnightblue" d="M608.987,-225.658C569.948,-217.582 505.619,-203.909 441.703,-188.329"/>
<polygon fill="midnightblue" stroke="midnightblue" points="442.412,-184.9 431.866,-185.916 440.744,-191.698 442.412,-184.9"/>
</g>
<!-- Node38&#45;&gt;Node8 -->
<g id="edge72" class="edge"><title>Node38&#45;&gt;Node8</title>
<path fill="none" stroke="midnightblue" d="M1089.56,-280.48C1115.58,-273.047 1151.99,-260.808 1181.03,-244 1238.69,-210.636 1293.19,-164.38 1252.03,-112 1183.67,-24.9965 817.034,-12.9051 703.542,-11.2531"/>
<polygon fill="midnightblue" stroke="midnightblue" points="703.411,-7.7513 693.367,-11.1237 703.322,-14.7507 703.411,-7.7513"/>
</g>
<!-- Node38&#45;&gt;Node9 -->
<g id="edge73" class="edge"><title>Node38&#45;&gt;Node9</title>
<path fill="none" stroke="midnightblue" d="M1009.93,-281.329C1006.58,-280.853 1003.26,-280.404 1000.03,-280 911.478,-268.912 670.363,-298.947 600.035,-244 568.45,-219.323 560.521,-169.41 558.594,-142.031"/>
<polygon fill="midnightblue" stroke="midnightblue" points="562.079,-141.63 558.085,-131.817 555.087,-141.979 562.079,-141.63"/>
</g>
<!-- Node38&#45;&gt;Node10 -->
<g id="edge74" class="edge"><title>Node38&#45;&gt;Node10</title>
<path fill="none" stroke="midnightblue" d="M1009.89,-281.562C1006.56,-281.031 1003.24,-280.506 1000.03,-280 896.528,-263.686 864.473,-282.543 767.035,-244 737.171,-232.187 707.365,-209.591 689.312,-194.405"/>
<polygon fill="midnightblue" stroke="midnightblue" points="691.305,-191.502 681.445,-187.625 686.735,-196.805 691.305,-191.502"/>
</g>
<!-- Node38&#45;&gt;Node12 -->
<g id="edge75" class="edge"><title>Node38&#45;&gt;Node12</title>
<path fill="none" stroke="midnightblue" d="M1102.25,-286.181C1165.69,-281.407 1275.29,-269.629 1305.03,-244 1351.28,-204.148 1352.21,-172.356 1343.03,-112 1341.67,-103.001 1338.84,-93.3251 1336.09,-85.2601"/>
<polygon fill="midnightblue" stroke="midnightblue" points="1339.35,-83.9759 1332.63,-75.7782 1332.77,-86.3722 1339.35,-83.9759"/>
</g>
<!-- Node38&#45;&gt;Node23 -->
<g id="edge78" class="edge"><title>Node38&#45;&gt;Node23</title>
<path fill="none" stroke="midnightblue" d="M1047.14,-280.392C1024.17,-258.592 960.218,-200.629 897.035,-168 867.265,-152.627 831.292,-141.381 802.748,-133.977"/>
<polygon fill="midnightblue" stroke="midnightblue" points="803.536,-130.566 792.984,-131.517 801.826,-137.354 803.536,-130.566"/>
</g>
<!-- Node38&#45;&gt;Node28 -->
<g id="edge76" class="edge"><title>Node38&#45;&gt;Node28</title>
<path fill="none" stroke="midnightblue" d="M1077.25,-280.485C1135.84,-255.802 1291.8,-181.54 1233.03,-112 1206.76,-80.9074 1093.53,-71.2917 1023.54,-68.3223"/>
<polygon fill="midnightblue" stroke="midnightblue" points="1023.25,-64.8084 1013.12,-67.9155 1022.98,-71.803 1023.25,-64.8084"/>
</g>
<!-- Node38&#45;&gt;Node30 -->
<g id="edge77" class="edge"><title>Node38&#45;&gt;Node30</title>
<path fill="none" stroke="midnightblue" d="M1017.85,-280.444C975.894,-271.043 908.441,-255.929 862.964,-245.739"/>
<polygon fill="midnightblue" stroke="midnightblue" points="863.567,-242.288 853.043,-243.516 862.036,-249.118 863.567,-242.288"/>
</g>
<!-- Node39 -->
<g id="node39" class="node"><title>Node39</title>
<polygon fill="white" stroke="#bfbfbf" points="1357.53,-224.5 1357.53,-243.5 1438.53,-243.5 1438.53,-224.5 1357.53,-224.5"/>
<text text-anchor="middle" x="1398.03" y="-231.5" font-family="Helvetica,sans-Serif" font-size="10.00">NChanDelay.h</text>
</g>
<!-- Node38&#45;&gt;Node39 -->
<g id="edge79" class="edge"><title>Node38&#45;&gt;Node39</title>
<path fill="none" stroke="midnightblue" d="M1102.28,-281.847C1159.01,-273.048 1258.13,-257.604 1343.03,-244 1344.5,-243.766 1345.98,-243.527 1347.48,-243.286"/>
<polygon fill="midnightblue" stroke="midnightblue" points="1348.18,-246.718 1357.49,-241.666 1347.06,-239.808 1348.18,-246.718"/>
</g>
<!-- Node40 -->
<g id="node40" class="node"><title>Node40</title>
<g id="a_node40"><a xlink:href="_i_plug_processor_8cpp_source.html" target="_top" xlink:title="IPlugProcessor.cpp">
<polygon fill="white" stroke="black" points="990.035,-168.5 990.035,-187.5 1092.03,-187.5 1092.03,-168.5 990.035,-168.5"/>
<text text-anchor="middle" x="1041.03" y="-175.5" font-family="Helvetica,sans-Serif" font-size="10.00">IPlugProcessor.cpp</text>
</a>
</g>
</g>
<!-- Node38&#45;&gt;Node40 -->
<g id="edge80" class="edge"><title>Node38&#45;&gt;Node40</title>
<path fill="none" stroke="midnightblue" d="M1051.01,-280.368C1045.25,-262.617 1039.21,-221.666 1038.36,-197.597"/>
<polygon fill="midnightblue" stroke="midnightblue" points="1041.86,-197.595 1038.37,-187.591 1034.86,-197.588 1041.86,-197.595"/>
</g>
<!-- Node40&#45;&gt;Node18 -->
<g id="edge84" class="edge"><title>Node40&#45;&gt;Node18</title>
<path fill="none" stroke="midnightblue" d="M989.856,-175.435C898.592,-172.013 701.719,-161.776 526.71,-131.805"/>
<polygon fill="midnightblue" stroke="midnightblue" points="527.26,-128.348 516.808,-130.083 526.061,-135.244 527.26,-128.348"/>
</g>
<!-- Node40&#45;&gt;Node25 -->
<g id="edge81" class="edge"><title>Node40&#45;&gt;Node25</title>
<path fill="none" stroke="midnightblue" d="M1038.97,-168.112C1035.3,-154.219 1026.35,-127.359 1009.03,-112 1001.62,-105.419 948.583,-88.0279 913.148,-76.8937"/>
<polygon fill="midnightblue" stroke="midnightblue" points="913.819,-73.4364 903.23,-73.7957 911.732,-80.118 913.819,-73.4364"/>
</g>
<!-- Node40&#45;&gt;Node26 -->
<g id="edge82" class="edge"><title>Node40&#45;&gt;Node26</title>
<path fill="none" stroke="midnightblue" d="M1034.81,-168.311C1024.21,-154.197 1001.24,-126.416 975.035,-112 947.363,-96.7803 860.393,-80.3668 812.848,-72.2137"/>
<polygon fill="midnightblue" stroke="midnightblue" points="813.223,-68.7275 802.779,-70.5097 812.055,-75.6294 813.223,-68.7275"/>
</g>
<!-- Node40&#45;&gt;Node33 -->
<g id="edge83" class="edge"><title>Node40&#45;&gt;Node33</title>
<path fill="none" stroke="midnightblue" d="M1025.77,-168.324C1010.81,-159.822 987.78,-146.729 970.308,-136.797"/>
<polygon fill="midnightblue" stroke="midnightblue" points="971.684,-133.553 961.26,-131.655 968.224,-139.639 971.684,-133.553"/>
</g>
<!-- Node40&#45;&gt;Node38 -->
<g id="edge87" class="edge"><title>Node40&#45;&gt;Node38</title>
<path fill="none" stroke="midnightblue" d="M1046.04,-187.591C1051.81,-205.308 1057.85,-246.254 1058.71,-270.348"/>
<polygon fill="midnightblue" stroke="midnightblue" points="1055.21,-270.366 1058.7,-280.368 1062.21,-270.371 1055.21,-270.366"/>
</g>
<!-- Node41 -->
<g id="node41" class="node"><title>Node41</title>
<polygon fill="white" stroke="#bfbfbf" points="1061.03,-112.5 1061.03,-131.5 1129.03,-131.5 1129.03,-112.5 1061.03,-112.5"/>
<text text-anchor="middle" x="1095.03" y="-119.5" font-family="Helvetica,sans-Serif" font-size="10.00">wdlendian.h</text>
</g>
<!-- Node40&#45;&gt;Node41 -->
<g id="edge85" class="edge"><title>Node40&#45;&gt;Node41</title>
<path fill="none" stroke="midnightblue" d="M1049.95,-168.083C1057.82,-160.22 1069.47,-148.569 1078.95,-139.081"/>
<polygon fill="midnightblue" stroke="midnightblue" points="1081.69,-141.297 1086.28,-131.751 1076.74,-136.347 1081.69,-141.297"/>
</g>
<!-- Node42 -->
<g id="node42" class="node"><title>Node42</title>
<polygon fill="white" stroke="#bfbfbf" points="1147.53,-112.5 1147.53,-131.5 1224.53,-131.5 1224.53,-112.5 1147.53,-112.5"/>
<text text-anchor="middle" x="1186.03" y="-119.5" font-family="Helvetica,sans-Serif" font-size="10.00">wdl_base64.h</text>
</g>
<!-- Node40&#45;&gt;Node42 -->
<g id="edge86" class="edge"><title>Node40&#45;&gt;Node42</title>
<path fill="none" stroke="midnightblue" d="M1064.01,-168.444C1088.19,-159.438 1126.45,-145.189 1153.68,-135.049"/>
<polygon fill="midnightblue" stroke="midnightblue" points="1155.02,-138.286 1163.17,-131.516 1152.57,-131.727 1155.02,-138.286"/>
</g>
</g>
</svg>
