<?xml version="1.0" encoding="UTF-8" standalone="no"?>
<!DOCTYPE svg PUBLIC "-//W3C//DTD SVG 1.1//EN"
 "http://www.w3.org/Graphics/SVG/1.1/DTD/svg11.dtd">
<!-- Generated by graphviz version 2.36.0 (20140111.2315)
 -->
<!-- Title: IPlugAU.h Pages: 1 -->
<svg width="1572pt" height="476pt"
 viewBox="0.00 0.00 1572.00 476.00" xmlns="http://www.w3.org/2000/svg" xmlns:xlink="http://www.w3.org/1999/xlink">
<g id="graph0" class="graph" transform="scale(1 1) rotate(0) translate(4 472)">
<title>IPlugAU.h</title>
<polygon fill="white" stroke="none" points="-4,4 -4,-472 1568,-472 1568,4 -4,4"/>
<!-- Node1 -->
<g id="node1" class="node"><title>Node1</title>
<polygon fill="#bfbfbf" stroke="black" points="545,-448.5 545,-467.5 607,-467.5 607,-448.5 545,-448.5"/>
<text text-anchor="middle" x="576" y="-455.5" font-family="Helvetica,sans-Serif" font-size="10.00">IPlugAU.h</text>
</g>
<!-- Node2 -->
<g id="node2" class="node"><title>Node2</title>
<polygon fill="white" stroke="#bfbfbf" points="0,-392.5 0,-411.5 146,-411.5 146,-392.5 0,-392.5"/>
<text text-anchor="middle" x="73" y="-399.5" font-family="Helvetica,sans-Serif" font-size="10.00">CoreServices/CoreServices.h</text>
</g>
<!-- Node1&#45;&gt;Node2 -->
<g id="edge1" class="edge"><title>Node1&#45;&gt;Node2</title>
<path fill="none" stroke="midnightblue" d="M544.836,-453.699C476.528,-446.459 308.231,-428.583 156.299,-412.138"/>
<polygon fill="midnightblue" stroke="midnightblue" points="156.635,-408.654 146.316,-411.057 155.882,-415.614 156.635,-408.654"/>
</g>
<!-- Node3 -->
<g id="node3" class="node"><title>Node3</title>
<polygon fill="white" stroke="#bfbfbf" points="164.5,-392.5 164.5,-411.5 299.5,-411.5 299.5,-392.5 164.5,-392.5"/>
<text text-anchor="middle" x="232" y="-399.5" font-family="Helvetica,sans-Serif" font-size="10.00">AudioUnit/AUComponent.h</text>
</g>
<!-- Node1&#45;&gt;Node3 -->
<g id="edge2" class="edge"><title>Node1&#45;&gt;Node3</title>
<path fill="none" stroke="midnightblue" d="M544.866,-452.113C488.948,-443.335 370.453,-424.734 296.409,-413.111"/>
<polygon fill="midnightblue" stroke="midnightblue" points="296.689,-409.612 286.268,-411.519 295.604,-416.527 296.689,-409.612"/>
</g>
<!-- Node4 -->
<g id="node4" class="node"><title>Node4</title>
<polygon fill="white" stroke="#bfbfbf" points="318,-392.5 318,-411.5 476,-411.5 476,-392.5 318,-392.5"/>
<text text-anchor="middle" x="397" y="-399.5" font-family="Helvetica,sans-Serif" font-size="10.00">AudioUnit/AudioUnitProperties.h</text>
</g>
<!-- Node1&#45;&gt;Node4 -->
<g id="edge3" class="edge"><title>Node1&#45;&gt;Node4</title>
<path fill="none" stroke="midnightblue" d="M547.637,-448.444C517.262,-439.28 468.89,-424.688 435.184,-414.519"/>
<polygon fill="midnightblue" stroke="midnightblue" points="435.815,-411.054 425.23,-411.516 433.793,-417.756 435.815,-411.054"/>
</g>
<!-- Node5 -->
<g id="node5" class="node"><title>Node5</title>
<polygon fill="white" stroke="#bfbfbf" points="494.5,-392.5 494.5,-411.5 657.5,-411.5 657.5,-392.5 494.5,-392.5"/>
<text text-anchor="middle" x="576" y="-399.5" font-family="Helvetica,sans-Serif" font-size="10.00">AudioToolbox/AudioUnitUtilities.h</text>
</g>
<!-- Node1&#45;&gt;Node5 -->
<g id="edge4" class="edge"><title>Node1&#45;&gt;Node5</title>
<path fill="none" stroke="midnightblue" d="M576,-448.083C576,-441.006 576,-430.861 576,-421.986"/>
<polygon fill="midnightblue" stroke="midnightblue" points="579.5,-421.751 576,-411.751 572.5,-421.751 579.5,-421.751"/>
</g>
<!-- Node6 -->
<g id="node6" class="node"><title>Node6</title>
<polygon fill="white" stroke="#bfbfbf" points="676,-392.5 676,-411.5 780,-411.5 780,-392.5 676,-392.5"/>
<text text-anchor="middle" x="728" y="-399.5" font-family="Helvetica,sans-Serif" font-size="10.00">AvailabilityMacros.h</text>
</g>
<!-- Node1&#45;&gt;Node6 -->
<g id="edge5" class="edge"><title>Node1&#45;&gt;Node6</title>
<path fill="none" stroke="midnightblue" d="M600.085,-448.444C625.545,-439.399 665.894,-425.064 694.459,-414.916"/>
<polygon fill="midnightblue" stroke="midnightblue" points="695.777,-418.162 704.028,-411.516 693.433,-411.566 695.777,-418.162"/>
</g>
<!-- Node7 -->
<g id="node7" class="node"><title>Node7</title>
<g id="a_node7"><a xlink:href="_i_plug_base_8h.html" target="_top" xlink:title="The base class of an IPlug plug&#45;in, which interacts with the different plug&#45;in APIs. ">
<polygon fill="white" stroke="black" points="798,-392.5 798,-411.5 868,-411.5 868,-392.5 798,-392.5"/>
<text text-anchor="middle" x="833" y="-399.5" font-family="Helvetica,sans-Serif" font-size="10.00">IPlugBase.h</text>
</a>
</g>
</g>
<!-- Node1&#45;&gt;Node7 -->
<g id="edge6" class="edge"><title>Node1&#45;&gt;Node7</title>
<path fill="none" stroke="midnightblue" d="M607,-450.486C652.058,-441.019 735.914,-423.399 787.84,-412.489"/>
<polygon fill="midnightblue" stroke="midnightblue" points="788.712,-415.882 797.779,-410.401 787.273,-409.032 788.712,-415.882"/>
</g>
<!-- Node38 -->
<g id="node38" class="node"><title>Node38</title>
<g id="a_node38"><a xlink:href="_i_plug_processor_8h.html" target="_top" xlink:title="The base class for IPlug Audio Processing. ">
<polygon fill="white" stroke="black" points="1031,-280.5 1031,-299.5 1123,-299.5 1123,-280.5 1031,-280.5"/>
<text text-anchor="middle" x="1077" y="-287.5" font-family="Helvetica,sans-Serif" font-size="10.00">IPlugProcessor.h</text>
</a>
</g>
</g>
<!-- Node1&#45;&gt;Node38 -->
<g id="edge71" class="edge"><title>Node1&#45;&gt;Node38</title>
<path fill="none" stroke="midnightblue" d="M607.11,-455.753C662.613,-452.788 781.808,-443.048 877,-412 928.029,-395.356 938.131,-383.876 984,-356 1010.18,-340.087 1038.88,-319.515 1057.37,-305.82"/>
<polygon fill="midnightblue" stroke="midnightblue" points="1059.65,-308.486 1065.58,-299.7 1055.47,-302.875 1059.65,-308.486"/>
</g>
<!-- Node8 -->
<g id="node8" class="node"><title>Node8</title>
<polygon fill="white" stroke="#bfbfbf" points="668,-0.5 668,-19.5 714,-19.5 714,-0.5 668,-0.5"/>
<text text-anchor="middle" x="691" y="-7.5" font-family="Helvetica,sans-Serif" font-size="10.00">cstring</text>
</g>
<!-- Node7&#45;&gt;Node8 -->
<g id="edge7" class="edge"><title>Node7&#45;&gt;Node8</title>
<path fill="none" stroke="midnightblue" d="M868.371,-400.426C982.246,-398.262 1338.3,-388.964 1448,-356 1504.6,-338.994 1564,-350.098 1564,-291 1564,-291 1564,-291 1564,-121 1564,-42.5949 1476.51,-73.1384 1400,-56 1268.71,-26.5912 846.275,-14.6256 724.278,-11.7311"/>
<polygon fill="midnightblue" stroke="midnightblue" points="724.148,-8.22723 714.069,-11.4936 723.985,-15.2253 724.148,-8.22723"/>
</g>
<!-- Node9 -->
<g id="node9" class="node"><title>Node9</title>
<polygon fill="white" stroke="#bfbfbf" points="556,-112.5 556,-131.5 602,-131.5 602,-112.5 556,-112.5"/>
<text text-anchor="middle" x="579" y="-119.5" font-family="Helvetica,sans-Serif" font-size="10.00">cstdint</text>
</g>
<!-- Node7&#45;&gt;Node9 -->
<g id="edge8" class="edge"><title>Node7&#45;&gt;Node9</title>
<path fill="none" stroke="midnightblue" d="M804.467,-392.491C735.237,-371.439 564,-316.764 564,-291 564,-291 564,-291 564,-233 564,-200.502 570.507,-163.095 574.949,-141.343"/>
<polygon fill="midnightblue" stroke="midnightblue" points="578.385,-142.013 577.039,-131.504 571.538,-140.559 578.385,-142.013"/>
</g>
<!-- Node10 -->
<g id="node10" class="node"><title>Node10</title>
<polygon fill="white" stroke="#bfbfbf" points="668.5,-168.5 668.5,-187.5 717.5,-187.5 717.5,-168.5 668.5,-168.5"/>
<text text-anchor="middle" x="693" y="-175.5" font-family="Helvetica,sans-Serif" font-size="10.00">ptrlist.h</text>
</g>
<!-- Node7&#45;&gt;Node10 -->
<g id="edge9" class="edge"><title>Node7&#45;&gt;Node10</title>
<path fill="none" stroke="midnightblue" d="M827.512,-392.297C806.694,-359.286 732.354,-241.404 704.05,-196.522"/>
<polygon fill="midnightblue" stroke="midnightblue" points="706.897,-194.475 698.602,-187.884 700.976,-198.209 706.897,-194.475"/>
</g>
<!-- Node11 -->
<g id="node11" class="node"><title>Node11</title>
<polygon fill="white" stroke="#bfbfbf" points="44,-112.5 44,-131.5 96,-131.5 96,-112.5 44,-112.5"/>
<text text-anchor="middle" x="70" y="-119.5" font-family="Helvetica,sans-Serif" font-size="10.00">mutex.h</text>
</g>
<!-- Node7&#45;&gt;Node11 -->
<g id="edge10" class="edge"><title>Node7&#45;&gt;Node11</title>
<path fill="none" stroke="midnightblue" d="M797.524,-393.35C794.648,-392.85 791.78,-392.391 789,-392 584.611,-363.264 529.171,-392.359 326,-356 221.856,-337.363 97,-396.798 97,-291 97,-291 97,-291 97,-233 97,-199.861 85.299,-162.682 77.3027,-141.144"/>
<polygon fill="midnightblue" stroke="midnightblue" points="80.5085,-139.73 73.6413,-131.662 73.9784,-142.252 80.5085,-139.73"/>
</g>
<!-- Node12 -->
<g id="node12" class="node"><title>Node12</title>
<g id="a_node12"><a xlink:href="_i_plug_platform_8h.html" target="_top" xlink:title="Include to get consistently named preprocessor macros for different platforms and logging functionali...">
<polygon fill="white" stroke="black" points="1308,-56.5 1308,-75.5 1392,-75.5 1392,-56.5 1308,-56.5"/>
<text text-anchor="middle" x="1350" y="-63.5" font-family="Helvetica,sans-Serif" font-size="10.00">IPlugPlatform.h</text>
</a>
</g>
</g>
<!-- Node7&#45;&gt;Node12 -->
<g id="edge11" class="edge"><title>Node7&#45;&gt;Node12</title>
<path fill="none" stroke="midnightblue" d="M868.184,-401.655C954.379,-402.481 1182.44,-399.958 1366,-356 1440.64,-338.124 1526,-367.755 1526,-291 1526,-291 1526,-291 1526,-177 1526,-117.93 1453.83,-89.4053 1401.92,-76.5283"/>
<polygon fill="midnightblue" stroke="midnightblue" points="1402.69,-73.1155 1392.16,-74.2295 1401.09,-79.929 1402.69,-73.1155"/>
</g>
<!-- Node14 -->
<g id="node14" class="node"><title>Node14</title>
<g id="a_node14"><a xlink:href="_i_plug_plugin_delegate_8h_source.html" target="_top" xlink:title="IPlugPluginDelegate.h">
<polygon fill="white" stroke="black" points="387.5,-336.5 387.5,-355.5 500.5,-355.5 500.5,-336.5 387.5,-336.5"/>
<text text-anchor="middle" x="444" y="-343.5" font-family="Helvetica,sans-Serif" font-size="10.00">IPlugPluginDelegate.h</text>
</a>
</g>
</g>
<!-- Node7&#45;&gt;Node14 -->
<g id="edge14" class="edge"><title>Node7&#45;&gt;Node14</title>
<path fill="none" stroke="midnightblue" d="M797.978,-393.599C794.946,-393.031 791.922,-392.489 789,-392 692.611,-375.877 580.255,-362.16 510.616,-354.247"/>
<polygon fill="midnightblue" stroke="midnightblue" points="510.988,-350.767 500.658,-353.122 510.202,-357.722 510.988,-350.767"/>
</g>
<!-- Node20 -->
<g id="node20" class="node"><title>Node20</title>
<g id="a_node20"><a xlink:href="_i_plug_parameter_8h_source.html" target="_top" xlink:title="IPlugParameter.h">
<polygon fill="white" stroke="black" points="159,-168.5 159,-187.5 251,-187.5 251,-168.5 159,-168.5"/>
<text text-anchor="middle" x="205" y="-175.5" font-family="Helvetica,sans-Serif" font-size="10.00">IPlugParameter.h</text>
</a>
</g>
</g>
<!-- Node7&#45;&gt;Node20 -->
<g id="edge62" class="edge"><title>Node7&#45;&gt;Node20</title>
<path fill="none" stroke="midnightblue" d="M797.999,-393.465C794.963,-392.926 791.932,-392.427 789,-392 607.988,-365.628 552.517,-413.904 379,-356 302.09,-330.334 280.768,-310.926 235,-244 225.035,-229.429 216.893,-211.018 211.619,-197.514"/>
<polygon fill="midnightblue" stroke="midnightblue" points="214.805,-196.042 208.023,-187.902 208.249,-198.495 214.805,-196.042"/>
</g>
<!-- Node23 -->
<g id="node23" class="node"><title>Node23</title>
<g id="a_node23"><a xlink:href="_i_plug_utilities_8h.html" target="_top" xlink:title="Utility functions and macros. ">
<polygon fill="white" stroke="black" points="734,-112.5 734,-131.5 814,-131.5 814,-112.5 734,-112.5"/>
<text text-anchor="middle" x="774" y="-119.5" font-family="Helvetica,sans-Serif" font-size="10.00">IPlugUtilities.h</text>
</a>
</g>
</g>
<!-- Node7&#45;&gt;Node23 -->
<g id="edge61" class="edge"><title>Node7&#45;&gt;Node23</title>
<path fill="none" stroke="midnightblue" d="M837.162,-392.14C851.608,-360.857 897.958,-255.766 884,-224 866.647,-184.508 825.385,-153.686 798.623,-136.947"/>
<polygon fill="midnightblue" stroke="midnightblue" points="800.192,-133.806 789.824,-131.622 796.567,-139.794 800.192,-133.806"/>
</g>
<!-- Node28 -->
<g id="node28" class="node"><title>Node28</title>
<g id="a_node28"><a xlink:href="_i_plug_constants_8h.html" target="_top" xlink:title="Constant definitions, Types, magic numbers. ">
<polygon fill="white" stroke="black" points="942,-56.5 942,-75.5 1034,-75.5 1034,-56.5 942,-56.5"/>
<text text-anchor="middle" x="988" y="-63.5" font-family="Helvetica,sans-Serif" font-size="10.00">IPlugConstants.h</text>
</a>
</g>
</g>
<!-- Node7&#45;&gt;Node28 -->
<g id="edge59" class="edge"><title>Node7&#45;&gt;Node28</title>
<path fill="none" stroke="midnightblue" d="M868.216,-398.848C1004.27,-390.074 1488,-354.419 1488,-291 1488,-291 1488,-291 1488,-177 1488,-87.0006 1175.1,-70.5558 1044.35,-67.6128"/>
<polygon fill="midnightblue" stroke="midnightblue" points="1044.21,-64.1092 1034.14,-67.4022 1044.07,-71.1077 1044.21,-64.1092"/>
</g>
<!-- Node30 -->
<g id="node30" class="node"><title>Node30</title>
<g id="a_node30"><a xlink:href="_i_plug_structs_8h_source.html" target="_top" xlink:title="IPlugStructs.h">
<polygon fill="white" stroke="black" points="796.5,-224.5 796.5,-243.5 875.5,-243.5 875.5,-224.5 796.5,-224.5"/>
<text text-anchor="middle" x="836" y="-231.5" font-family="Helvetica,sans-Serif" font-size="10.00">IPlugStructs.h</text>
</a>
</g>
</g>
<!-- Node7&#45;&gt;Node30 -->
<g id="edge60" class="edge"><title>Node7&#45;&gt;Node30</title>
<path fill="none" stroke="midnightblue" d="M833.161,-392.075C833.634,-365.945 835.02,-289.211 835.664,-253.577"/>
<polygon fill="midnightblue" stroke="midnightblue" points="839.164,-253.63 835.845,-243.568 832.165,-253.503 839.164,-253.63"/>
</g>
<!-- Node34 -->
<g id="node34" class="node"><title>Node34</title>
<g id="a_node34"><a xlink:href="_i_plug_queue_8h_source.html" target="_top" xlink:title="IPlugQueue.h">
<polygon fill="white" stroke="black" points="899,-336.5 899,-355.5 975,-355.5 975,-336.5 899,-336.5"/>
<text text-anchor="middle" x="937" y="-343.5" font-family="Helvetica,sans-Serif" font-size="10.00">IPlugQueue.h</text>
</a>
</g>
</g>
<!-- Node7&#45;&gt;Node34 -->
<g id="edge63" class="edge"><title>Node7&#45;&gt;Node34</title>
<path fill="none" stroke="midnightblue" d="M849.709,-392.324C866.312,-383.703 892.002,-370.364 911.22,-360.386"/>
<polygon fill="midnightblue" stroke="midnightblue" points="913.07,-363.369 920.332,-355.655 909.844,-357.156 913.07,-363.369"/>
</g>
<!-- Node37 -->
<g id="node37" class="node"><title>Node37</title>
<g id="a_node37"><a xlink:href="_i_plug_timer_8h_source.html" target="_top" xlink:title="IPlugTimer.h">
<polygon fill="white" stroke="black" points="630,-224.5 630,-243.5 702,-243.5 702,-224.5 630,-224.5"/>
<text text-anchor="middle" x="666" y="-231.5" font-family="Helvetica,sans-Serif" font-size="10.00">IPlugTimer.h</text>
</a>
</g>
</g>
<!-- Node7&#45;&gt;Node37 -->
<g id="edge66" class="edge"><title>Node7&#45;&gt;Node37</title>
<path fill="none" stroke="midnightblue" d="M803.201,-392.487C772.927,-383.334 728.735,-368.424 716,-356 686.947,-327.655 674.097,-279.978 668.982,-253.731"/>
<polygon fill="midnightblue" stroke="midnightblue" points="672.381,-252.856 667.191,-243.619 665.488,-254.076 672.381,-252.856"/>
</g>
<!-- Node12&#45;&gt;Node8 -->
<g id="edge12" class="edge"><title>Node12&#45;&gt;Node8</title>
<path fill="none" stroke="midnightblue" d="M1307.86,-57.834C1303.19,-57.1575 1298.5,-56.5284 1294,-56 1077.37,-30.5557 815.173,-16.771 724.073,-12.4803"/>
<polygon fill="midnightblue" stroke="midnightblue" points="724.222,-8.98356 714.07,-12.0152 723.897,-15.976 724.222,-8.98356"/>
</g>
<!-- Node13 -->
<g id="node13" class="node"><title>Node13</title>
<polygon fill="white" stroke="#bfbfbf" points="1078.5,-0.5 1078.5,-19.5 1123.5,-19.5 1123.5,-0.5 1078.5,-0.5"/>
<text text-anchor="middle" x="1101" y="-7.5" font-family="Helvetica,sans-Serif" font-size="10.00">cstdlib</text>
</g>
<!-- Node12&#45;&gt;Node13 -->
<g id="edge13" class="edge"><title>Node12&#45;&gt;Node13</title>
<path fill="none" stroke="midnightblue" d="M1310.55,-56.4435C1261.56,-45.8213 1178.95,-27.9038 1133.46,-18.039"/>
<polygon fill="midnightblue" stroke="midnightblue" points="1134.05,-14.5866 1123.54,-15.8876 1132.57,-21.4275 1134.05,-14.5866"/>
</g>
<!-- Node15 -->
<g id="node15" class="node"><title>Node15</title>
<polygon fill="white" stroke="#bfbfbf" points="479.5,-280.5 479.5,-299.5 528.5,-299.5 528.5,-280.5 479.5,-280.5"/>
<text text-anchor="middle" x="504" y="-287.5" font-family="Helvetica,sans-Serif" font-size="10.00">random</text>
</g>
<!-- Node14&#45;&gt;Node15 -->
<g id="edge15" class="edge"><title>Node14&#45;&gt;Node15</title>
<path fill="none" stroke="midnightblue" d="M453.64,-336.324C462.51,-328.341 475.875,-316.313 486.608,-306.653"/>
<polygon fill="midnightblue" stroke="midnightblue" points="489.093,-309.125 494.185,-299.834 484.41,-303.922 489.093,-309.125"/>
</g>
<!-- Node16 -->
<g id="node16" class="node"><title>Node16</title>
<g id="a_node16"><a xlink:href="_i_plug_delegate__select_8h_source.html" target="_top" xlink:title="IPlugDelegate_select.h">
<polygon fill="white" stroke="black" points="343,-280.5 343,-299.5 461,-299.5 461,-280.5 343,-280.5"/>
<text text-anchor="middle" x="402" y="-287.5" font-family="Helvetica,sans-Serif" font-size="10.00">IPlugDelegate_select.h</text>
</a>
</g>
</g>
<!-- Node14&#45;&gt;Node16 -->
<g id="edge16" class="edge"><title>Node14&#45;&gt;Node16</title>
<path fill="none" stroke="midnightblue" d="M437.065,-336.083C431.071,-328.377 422.248,-317.033 414.952,-307.653"/>
<polygon fill="midnightblue" stroke="midnightblue" points="417.709,-305.496 408.806,-299.751 412.183,-309.793 417.709,-305.496"/>
</g>
<!-- Node14&#45;&gt;Node20 -->
<g id="edge39" class="edge"><title>Node14&#45;&gt;Node20</title>
<path fill="none" stroke="midnightblue" d="M405.727,-336.427C379.561,-329.388 344.887,-317.665 318,-300 274.141,-271.184 235.365,-221.924 216.73,-196.039"/>
<polygon fill="midnightblue" stroke="midnightblue" points="219.429,-193.794 210.804,-187.641 213.71,-197.83 219.429,-193.794"/>
</g>
<!-- Node14&#45;&gt;Node30 -->
<g id="edge40" class="edge"><title>Node14&#45;&gt;Node30</title>
<path fill="none" stroke="midnightblue" d="M474.433,-336.46C544.415,-316.822 716.796,-268.45 795.561,-246.348"/>
<polygon fill="midnightblue" stroke="midnightblue" points="796.904,-249.606 805.586,-243.535 795.012,-242.867 796.904,-249.606"/>
</g>
<!-- Node31 -->
<g id="node31" class="node"><title>Node31</title>
<g id="a_node31"><a xlink:href="_i_plug_logger_8h.html" target="_top" xlink:title="IPlug logging a.k.a tracing functionality. ">
<polygon fill="white" stroke="black" points="269.5,-168.5 269.5,-187.5 346.5,-187.5 346.5,-168.5 269.5,-168.5"/>
<text text-anchor="middle" x="308" y="-175.5" font-family="Helvetica,sans-Serif" font-size="10.00">IPlugLogger.h</text>
</a>
</g>
</g>
<!-- Node14&#45;&gt;Node31 -->
<g id="edge47" class="edge"><title>Node14&#45;&gt;Node31</title>
<path fill="none" stroke="midnightblue" d="M397.309,-336.467C375.059,-330.059 349.895,-318.984 334,-300 309.488,-270.725 306.478,-223.789 306.93,-197.817"/>
<polygon fill="midnightblue" stroke="midnightblue" points="310.429,-197.911 307.299,-187.789 303.433,-197.654 310.429,-197.911"/>
</g>
<!-- Node17 -->
<g id="node17" class="node"><title>Node17</title>
<g id="a_node17"><a xlink:href="_i_plug_delegate_8h_source.html" target="_top" xlink:title="IPlugDelegate.h">
<polygon fill="white" stroke="black" points="359,-224.5 359,-243.5 445,-243.5 445,-224.5 359,-224.5"/>
<text text-anchor="middle" x="402" y="-231.5" font-family="Helvetica,sans-Serif" font-size="10.00">IPlugDelegate.h</text>
</a>
</g>
</g>
<!-- Node16&#45;&gt;Node17 -->
<g id="edge17" class="edge"><title>Node16&#45;&gt;Node17</title>
<path fill="none" stroke="midnightblue" d="M402,-280.083C402,-273.006 402,-262.861 402,-253.986"/>
<polygon fill="midnightblue" stroke="midnightblue" points="405.5,-253.751 402,-243.751 398.5,-253.751 405.5,-253.751"/>
</g>
<!-- Node17&#45;&gt;Node8 -->
<g id="edge19" class="edge"><title>Node17&#45;&gt;Node8</title>
<path fill="none" stroke="midnightblue" d="M358.824,-233.859C245.677,-234.575 -45.3284,-225.695 35,-112 77.9903,-51.1522 120.219,-71.9216 193,-56 365.062,-18.3599 577.196,-12.117 657.809,-11.1467"/>
<polygon fill="midnightblue" stroke="midnightblue" points="657.892,-14.6461 667.856,-11.0455 657.821,-7.6465 657.892,-14.6461"/>
</g>
<!-- Node17&#45;&gt;Node10 -->
<g id="edge21" class="edge"><title>Node17&#45;&gt;Node10</title>
<path fill="none" stroke="midnightblue" d="M445.251,-224.974C503.288,-214.204 605.212,-195.29 658.434,-185.414"/>
<polygon fill="midnightblue" stroke="midnightblue" points="659.208,-188.83 668.402,-183.565 657.931,-181.948 659.208,-188.83"/>
</g>
<!-- Node18 -->
<g id="node18" class="node"><title>Node18</title>
<polygon fill="white" stroke="#bfbfbf" points="488.5,-112.5 488.5,-131.5 537.5,-131.5 537.5,-112.5 488.5,-112.5"/>
<text text-anchor="middle" x="513" y="-119.5" font-family="Helvetica,sans-Serif" font-size="10.00">cassert</text>
</g>
<!-- Node17&#45;&gt;Node18 -->
<g id="edge18" class="edge"><title>Node17&#45;&gt;Node18</title>
<path fill="none" stroke="midnightblue" d="M397.646,-224.11C391.763,-210.688 383.281,-185.011 395,-168 404.821,-153.744 447.423,-139.953 478.629,-131.478"/>
<polygon fill="midnightblue" stroke="midnightblue" points="479.532,-134.86 488.304,-128.919 477.742,-128.093 479.532,-134.86"/>
</g>
<!-- Node19 -->
<g id="node19" class="node"><title>Node19</title>
<polygon fill="white" stroke="#bfbfbf" points="403.5,-168.5 403.5,-187.5 452.5,-187.5 452.5,-168.5 403.5,-168.5"/>
<text text-anchor="middle" x="428" y="-175.5" font-family="Helvetica,sans-Serif" font-size="10.00">stdint.h</text>
</g>
<!-- Node17&#45;&gt;Node19 -->
<g id="edge20" class="edge"><title>Node17&#45;&gt;Node19</title>
<path fill="none" stroke="midnightblue" d="M406.293,-224.083C409.852,-216.691 415.022,-205.953 419.424,-196.811"/>
<polygon fill="midnightblue" stroke="midnightblue" points="422.602,-198.279 423.787,-187.751 416.295,-195.243 422.602,-198.279"/>
</g>
<!-- Node17&#45;&gt;Node20 -->
<g id="edge22" class="edge"><title>Node17&#45;&gt;Node20</title>
<path fill="none" stroke="midnightblue" d="M370.785,-224.444C337.067,-215.201 283.2,-200.436 246.068,-190.257"/>
<polygon fill="midnightblue" stroke="midnightblue" points="246.639,-186.785 236.069,-187.516 244.788,-193.536 246.639,-186.785"/>
</g>
<!-- Node29 -->
<g id="node29" class="node"><title>Node29</title>
<g id="a_node29"><a xlink:href="_i_plug_midi_8h_source.html" target="_top" xlink:title="IPlugMidi.h">
<polygon fill="white" stroke="black" points="470.5,-168.5 470.5,-187.5 535.5,-187.5 535.5,-168.5 470.5,-168.5"/>
<text text-anchor="middle" x="503" y="-175.5" font-family="Helvetica,sans-Serif" font-size="10.00">IPlugMidi.h</text>
</a>
</g>
</g>
<!-- Node17&#45;&gt;Node29 -->
<g id="edge36" class="edge"><title>Node17&#45;&gt;Node29</title>
<path fill="none" stroke="midnightblue" d="M418.227,-224.324C434.351,-215.703 459.3,-202.364 477.964,-192.386"/>
<polygon fill="midnightblue" stroke="midnightblue" points="479.644,-195.456 486.813,-187.655 476.344,-189.283 479.644,-195.456"/>
</g>
<!-- Node20&#45;&gt;Node8 -->
<g id="edge23" class="edge"><title>Node20&#45;&gt;Node8</title>
<path fill="none" stroke="midnightblue" d="M185.948,-168.469C162.338,-156.685 127.054,-134.34 143,-112 203.377,-27.4161 548.383,-13.6679 657.748,-11.4335"/>
<polygon fill="midnightblue" stroke="midnightblue" points="657.937,-14.9307 667.87,-11.2464 657.807,-7.93192 657.937,-14.9307"/>
</g>
<!-- Node21 -->
<g id="node21" class="node"><title>Node21</title>
<polygon fill="white" stroke="#bfbfbf" points="152.5,-112.5 152.5,-131.5 211.5,-131.5 211.5,-112.5 152.5,-112.5"/>
<text text-anchor="middle" x="182" y="-119.5" font-family="Helvetica,sans-Serif" font-size="10.00">functional</text>
</g>
<!-- Node20&#45;&gt;Node21 -->
<g id="edge24" class="edge"><title>Node20&#45;&gt;Node21</title>
<path fill="none" stroke="midnightblue" d="M201.202,-168.083C198.087,-160.77 193.577,-150.181 189.711,-141.103"/>
<polygon fill="midnightblue" stroke="midnightblue" points="192.866,-139.58 185.727,-131.751 186.426,-142.323 192.866,-139.58"/>
</g>
<!-- Node22 -->
<g id="node22" class="node"><title>Node22</title>
<polygon fill="white" stroke="#bfbfbf" points="331,-56.5 331,-75.5 395,-75.5 395,-56.5 331,-56.5"/>
<text text-anchor="middle" x="363" y="-63.5" font-family="Helvetica,sans-Serif" font-size="10.00">wdlstring.h</text>
</g>
<!-- Node20&#45;&gt;Node22 -->
<g id="edge25" class="edge"><title>Node20&#45;&gt;Node22</title>
<path fill="none" stroke="midnightblue" d="M217.398,-168.368C244.395,-149.573 308.751,-104.768 342.125,-81.5334"/>
<polygon fill="midnightblue" stroke="midnightblue" points="344.452,-84.1776 350.66,-75.5914 340.453,-78.4327 344.452,-84.1776"/>
</g>
<!-- Node20&#45;&gt;Node23 -->
<g id="edge26" class="edge"><title>Node20&#45;&gt;Node23</title>
<path fill="none" stroke="midnightblue" d="M251.177,-169.186C254.159,-168.761 257.12,-168.361 260,-168 429.454,-146.748 631.592,-132.192 723.747,-126.145"/>
<polygon fill="midnightblue" stroke="midnightblue" points="724.152,-129.626 733.904,-125.484 723.697,-122.641 724.152,-129.626"/>
</g>
<!-- Node23&#45;&gt;Node8 -->
<g id="edge31" class="edge"><title>Node23&#45;&gt;Node8</title>
<path fill="none" stroke="midnightblue" d="M768.995,-112.281C761.526,-99.5112 746.757,-75.16 732,-56 724.181,-45.8474 714.571,-35.2172 706.621,-26.8394"/>
<polygon fill="midnightblue" stroke="midnightblue" points="709.083,-24.3505 699.62,-19.5863 704.046,-29.212 709.083,-24.3505"/>
</g>
<!-- Node23&#45;&gt;Node12 -->
<g id="edge35" class="edge"><title>Node23&#45;&gt;Node12</title>
<path fill="none" stroke="midnightblue" d="M814.046,-117.246C915.728,-107.713 1183.87,-82.5747 1297.7,-71.903"/>
<polygon fill="midnightblue" stroke="midnightblue" points="1298.27,-75.365 1307.9,-70.9467 1297.62,-68.3955 1298.27,-75.365"/>
</g>
<!-- Node23&#45;&gt;Node13 -->
<g id="edge30" class="edge"><title>Node23&#45;&gt;Node13</title>
<path fill="none" stroke="midnightblue" d="M783.975,-112.307C800.737,-98.1868 836.152,-70.3977 871,-56 937.668,-28.4558 1022.3,-17.4801 1068.05,-13.3346"/>
<polygon fill="midnightblue" stroke="midnightblue" points="1068.6,-16.8001 1078.27,-12.4643 1068.01,-9.82534 1068.6,-16.8001"/>
</g>
<!-- Node23&#45;&gt;Node22 -->
<g id="edge33" class="edge"><title>Node23&#45;&gt;Node22</title>
<path fill="none" stroke="midnightblue" d="M733.843,-115.724C655.939,-105.488 484.971,-83.0254 405.353,-72.5647"/>
<polygon fill="midnightblue" stroke="midnightblue" points="405.569,-69.063 395.198,-71.2304 404.657,-76.0034 405.569,-69.063"/>
</g>
<!-- Node24 -->
<g id="node24" class="node"><title>Node24</title>
<polygon fill="white" stroke="#bfbfbf" points="668,-56.5 668,-75.5 724,-75.5 724,-56.5 668,-56.5"/>
<text text-anchor="middle" x="696" y="-63.5" font-family="Helvetica,sans-Serif" font-size="10.00">algorithm</text>
</g>
<!-- Node23&#45;&gt;Node24 -->
<g id="edge27" class="edge"><title>Node23&#45;&gt;Node24</title>
<path fill="none" stroke="midnightblue" d="M761.468,-112.324C749.414,-103.979 730.973,-91.2122 716.731,-81.3524"/>
<polygon fill="midnightblue" stroke="midnightblue" points="718.715,-78.469 708.501,-75.6545 714.731,-84.2243 718.715,-78.469"/>
</g>
<!-- Node25 -->
<g id="node25" class="node"><title>Node25</title>
<polygon fill="white" stroke="#bfbfbf" points="880,-56.5 880,-75.5 924,-75.5 924,-56.5 880,-56.5"/>
<text text-anchor="middle" x="902" y="-63.5" font-family="Helvetica,sans-Serif" font-size="10.00">cmath</text>
</g>
<!-- Node23&#45;&gt;Node25 -->
<g id="edge28" class="edge"><title>Node23&#45;&gt;Node25</title>
<path fill="none" stroke="midnightblue" d="M794.282,-112.444C815.347,-103.557 848.517,-89.5632 872.486,-79.4514"/>
<polygon fill="midnightblue" stroke="midnightblue" points="873.96,-82.6283 881.813,-75.5164 871.239,-76.1787 873.96,-82.6283"/>
</g>
<!-- Node26 -->
<g id="node26" class="node"><title>Node26</title>
<polygon fill="white" stroke="#bfbfbf" points="780.5,-56.5 780.5,-75.5 823.5,-75.5 823.5,-56.5 780.5,-56.5"/>
<text text-anchor="middle" x="802" y="-63.5" font-family="Helvetica,sans-Serif" font-size="10.00">cstdio</text>
</g>
<!-- Node23&#45;&gt;Node26 -->
<g id="edge29" class="edge"><title>Node23&#45;&gt;Node26</title>
<path fill="none" stroke="midnightblue" d="M778.624,-112.083C782.456,-104.691 788.024,-93.9533 792.765,-84.8111"/>
<polygon fill="midnightblue" stroke="midnightblue" points="795.966,-86.2398 797.462,-75.7511 789.752,-83.0175 795.966,-86.2398"/>
</g>
<!-- Node27 -->
<g id="node27" class="node"><title>Node27</title>
<polygon fill="white" stroke="#bfbfbf" points="461,-56.5 461,-75.5 507,-75.5 507,-56.5 461,-56.5"/>
<text text-anchor="middle" x="484" y="-63.5" font-family="Helvetica,sans-Serif" font-size="10.00">cctype</text>
</g>
<!-- Node23&#45;&gt;Node27 -->
<g id="edge32" class="edge"><title>Node23&#45;&gt;Node27</title>
<path fill="none" stroke="midnightblue" d="M733.981,-113.548C676.296,-102.807 570.834,-83.1691 517.21,-73.1839"/>
<polygon fill="midnightblue" stroke="midnightblue" points="517.677,-69.7108 507.205,-71.321 516.396,-76.5926 517.677,-69.7108"/>
</g>
<!-- Node23&#45;&gt;Node28 -->
<g id="edge34" class="edge"><title>Node23&#45;&gt;Node28</title>
<path fill="none" stroke="midnightblue" d="M807.909,-112.444C844.849,-103.122 904.054,-88.1828 944.418,-77.9972"/>
<polygon fill="midnightblue" stroke="midnightblue" points="945.41,-81.3568 954.25,-75.5164 943.697,-74.5695 945.41,-81.3568"/>
</g>
<!-- Node29&#45;&gt;Node9 -->
<g id="edge38" class="edge"><title>Node29&#45;&gt;Node9</title>
<path fill="none" stroke="midnightblue" d="M515.211,-168.324C526.776,-160.107 544.375,-147.602 558.161,-137.807"/>
<polygon fill="midnightblue" stroke="midnightblue" points="560.443,-140.479 566.567,-131.834 556.388,-134.773 560.443,-140.479"/>
</g>
<!-- Node29&#45;&gt;Node18 -->
<g id="edge37" class="edge"><title>Node29&#45;&gt;Node18</title>
<path fill="none" stroke="midnightblue" d="M504.651,-168.083C505.976,-160.927 507.882,-150.635 509.539,-141.691"/>
<polygon fill="midnightblue" stroke="midnightblue" points="513,-142.221 511.379,-131.751 506.117,-140.947 513,-142.221"/>
</g>
<!-- Node30&#45;&gt;Node10 -->
<g id="edge43" class="edge"><title>Node30&#45;&gt;Node10</title>
<path fill="none" stroke="midnightblue" d="M813.341,-224.444C789.598,-215.478 752.091,-201.314 725.262,-191.183"/>
<polygon fill="midnightblue" stroke="midnightblue" points="726.144,-187.775 715.553,-187.516 723.671,-194.324 726.144,-187.775"/>
</g>
<!-- Node30&#45;&gt;Node12 -->
<g id="edge45" class="edge"><title>Node30&#45;&gt;Node12</title>
<path fill="none" stroke="midnightblue" d="M875.838,-229.774C931.545,-224.575 1035.49,-212.363 1121,-188 1182.68,-170.426 1197.62,-162.572 1254,-132 1281.95,-116.843 1311.97,-95.6396 1330.85,-81.6244"/>
<polygon fill="midnightblue" stroke="midnightblue" points="1333.03,-84.3606 1338.93,-75.559 1328.83,-78.7617 1333.03,-84.3606"/>
</g>
<!-- Node30&#45;&gt;Node22 -->
<g id="edge42" class="edge"><title>Node30&#45;&gt;Node22</title>
<path fill="none" stroke="midnightblue" d="M821.548,-224.44C792.248,-207.088 728.405,-169.294 726,-168 675.932,-141.073 665.028,-129.685 611,-112 540.725,-88.9977 455.169,-76.7554 405.125,-71.0903"/>
<polygon fill="midnightblue" stroke="midnightblue" points="405.326,-67.5914 395.003,-69.9798 404.562,-74.5497 405.326,-67.5914"/>
</g>
<!-- Node30&#45;&gt;Node24 -->
<g id="edge41" class="edge"><title>Node30&#45;&gt;Node24</title>
<path fill="none" stroke="midnightblue" d="M825.325,-224.26C800.616,-203.88 740.42,-153.324 725,-132 714.601,-117.62 706.743,-98.9189 701.848,-85.2697"/>
<polygon fill="midnightblue" stroke="midnightblue" points="705.09,-83.9325 698.565,-75.5855 698.461,-86.1798 705.09,-83.9325"/>
</g>
<!-- Node30&#45;&gt;Node28 -->
<g id="edge44" class="edge"><title>Node30&#45;&gt;Node28</title>
<path fill="none" stroke="midnightblue" d="M842.548,-224.442C858.207,-204.159 899.397,-151.875 938,-112 948.052,-101.617 960.07,-90.7564 969.803,-82.3069"/>
<polygon fill="midnightblue" stroke="midnightblue" points="972.345,-84.7383 977.663,-75.5746 967.791,-79.4221 972.345,-84.7383"/>
</g>
<!-- Node30&#45;&gt;Node29 -->
<g id="edge46" class="edge"><title>Node30&#45;&gt;Node29</title>
<path fill="none" stroke="midnightblue" d="M796.493,-226.593C733.533,-216.384 610.926,-196.502 545.897,-185.956"/>
<polygon fill="midnightblue" stroke="midnightblue" points="546.403,-182.493 535.972,-184.347 545.283,-189.402 546.403,-182.493"/>
</g>
<!-- Node31&#45;&gt;Node8 -->
<g id="edge52" class="edge"><title>Node31&#45;&gt;Node8</title>
<path fill="none" stroke="midnightblue" d="M305.879,-168.492C300.939,-146.42 291.291,-86.8984 322,-56 345.501,-32.3536 571.467,-17.5624 657.746,-12.7369"/>
<polygon fill="midnightblue" stroke="midnightblue" points="657.995,-16.2286 667.788,-12.1852 657.611,-9.23915 657.995,-16.2286"/>
</g>
<!-- Node31&#45;&gt;Node9 -->
<g id="edge51" class="edge"><title>Node31&#45;&gt;Node9</title>
<path fill="none" stroke="midnightblue" d="M346.531,-170.684C393.761,-162.719 476.134,-148.105 546,-132 546.101,-131.977 546.203,-131.953 546.304,-131.93"/>
<polygon fill="midnightblue" stroke="midnightblue" points="547.117,-135.334 555.98,-129.529 545.431,-128.54 547.117,-135.334"/>
</g>
<!-- Node31&#45;&gt;Node11 -->
<g id="edge56" class="edge"><title>Node31&#45;&gt;Node11</title>
<path fill="none" stroke="midnightblue" d="M270.288,-168.444C225.174,-158.208 150.203,-141.197 105.904,-131.146"/>
<polygon fill="midnightblue" stroke="midnightblue" points="106.666,-127.73 96.1394,-128.931 105.117,-134.557 106.666,-127.73"/>
</g>
<!-- Node31&#45;&gt;Node18 -->
<g id="edge54" class="edge"><title>Node31&#45;&gt;Node18</title>
<path fill="none" stroke="midnightblue" d="M340.483,-168.444C378.207,-158.506 440.169,-142.185 478.666,-132.044"/>
<polygon fill="midnightblue" stroke="midnightblue" points="479.611,-135.415 488.39,-129.483 477.828,-128.645 479.611,-135.415"/>
</g>
<!-- Node31&#45;&gt;Node22 -->
<g id="edge55" class="edge"><title>Node31&#45;&gt;Node22</title>
<path fill="none" stroke="midnightblue" d="M312.306,-168.148C318.411,-155.62 329.961,-132.012 340,-112 344.531,-102.968 349.641,-92.9547 353.891,-84.6712"/>
<polygon fill="midnightblue" stroke="midnightblue" points="357.091,-86.1009 358.552,-75.6073 350.866,-82.8994 357.091,-86.1009"/>
</g>
<!-- Node31&#45;&gt;Node23 -->
<g id="edge58" class="edge"><title>Node31&#45;&gt;Node23</title>
<path fill="none" stroke="midnightblue" d="M346.531,-172.535C430.499,-162.805 629.953,-139.692 723.689,-128.83"/>
<polygon fill="midnightblue" stroke="midnightblue" points="724.242,-132.289 733.773,-127.662 723.437,-125.336 724.242,-132.289"/>
</g>
<!-- Node31&#45;&gt;Node26 -->
<g id="edge48" class="edge"><title>Node31&#45;&gt;Node26</title>
<path fill="none" stroke="midnightblue" d="M336.738,-168.436C363.76,-160.095 405.154,-146.573 440,-132 458.337,-124.331 461.019,-117.898 480,-112 493.804,-107.711 691.724,-81.4685 770.242,-71.1558"/>
<polygon fill="midnightblue" stroke="midnightblue" points="771.037,-74.5815 780.497,-69.8103 770.127,-67.641 771.037,-74.5815"/>
</g>
<!-- Node31&#45;&gt;Node27 -->
<g id="edge49" class="edge"><title>Node31&#45;&gt;Node27</title>
<path fill="none" stroke="midnightblue" d="M314.863,-168.334C326.009,-154.743 349.297,-128.292 374,-112 398.007,-96.1669 428.478,-84.2356 451.259,-76.6506"/>
<polygon fill="midnightblue" stroke="midnightblue" points="452.377,-79.9679 460.822,-73.5702 450.23,-73.305 452.377,-79.9679"/>
</g>
<!-- Node31&#45;&gt;Node28 -->
<g id="edge57" class="edge"><title>Node31&#45;&gt;Node28</title>
<path fill="none" stroke="midnightblue" d="M346.53,-172.854C361.637,-171.27 379.126,-169.489 395,-168 585.06,-150.178 638.504,-181.008 823,-132 843.371,-126.589 846.541,-120.098 866,-112 895.127,-99.8785 928.808,-87.5814 953.393,-78.9124"/>
<polygon fill="midnightblue" stroke="midnightblue" points="954.721,-82.1559 963.001,-75.5458 952.406,-75.5497 954.721,-82.1559"/>
</g>
<!-- Node32 -->
<g id="node32" class="node"><title>Node32</title>
<polygon fill="white" stroke="#bfbfbf" points="382.5,-112.5 382.5,-131.5 431.5,-131.5 431.5,-112.5 382.5,-112.5"/>
<text text-anchor="middle" x="407" y="-119.5" font-family="Helvetica,sans-Serif" font-size="10.00">cstdarg</text>
</g>
<!-- Node31&#45;&gt;Node32 -->
<g id="edge50" class="edge"><title>Node31&#45;&gt;Node32</title>
<path fill="none" stroke="midnightblue" d="M323.906,-168.324C339.638,-159.743 363.942,-146.486 382.209,-136.522"/>
<polygon fill="midnightblue" stroke="midnightblue" points="384.03,-139.516 391.133,-131.655 380.678,-133.37 384.03,-139.516"/>
</g>
<!-- Node33 -->
<g id="node33" class="node"><title>Node33</title>
<polygon fill="white" stroke="#bfbfbf" points="946.5,-112.5 946.5,-131.5 987.5,-131.5 987.5,-112.5 946.5,-112.5"/>
<text text-anchor="middle" x="967" y="-119.5" font-family="Helvetica,sans-Serif" font-size="10.00">ctime</text>
</g>
<!-- Node31&#45;&gt;Node33 -->
<g id="edge53" class="edge"><title>Node31&#45;&gt;Node33</title>
<path fill="none" stroke="midnightblue" d="M346.525,-172.804C361.632,-171.214 379.121,-169.441 395,-168 599.672,-149.425 651.135,-148.304 856,-132 882.997,-129.851 913.684,-127.359 935.939,-125.543"/>
<polygon fill="midnightblue" stroke="midnightblue" points="936.452,-129.013 946.134,-124.71 935.882,-122.036 936.452,-129.013"/>
</g>
<!-- Node35 -->
<g id="node35" class="node"><title>Node35</title>
<polygon fill="white" stroke="#bfbfbf" points="899,-280.5 899,-299.5 945,-299.5 945,-280.5 899,-280.5"/>
<text text-anchor="middle" x="922" y="-287.5" font-family="Helvetica,sans-Serif" font-size="10.00">atomic</text>
</g>
<!-- Node34&#45;&gt;Node35 -->
<g id="edge64" class="edge"><title>Node34&#45;&gt;Node35</title>
<path fill="none" stroke="midnightblue" d="M934.523,-336.083C932.514,-328.849 929.614,-318.409 927.11,-309.397"/>
<polygon fill="midnightblue" stroke="midnightblue" points="930.48,-308.449 924.431,-299.751 923.735,-310.323 930.48,-308.449"/>
</g>
<!-- Node36 -->
<g id="node36" class="node"><title>Node36</title>
<polygon fill="white" stroke="#bfbfbf" points="963.5,-280.5 963.5,-299.5 1012.5,-299.5 1012.5,-280.5 963.5,-280.5"/>
<text text-anchor="middle" x="988" y="-287.5" font-family="Helvetica,sans-Serif" font-size="10.00">cstddef</text>
</g>
<!-- Node34&#45;&gt;Node36 -->
<g id="edge65" class="edge"><title>Node34&#45;&gt;Node36</title>
<path fill="none" stroke="midnightblue" d="M945.422,-336.083C952.848,-328.22 963.852,-316.569 972.812,-307.081"/>
<polygon fill="midnightblue" stroke="midnightblue" points="975.413,-309.424 979.735,-299.751 970.324,-304.618 975.413,-309.424"/>
</g>
<!-- Node37&#45;&gt;Node8 -->
<g id="edge67" class="edge"><title>Node37&#45;&gt;Node8</title>
<path fill="none" stroke="midnightblue" d="M663.598,-224.245C656.816,-197.974 639.262,-117.815 659,-56 662.341,-45.538 669.1,-35.4277 675.549,-27.4496"/>
<polygon fill="midnightblue" stroke="midnightblue" points="678.348,-29.5641 682.249,-19.7136 673.056,-24.9815 678.348,-29.5641"/>
</g>
<!-- Node37&#45;&gt;Node10 -->
<g id="edge69" class="edge"><title>Node37&#45;&gt;Node10</title>
<path fill="none" stroke="midnightblue" d="M670.459,-224.083C674.154,-216.691 679.523,-205.953 684.094,-196.811"/>
<polygon fill="midnightblue" stroke="midnightblue" points="687.283,-198.261 688.624,-187.751 681.022,-195.13 687.283,-198.261"/>
</g>
<!-- Node37&#45;&gt;Node12 -->
<g id="edge70" class="edge"><title>Node37&#45;&gt;Node12</title>
<path fill="none" stroke="midnightblue" d="M680.728,-224.463C720.62,-201.787 834.712,-139.884 938,-112 1064.15,-77.9444 1218.64,-69.5605 1297.79,-67.5639"/>
<polygon fill="midnightblue" stroke="midnightblue" points="1298.07,-71.0586 1307.99,-67.3318 1297.91,-64.0604 1298.07,-71.0586"/>
</g>
<!-- Node37&#45;&gt;Node19 -->
<g id="edge68" class="edge"><title>Node37&#45;&gt;Node19</title>
<path fill="none" stroke="midnightblue" d="M629.782,-225.487C590.911,-217.318 527.123,-203.612 462.765,-188.108"/>
<polygon fill="midnightblue" stroke="midnightblue" points="463.395,-184.659 452.852,-185.706 461.747,-191.462 463.395,-184.659"/>
</g>
<!-- Node38&#45;&gt;Node8 -->
<g id="edge72" class="edge"><title>Node38&#45;&gt;Node8</title>
<path fill="none" stroke="midnightblue" d="M1110.53,-280.48C1136.55,-273.047 1172.95,-260.808 1202,-244 1259.66,-210.636 1314.16,-164.38 1273,-112 1204.64,-24.9965 837.999,-12.9051 724.507,-11.2531"/>
<polygon fill="midnightblue" stroke="midnightblue" points="724.376,-7.7513 714.333,-11.1237 724.287,-14.7507 724.376,-7.7513"/>
</g>
<!-- Node38&#45;&gt;Node9 -->
<g id="edge73" class="edge"><title>Node38&#45;&gt;Node9</title>
<path fill="none" stroke="midnightblue" d="M1030.89,-281.329C1027.55,-280.853 1024.22,-280.404 1021,-280 932.443,-268.912 691.328,-298.947 621,-244 589.416,-219.323 581.487,-169.41 579.56,-142.031"/>
<polygon fill="midnightblue" stroke="midnightblue" points="583.044,-141.63 579.05,-131.817 576.053,-141.979 583.044,-141.63"/>
</g>
<!-- Node38&#45;&gt;Node10 -->
<g id="edge74" class="edge"><title>Node38&#45;&gt;Node10</title>
<path fill="none" stroke="midnightblue" d="M1030.86,-281.562C1027.52,-281.031 1024.21,-280.506 1021,-280 917.493,-263.686 885.438,-282.543 788,-244 758.136,-232.187 728.33,-209.591 710.277,-194.405"/>
<polygon fill="midnightblue" stroke="midnightblue" points="712.27,-191.502 702.411,-187.625 707.701,-196.805 712.27,-191.502"/>
</g>
<!-- Node38&#45;&gt;Node12 -->
<g id="edge75" class="edge"><title>Node38&#45;&gt;Node12</title>
<path fill="none" stroke="midnightblue" d="M1123.21,-286.181C1186.65,-281.407 1296.26,-269.629 1326,-244 1372.25,-204.148 1373.17,-172.356 1364,-112 1362.63,-103.001 1359.81,-93.3251 1357.05,-85.2601"/>
<polygon fill="midnightblue" stroke="midnightblue" points="1360.31,-83.9759 1353.6,-75.7782 1353.73,-86.3722 1360.31,-83.9759"/>
</g>
<!-- Node38&#45;&gt;Node23 -->
<g id="edge78" class="edge"><title>Node38&#45;&gt;Node23</title>
<path fill="none" stroke="midnightblue" d="M1068.11,-280.392C1045.13,-258.592 981.183,-200.629 918,-168 888.231,-152.627 852.258,-141.381 823.714,-133.977"/>
<polygon fill="midnightblue" stroke="midnightblue" points="824.501,-130.566 813.949,-131.517 822.792,-137.354 824.501,-130.566"/>
</g>
<!-- Node38&#45;&gt;Node28 -->
<g id="edge76" class="edge"><title>Node38&#45;&gt;Node28</title>
<path fill="none" stroke="midnightblue" d="M1098.21,-280.485C1156.81,-255.802 1312.76,-181.54 1254,-112 1227.73,-80.9074 1114.49,-71.2917 1044.51,-68.3223"/>
<polygon fill="midnightblue" stroke="midnightblue" points="1044.22,-64.8084 1034.09,-67.9155 1043.94,-71.803 1044.22,-64.8084"/>
</g>
<!-- Node38&#45;&gt;Node30 -->
<g id="edge77" class="edge"><title>Node38&#45;&gt;Node30</title>
<path fill="none" stroke="midnightblue" d="M1038.81,-280.444C996.859,-271.043 929.406,-255.929 883.929,-245.739"/>
<polygon fill="midnightblue" stroke="midnightblue" points="884.532,-242.288 874.009,-243.516 883.001,-249.118 884.532,-242.288"/>
</g>
<!-- Node39 -->
<g id="node39" class="node"><title>Node39</title>
<polygon fill="white" stroke="#bfbfbf" points="1378.5,-224.5 1378.5,-243.5 1459.5,-243.5 1459.5,-224.5 1378.5,-224.5"/>
<text text-anchor="middle" x="1419" y="-231.5" font-family="Helvetica,sans-Serif" font-size="10.00">NChanDelay.h</text>
</g>
<!-- Node38&#45;&gt;Node39 -->
<g id="edge79" class="edge"><title>Node38&#45;&gt;Node39</title>
<path fill="none" stroke="midnightblue" d="M1123.24,-281.847C1179.98,-273.048 1279.09,-257.604 1364,-244 1365.46,-243.766 1366.95,-243.527 1368.45,-243.286"/>
<polygon fill="midnightblue" stroke="midnightblue" points="1369.14,-246.718 1378.46,-241.666 1368.03,-239.808 1369.14,-246.718"/>
</g>
<!-- Node40 -->
<g id="node40" class="node"><title>Node40</title>
<g id="a_node40"><a xlink:href="_i_plug_processor_8cpp_source.html" target="_top" xlink:title="IPlugProcessor.cpp">
<polygon fill="white" stroke="black" points="1011,-168.5 1011,-187.5 1113,-187.5 1113,-168.5 1011,-168.5"/>
<text text-anchor="middle" x="1062" y="-175.5" font-family="Helvetica,sans-Serif" font-size="10.00">IPlugProcessor.cpp</text>
</a>
</g>
</g>
<!-- Node38&#45;&gt;Node40 -->
<g id="edge80" class="edge"><title>Node38&#45;&gt;Node40</title>
<path fill="none" stroke="midnightblue" d="M1071.98,-280.368C1066.21,-262.617 1060.17,-221.666 1059.33,-197.597"/>
<polygon fill="midnightblue" stroke="midnightblue" points="1062.83,-197.595 1059.34,-187.591 1055.83,-197.588 1062.83,-197.595"/>
</g>
<!-- Node40&#45;&gt;Node18 -->
<g id="edge84" class="edge"><title>Node40&#45;&gt;Node18</title>
<path fill="none" stroke="midnightblue" d="M1010.82,-175.435C919.557,-172.013 722.684,-161.776 547.675,-131.805"/>
<polygon fill="midnightblue" stroke="midnightblue" points="548.225,-128.348 537.773,-130.083 547.026,-135.244 548.225,-128.348"/>
</g>
<!-- Node40&#45;&gt;Node25 -->
<g id="edge81" class="edge"><title>Node40&#45;&gt;Node25</title>
<path fill="none" stroke="midnightblue" d="M1059.94,-168.112C1056.27,-154.219 1047.31,-127.359 1030,-112 1022.58,-105.419 969.549,-88.0279 934.114,-76.8937"/>
<polygon fill="midnightblue" stroke="midnightblue" points="934.784,-73.4364 924.195,-73.7957 932.697,-80.118 934.784,-73.4364"/>
</g>
<!-- Node40&#45;&gt;Node26 -->
<g id="edge82" class="edge"><title>Node40&#45;&gt;Node26</title>
<path fill="none" stroke="midnightblue" d="M1055.77,-168.311C1045.17,-154.197 1022.21,-126.416 996,-112 968.328,-96.7803 881.358,-80.3668 833.813,-72.2137"/>
<polygon fill="midnightblue" stroke="midnightblue" points="834.188,-68.7275 823.744,-70.5097 833.02,-75.6294 834.188,-68.7275"/>
</g>
<!-- Node40&#45;&gt;Node33 -->
<g id="edge83" class="edge"><title>Node40&#45;&gt;Node33</title>
<path fill="none" stroke="midnightblue" d="M1046.74,-168.324C1031.78,-159.822 1008.75,-146.729 991.273,-136.797"/>
<polygon fill="midnightblue" stroke="midnightblue" points="992.649,-133.553 982.226,-131.655 989.19,-139.639 992.649,-133.553"/>
</g>
<!-- Node40&#45;&gt;Node38 -->
<g id="edge87" class="edge"><title>Node40&#45;&gt;Node38</title>
<path fill="none" stroke="midnightblue" d="M1067.01,-187.591C1072.78,-205.308 1078.82,-246.254 1079.67,-270.348"/>
<polygon fill="midnightblue" stroke="midnightblue" points="1076.17,-270.366 1079.67,-280.368 1083.17,-270.371 1076.17,-270.366"/>
</g>
<!-- Node41 -->
<g id="node41" class="node"><title>Node41</title>
<polygon fill="white" stroke="#bfbfbf" points="1082,-112.5 1082,-131.5 1150,-131.5 1150,-112.5 1082,-112.5"/>
<text text-anchor="middle" x="1116" y="-119.5" font-family="Helvetica,sans-Serif" font-size="10.00">wdlendian.h</text>
</g>
<!-- Node40&#45;&gt;Node41 -->
<g id="edge85" class="edge"><title>Node40&#45;&gt;Node41</title>
<path fill="none" stroke="midnightblue" d="M1070.92,-168.083C1078.78,-160.22 1090.43,-148.569 1099.92,-139.081"/>
<polygon fill="midnightblue" stroke="midnightblue" points="1102.65,-141.297 1107.25,-131.751 1097.7,-136.347 1102.65,-141.297"/>
</g>
<!-- Node42 -->
<g id="node42" class="node"><title>Node42</title>
<polygon fill="white" stroke="#bfbfbf" points="1168.5,-112.5 1168.5,-131.5 1245.5,-131.5 1245.5,-112.5 1168.5,-112.5"/>
<text text-anchor="middle" x="1207" y="-119.5" font-family="Helvetica,sans-Serif" font-size="10.00">wdl_base64.h</text>
</g>
<!-- Node40&#45;&gt;Node42 -->
<g id="edge86" class="edge"><title>Node40&#45;&gt;Node42</title>
<path fill="none" stroke="midnightblue" d="M1084.98,-168.444C1109.16,-159.438 1147.42,-145.189 1174.65,-135.049"/>
<polygon fill="midnightblue" stroke="midnightblue" points="1175.98,-138.286 1184.13,-131.516 1173.54,-131.727 1175.98,-138.286"/>
</g>
</g>
</svg>
