<?xml version="1.0" encoding="UTF-8" standalone="no"?>
<!DOCTYPE svg PUBLIC "-//W3C//DTD SVG 1.1//EN"
 "http://www.w3.org/Graphics/SVG/1.1/DTD/svg11.dtd">
<!-- Generated by graphviz version 2.36.0 (20140111.2315)
 -->
<!-- Title: IPlugGraphicsDelegate.h Pages: 1 -->
<svg width="246pt" height="84pt"
 viewBox="0.00 0.00 246.00 84.00" xmlns="http://www.w3.org/2000/svg" xmlns:xlink="http://www.w3.org/1999/xlink">
<g id="graph0" class="graph" transform="scale(1 1) rotate(0) translate(4 80)">
<title>IPlugGraphicsDelegate.h</title>
<polygon fill="white" stroke="none" points="-4,4 -4,-80 242,-80 242,4 -4,4"/>
<!-- Node1 -->
<g id="node1" class="node"><title>Node1</title>
<polygon fill="#bfbfbf" stroke="black" points="69.5,-56.5 69.5,-75.5 194.5,-75.5 194.5,-56.5 69.5,-56.5"/>
<text text-anchor="middle" x="132" y="-63.5" font-family="Helvetica,sans-Serif" font-size="10.00">IPlugGraphicsDelegate.h</text>
</g>
<!-- Node2 -->
<g id="node2" class="node"><title>Node2</title>
<g id="a_node2"><a xlink:href="_i_plug_graphics_delegate_8cpp_source.html" target="_top" xlink:title="IPlugGraphicsDelegate.cpp">
<polygon fill="white" stroke="black" points="0,-0.5 0,-19.5 136,-19.5 136,-0.5 0,-0.5"/>
<text text-anchor="middle" x="68" y="-7.5" font-family="Helvetica,sans-Serif" font-size="10.00">IPlugGraphicsDelegate.cpp</text>
</a>
</g>
</g>
<!-- Node1&#45;&gt;Node2 -->
<g id="edge1" class="edge"><title>Node1&#45;&gt;Node2</title>
<path fill="none" stroke="midnightblue" d="M114.009,-49.8197C102.542,-40.1452 88.0867,-27.9481 78.4698,-19.8339"/>
<polygon fill="midnightblue" stroke="midnightblue" points="111.817,-52.5502 121.717,-56.324 116.331,-47.2002 111.817,-52.5502"/>
</g>
<!-- Node3 -->
<g id="node3" class="node"><title>Node3</title>
<g id="a_node3"><a xlink:href="_i_graphics_i_o_s_8h_source.html" target="_top" xlink:title="IGraphicsIOS.h">
<polygon fill="white" stroke="black" points="154,-0.5 154,-19.5 238,-19.5 238,-0.5 154,-0.5"/>
<text text-anchor="middle" x="196" y="-7.5" font-family="Helvetica,sans-Serif" font-size="10.00">IGraphicsIOS.h</text>
</a>
</g>
</g>
<!-- Node1&#45;&gt;Node3 -->
<g id="edge2" class="edge"><title>Node1&#45;&gt;Node3</title>
<path fill="none" stroke="midnightblue" d="M149.991,-49.8197C161.458,-40.1452 175.913,-27.9481 185.53,-19.8339"/>
<polygon fill="midnightblue" stroke="midnightblue" points="147.669,-47.2002 142.283,-56.324 152.183,-52.5502 147.669,-47.2002"/>
</g>
</g>
</svg>
