<?xml version="1.0" encoding="UTF-8" standalone="no"?>
<!DOCTYPE svg PUBLIC "-//W3C//DTD SVG 1.1//EN"
 "http://www.w3.org/Graphics/SVG/1.1/DTD/svg11.dtd">
<!-- Generated by graphviz version 2.36.0 (20140111.2315)
 -->
<!-- Title: IPlugProcessor.h Pages: 1 -->
<!--zoomable 140 -->
<svg id="main" version="1.1" xmlns="http://www.w3.org/2000/svg" xmlns:xlink="http://www.w3.org/1999/xlink" xml:space="preserve" onload="init(evt)">
<style type="text/css"><![CDATA[
.edge:hover path { stroke: red; }
.edge:hover polygon { stroke: red; fill: red; }
]]></style>
<script type="text/javascript"><![CDATA[
var edges = document.getElementsByTagName('g');
if (edges && edges.length) {
  for (var i=0;i<edges.length;i++) {
    if (edges[i].id.substr(0,4)=='edge') {
      edges[i].setAttribute('class','edge');
    }
  }
}
]]></script>
        <defs>
                <circle id="rim" cx="0" cy="0" r="7"/>
                <circle id="rim2" cx="0" cy="0" r="3.5"/>
                <g id="zoomPlus">
                        <use xlink:href="#rim" fill="#404040">
                                <set attributeName="fill" to="#808080" begin="zoomplus.mouseover" end="zoomplus.mouseout"/>
                        </use>
                        <path d="M-4,0h8M0,-4v8" fill="none" stroke="white" stroke-width="1.5" pointer-events="none"/>
                </g>
                <g id="zoomMin">
                        <use xlink:href="#rim" fill="#404040">
                                <set attributeName="fill" to="#808080" begin="zoomminus.mouseover" end="zoomminus.mouseout"/>
                        </use>
                        <path d="M-4,0h8" fill="none" stroke="white" stroke-width="1.5" pointer-events="none"/>
                </g>
                <g id="dirArrow">
                        <path fill="none" stroke="white" stroke-width="1.5" d="M0,-3.0v7 M-2.5,-0.5L0,-3.0L2.5,-0.5"/>
                </g>
               <g id="resetDef">
                       <use xlink:href="#rim2" fill="#404040">
                               <set attributeName="fill" to="#808080" begin="reset.mouseover" end="reset.mouseout"/>
                       </use>
               </g>
        </defs>

<script type="text/javascript">
var viewWidth = 823;
var viewHeight = 140;
var sectionId = 'dynsection-1';
</script>
<script xlink:href="svgpan.js"/>
<svg id="graph" class="graph">
<g id="viewport">
<title>IPlugProcessor.h</title>
<polygon fill="white" stroke="none" points="-4,4 -4,-136 819,-136 819,4 -4,4"/>
<!-- Node1 -->
<g id="node1" class="node"><title>Node1</title>
<polygon fill="#bfbfbf" stroke="black" points="275,-112.5 275,-131.5 367,-131.5 367,-112.5 275,-112.5"/>
<text text-anchor="middle" x="321" y="-119.5" font-family="Helvetica,sans-Serif" font-size="10.00">IPlugProcessor.h</text>
</g>
<!-- Node2 -->
<g id="node2" class="node"><title>Node2</title>
<g id="a_node2"><a xlink:href="_i_plug_a_a_x_8h.html" target="_top" xlink:title="AAX API base class for an IPlug plug&#45;in, inherits from IPlugBase. ">
<polygon fill="white" stroke="black" points="10,-56.5 10,-75.5 78,-75.5 78,-56.5 10,-56.5"/>
<text text-anchor="middle" x="44" y="-63.5" font-family="Helvetica,sans-Serif" font-size="10.00">IPlugAAX.h</text>
</a>
</g>
</g>
<!-- Node1&#45;&gt;Node2 -->
<g id="edge1" class="edge"><title>Node1&#45;&gt;Node2</title>
<path fill="none" stroke="midnightblue" d="M267.022,-110.477C211.058,-99.5673 125.284,-82.8459 78.0806,-73.6439"/>
<polygon fill="midnightblue" stroke="midnightblue" points="266.624,-113.965 277.109,-112.444 267.963,-107.095 266.624,-113.965"/>
</g>
<!-- Node4 -->
<g id="node4" class="node"><title>Node4</title>
<g id="a_node4"><a xlink:href="_i_plug_a_p_p_8h.html" target="_top" xlink:title="Standalone application base class for an IPlug plug&#45;in, inherits from IPlugBase. ">
<polygon fill="white" stroke="black" points="102,-56.5 102,-75.5 170,-75.5 170,-56.5 102,-56.5"/>
<text text-anchor="middle" x="136" y="-63.5" font-family="Helvetica,sans-Serif" font-size="10.00">IPlugAPP.h</text>
</a>
</g>
</g>
<!-- Node1&#45;&gt;Node4 -->
<g id="edge3" class="edge"><title>Node1&#45;&gt;Node4</title>
<path fill="none" stroke="midnightblue" d="M281.834,-109.568C246.935,-99.381 196.651,-84.7034 165.177,-75.5164"/>
<polygon fill="midnightblue" stroke="midnightblue" points="281.106,-113.001 291.686,-112.444 283.067,-106.282 281.106,-113.001"/>
</g>
<!-- Node6 -->
<g id="node6" class="node"><title>Node6</title>
<g id="a_node6"><a xlink:href="_i_plug_a_u_8h.html" target="_top" xlink:title="AudioUnit v2 API base class for an IPlug plug&#45;in, inherits from IPlugBase. ">
<polygon fill="white" stroke="black" points="190,-56.5 190,-75.5 252,-75.5 252,-56.5 190,-56.5"/>
<text text-anchor="middle" x="221" y="-63.5" font-family="Helvetica,sans-Serif" font-size="10.00">IPlugAU.h</text>
</a>
</g>
</g>
<!-- Node1&#45;&gt;Node6 -->
<g id="edge5" class="edge"><title>Node1&#45;&gt;Node6</title>
<path fill="none" stroke="midnightblue" d="M295.912,-107.453C277.451,-97.4835 252.903,-84.2279 237.027,-75.6545"/>
<polygon fill="midnightblue" stroke="midnightblue" points="294.471,-110.652 304.933,-112.324 297.797,-104.493 294.471,-110.652"/>
</g>
<!-- Node8 -->
<g id="node8" class="node"><title>Node8</title>
<g id="a_node8"><a xlink:href="_i_plug_processor_8cpp_source.html" target="_top" xlink:title="IPlugProcessor.cpp">
<polygon fill="white" stroke="black" points="270,-56.5 270,-75.5 372,-75.5 372,-56.5 270,-56.5"/>
<text text-anchor="middle" x="321" y="-63.5" font-family="Helvetica,sans-Serif" font-size="10.00">IPlugProcessor.cpp</text>
</a>
</g>
</g>
<!-- Node1&#45;&gt;Node8 -->
<g id="edge7" class="edge"><title>Node1&#45;&gt;Node8</title>
<path fill="none" stroke="midnightblue" d="M314.528,-102.101C313.896,-93.1357 314.343,-82.8579 315.869,-75.7511"/>
<polygon fill="midnightblue" stroke="midnightblue" points="311.066,-102.622 315.834,-112.083 318.007,-101.713 311.066,-102.622"/>
</g>
<!-- Node9 -->
<g id="node9" class="node"><title>Node9</title>
<g id="a_node9"><a xlink:href="_i_plug_v_s_t2_8h.html" target="_top" xlink:title="IPlugVST2.h">
<polygon fill="white" stroke="black" points="390,-56.5 390,-75.5 462,-75.5 462,-56.5 390,-56.5"/>
<text text-anchor="middle" x="426" y="-63.5" font-family="Helvetica,sans-Serif" font-size="10.00">IPlugVST2.h</text>
</a>
</g>
</g>
<!-- Node1&#45;&gt;Node9 -->
<g id="edge9" class="edge"><title>Node1&#45;&gt;Node9</title>
<path fill="none" stroke="midnightblue" d="M346.81,-107.726C366.253,-97.7271 392.348,-84.3065 409.172,-75.6545"/>
<polygon fill="midnightblue" stroke="midnightblue" points="345.162,-104.638 337.87,-112.324 348.364,-110.863 345.162,-104.638"/>
</g>
<!-- Node12 -->
<g id="node12" class="node"><title>Node12</title>
<g id="a_node12"><a xlink:href="_i_plug_v_s_t3_8h.html" target="_top" xlink:title="VST3 base class for an IPlug plug&#45;in, inherits from IPlugBase. ">
<polygon fill="white" stroke="black" points="484,-56.5 484,-75.5 556,-75.5 556,-56.5 484,-56.5"/>
<text text-anchor="middle" x="520" y="-63.5" font-family="Helvetica,sans-Serif" font-size="10.00">IPlugVST3.h</text>
</a>
</g>
</g>
<!-- Node1&#45;&gt;Node12 -->
<g id="edge12" class="edge"><title>Node1&#45;&gt;Node12</title>
<path fill="none" stroke="midnightblue" d="M362.648,-109.699C400.206,-99.507 454.614,-84.7429 488.615,-75.5164"/>
<polygon fill="midnightblue" stroke="midnightblue" points="361.267,-106.447 352.532,-112.444 363.1,-113.202 361.267,-106.447"/>
</g>
<!-- Node14 -->
<g id="node14" class="node"><title>Node14</title>
<g id="a_node14"><a xlink:href="_i_plug_v_s_t3___processor_8h_source.html" target="_top" xlink:title="IPlugVST3_Processor.h">
<polygon fill="white" stroke="black" points="582,-56.5 582,-75.5 704,-75.5 704,-56.5 582,-56.5"/>
<text text-anchor="middle" x="643" y="-63.5" font-family="Helvetica,sans-Serif" font-size="10.00">IPlugVST3_Processor.h</text>
</a>
</g>
</g>
<!-- Node1&#45;&gt;Node14 -->
<g id="edge14" class="edge"><title>Node1&#45;&gt;Node14</title>
<path fill="none" stroke="midnightblue" d="M377.3,-111.558C437.981,-101.382 533.701,-85.3297 592.17,-75.5243"/>
<polygon fill="midnightblue" stroke="midnightblue" points="376.418,-108.157 367.135,-113.263 377.576,-115.061 376.418,-108.157"/>
</g>
<!-- Node16 -->
<g id="node16" class="node"><title>Node16</title>
<g id="a_node16"><a xlink:href="_i_plug_w_a_m_8h_source.html" target="_top" xlink:title="IPlugWAM.h">
<polygon fill="white" stroke="black" points="737,-56.5 737,-75.5 809,-75.5 809,-56.5 737,-56.5"/>
<text text-anchor="middle" x="773" y="-63.5" font-family="Helvetica,sans-Serif" font-size="10.00">IPlugWAM.h</text>
</a>
</g>
</g>
<!-- Node1&#45;&gt;Node16 -->
<g id="edge16" class="edge"><title>Node1&#45;&gt;Node16</title>
<path fill="none" stroke="midnightblue" d="M377.558,-115.128C453.822,-107.069 593.82,-91.7743 713,-76 720.727,-74.9772 729.001,-73.7938 736.859,-72.6279"/>
<polygon fill="midnightblue" stroke="midnightblue" points="376.806,-111.688 367.228,-116.217 377.54,-118.65 376.806,-111.688"/>
</g>
<!-- Node3 -->
<g id="node3" class="node"><title>Node3</title>
<g id="a_node3"><a xlink:href="_i_plug_a_a_x_8cpp_source.html" target="_top" xlink:title="IPlugAAX.cpp">
<polygon fill="white" stroke="black" points="0,-0.5 0,-19.5 78,-19.5 78,-0.5 0,-0.5"/>
<text text-anchor="middle" x="39" y="-7.5" font-family="Helvetica,sans-Serif" font-size="10.00">IPlugAAX.cpp</text>
</a>
</g>
</g>
<!-- Node2&#45;&gt;Node3 -->
<g id="edge2" class="edge"><title>Node2&#45;&gt;Node3</title>
<path fill="none" stroke="midnightblue" d="M42.25,-46.1005C41.42,-37.1357 40.4683,-26.8579 39.8103,-19.7511"/>
<polygon fill="midnightblue" stroke="midnightblue" points="38.7672,-46.4483 43.1744,-56.083 45.7374,-45.8029 38.7672,-46.4483"/>
</g>
<!-- Node5 -->
<g id="node5" class="node"><title>Node5</title>
<g id="a_node5"><a xlink:href="_i_plug_a_p_p_8cpp_source.html" target="_top" xlink:title="IPlugAPP.cpp">
<polygon fill="white" stroke="black" points="96,-0.5 96,-19.5 174,-19.5 174,-0.5 96,-0.5"/>
<text text-anchor="middle" x="135" y="-7.5" font-family="Helvetica,sans-Serif" font-size="10.00">IPlugAPP.cpp</text>
</a>
</g>
</g>
<!-- Node4&#45;&gt;Node5 -->
<g id="edge4" class="edge"><title>Node4&#45;&gt;Node5</title>
<path fill="none" stroke="midnightblue" d="M135.645,-45.8045C135.48,-36.9102 135.292,-26.7798 135.162,-19.7511"/>
<polygon fill="midnightblue" stroke="midnightblue" points="132.15,-46.1495 135.835,-56.083 139.149,-46.0199 132.15,-46.1495"/>
</g>
<!-- Node7 -->
<g id="node7" class="node"><title>Node7</title>
<g id="a_node7"><a xlink:href="_i_plug_a_u_8cpp_source.html" target="_top" xlink:title="IPlugAU.cpp">
<polygon fill="white" stroke="black" points="192,-0.5 192,-19.5 264,-19.5 264,-0.5 192,-0.5"/>
<text text-anchor="middle" x="228" y="-7.5" font-family="Helvetica,sans-Serif" font-size="10.00">IPlugAU.cpp</text>
</a>
</g>
</g>
<!-- Node6&#45;&gt;Node7 -->
<g id="edge6" class="edge"><title>Node6&#45;&gt;Node7</title>
<path fill="none" stroke="midnightblue" d="M223.45,-46.1005C224.612,-37.1357 225.944,-26.8579 226.866,-19.7511"/>
<polygon fill="midnightblue" stroke="midnightblue" points="219.971,-45.716 222.156,-56.083 226.912,-46.6159 219.971,-45.716"/>
</g>
<!-- Node8&#45;&gt;Node1 -->
<g id="edge8" class="edge"><title>Node8&#45;&gt;Node1</title>
<path fill="none" stroke="midnightblue" d="M327.458,-85.6911C328.106,-94.6353 327.676,-104.927 326.166,-112.083"/>
<polygon fill="midnightblue" stroke="midnightblue" points="330.923,-85.2002 326.131,-75.7511 323.985,-86.1262 330.923,-85.2002"/>
</g>
<!-- Node10 -->
<g id="node10" class="node"><title>Node10</title>
<g id="a_node10"><a xlink:href="_i_plug_reaper_8h_source.html" target="_top" xlink:title="IPlugReaper.h">
<polygon fill="white" stroke="black" points="282.5,-0.5 282.5,-19.5 361.5,-19.5 361.5,-0.5 282.5,-0.5"/>
<text text-anchor="middle" x="322" y="-7.5" font-family="Helvetica,sans-Serif" font-size="10.00">IPlugReaper.h</text>
</a>
</g>
</g>
<!-- Node9&#45;&gt;Node10 -->
<g id="edge10" class="edge"><title>Node9&#45;&gt;Node10</title>
<path fill="none" stroke="midnightblue" d="M400.172,-51.5895C380.943,-41.6052 355.255,-28.2672 338.668,-19.6545"/>
<polygon fill="midnightblue" stroke="midnightblue" points="398.803,-54.822 409.291,-56.324 402.029,-48.6095 398.803,-54.822"/>
</g>
<!-- Node11 -->
<g id="node11" class="node"><title>Node11</title>
<g id="a_node11"><a xlink:href="_i_plug_v_s_t2_8cpp_source.html" target="_top" xlink:title="IPlugVST2.cpp">
<polygon fill="white" stroke="black" points="379.5,-0.5 379.5,-19.5 462.5,-19.5 462.5,-0.5 379.5,-0.5"/>
<text text-anchor="middle" x="421" y="-7.5" font-family="Helvetica,sans-Serif" font-size="10.00">IPlugVST2.cpp</text>
</a>
</g>
</g>
<!-- Node9&#45;&gt;Node11 -->
<g id="edge11" class="edge"><title>Node9&#45;&gt;Node11</title>
<path fill="none" stroke="midnightblue" d="M424.25,-46.1005C423.42,-37.1357 422.468,-26.8579 421.81,-19.7511"/>
<polygon fill="midnightblue" stroke="midnightblue" points="420.767,-46.4483 425.174,-56.083 427.737,-45.8029 420.767,-46.4483"/>
</g>
<!-- Node13 -->
<g id="node13" class="node"><title>Node13</title>
<g id="a_node13"><a xlink:href="_i_plug_v_s_t3_8cpp_source.html" target="_top" xlink:title="IPlugVST3.cpp">
<polygon fill="white" stroke="black" points="480.5,-0.5 480.5,-19.5 563.5,-19.5 563.5,-0.5 480.5,-0.5"/>
<text text-anchor="middle" x="522" y="-7.5" font-family="Helvetica,sans-Serif" font-size="10.00">IPlugVST3.cpp</text>
</a>
</g>
</g>
<!-- Node12&#45;&gt;Node13 -->
<g id="edge13" class="edge"><title>Node12&#45;&gt;Node13</title>
<path fill="none" stroke="midnightblue" d="M520.711,-45.8045C521.04,-36.9102 521.416,-26.7798 521.676,-19.7511"/>
<polygon fill="midnightblue" stroke="midnightblue" points="517.203,-45.9603 520.33,-56.083 524.198,-46.2194 517.203,-45.9603"/>
</g>
<!-- Node15 -->
<g id="node15" class="node"><title>Node15</title>
<g id="a_node15"><a xlink:href="_i_plug_v_s_t3___processor_8cpp_source.html" target="_top" xlink:title="IPlugVST3_Processor.cpp">
<polygon fill="white" stroke="black" points="582,-0.5 582,-19.5 714,-19.5 714,-0.5 582,-0.5"/>
<text text-anchor="middle" x="648" y="-7.5" font-family="Helvetica,sans-Serif" font-size="10.00">IPlugVST3_Processor.cpp</text>
</a>
</g>
</g>
<!-- Node14&#45;&gt;Node15 -->
<g id="edge15" class="edge"><title>Node14&#45;&gt;Node15</title>
<path fill="none" stroke="midnightblue" d="M644.75,-46.1005C645.58,-37.1357 646.532,-26.8579 647.19,-19.7511"/>
<polygon fill="midnightblue" stroke="midnightblue" points="641.263,-45.8029 643.826,-56.083 648.233,-46.4483 641.263,-45.8029"/>
</g>
<!-- Node17 -->
<g id="node17" class="node"><title>Node17</title>
<g id="a_node17"><a xlink:href="_i_plug_w_a_m_8cpp_source.html" target="_top" xlink:title="IPlugWAM.cpp">
<polygon fill="white" stroke="black" points="732.5,-0.5 732.5,-19.5 815.5,-19.5 815.5,-0.5 732.5,-0.5"/>
<text text-anchor="middle" x="774" y="-7.5" font-family="Helvetica,sans-Serif" font-size="10.00">IPlugWAM.cpp</text>
</a>
</g>
</g>
<!-- Node16&#45;&gt;Node17 -->
<g id="edge17" class="edge"><title>Node16&#45;&gt;Node17</title>
<path fill="none" stroke="midnightblue" d="M773.355,-45.8045C773.52,-36.9102 773.708,-26.7798 773.838,-19.7511"/>
<polygon fill="midnightblue" stroke="midnightblue" points="769.851,-46.0199 773.165,-56.083 776.85,-46.1495 769.851,-46.0199"/>
</g>
</g>
</svg>
        <g id="navigator" transform="translate(0 0)" fill="#404254">
                <rect fill="#f2f5e9" fill-opacity="0.5" stroke="#606060" stroke-width=".5" x="0" y="0" width="60" height="60"/>
                <use id="zoomplus" xlink:href="#zoomPlus" x="17" y="9" onmousedown="handleZoom(evt,'in')"/>
                <use id="zoomminus" xlink:href="#zoomMin" x="42" y="9" onmousedown="handleZoom(evt,'out')"/>
                <use id="reset" xlink:href="#resetDef" x="30" y="36" onmousedown="handleReset()"/>
                <g id="arrowUp" xlink:href="#dirArrow" transform="translate(30 24)" onmousedown="handlePan(0,-1)">
                  <use xlink:href="#rim" fill="#404040">
                        <set attributeName="fill" to="#808080" begin="arrowUp.mouseover" end="arrowUp.mouseout"/>
                  </use>
                  <path fill="none" stroke="white" stroke-width="1.5" d="M0,-3.0v7 M-2.5,-0.5L0,-3.0L2.5,-0.5"/>
                </g>
                <g id="arrowRight" xlink:href="#dirArrow" transform="rotate(90) translate(36 -43)" onmousedown="handlePan(1,0)">
                  <use xlink:href="#rim" fill="#404040">
                        <set attributeName="fill" to="#808080" begin="arrowRight.mouseover" end="arrowRight.mouseout"/>
                  </use>
                  <path fill="none" stroke="white" stroke-width="1.5" d="M0,-3.0v7 M-2.5,-0.5L0,-3.0L2.5,-0.5"/>
                </g>
                <g id="arrowDown" xlink:href="#dirArrow" transform="rotate(180) translate(-30 -48)" onmousedown="handlePan(0,1)">
                  <use xlink:href="#rim" fill="#404040">
                        <set attributeName="fill" to="#808080" begin="arrowDown.mouseover" end="arrowDown.mouseout"/>
                  </use>
                  <path fill="none" stroke="white" stroke-width="1.5" d="M0,-3.0v7 M-2.5,-0.5L0,-3.0L2.5,-0.5"/>
                </g>
                <g id="arrowLeft" xlink:href="#dirArrow" transform="rotate(270) translate(-36 17)" onmousedown="handlePan(-1,0)">
                  <use xlink:href="#rim" fill="#404040">
                        <set attributeName="fill" to="#808080" begin="arrowLeft.mouseover" end="arrowLeft.mouseout"/>
                  </use>
                  <path fill="none" stroke="white" stroke-width="1.5" d="M0,-3.0v7 M-2.5,-0.5L0,-3.0L2.5,-0.5"/>
                </g>
        </g>
        <svg viewBox="0 0 15 15" width="100%" height="30px" preserveAspectRatio="xMaxYMin meet">
         <g id="arrow_out" transform="scale(0.3 0.3)">
          <a xlink:href="_i_plug_processor_8h__dep__incl_org.svg" target="_base">
           <rect id="button" ry="5" rx="5" y="6" x="6" height="38" width="38"
                fill="#f2f5e9" fill-opacity="0.5" stroke="#606060" stroke-width="1.0"/>
           <path id="arrow"
             d="M 11.500037,31.436501 C 11.940474,20.09759 22.043105,11.32322 32.158766,21.979434 L 37.068811,17.246167 C 37.068811,17.246167 37.088388,32 37.088388,32 L 22.160133,31.978069 C 22.160133,31.978069 26.997745,27.140456 26.997745,27.140456 C 18.528582,18.264221 13.291696,25.230495 11.500037,31.436501 z"
             style="fill:#404040;"/>
          </a>
         </g>
        </svg>
</svg>
