<?xml version="1.0" encoding="UTF-8" standalone="no"?>
<!DOCTYPE svg PUBLIC "-//W3C//DTD SVG 1.1//EN"
 "http://www.w3.org/Graphics/SVG/1.1/DTD/svg11.dtd">
<!-- Generated by graphviz version 2.36.0 (20140111.2315)
 -->
<!-- Title: IPlugBase.h Pages: 1 -->
<svg width="1068pt" height="140pt"
 viewBox="0.00 0.00 1068.00 140.00" xmlns="http://www.w3.org/2000/svg" xmlns:xlink="http://www.w3.org/1999/xlink">
<g id="graph0" class="graph" transform="scale(1 1) rotate(0) translate(4 136)">
<title>IPlugBase.h</title>
<polygon fill="white" stroke="none" points="-4,4 -4,-136 1064,-136 1064,4 -4,4"/>
<!-- Node1 -->
<g id="node1" class="node"><title>Node1</title>
<polygon fill="#bfbfbf" stroke="black" points="433,-112.5 433,-131.5 503,-131.5 503,-112.5 433,-112.5"/>
<text text-anchor="middle" x="468" y="-119.5" font-family="Helvetica,sans-Serif" font-size="10.00">IPlugBase.h</text>
</g>
<!-- Node2 -->
<g id="node2" class="node"><title>Node2</title>
<g id="a_node2"><a xlink:href="_i_plug_a_a_x_8h.html" target="_top" xlink:title="AAX API base class for an IPlug plug&#45;in, inherits from IPlugBase. ">
<polygon fill="white" stroke="black" points="10,-56.5 10,-75.5 78,-75.5 78,-56.5 10,-56.5"/>
<text text-anchor="middle" x="44" y="-63.5" font-family="Helvetica,sans-Serif" font-size="10.00">IPlugAAX.h</text>
</a>
</g>
</g>
<!-- Node1&#45;&gt;Node2 -->
<g id="edge1" class="edge"><title>Node1&#45;&gt;Node2</title>
<path fill="none" stroke="midnightblue" d="M422.662,-116.203C352.66,-108.638 214.104,-93.0349 97,-76 90.9043,-75.1133 84.4289,-74.0856 78.1748,-73.0485"/>
<polygon fill="midnightblue" stroke="midnightblue" points="422.571,-119.713 432.888,-117.304 423.32,-112.754 422.571,-119.713"/>
</g>
<!-- Node4 -->
<g id="node4" class="node"><title>Node4</title>
<g id="a_node4"><a xlink:href="_i_plug_a_p_p_8h.html" target="_top" xlink:title="Standalone application base class for an IPlug plug&#45;in, inherits from IPlugBase. ">
<polygon fill="white" stroke="black" points="106,-56.5 106,-75.5 174,-75.5 174,-56.5 106,-56.5"/>
<text text-anchor="middle" x="140" y="-63.5" font-family="Helvetica,sans-Serif" font-size="10.00">IPlugAPP.h</text>
</a>
</g>
</g>
<!-- Node1&#45;&gt;Node4 -->
<g id="edge3" class="edge"><title>Node1&#45;&gt;Node4</title>
<path fill="none" stroke="midnightblue" d="M422.8,-113.689C368.296,-104.853 273.918,-89.4909 193,-76 186.924,-74.987 180.458,-73.8981 174.207,-72.8398"/>
<polygon fill="midnightblue" stroke="midnightblue" points="422.395,-117.169 432.826,-115.314 423.515,-110.259 422.395,-117.169"/>
</g>
<!-- Node6 -->
<g id="node6" class="node"><title>Node6</title>
<g id="a_node6"><a xlink:href="_i_plug_a_u_8h.html" target="_top" xlink:title="AudioUnit v2 API base class for an IPlug plug&#45;in, inherits from IPlugBase. ">
<polygon fill="white" stroke="black" points="202,-56.5 202,-75.5 264,-75.5 264,-56.5 202,-56.5"/>
<text text-anchor="middle" x="233" y="-63.5" font-family="Helvetica,sans-Serif" font-size="10.00">IPlugAU.h</text>
</a>
</g>
</g>
<!-- Node1&#45;&gt;Node6 -->
<g id="edge5" class="edge"><title>Node1&#45;&gt;Node6</title>
<path fill="none" stroke="midnightblue" d="M422.998,-110.659C376.457,-99.9645 305.006,-83.5461 264.283,-74.1884"/>
<polygon fill="midnightblue" stroke="midnightblue" points="422.288,-114.087 432.818,-112.916 423.856,-107.265 422.288,-114.087"/>
</g>
<!-- Node8 -->
<g id="node8" class="node"><title>Node8</title>
<g id="a_node8"><a xlink:href="_i_plug_base_8cpp_source.html" target="_top" xlink:title="IPlugBase.cpp">
<polygon fill="white" stroke="black" points="288,-56.5 288,-75.5 368,-75.5 368,-56.5 288,-56.5"/>
<text text-anchor="middle" x="328" y="-63.5" font-family="Helvetica,sans-Serif" font-size="10.00">IPlugBase.cpp</text>
</a>
</g>
</g>
<!-- Node1&#45;&gt;Node8 -->
<g id="edge7" class="edge"><title>Node1&#45;&gt;Node8</title>
<path fill="none" stroke="midnightblue" d="M436.298,-108.772C410,-98.6287 373.284,-84.4669 350.08,-75.5164"/>
<polygon fill="midnightblue" stroke="midnightblue" points="435.227,-112.11 445.817,-112.444 437.746,-105.579 435.227,-112.11"/>
</g>
<!-- Node9 -->
<g id="node9" class="node"><title>Node9</title>
<g id="a_node9"><a xlink:href="_i_plug_v_s_t2_8h.html" target="_top" xlink:title="IPlugVST2.h">
<polygon fill="white" stroke="black" points="386,-56.5 386,-75.5 458,-75.5 458,-56.5 386,-56.5"/>
<text text-anchor="middle" x="422" y="-63.5" font-family="Helvetica,sans-Serif" font-size="10.00">IPlugVST2.h</text>
</a>
</g>
</g>
<!-- Node1&#45;&gt;Node9 -->
<g id="edge8" class="edge"><title>Node1&#45;&gt;Node9</title>
<path fill="none" stroke="midnightblue" d="M453.886,-104.431C445.824,-94.9673 436.041,-83.4827 429.455,-75.7511"/>
<polygon fill="midnightblue" stroke="midnightblue" points="451.255,-106.74 460.404,-112.083 456.584,-102.201 451.255,-106.74"/>
</g>
<!-- Node12 -->
<g id="node12" class="node"><title>Node12</title>
<g id="a_node12"><a xlink:href="_i_plug_v_s_t3_8h.html" target="_top" xlink:title="VST3 base class for an IPlug plug&#45;in, inherits from IPlugBase. ">
<polygon fill="white" stroke="black" points="478,-56.5 478,-75.5 550,-75.5 550,-56.5 478,-56.5"/>
<text text-anchor="middle" x="514" y="-63.5" font-family="Helvetica,sans-Serif" font-size="10.00">IPlugVST3.h</text>
</a>
</g>
</g>
<!-- Node1&#45;&gt;Node12 -->
<g id="edge11" class="edge"><title>Node1&#45;&gt;Node12</title>
<path fill="none" stroke="midnightblue" d="M482.114,-104.431C490.176,-94.9673 499.959,-83.4827 506.545,-75.7511"/>
<polygon fill="midnightblue" stroke="midnightblue" points="479.416,-102.201 475.596,-112.083 484.745,-106.74 479.416,-102.201"/>
</g>
<!-- Node14 -->
<g id="node14" class="node"><title>Node14</title>
<g id="a_node14"><a xlink:href="_i_plug_v_s_t3___controller_8h_source.html" target="_top" xlink:title="IPlugVST3_Controller.h">
<polygon fill="white" stroke="black" points="571.5,-56.5 571.5,-75.5 690.5,-75.5 690.5,-56.5 571.5,-56.5"/>
<text text-anchor="middle" x="631" y="-63.5" font-family="Helvetica,sans-Serif" font-size="10.00">IPlugVST3_Controller.h</text>
</a>
</g>
</g>
<!-- Node1&#45;&gt;Node14 -->
<g id="edge13" class="edge"><title>Node1&#45;&gt;Node14</title>
<path fill="none" stroke="midnightblue" d="M503.703,-109.172C534.396,-99.0039 577.919,-84.5852 605.293,-75.5164"/>
<polygon fill="midnightblue" stroke="midnightblue" points="502.22,-105.976 493.828,-112.444 504.421,-112.621 502.22,-105.976"/>
</g>
<!-- Node16 -->
<g id="node16" class="node"><title>Node16</title>
<g id="a_node16"><a xlink:href="_i_plug_v_s_t3___processor_8h_source.html" target="_top" xlink:title="IPlugVST3_Processor.h">
<polygon fill="white" stroke="black" points="716,-56.5 716,-75.5 838,-75.5 838,-56.5 716,-56.5"/>
<text text-anchor="middle" x="777" y="-63.5" font-family="Helvetica,sans-Serif" font-size="10.00">IPlugVST3_Processor.h</text>
</a>
</g>
</g>
<!-- Node1&#45;&gt;Node16 -->
<g id="edge15" class="edge"><title>Node1&#45;&gt;Node16</title>
<path fill="none" stroke="midnightblue" d="M513.009,-113.134C570.35,-103.114 669.086,-85.8587 728.191,-75.5298"/>
<polygon fill="midnightblue" stroke="midnightblue" points="512.394,-109.689 503.145,-114.858 513.599,-116.584 512.394,-109.689"/>
</g>
<!-- Node18 -->
<g id="node18" class="node"><title>Node18</title>
<g id="a_node18"><a xlink:href="_i_plug_w_a_m_8h_source.html" target="_top" xlink:title="IPlugWAM.h">
<polygon fill="white" stroke="black" points="869,-56.5 869,-75.5 941,-75.5 941,-56.5 869,-56.5"/>
<text text-anchor="middle" x="905" y="-63.5" font-family="Helvetica,sans-Serif" font-size="10.00">IPlugWAM.h</text>
</a>
</g>
</g>
<!-- Node1&#45;&gt;Node18 -->
<g id="edge17" class="edge"><title>Node1&#45;&gt;Node18</title>
<path fill="none" stroke="midnightblue" d="M513.017,-116.182C584.075,-108.458 726.551,-92.4905 847,-76 854.067,-75.0325 861.606,-73.9211 868.83,-72.817"/>
<polygon fill="midnightblue" stroke="midnightblue" points="512.627,-112.704 503.062,-117.261 513.381,-119.663 512.627,-112.704"/>
</g>
<!-- Node20 -->
<g id="node20" class="node"><title>Node20</title>
<g id="a_node20"><a xlink:href="_i_plug_web_8h_source.html" target="_top" xlink:title="IPlugWeb.h">
<polygon fill="white" stroke="black" points="986,-56.5 986,-75.5 1054,-75.5 1054,-56.5 986,-56.5"/>
<text text-anchor="middle" x="1020" y="-63.5" font-family="Helvetica,sans-Serif" font-size="10.00">IPlugWeb.h</text>
</a>
</g>
</g>
<!-- Node1&#45;&gt;Node20 -->
<g id="edge19" class="edge"><title>Node1&#45;&gt;Node20</title>
<path fill="none" stroke="midnightblue" d="M513.251,-117.304C598.7,-110.207 789.625,-93.7908 950,-76 961.691,-74.7031 974.457,-73.1132 985.849,-71.6325"/>
<polygon fill="midnightblue" stroke="midnightblue" points="512.797,-113.829 503.12,-118.143 513.375,-120.805 512.797,-113.829"/>
</g>
<!-- Node3 -->
<g id="node3" class="node"><title>Node3</title>
<g id="a_node3"><a xlink:href="_i_plug_a_a_x_8cpp_source.html" target="_top" xlink:title="IPlugAAX.cpp">
<polygon fill="white" stroke="black" points="0,-0.5 0,-19.5 78,-19.5 78,-0.5 0,-0.5"/>
<text text-anchor="middle" x="39" y="-7.5" font-family="Helvetica,sans-Serif" font-size="10.00">IPlugAAX.cpp</text>
</a>
</g>
</g>
<!-- Node2&#45;&gt;Node3 -->
<g id="edge2" class="edge"><title>Node2&#45;&gt;Node3</title>
<path fill="none" stroke="midnightblue" d="M42.25,-46.1005C41.42,-37.1357 40.4683,-26.8579 39.8103,-19.7511"/>
<polygon fill="midnightblue" stroke="midnightblue" points="38.7672,-46.4483 43.1744,-56.083 45.7374,-45.8029 38.7672,-46.4483"/>
</g>
<!-- Node5 -->
<g id="node5" class="node"><title>Node5</title>
<g id="a_node5"><a xlink:href="_i_plug_a_p_p_8cpp_source.html" target="_top" xlink:title="IPlugAPP.cpp">
<polygon fill="white" stroke="black" points="96,-0.5 96,-19.5 174,-19.5 174,-0.5 96,-0.5"/>
<text text-anchor="middle" x="135" y="-7.5" font-family="Helvetica,sans-Serif" font-size="10.00">IPlugAPP.cpp</text>
</a>
</g>
</g>
<!-- Node4&#45;&gt;Node5 -->
<g id="edge4" class="edge"><title>Node4&#45;&gt;Node5</title>
<path fill="none" stroke="midnightblue" d="M138.25,-46.1005C137.42,-37.1357 136.468,-26.8579 135.81,-19.7511"/>
<polygon fill="midnightblue" stroke="midnightblue" points="134.767,-46.4483 139.174,-56.083 141.737,-45.8029 134.767,-46.4483"/>
</g>
<!-- Node7 -->
<g id="node7" class="node"><title>Node7</title>
<g id="a_node7"><a xlink:href="_i_plug_a_u_8cpp_source.html" target="_top" xlink:title="IPlugAU.cpp">
<polygon fill="white" stroke="black" points="192,-0.5 192,-19.5 264,-19.5 264,-0.5 192,-0.5"/>
<text text-anchor="middle" x="228" y="-7.5" font-family="Helvetica,sans-Serif" font-size="10.00">IPlugAU.cpp</text>
</a>
</g>
</g>
<!-- Node6&#45;&gt;Node7 -->
<g id="edge6" class="edge"><title>Node6&#45;&gt;Node7</title>
<path fill="none" stroke="midnightblue" d="M231.25,-46.1005C230.42,-37.1357 229.468,-26.8579 228.81,-19.7511"/>
<polygon fill="midnightblue" stroke="midnightblue" points="227.767,-46.4483 232.174,-56.083 234.737,-45.8029 227.767,-46.4483"/>
</g>
<!-- Node10 -->
<g id="node10" class="node"><title>Node10</title>
<g id="a_node10"><a xlink:href="_i_plug_reaper_8h_source.html" target="_top" xlink:title="IPlugReaper.h">
<polygon fill="white" stroke="black" points="282.5,-0.5 282.5,-19.5 361.5,-19.5 361.5,-0.5 282.5,-0.5"/>
<text text-anchor="middle" x="322" y="-7.5" font-family="Helvetica,sans-Serif" font-size="10.00">IPlugReaper.h</text>
</a>
</g>
</g>
<!-- Node9&#45;&gt;Node10 -->
<g id="edge9" class="edge"><title>Node9&#45;&gt;Node10</title>
<path fill="none" stroke="midnightblue" d="M396.912,-51.4526C378.451,-41.4835 353.903,-28.2279 338.027,-19.6545"/>
<polygon fill="midnightblue" stroke="midnightblue" points="395.471,-54.6521 405.933,-56.324 398.797,-48.4928 395.471,-54.6521"/>
</g>
<!-- Node11 -->
<g id="node11" class="node"><title>Node11</title>
<g id="a_node11"><a xlink:href="_i_plug_v_s_t2_8cpp_source.html" target="_top" xlink:title="IPlugVST2.cpp">
<polygon fill="white" stroke="black" points="379.5,-0.5 379.5,-19.5 462.5,-19.5 462.5,-0.5 379.5,-0.5"/>
<text text-anchor="middle" x="421" y="-7.5" font-family="Helvetica,sans-Serif" font-size="10.00">IPlugVST2.cpp</text>
</a>
</g>
</g>
<!-- Node9&#45;&gt;Node11 -->
<g id="edge10" class="edge"><title>Node9&#45;&gt;Node11</title>
<path fill="none" stroke="midnightblue" d="M421.645,-45.8045C421.48,-36.9102 421.292,-26.7798 421.162,-19.7511"/>
<polygon fill="midnightblue" stroke="midnightblue" points="418.15,-46.1495 421.835,-56.083 425.149,-46.0199 418.15,-46.1495"/>
</g>
<!-- Node13 -->
<g id="node13" class="node"><title>Node13</title>
<g id="a_node13"><a xlink:href="_i_plug_v_s_t3_8cpp_source.html" target="_top" xlink:title="IPlugVST3.cpp">
<polygon fill="white" stroke="black" points="480.5,-0.5 480.5,-19.5 563.5,-19.5 563.5,-0.5 480.5,-0.5"/>
<text text-anchor="middle" x="522" y="-7.5" font-family="Helvetica,sans-Serif" font-size="10.00">IPlugVST3.cpp</text>
</a>
</g>
</g>
<!-- Node12&#45;&gt;Node13 -->
<g id="edge12" class="edge"><title>Node12&#45;&gt;Node13</title>
<path fill="none" stroke="midnightblue" d="M516.8,-46.1005C518.128,-37.1357 519.651,-26.8579 520.704,-19.7511"/>
<polygon fill="midnightblue" stroke="midnightblue" points="513.324,-45.678 515.321,-56.083 520.249,-46.7039 513.324,-45.678"/>
</g>
<!-- Node15 -->
<g id="node15" class="node"><title>Node15</title>
<g id="a_node15"><a xlink:href="_i_plug_v_s_t3___controller_8cpp_source.html" target="_top" xlink:title="IPlugVST3_Controller.cpp">
<polygon fill="white" stroke="black" points="582,-0.5 582,-19.5 712,-19.5 712,-0.5 582,-0.5"/>
<text text-anchor="middle" x="647" y="-7.5" font-family="Helvetica,sans-Serif" font-size="10.00">IPlugVST3_Controller.cpp</text>
</a>
</g>
</g>
<!-- Node14&#45;&gt;Node15 -->
<g id="edge14" class="edge"><title>Node14&#45;&gt;Node15</title>
<path fill="none" stroke="midnightblue" d="M636.512,-46.3956C639.189,-37.362 642.278,-26.936 644.407,-19.7511"/>
<polygon fill="midnightblue" stroke="midnightblue" points="633.127,-45.5007 633.642,-56.083 639.839,-47.4893 633.127,-45.5007"/>
</g>
<!-- Node17 -->
<g id="node17" class="node"><title>Node17</title>
<g id="a_node17"><a xlink:href="_i_plug_v_s_t3___processor_8cpp_source.html" target="_top" xlink:title="IPlugVST3_Processor.cpp">
<polygon fill="white" stroke="black" points="730,-0.5 730,-19.5 862,-19.5 862,-0.5 730,-0.5"/>
<text text-anchor="middle" x="796" y="-7.5" font-family="Helvetica,sans-Serif" font-size="10.00">IPlugVST3_Processor.cpp</text>
</a>
</g>
</g>
<!-- Node16&#45;&gt;Node17 -->
<g id="edge16" class="edge"><title>Node16&#45;&gt;Node17</title>
<path fill="none" stroke="midnightblue" d="M783.546,-46.3956C786.724,-37.362 790.393,-26.936 792.921,-19.7511"/>
<polygon fill="midnightblue" stroke="midnightblue" points="780.155,-45.4882 780.137,-56.083 786.758,-47.8116 780.155,-45.4882"/>
</g>
<!-- Node19 -->
<g id="node19" class="node"><title>Node19</title>
<g id="a_node19"><a xlink:href="_i_plug_w_a_m_8cpp_source.html" target="_top" xlink:title="IPlugWAM.cpp">
<polygon fill="white" stroke="black" points="880.5,-0.5 880.5,-19.5 963.5,-19.5 963.5,-0.5 880.5,-0.5"/>
<text text-anchor="middle" x="922" y="-7.5" font-family="Helvetica,sans-Serif" font-size="10.00">IPlugWAM.cpp</text>
</a>
</g>
</g>
<!-- Node18&#45;&gt;Node19 -->
<g id="edge18" class="edge"><title>Node18&#45;&gt;Node19</title>
<path fill="none" stroke="midnightblue" d="M910.857,-46.3956C913.701,-37.362 916.983,-26.936 919.245,-19.7511"/>
<polygon fill="midnightblue" stroke="midnightblue" points="907.472,-45.4935 907.807,-56.083 914.149,-47.5955 907.472,-45.4935"/>
</g>
<!-- Node21 -->
<g id="node21" class="node"><title>Node21</title>
<g id="a_node21"><a xlink:href="_i_plug_web_8cpp_source.html" target="_top" xlink:title="IPlugWeb.cpp">
<polygon fill="white" stroke="black" points="982,-0.5 982,-19.5 1060,-19.5 1060,-0.5 982,-0.5"/>
<text text-anchor="middle" x="1021" y="-7.5" font-family="Helvetica,sans-Serif" font-size="10.00">IPlugWeb.cpp</text>
</a>
</g>
</g>
<!-- Node20&#45;&gt;Node21 -->
<g id="edge20" class="edge"><title>Node20&#45;&gt;Node21</title>
<path fill="none" stroke="midnightblue" d="M1020.36,-45.8045C1020.52,-36.9102 1020.71,-26.7798 1020.84,-19.7511"/>
<polygon fill="midnightblue" stroke="midnightblue" points="1016.85,-46.0199 1020.17,-56.083 1023.85,-46.1495 1016.85,-46.0199"/>
</g>
</g>
</svg>
