<?xml version="1.0" encoding="UTF-8" standalone="no"?>
<!DOCTYPE svg PUBLIC "-//W3C//DTD SVG 1.1//EN"
 "http://www.w3.org/Graphics/SVG/1.1/DTD/svg11.dtd">
<!-- Generated by graphviz version 2.36.0 (20140111.2315)
 -->
<!-- Title: IPlugProcessor.h Pages: 1 -->
<!--zoomable 196 -->
<svg id="main" version="1.1" xmlns="http://www.w3.org/2000/svg" xmlns:xlink="http://www.w3.org/1999/xlink" xml:space="preserve" onload="init(evt)">
<style type="text/css"><![CDATA[
.edge:hover path { stroke: red; }
.edge:hover polygon { stroke: red; fill: red; }
]]></style>
<script type="text/javascript"><![CDATA[
var edges = document.getElementsByTagName('g');
if (edges && edges.length) {
  for (var i=0;i<edges.length;i++) {
    if (edges[i].id.substr(0,4)=='edge') {
      edges[i].setAttribute('class','edge');
    }
  }
}
]]></script>
        <defs>
                <circle id="rim" cx="0" cy="0" r="7"/>
                <circle id="rim2" cx="0" cy="0" r="3.5"/>
                <g id="zoomPlus">
                        <use xlink:href="#rim" fill="#404040">
                                <set attributeName="fill" to="#808080" begin="zoomplus.mouseover" end="zoomplus.mouseout"/>
                        </use>
                        <path d="M-4,0h8M0,-4v8" fill="none" stroke="white" stroke-width="1.5" pointer-events="none"/>
                </g>
                <g id="zoomMin">
                        <use xlink:href="#rim" fill="#404040">
                                <set attributeName="fill" to="#808080" begin="zoomminus.mouseover" end="zoomminus.mouseout"/>
                        </use>
                        <path d="M-4,0h8" fill="none" stroke="white" stroke-width="1.5" pointer-events="none"/>
                </g>
                <g id="dirArrow">
                        <path fill="none" stroke="white" stroke-width="1.5" d="M0,-3.0v7 M-2.5,-0.5L0,-3.0L2.5,-0.5"/>
                </g>
               <g id="resetDef">
                       <use xlink:href="#rim2" fill="#404040">
                               <set attributeName="fill" to="#808080" begin="reset.mouseover" end="reset.mouseout"/>
                       </use>
               </g>
        </defs>

<script type="text/javascript">
var viewWidth = 1088;
var viewHeight = 196;
var sectionId = 'dynsection-0';
</script>
<script xlink:href="svgpan.js"/>
<svg id="graph" class="graph">
<g id="viewport">
<title>IPlugProcessor.h</title>
<polygon fill="white" stroke="none" points="-4,4 -4,-192 1084.09,-192 1084.09,4 -4,4"/>
<!-- Node1 -->
<g id="node1" class="node"><title>Node1</title>
<polygon fill="#bfbfbf" stroke="black" points="323.089,-168.5 323.089,-187.5 415.089,-187.5 415.089,-168.5 323.089,-168.5"/>
<text text-anchor="middle" x="369.089" y="-175.5" font-family="Helvetica,sans-Serif" font-size="10.00">IPlugProcessor.h</text>
</g>
<!-- Node2 -->
<g id="node2" class="node"><title>Node2</title>
<polygon fill="white" stroke="#bfbfbf" points="398.089,-0.5 398.089,-19.5 444.089,-19.5 444.089,-0.5 398.089,-0.5"/>
<text text-anchor="middle" x="421.089" y="-7.5" font-family="Helvetica,sans-Serif" font-size="10.00">cstring</text>
</g>
<!-- Node1&#45;&gt;Node2 -->
<g id="edge1" class="edge"><title>Node1&#45;&gt;Node2</title>
<path fill="none" stroke="midnightblue" d="M322.724,-175.947C210.827,-171.879 -58.6616,-152.102 27.0891,-56 50.9811,-29.2238 297.297,-16.2139 387.89,-12.3075"/>
<polygon fill="midnightblue" stroke="midnightblue" points="388.052,-15.8039 397.895,-11.886 387.757,-8.81013 388.052,-15.8039"/>
</g>
<!-- Node3 -->
<g id="node3" class="node"><title>Node3</title>
<polygon fill="white" stroke="#bfbfbf" points="30.0891,-0.5 30.0891,-19.5 76.0891,-19.5 76.0891,-0.5 30.0891,-0.5"/>
<text text-anchor="middle" x="53.0891" y="-7.5" font-family="Helvetica,sans-Serif" font-size="10.00">cstdint</text>
</g>
<!-- Node1&#45;&gt;Node3 -->
<g id="edge2" class="edge"><title>Node1&#45;&gt;Node3</title>
<path fill="none" stroke="midnightblue" d="M322.788,-177.73C237.448,-178.038 60.2017,-173.511 18.0891,-132 -6.09955,-108.157 -2.55121,-87.5247 10.0891,-56 14.7691,-44.328 24.0802,-33.9687 32.8447,-26.1405"/>
<polygon fill="midnightblue" stroke="midnightblue" points="35.1409,-28.7832 40.5916,-19.698 30.6649,-23.4011 35.1409,-28.7832"/>
</g>
<!-- Node4 -->
<g id="node4" class="node"><title>Node4</title>
<polygon fill="white" stroke="#bfbfbf" points="36.5891,-56.5 36.5891,-75.5 85.5891,-75.5 85.5891,-56.5 36.5891,-56.5"/>
<text text-anchor="middle" x="61.0891" y="-63.5" font-family="Helvetica,sans-Serif" font-size="10.00">ptrlist.h</text>
</g>
<!-- Node1&#45;&gt;Node4 -->
<g id="edge3" class="edge"><title>Node1&#45;&gt;Node4</title>
<path fill="none" stroke="midnightblue" d="M345.177,-168.46C290.707,-149.006 157.284,-101.355 94.6241,-78.9768"/>
<polygon fill="midnightblue" stroke="midnightblue" points="95.7928,-75.6777 85.1981,-75.6104 93.4384,-82.2699 95.7928,-75.6777"/>
</g>
<!-- Node5 -->
<g id="node5" class="node"><title>Node5</title>
<g id="a_node5"><a xlink:href="_i_plug_platform_8h.html" target="_top" xlink:title="Include to get consistently named preprocessor macros for different platforms and logging functionali...">
<polygon fill="white" stroke="black" points="379.089,-56.5 379.089,-75.5 463.089,-75.5 463.089,-56.5 379.089,-56.5"/>
<text text-anchor="middle" x="421.089" y="-63.5" font-family="Helvetica,sans-Serif" font-size="10.00">IPlugPlatform.h</text>
</a>
</g>
</g>
<!-- Node1&#45;&gt;Node5 -->
<g id="edge4" class="edge"><title>Node1&#45;&gt;Node5</title>
<path fill="none" stroke="midnightblue" d="M373.169,-168.368C381.637,-150.456 401.271,-108.923 412.604,-84.9482"/>
<polygon fill="midnightblue" stroke="midnightblue" points="415.918,-86.128 417.028,-75.5914 409.59,-83.1363 415.918,-86.128"/>
</g>
<!-- Node7 -->
<g id="node7" class="node"><title>Node7</title>
<g id="a_node7"><a xlink:href="_i_plug_constants_8h.html" target="_top" xlink:title="Constant definitions, Types, magic numbers. ">
<polygon fill="white" stroke="black" points="187.089,-56.5 187.089,-75.5 279.089,-75.5 279.089,-56.5 187.089,-56.5"/>
<text text-anchor="middle" x="233.089" y="-63.5" font-family="Helvetica,sans-Serif" font-size="10.00">IPlugConstants.h</text>
</a>
</g>
</g>
<!-- Node1&#45;&gt;Node7 -->
<g id="edge7" class="edge"><title>Node1&#45;&gt;Node7</title>
<path fill="none" stroke="midnightblue" d="M344.954,-168.459C325.922,-160.907 299.45,-148.522 280.089,-132 264.253,-118.486 250.884,-98.5883 242.501,-84.3718"/>
<polygon fill="midnightblue" stroke="midnightblue" points="245.499,-82.5625 237.526,-75.5856 239.408,-86.0119 245.499,-82.5625"/>
</g>
<!-- Node8 -->
<g id="node8" class="node"><title>Node8</title>
<g id="a_node8"><a xlink:href="_i_plug_structs_8h_source.html" target="_top" xlink:title="IPlugStructs.h">
<polygon fill="white" stroke="black" points="289.589,-112.5 289.589,-131.5 368.589,-131.5 368.589,-112.5 289.589,-112.5"/>
<text text-anchor="middle" x="329.089" y="-119.5" font-family="Helvetica,sans-Serif" font-size="10.00">IPlugStructs.h</text>
</a>
</g>
</g>
<!-- Node1&#45;&gt;Node8 -->
<g id="edge8" class="edge"><title>Node1&#45;&gt;Node8</title>
<path fill="none" stroke="midnightblue" d="M362.484,-168.083C356.834,-160.455 348.544,-149.264 341.638,-139.941"/>
<polygon fill="midnightblue" stroke="midnightblue" points="344.336,-137.703 335.571,-131.751 338.711,-141.87 344.336,-137.703"/>
</g>
<!-- Node13 -->
<g id="node13" class="node"><title>Node13</title>
<g id="a_node13"><a xlink:href="_i_plug_utilities_8h.html" target="_top" xlink:title="Utility functions and macros. ">
<polygon fill="white" stroke="black" points="469.089,-112.5 469.089,-131.5 549.089,-131.5 549.089,-112.5 469.089,-112.5"/>
<text text-anchor="middle" x="509.089" y="-119.5" font-family="Helvetica,sans-Serif" font-size="10.00">IPlugUtilities.h</text>
</a>
</g>
</g>
<!-- Node1&#45;&gt;Node13 -->
<g id="edge17" class="edge"><title>Node1&#45;&gt;Node13</title>
<path fill="none" stroke="midnightblue" d="M391.272,-168.444C414.518,-159.478 451.238,-145.314 477.504,-135.183"/>
<polygon fill="midnightblue" stroke="midnightblue" points="478.939,-138.381 487.009,-131.516 476.42,-131.85 478.939,-138.381"/>
</g>
<!-- Node17 -->
<g id="node17" class="node"><title>Node17</title>
<polygon fill="white" stroke="#bfbfbf" points="567.589,-112.5 567.589,-131.5 648.589,-131.5 648.589,-112.5 567.589,-112.5"/>
<text text-anchor="middle" x="608.089" y="-119.5" font-family="Helvetica,sans-Serif" font-size="10.00">NChanDelay.h</text>
</g>
<!-- Node1&#45;&gt;Node17 -->
<g id="edge27" class="edge"><title>Node1&#45;&gt;Node17</title>
<path fill="none" stroke="midnightblue" d="M406.959,-168.444C448.565,-159.043 515.458,-143.929 560.558,-133.739"/>
<polygon fill="midnightblue" stroke="midnightblue" points="561.413,-137.134 570.396,-131.516 559.87,-130.306 561.413,-137.134"/>
</g>
<!-- Node18 -->
<g id="node18" class="node"><title>Node18</title>
<g id="a_node18"><a xlink:href="_i_plug_processor_8cpp_source.html" target="_top" xlink:title="IPlugProcessor.cpp">
<polygon fill="white" stroke="black" points="767.089,-112.5 767.089,-131.5 869.089,-131.5 869.089,-112.5 767.089,-112.5"/>
<text text-anchor="middle" x="818.089" y="-119.5" font-family="Helvetica,sans-Serif" font-size="10.00">IPlugProcessor.cpp</text>
</a>
</g>
</g>
<!-- Node1&#45;&gt;Node18 -->
<g id="edge28" class="edge"><title>Node1&#45;&gt;Node18</title>
<path fill="none" stroke="midnightblue" d="M415.259,-170.91C496.748,-160.752 665.764,-140.416 756.865,-129.802"/>
<polygon fill="midnightblue" stroke="midnightblue" points="757.512,-133.251 767.041,-128.62 756.704,-126.298 757.512,-133.251"/>
</g>
<!-- Node5&#45;&gt;Node2 -->
<g id="edge5" class="edge"><title>Node5&#45;&gt;Node2</title>
<path fill="none" stroke="midnightblue" d="M421.089,-56.083C421.089,-49.0059 421.089,-38.8611 421.089,-29.9865"/>
<polygon fill="midnightblue" stroke="midnightblue" points="424.589,-29.751 421.089,-19.7511 417.589,-29.7511 424.589,-29.751"/>
</g>
<!-- Node6 -->
<g id="node6" class="node"><title>Node6</title>
<polygon fill="white" stroke="#bfbfbf" points="553.589,-0.5 553.589,-19.5 598.589,-19.5 598.589,-0.5 553.589,-0.5"/>
<text text-anchor="middle" x="576.089" y="-7.5" font-family="Helvetica,sans-Serif" font-size="10.00">cstdlib</text>
</g>
<!-- Node5&#45;&gt;Node6 -->
<g id="edge6" class="edge"><title>Node5&#45;&gt;Node6</title>
<path fill="none" stroke="midnightblue" d="M445.649,-56.4435C472.07,-47.239 514.214,-32.5565 543.417,-22.3826"/>
<polygon fill="midnightblue" stroke="midnightblue" points="544.868,-25.5835 553.16,-18.9883 542.565,-18.9731 544.868,-25.5835"/>
</g>
<!-- Node8&#45;&gt;Node4 -->
<g id="edge11" class="edge"><title>Node8&#45;&gt;Node4</title>
<path fill="none" stroke="midnightblue" d="M289.393,-114.361C244.525,-106.644 169.11,-93.036 95.7668,-76.2655"/>
<polygon fill="midnightblue" stroke="midnightblue" points="96.4345,-72.8276 85.9033,-73.9877 94.8594,-79.6481 96.4345,-72.8276"/>
</g>
<!-- Node8&#45;&gt;Node5 -->
<g id="edge13" class="edge"><title>Node8&#45;&gt;Node5</title>
<path fill="none" stroke="midnightblue" d="M343.87,-112.324C358.356,-103.822 380.662,-90.7288 397.582,-80.7975"/>
<polygon fill="midnightblue" stroke="midnightblue" points="399.492,-83.735 406.344,-75.6545 395.948,-77.6981 399.492,-83.735"/>
</g>
<!-- Node8&#45;&gt;Node7 -->
<g id="edge12" class="edge"><title>Node8&#45;&gt;Node7</title>
<path fill="none" stroke="midnightblue" d="M313.665,-112.324C298.55,-103.822 275.274,-90.7288 257.618,-80.7975"/>
<polygon fill="midnightblue" stroke="midnightblue" points="258.907,-77.5066 248.475,-75.6545 255.475,-83.6077 258.907,-77.5066"/>
</g>
<!-- Node9 -->
<g id="node9" class="node"><title>Node9</title>
<polygon fill="white" stroke="#bfbfbf" points="481.089,-56.5 481.089,-75.5 537.089,-75.5 537.089,-56.5 481.089,-56.5"/>
<text text-anchor="middle" x="509.089" y="-63.5" font-family="Helvetica,sans-Serif" font-size="10.00">algorithm</text>
</g>
<!-- Node8&#45;&gt;Node9 -->
<g id="edge9" class="edge"><title>Node8&#45;&gt;Node9</title>
<path fill="none" stroke="midnightblue" d="M357.611,-112.444C388.245,-103.253 437.083,-88.6017 470.99,-78.4296"/>
<polygon fill="midnightblue" stroke="midnightblue" points="472.425,-81.6535 480.997,-75.4275 470.413,-74.9487 472.425,-81.6535"/>
</g>
<!-- Node10 -->
<g id="node10" class="node"><title>Node10</title>
<polygon fill="white" stroke="#bfbfbf" points="297.089,-56.5 297.089,-75.5 361.089,-75.5 361.089,-56.5 297.089,-56.5"/>
<text text-anchor="middle" x="329.089" y="-63.5" font-family="Helvetica,sans-Serif" font-size="10.00">wdlstring.h</text>
</g>
<!-- Node8&#45;&gt;Node10 -->
<g id="edge10" class="edge"><title>Node8&#45;&gt;Node10</title>
<path fill="none" stroke="midnightblue" d="M329.089,-112.083C329.089,-105.006 329.089,-94.8611 329.089,-85.9865"/>
<polygon fill="midnightblue" stroke="midnightblue" points="332.589,-85.751 329.089,-75.7511 325.589,-85.7511 332.589,-85.751"/>
</g>
<!-- Node11 -->
<g id="node11" class="node"><title>Node11</title>
<g id="a_node11"><a xlink:href="_i_plug_midi_8h_source.html" target="_top" xlink:title="IPlugMidi.h">
<polygon fill="white" stroke="black" points="103.589,-56.5 103.589,-75.5 168.589,-75.5 168.589,-56.5 103.589,-56.5"/>
<text text-anchor="middle" x="136.089" y="-63.5" font-family="Helvetica,sans-Serif" font-size="10.00">IPlugMidi.h</text>
</a>
</g>
</g>
<!-- Node8&#45;&gt;Node11 -->
<g id="edge14" class="edge"><title>Node8&#45;&gt;Node11</title>
<path fill="none" stroke="midnightblue" d="M298.508,-112.444C265.475,-103.201 212.701,-88.4356 176.323,-78.2572"/>
<polygon fill="midnightblue" stroke="midnightblue" points="177.101,-74.8404 166.527,-75.5164 175.214,-81.5815 177.101,-74.8404"/>
</g>
<!-- Node11&#45;&gt;Node3 -->
<g id="edge16" class="edge"><title>Node11&#45;&gt;Node3</title>
<path fill="none" stroke="midnightblue" d="M122.754,-56.324C109.927,-47.979 90.3041,-35.2122 75.1492,-25.3524"/>
<polygon fill="midnightblue" stroke="midnightblue" points="76.6822,-22.1742 66.3913,-19.6545 72.8648,-28.0417 76.6822,-22.1742"/>
</g>
<!-- Node12 -->
<g id="node12" class="node"><title>Node12</title>
<polygon fill="white" stroke="#bfbfbf" points="757.589,-0.5 757.589,-19.5 806.589,-19.5 806.589,-0.5 757.589,-0.5"/>
<text text-anchor="middle" x="782.089" y="-7.5" font-family="Helvetica,sans-Serif" font-size="10.00">cassert</text>
</g>
<!-- Node11&#45;&gt;Node12 -->
<g id="edge15" class="edge"><title>Node11&#45;&gt;Node12</title>
<path fill="none" stroke="midnightblue" d="M169.027,-57.4967C172.081,-56.9357 175.137,-56.4243 178.089,-56 289.38,-40.0067 636.22,-19.3316 747.413,-12.9572"/>
<polygon fill="midnightblue" stroke="midnightblue" points="747.638,-16.4501 757.422,-12.3856 747.238,-9.46154 747.638,-16.4501"/>
</g>
<!-- Node13&#45;&gt;Node2 -->
<g id="edge22" class="edge"><title>Node13&#45;&gt;Node2</title>
<path fill="none" stroke="midnightblue" d="M520.248,-112.243C535.204,-99.4247 558.416,-75.0143 545.089,-56 524.778,-27.0212 483.808,-16.6307 454.519,-12.9465"/>
<polygon fill="midnightblue" stroke="midnightblue" points="454.629,-9.4388 444.317,-11.8707 453.895,-16.4002 454.629,-9.4388"/>
</g>
<!-- Node13&#45;&gt;Node5 -->
<g id="edge26" class="edge"><title>Node13&#45;&gt;Node5</title>
<path fill="none" stroke="midnightblue" d="M494.95,-112.324C481.223,-103.9 460.153,-90.9709 444.025,-81.0741"/>
<polygon fill="midnightblue" stroke="midnightblue" points="445.547,-77.9016 435.193,-75.6545 441.885,-83.8678 445.547,-77.9016"/>
</g>
<!-- Node13&#45;&gt;Node6 -->
<g id="edge21" class="edge"><title>Node13&#45;&gt;Node6</title>
<path fill="none" stroke="midnightblue" d="M549.421,-113.39C586.117,-105.548 636.302,-92.2051 648.089,-76 663.44,-54.8951 633.822,-35.5229 608.053,-23.5194"/>
<polygon fill="midnightblue" stroke="midnightblue" points="609.385,-20.2816 598.823,-19.4408 606.555,-26.6843 609.385,-20.2816"/>
</g>
<!-- Node13&#45;&gt;Node7 -->
<g id="edge25" class="edge"><title>Node13&#45;&gt;Node7</title>
<path fill="none" stroke="midnightblue" d="M468.956,-113.148C420.921,-103.75 340.29,-87.9742 286.889,-77.5261"/>
<polygon fill="midnightblue" stroke="midnightblue" points="287.406,-74.0609 276.92,-75.5756 286.062,-80.9306 287.406,-74.0609"/>
</g>
<!-- Node13&#45;&gt;Node9 -->
<g id="edge18" class="edge"><title>Node13&#45;&gt;Node9</title>
<path fill="none" stroke="midnightblue" d="M509.089,-112.083C509.089,-105.006 509.089,-94.8611 509.089,-85.9865"/>
<polygon fill="midnightblue" stroke="midnightblue" points="512.589,-85.751 509.089,-75.7511 505.589,-85.7511 512.589,-85.751"/>
</g>
<!-- Node13&#45;&gt;Node10 -->
<g id="edge24" class="edge"><title>Node13&#45;&gt;Node10</title>
<path fill="none" stroke="midnightblue" d="M480.568,-112.444C450.023,-103.28 401.381,-88.6876 367.486,-78.5192"/>
<polygon fill="midnightblue" stroke="midnightblue" points="368.061,-75.0376 357.477,-75.5164 366.05,-81.7424 368.061,-75.0376"/>
</g>
<!-- Node14 -->
<g id="node14" class="node"><title>Node14</title>
<polygon fill="white" stroke="#bfbfbf" points="695.089,-56.5 695.089,-75.5 739.089,-75.5 739.089,-56.5 695.089,-56.5"/>
<text text-anchor="middle" x="717.089" y="-63.5" font-family="Helvetica,sans-Serif" font-size="10.00">cmath</text>
</g>
<!-- Node13&#45;&gt;Node14 -->
<g id="edge19" class="edge"><title>Node13&#45;&gt;Node14</title>
<path fill="none" stroke="midnightblue" d="M542.047,-112.444C581.27,-102.261 646.316,-85.3737 685.105,-75.3035"/>
<polygon fill="midnightblue" stroke="midnightblue" points="686.038,-78.6774 694.838,-72.7767 684.279,-71.902 686.038,-78.6774"/>
</g>
<!-- Node15 -->
<g id="node15" class="node"><title>Node15</title>
<polygon fill="white" stroke="#bfbfbf" points="757.589,-56.5 757.589,-75.5 800.589,-75.5 800.589,-56.5 757.589,-56.5"/>
<text text-anchor="middle" x="779.089" y="-63.5" font-family="Helvetica,sans-Serif" font-size="10.00">cstdio</text>
</g>
<!-- Node13&#45;&gt;Node15 -->
<g id="edge20" class="edge"><title>Node13&#45;&gt;Node15</title>
<path fill="none" stroke="midnightblue" d="M549.231,-113.608C611.982,-102.024 728.129,-80.4497 747.089,-76 747.3,-75.9506 747.511,-75.9006 747.723,-75.8502"/>
<polygon fill="midnightblue" stroke="midnightblue" points="748.646,-79.2269 757.467,-73.3573 746.911,-72.4453 748.646,-79.2269"/>
</g>
<!-- Node16 -->
<g id="node16" class="node"><title>Node16</title>
<polygon fill="white" stroke="#bfbfbf" points="593.089,-56.5 593.089,-75.5 639.089,-75.5 639.089,-56.5 593.089,-56.5"/>
<text text-anchor="middle" x="616.089" y="-63.5" font-family="Helvetica,sans-Serif" font-size="10.00">cctype</text>
</g>
<!-- Node13&#45;&gt;Node16 -->
<g id="edge23" class="edge"><title>Node13&#45;&gt;Node16</title>
<path fill="none" stroke="midnightblue" d="M526.28,-112.324C543.44,-103.664 570.035,-90.2424 589.836,-80.249"/>
<polygon fill="midnightblue" stroke="midnightblue" points="591.59,-83.2847 598.94,-75.6545 588.436,-77.0354 591.59,-83.2847"/>
</g>
<!-- Node18&#45;&gt;Node1 -->
<g id="edge35" class="edge"><title>Node18&#45;&gt;Node1</title>
<path fill="none" stroke="midnightblue" d="M767.067,-129.694C682.386,-140.222 513.695,-160.505 425.556,-170.751"/>
<polygon fill="midnightblue" stroke="midnightblue" points="425.006,-167.291 415.476,-171.92 425.813,-174.245 425.006,-167.291"/>
</g>
<!-- Node18&#45;&gt;Node12 -->
<g id="edge32" class="edge"><title>Node18&#45;&gt;Node12</title>
<path fill="none" stroke="midnightblue" d="M847.682,-112.477C879.158,-101.845 922.121,-81.8712 904.089,-56 884.544,-27.9587 845.444,-17.3458 816.756,-13.3545"/>
<polygon fill="midnightblue" stroke="midnightblue" points="817.056,-9.86566 806.713,-12.1636 816.232,-16.817 817.056,-9.86566"/>
</g>
<!-- Node18&#45;&gt;Node14 -->
<g id="edge29" class="edge"><title>Node18&#45;&gt;Node14</title>
<path fill="none" stroke="midnightblue" d="M801.862,-112.324C785.738,-103.703 760.789,-90.3643 742.125,-80.3855"/>
<polygon fill="midnightblue" stroke="midnightblue" points="743.745,-77.283 733.276,-75.6545 740.445,-83.456 743.745,-77.283"/>
</g>
<!-- Node18&#45;&gt;Node15 -->
<g id="edge30" class="edge"><title>Node18&#45;&gt;Node15</title>
<path fill="none" stroke="midnightblue" d="M811.649,-112.083C806.14,-104.455 798.058,-93.2645 791.324,-83.9408"/>
<polygon fill="midnightblue" stroke="midnightblue" points="794.102,-81.8087 785.409,-75.7511 788.427,-85.9071 794.102,-81.8087"/>
</g>
<!-- Node19 -->
<g id="node19" class="node"><title>Node19</title>
<polygon fill="white" stroke="#bfbfbf" points="952.589,-56.5 952.589,-75.5 993.589,-75.5 993.589,-56.5 952.589,-56.5"/>
<text text-anchor="middle" x="973.089" y="-63.5" font-family="Helvetica,sans-Serif" font-size="10.00">ctime</text>
</g>
<!-- Node18&#45;&gt;Node19 -->
<g id="edge31" class="edge"><title>Node18&#45;&gt;Node19</title>
<path fill="none" stroke="midnightblue" d="M842.649,-112.444C869.681,-103.026 913.171,-87.8746 942.421,-77.6842"/>
<polygon fill="midnightblue" stroke="midnightblue" points="943.832,-80.8993 952.123,-74.3042 941.529,-74.289 943.832,-80.8993"/>
</g>
<!-- Node20 -->
<g id="node20" class="node"><title>Node20</title>
<polygon fill="white" stroke="#bfbfbf" points="1012.09,-56.5 1012.09,-75.5 1080.09,-75.5 1080.09,-56.5 1012.09,-56.5"/>
<text text-anchor="middle" x="1046.09" y="-63.5" font-family="Helvetica,sans-Serif" font-size="10.00">wdlendian.h</text>
</g>
<!-- Node18&#45;&gt;Node20 -->
<g id="edge33" class="edge"><title>Node18&#45;&gt;Node20</title>
<path fill="none" stroke="midnightblue" d="M854.216,-112.444C894.321,-102.945 959.057,-87.6129 1002.09,-77.4217"/>
<polygon fill="midnightblue" stroke="midnightblue" points="1003.07,-80.786 1011.99,-75.0755 1001.46,-73.9744 1003.07,-80.786"/>
</g>
<!-- Node21 -->
<g id="node21" class="node"><title>Node21</title>
<polygon fill="white" stroke="#bfbfbf" points="818.589,-56.5 818.589,-75.5 895.589,-75.5 895.589,-56.5 818.589,-56.5"/>
<text text-anchor="middle" x="857.089" y="-63.5" font-family="Helvetica,sans-Serif" font-size="10.00">wdl_base64.h</text>
</g>
<!-- Node18&#45;&gt;Node21 -->
<g id="edge34" class="edge"><title>Node18&#45;&gt;Node21</title>
<path fill="none" stroke="midnightblue" d="M824.529,-112.083C830.038,-104.455 838.12,-93.2645 844.854,-83.9408"/>
<polygon fill="midnightblue" stroke="midnightblue" points="847.751,-85.9071 850.769,-75.7511 842.076,-81.8087 847.751,-85.9071"/>
</g>
</g>
</svg>
        <g id="navigator" transform="translate(0 0)" fill="#404254">
                <rect fill="#f2f5e9" fill-opacity="0.5" stroke="#606060" stroke-width=".5" x="0" y="0" width="60" height="60"/>
                <use id="zoomplus" xlink:href="#zoomPlus" x="17" y="9" onmousedown="handleZoom(evt,'in')"/>
                <use id="zoomminus" xlink:href="#zoomMin" x="42" y="9" onmousedown="handleZoom(evt,'out')"/>
                <use id="reset" xlink:href="#resetDef" x="30" y="36" onmousedown="handleReset()"/>
                <g id="arrowUp" xlink:href="#dirArrow" transform="translate(30 24)" onmousedown="handlePan(0,-1)">
                  <use xlink:href="#rim" fill="#404040">
                        <set attributeName="fill" to="#808080" begin="arrowUp.mouseover" end="arrowUp.mouseout"/>
                  </use>
                  <path fill="none" stroke="white" stroke-width="1.5" d="M0,-3.0v7 M-2.5,-0.5L0,-3.0L2.5,-0.5"/>
                </g>
                <g id="arrowRight" xlink:href="#dirArrow" transform="rotate(90) translate(36 -43)" onmousedown="handlePan(1,0)">
                  <use xlink:href="#rim" fill="#404040">
                        <set attributeName="fill" to="#808080" begin="arrowRight.mouseover" end="arrowRight.mouseout"/>
                  </use>
                  <path fill="none" stroke="white" stroke-width="1.5" d="M0,-3.0v7 M-2.5,-0.5L0,-3.0L2.5,-0.5"/>
                </g>
                <g id="arrowDown" xlink:href="#dirArrow" transform="rotate(180) translate(-30 -48)" onmousedown="handlePan(0,1)">
                  <use xlink:href="#rim" fill="#404040">
                        <set attributeName="fill" to="#808080" begin="arrowDown.mouseover" end="arrowDown.mouseout"/>
                  </use>
                  <path fill="none" stroke="white" stroke-width="1.5" d="M0,-3.0v7 M-2.5,-0.5L0,-3.0L2.5,-0.5"/>
                </g>
                <g id="arrowLeft" xlink:href="#dirArrow" transform="rotate(270) translate(-36 17)" onmousedown="handlePan(-1,0)">
                  <use xlink:href="#rim" fill="#404040">
                        <set attributeName="fill" to="#808080" begin="arrowLeft.mouseover" end="arrowLeft.mouseout"/>
                  </use>
                  <path fill="none" stroke="white" stroke-width="1.5" d="M0,-3.0v7 M-2.5,-0.5L0,-3.0L2.5,-0.5"/>
                </g>
        </g>
        <svg viewBox="0 0 15 15" width="100%" height="30px" preserveAspectRatio="xMaxYMin meet">
         <g id="arrow_out" transform="scale(0.3 0.3)">
          <a xlink:href="_i_plug_processor_8h__incl_org.svg" target="_base">
           <rect id="button" ry="5" rx="5" y="6" x="6" height="38" width="38"
                fill="#f2f5e9" fill-opacity="0.5" stroke="#606060" stroke-width="1.0"/>
           <path id="arrow"
             d="M 11.500037,31.436501 C 11.940474,20.09759 22.043105,11.32322 32.158766,21.979434 L 37.068811,17.246167 C 37.068811,17.246167 37.088388,32 37.088388,32 L 22.160133,31.978069 C 22.160133,31.978069 26.997745,27.140456 26.997745,27.140456 C 18.528582,18.264221 13.291696,25.230495 11.500037,31.436501 z"
             style="fill:#404040;"/>
          </a>
         </g>
        </svg>
</svg>
