<?xml version="1.0" encoding="UTF-8" standalone="no"?>
<!DOCTYPE svg PUBLIC "-//W3C//DTD SVG 1.1//EN"
 "http://www.w3.org/Graphics/SVG/1.1/DTD/svg11.dtd">
<!-- Generated by graphviz version 2.36.0 (20140111.2315)
 -->
<!-- Title: IPlugVST2.h Pages: 1 -->
<svg width="187pt" height="84pt"
 viewBox="0.00 0.00 187.00 84.00" xmlns="http://www.w3.org/2000/svg" xmlns:xlink="http://www.w3.org/1999/xlink">
<g id="graph0" class="graph" transform="scale(1 1) rotate(0) translate(4 80)">
<title>IPlugVST2.h</title>
<polygon fill="white" stroke="none" points="-4,4 -4,-80 183,-80 183,4 -4,4"/>
<!-- Node1 -->
<g id="node1" class="node"><title>Node1</title>
<polygon fill="#bfbfbf" stroke="black" points="52,-56.5 52,-75.5 124,-75.5 124,-56.5 52,-56.5"/>
<text text-anchor="middle" x="88" y="-63.5" font-family="Helvetica,sans-Serif" font-size="10.00">IPlugVST2.h</text>
</g>
<!-- Node2 -->
<g id="node2" class="node"><title>Node2</title>
<g id="a_node2"><a xlink:href="_i_plug_reaper_8h_source.html" target="_top" xlink:title="IPlugReaper.h">
<polygon fill="white" stroke="black" points="-0.5,-0.5 -0.5,-19.5 78.5,-19.5 78.5,-0.5 -0.5,-0.5"/>
<text text-anchor="middle" x="39" y="-7.5" font-family="Helvetica,sans-Serif" font-size="10.00">IPlugReaper.h</text>
</a>
</g>
</g>
<!-- Node1&#45;&gt;Node2 -->
<g id="edge1" class="edge"><title>Node1&#45;&gt;Node2</title>
<path fill="none" stroke="midnightblue" d="M72.9655,-48.4314C64.3778,-38.9673 53.9565,-27.4827 46.9408,-19.7511"/>
<polygon fill="midnightblue" stroke="midnightblue" points="70.5967,-51.0293 79.9086,-56.083 75.7807,-46.3254 70.5967,-51.0293"/>
</g>
<!-- Node3 -->
<g id="node3" class="node"><title>Node3</title>
<g id="a_node3"><a xlink:href="_i_plug_v_s_t2_8cpp_source.html" target="_top" xlink:title="IPlugVST2.cpp">
<polygon fill="white" stroke="black" points="96.5,-0.5 96.5,-19.5 179.5,-19.5 179.5,-0.5 96.5,-0.5"/>
<text text-anchor="middle" x="138" y="-7.5" font-family="Helvetica,sans-Serif" font-size="10.00">IPlugVST2.cpp</text>
</a>
</g>
</g>
<!-- Node1&#45;&gt;Node3 -->
<g id="edge2" class="edge"><title>Node1&#45;&gt;Node3</title>
<path fill="none" stroke="midnightblue" d="M103.076,-48.7175C111.889,-39.1997 122.666,-27.5608 129.897,-19.7511"/>
<polygon fill="midnightblue" stroke="midnightblue" points="100.482,-46.3674 96.2565,-56.083 105.619,-51.1233 100.482,-46.3674"/>
</g>
</g>
</svg>
