<?xml version="1.0" encoding="UTF-8" standalone="no"?>
<!DOCTYPE svg PUBLIC "-//W3C//DTD SVG 1.1//EN"
 "http://www.w3.org/Graphics/SVG/1.1/DTD/svg11.dtd">
<!-- Generated by graphviz version 2.36.0 (20140111.2315)
 -->
<!-- Title: IPlugBase.h Pages: 1 -->
<!--zoomable 420 -->
<svg id="main" version="1.1" xmlns="http://www.w3.org/2000/svg" xmlns:xlink="http://www.w3.org/1999/xlink" xml:space="preserve" onload="init(evt)">
<style type="text/css"><![CDATA[
.edge:hover path { stroke: red; }
.edge:hover polygon { stroke: red; fill: red; }
]]></style>
<script type="text/javascript"><![CDATA[
var edges = document.getElementsByTagName('g');
if (edges && edges.length) {
  for (var i=0;i<edges.length;i++) {
    if (edges[i].id.substr(0,4)=='edge') {
      edges[i].setAttribute('class','edge');
    }
  }
}
]]></script>
        <defs>
                <circle id="rim" cx="0" cy="0" r="7"/>
                <circle id="rim2" cx="0" cy="0" r="3.5"/>
                <g id="zoomPlus">
                        <use xlink:href="#rim" fill="#404040">
                                <set attributeName="fill" to="#808080" begin="zoomplus.mouseover" end="zoomplus.mouseout"/>
                        </use>
                        <path d="M-4,0h8M0,-4v8" fill="none" stroke="white" stroke-width="1.5" pointer-events="none"/>
                </g>
                <g id="zoomMin">
                        <use xlink:href="#rim" fill="#404040">
                                <set attributeName="fill" to="#808080" begin="zoomminus.mouseover" end="zoomminus.mouseout"/>
                        </use>
                        <path d="M-4,0h8" fill="none" stroke="white" stroke-width="1.5" pointer-events="none"/>
                </g>
                <g id="dirArrow">
                        <path fill="none" stroke="white" stroke-width="1.5" d="M0,-3.0v7 M-2.5,-0.5L0,-3.0L2.5,-0.5"/>
                </g>
               <g id="resetDef">
                       <use xlink:href="#rim2" fill="#404040">
                               <set attributeName="fill" to="#808080" begin="reset.mouseover" end="reset.mouseout"/>
                       </use>
               </g>
        </defs>

<script type="text/javascript">
var viewWidth = 1276;
var viewHeight = 420;
var sectionId = 'dynsection-0';
</script>
<script xlink:href="svgpan.js"/>
<svg id="graph" class="graph">
<g id="viewport">
<title>IPlugBase.h</title>
<polygon fill="white" stroke="none" points="-4,4 -4,-416 1272,-416 1272,4 -4,4"/>
<!-- Node1 -->
<g id="node1" class="node"><title>Node1</title>
<polygon fill="#bfbfbf" stroke="black" points="839,-392.5 839,-411.5 909,-411.5 909,-392.5 839,-392.5"/>
<text text-anchor="middle" x="874" y="-399.5" font-family="Helvetica,sans-Serif" font-size="10.00">IPlugBase.h</text>
</g>
<!-- Node2 -->
<g id="node2" class="node"><title>Node2</title>
<polygon fill="white" stroke="#bfbfbf" points="415,-0.5 415,-19.5 461,-19.5 461,-0.5 415,-0.5"/>
<text text-anchor="middle" x="438" y="-7.5" font-family="Helvetica,sans-Serif" font-size="10.00">cstring</text>
</g>
<!-- Node1&#45;&gt;Node2 -->
<g id="edge1" class="edge"><title>Node1&#45;&gt;Node2</title>
<path fill="none" stroke="midnightblue" d="M838.928,-400.342C675.895,-396.828 0,-377.073 0,-291 0,-291 0,-291 0,-121 0,-37.6098 302.426,-16.8533 404.679,-12.2186"/>
<polygon fill="midnightblue" stroke="midnightblue" points="404.92,-15.7115 414.76,-11.785 404.619,-8.71797 404.92,-15.7115"/>
</g>
<!-- Node3 -->
<g id="node3" class="node"><title>Node3</title>
<polygon fill="white" stroke="#bfbfbf" points="288,-112.5 288,-131.5 334,-131.5 334,-112.5 288,-112.5"/>
<text text-anchor="middle" x="311" y="-119.5" font-family="Helvetica,sans-Serif" font-size="10.00">cstdint</text>
</g>
<!-- Node1&#45;&gt;Node3 -->
<g id="edge2" class="edge"><title>Node1&#45;&gt;Node3</title>
<path fill="none" stroke="midnightblue" d="M840.637,-392.48C811.977,-384.628 769.885,-371.813 735,-356 725.719,-351.793 429.109,-172.568 420,-168 395.084,-155.506 365.84,-143.573 343.919,-135.139"/>
<polygon fill="midnightblue" stroke="midnightblue" points="344.996,-131.804 334.405,-131.52 342.507,-138.346 344.996,-131.804"/>
</g>
<!-- Node4 -->
<g id="node4" class="node"><title>Node4</title>
<polygon fill="white" stroke="#bfbfbf" points="881.5,-168.5 881.5,-187.5 930.5,-187.5 930.5,-168.5 881.5,-168.5"/>
<text text-anchor="middle" x="906" y="-175.5" font-family="Helvetica,sans-Serif" font-size="10.00">ptrlist.h</text>
</g>
<!-- Node1&#45;&gt;Node4 -->
<g id="edge3" class="edge"><title>Node1&#45;&gt;Node4</title>
<path fill="none" stroke="midnightblue" d="M875.254,-392.297C879.963,-359.633 896.65,-243.866 903.267,-197.957"/>
<polygon fill="midnightblue" stroke="midnightblue" points="906.757,-198.281 904.719,-187.884 899.828,-197.282 906.757,-198.281"/>
</g>
<!-- Node5 -->
<g id="node5" class="node"><title>Node5</title>
<polygon fill="white" stroke="#bfbfbf" points="881,-112.5 881,-131.5 933,-131.5 933,-112.5 881,-112.5"/>
<text text-anchor="middle" x="907" y="-119.5" font-family="Helvetica,sans-Serif" font-size="10.00">mutex.h</text>
</g>
<!-- Node1&#45;&gt;Node5 -->
<g id="edge4" class="edge"><title>Node1&#45;&gt;Node5</title>
<path fill="none" stroke="midnightblue" d="M879.198,-392.307C884.319,-383.436 892.071,-369.144 897,-356 924.022,-283.935 929.596,-264.388 939,-188 940.086,-179.178 941.704,-176.468 939,-168 935.659,-157.538 928.9,-147.428 922.451,-139.45"/>
<polygon fill="midnightblue" stroke="midnightblue" points="924.944,-136.981 915.751,-131.714 919.652,-141.564 924.944,-136.981"/>
</g>
<!-- Node6 -->
<g id="node6" class="node"><title>Node6</title>
<g id="a_node6"><a xlink:href="_i_plug_platform_8h.html" target="_top" xlink:title="Include to get consistently named preprocessor macros for different platforms and logging functionali...">
<polygon fill="white" stroke="black" points="1033,-56.5 1033,-75.5 1117,-75.5 1117,-56.5 1033,-56.5"/>
<text text-anchor="middle" x="1075" y="-63.5" font-family="Helvetica,sans-Serif" font-size="10.00">IPlugPlatform.h</text>
</a>
</g>
</g>
<!-- Node1&#45;&gt;Node6 -->
<g id="edge5" class="edge"><title>Node1&#45;&gt;Node6</title>
<path fill="none" stroke="midnightblue" d="M909.103,-400.726C976.847,-398.152 1119,-381.919 1119,-291 1119,-291 1119,-291 1119,-177 1119,-142.04 1099.6,-105.013 1086.57,-84.0745"/>
<polygon fill="midnightblue" stroke="midnightblue" points="1089.49,-82.1462 1081.12,-75.6515 1083.61,-85.9487 1089.49,-82.1462"/>
</g>
<!-- Node8 -->
<g id="node8" class="node"><title>Node8</title>
<g id="a_node8"><a xlink:href="_i_plug_plugin_delegate_8h_source.html" target="_top" xlink:title="IPlugPluginDelegate.h">
<polygon fill="white" stroke="black" points="390.5,-336.5 390.5,-355.5 503.5,-355.5 503.5,-336.5 390.5,-336.5"/>
<text text-anchor="middle" x="447" y="-343.5" font-family="Helvetica,sans-Serif" font-size="10.00">IPlugPluginDelegate.h</text>
</a>
</g>
</g>
<!-- Node1&#45;&gt;Node8 -->
<g id="edge8" class="edge"><title>Node1&#45;&gt;Node8</title>
<path fill="none" stroke="midnightblue" d="M838.694,-396.535C767.434,-387.523 605.406,-367.033 513.631,-355.426"/>
<polygon fill="midnightblue" stroke="midnightblue" points="513.975,-351.942 503.614,-354.16 513.096,-358.887 513.975,-351.942"/>
</g>
<!-- Node14 -->
<g id="node14" class="node"><title>Node14</title>
<g id="a_node14"><a xlink:href="_i_plug_parameter_8h_source.html" target="_top" xlink:title="IPlugParameter.h">
<polygon fill="white" stroke="black" points="131,-168.5 131,-187.5 223,-187.5 223,-168.5 131,-168.5"/>
<text text-anchor="middle" x="177" y="-175.5" font-family="Helvetica,sans-Serif" font-size="10.00">IPlugParameter.h</text>
</a>
</g>
</g>
<!-- Node1&#45;&gt;Node14 -->
<g id="edge56" class="edge"><title>Node1&#45;&gt;Node14</title>
<path fill="none" stroke="midnightblue" d="M838.845,-400.928C757.327,-400.086 549.512,-394.038 381,-356 310.772,-340.148 283.957,-346.508 229,-300 197.54,-273.376 184.603,-224.257 179.701,-197.52"/>
<polygon fill="midnightblue" stroke="midnightblue" points="183.139,-196.861 178.061,-187.562 176.232,-197.998 183.139,-196.861"/>
</g>
<!-- Node17 -->
<g id="node17" class="node"><title>Node17</title>
<g id="a_node17"><a xlink:href="_i_plug_utilities_8h.html" target="_top" xlink:title="Utility functions and macros. ">
<polygon fill="white" stroke="black" points="669,-112.5 669,-131.5 749,-131.5 749,-112.5 669,-112.5"/>
<text text-anchor="middle" x="709" y="-119.5" font-family="Helvetica,sans-Serif" font-size="10.00">IPlugUtilities.h</text>
</a>
</g>
</g>
<!-- Node1&#45;&gt;Node17 -->
<g id="edge55" class="edge"><title>Node1&#45;&gt;Node17</title>
<path fill="none" stroke="midnightblue" d="M838.828,-392.725C793.097,-379.632 719,-349.406 719,-291 719,-291 719,-291 719,-233 719,-200.816 714.702,-163.552 711.741,-141.702"/>
<polygon fill="midnightblue" stroke="midnightblue" points="715.169,-140.947 710.307,-131.534 708.238,-141.925 715.169,-140.947"/>
</g>
<!-- Node22 -->
<g id="node22" class="node"><title>Node22</title>
<g id="a_node22"><a xlink:href="_i_plug_constants_8h.html" target="_top" xlink:title="Constant definitions, Types, magic numbers. ">
<polygon fill="white" stroke="black" points="861,-56.5 861,-75.5 953,-75.5 953,-56.5 861,-56.5"/>
<text text-anchor="middle" x="907" y="-63.5" font-family="Helvetica,sans-Serif" font-size="10.00">IPlugConstants.h</text>
</a>
</g>
</g>
<!-- Node1&#45;&gt;Node22 -->
<g id="edge53" class="edge"><title>Node1&#45;&gt;Node22</title>
<path fill="none" stroke="midnightblue" d="M909.115,-398.146C968.173,-391.217 1081,-367.916 1081,-291 1081,-291 1081,-291 1081,-233 1081,-154.914 988.125,-102.321 938.083,-79.6507"/>
<polygon fill="midnightblue" stroke="midnightblue" points="939.248,-76.3398 928.685,-75.5169 936.43,-82.7473 939.248,-76.3398"/>
</g>
<!-- Node24 -->
<g id="node24" class="node"><title>Node24</title>
<g id="a_node24"><a xlink:href="_i_plug_structs_8h_source.html" target="_top" xlink:title="IPlugStructs.h">
<polygon fill="white" stroke="black" points="747.5,-224.5 747.5,-243.5 826.5,-243.5 826.5,-224.5 747.5,-224.5"/>
<text text-anchor="middle" x="787" y="-231.5" font-family="Helvetica,sans-Serif" font-size="10.00">IPlugStructs.h</text>
</a>
</g>
</g>
<!-- Node1&#45;&gt;Node24 -->
<g id="edge54" class="edge"><title>Node1&#45;&gt;Node24</title>
<path fill="none" stroke="midnightblue" d="M869.323,-392.075C855.509,-365.719 814.713,-287.878 796.256,-252.661"/>
<polygon fill="midnightblue" stroke="midnightblue" points="799.233,-250.801 791.491,-243.568 793.033,-254.05 799.233,-250.801"/>
</g>
<!-- Node28 -->
<g id="node28" class="node"><title>Node28</title>
<g id="a_node28"><a xlink:href="_i_plug_queue_8h_source.html" target="_top" xlink:title="IPlugQueue.h">
<polygon fill="white" stroke="black" points="1147,-336.5 1147,-355.5 1223,-355.5 1223,-336.5 1147,-336.5"/>
<text text-anchor="middle" x="1185" y="-343.5" font-family="Helvetica,sans-Serif" font-size="10.00">IPlugQueue.h</text>
</a>
</g>
</g>
<!-- Node1&#45;&gt;Node28 -->
<g id="edge57" class="edge"><title>Node1&#45;&gt;Node28</title>
<path fill="none" stroke="midnightblue" d="M909.071,-394.91C964.748,-385.243 1073.5,-366.36 1136.57,-355.409"/>
<polygon fill="midnightblue" stroke="midnightblue" points="1137.41,-358.816 1146.66,-353.657 1136.21,-351.919 1137.41,-358.816"/>
</g>
<!-- Node31 -->
<g id="node31" class="node"><title>Node31</title>
<g id="a_node31"><a xlink:href="_i_plug_timer_8h_source.html" target="_top" xlink:title="IPlugTimer.h">
<polygon fill="white" stroke="black" points="980,-224.5 980,-243.5 1052,-243.5 1052,-224.5 980,-224.5"/>
<text text-anchor="middle" x="1016" y="-231.5" font-family="Helvetica,sans-Serif" font-size="10.00">IPlugTimer.h</text>
</a>
</g>
</g>
<!-- Node1&#45;&gt;Node31 -->
<g id="edge60" class="edge"><title>Node1&#45;&gt;Node31</title>
<path fill="none" stroke="midnightblue" d="M904.348,-392.381C924.151,-385.398 949.327,-373.759 966,-356 993.647,-326.553 1007,-279.684 1012.59,-253.769"/>
<polygon fill="midnightblue" stroke="midnightblue" points="1016.06,-254.255 1014.58,-243.765 1009.19,-252.89 1016.06,-254.255"/>
</g>
<!-- Node6&#45;&gt;Node2 -->
<g id="edge6" class="edge"><title>Node6&#45;&gt;Node2</title>
<path fill="none" stroke="midnightblue" d="M1032.85,-57.8468C1028.19,-57.1679 1023.5,-56.5347 1019,-56 811.201,-31.2968 559.904,-17.1357 471.056,-12.608"/>
<polygon fill="midnightblue" stroke="midnightblue" points="471.203,-9.11106 461.04,-12.1035 470.851,-16.1022 471.203,-9.11106"/>
</g>
<!-- Node7 -->
<g id="node7" class="node"><title>Node7</title>
<polygon fill="white" stroke="#bfbfbf" points="894.5,-0.5 894.5,-19.5 939.5,-19.5 939.5,-0.5 894.5,-0.5"/>
<text text-anchor="middle" x="917" y="-7.5" font-family="Helvetica,sans-Serif" font-size="10.00">cstdlib</text>
</g>
<!-- Node6&#45;&gt;Node7 -->
<g id="edge7" class="edge"><title>Node6&#45;&gt;Node7</title>
<path fill="none" stroke="midnightblue" d="M1049.96,-56.4435C1022.68,-47.1186 978.946,-32.1716 949.144,-21.9858"/>
<polygon fill="midnightblue" stroke="midnightblue" points="950.209,-18.6512 939.615,-18.729 947.945,-25.2751 950.209,-18.6512"/>
</g>
<!-- Node9 -->
<g id="node9" class="node"><title>Node9</title>
<polygon fill="white" stroke="#bfbfbf" points="400.5,-280.5 400.5,-299.5 449.5,-299.5 449.5,-280.5 400.5,-280.5"/>
<text text-anchor="middle" x="425" y="-287.5" font-family="Helvetica,sans-Serif" font-size="10.00">random</text>
</g>
<!-- Node8&#45;&gt;Node9 -->
<g id="edge9" class="edge"><title>Node8&#45;&gt;Node9</title>
<path fill="none" stroke="midnightblue" d="M443.367,-336.083C440.388,-328.77 436.074,-318.181 432.375,-309.103"/>
<polygon fill="midnightblue" stroke="midnightblue" points="435.58,-307.691 428.565,-299.751 429.097,-310.333 435.58,-307.691"/>
</g>
<!-- Node10 -->
<g id="node10" class="node"><title>Node10</title>
<g id="a_node10"><a xlink:href="_i_plug_delegate__select_8h_source.html" target="_top" xlink:title="IPlugDelegate_select.h">
<polygon fill="white" stroke="black" points="259,-280.5 259,-299.5 377,-299.5 377,-280.5 259,-280.5"/>
<text text-anchor="middle" x="318" y="-287.5" font-family="Helvetica,sans-Serif" font-size="10.00">IPlugDelegate_select.h</text>
</a>
</g>
</g>
<!-- Node8&#45;&gt;Node10 -->
<g id="edge10" class="edge"><title>Node8&#45;&gt;Node10</title>
<path fill="none" stroke="midnightblue" d="M426.56,-336.444C405.33,-327.557 371.901,-313.563 347.745,-303.451"/>
<polygon fill="midnightblue" stroke="midnightblue" points="348.921,-300.149 338.345,-299.516 346.218,-306.606 348.921,-300.149"/>
</g>
<!-- Node8&#45;&gt;Node14 -->
<g id="edge33" class="edge"><title>Node8&#45;&gt;Node14</title>
<path fill="none" stroke="midnightblue" d="M390.376,-343.699C348.147,-340.147 290.931,-329.61 250,-300 231.248,-286.435 200.485,-227.141 185.601,-196.891"/>
<polygon fill="midnightblue" stroke="midnightblue" points="188.726,-195.314 181.202,-187.854 182.432,-198.377 188.726,-195.314"/>
</g>
<!-- Node8&#45;&gt;Node24 -->
<g id="edge34" class="edge"><title>Node8&#45;&gt;Node24</title>
<path fill="none" stroke="midnightblue" d="M473.396,-336.46C533.773,-316.926 682.025,-268.963 750.831,-246.702"/>
<polygon fill="midnightblue" stroke="midnightblue" points="751.949,-250.019 760.386,-243.61 749.794,-243.359 751.949,-250.019"/>
</g>
<!-- Node25 -->
<g id="node25" class="node"><title>Node25</title>
<g id="a_node25"><a xlink:href="_i_plug_logger_8h.html" target="_top" xlink:title="IPlug logging a.k.a tracing functionality. ">
<polygon fill="white" stroke="black" points="508.5,-168.5 508.5,-187.5 585.5,-187.5 585.5,-168.5 508.5,-168.5"/>
<text text-anchor="middle" x="547" y="-175.5" font-family="Helvetica,sans-Serif" font-size="10.00">IPlugLogger.h</text>
</a>
</g>
</g>
<!-- Node8&#45;&gt;Node25 -->
<g id="edge41" class="edge"><title>Node8&#45;&gt;Node25</title>
<path fill="none" stroke="midnightblue" d="M452.376,-336.075C468.322,-309.606 515.549,-231.209 536.633,-196.21"/>
<polygon fill="midnightblue" stroke="midnightblue" points="539.676,-197.94 541.838,-187.568 533.68,-194.328 539.676,-197.94"/>
</g>
<!-- Node11 -->
<g id="node11" class="node"><title>Node11</title>
<g id="a_node11"><a xlink:href="_i_plug_delegate_8h_source.html" target="_top" xlink:title="IPlugDelegate.h">
<polygon fill="white" stroke="black" points="269,-224.5 269,-243.5 355,-243.5 355,-224.5 269,-224.5"/>
<text text-anchor="middle" x="312" y="-231.5" font-family="Helvetica,sans-Serif" font-size="10.00">IPlugDelegate.h</text>
</a>
</g>
</g>
<!-- Node10&#45;&gt;Node11 -->
<g id="edge11" class="edge"><title>Node10&#45;&gt;Node11</title>
<path fill="none" stroke="midnightblue" d="M317.009,-280.083C316.214,-272.927 315.071,-262.635 314.077,-253.691"/>
<polygon fill="midnightblue" stroke="midnightblue" points="317.555,-253.303 312.972,-243.751 310.598,-254.076 317.555,-253.303"/>
</g>
<!-- Node11&#45;&gt;Node2 -->
<g id="edge13" class="edge"><title>Node11&#45;&gt;Node2</title>
<path fill="none" stroke="midnightblue" d="M268.901,-229.165C182.323,-219.734 0.210138,-190.214 57,-112 98.4004,-54.9814 319.758,-24.3384 404.743,-14.5347"/>
<polygon fill="midnightblue" stroke="midnightblue" points="405.33,-17.9907 414.874,-13.3907 404.544,-11.0349 405.33,-17.9907"/>
</g>
<!-- Node11&#45;&gt;Node4 -->
<g id="edge15" class="edge"><title>Node11&#45;&gt;Node4</title>
<path fill="none" stroke="midnightblue" d="M355.197,-229.073C467.748,-218.841 768.387,-191.51 871.063,-182.176"/>
<polygon fill="midnightblue" stroke="midnightblue" points="871.561,-185.645 881.203,-181.254 870.927,-178.674 871.561,-185.645"/>
</g>
<!-- Node12 -->
<g id="node12" class="node"><title>Node12</title>
<polygon fill="white" stroke="#bfbfbf" points="220.5,-112.5 220.5,-131.5 269.5,-131.5 269.5,-112.5 220.5,-112.5"/>
<text text-anchor="middle" x="245" y="-119.5" font-family="Helvetica,sans-Serif" font-size="10.00">cassert</text>
</g>
<!-- Node11&#45;&gt;Node12 -->
<g id="edge12" class="edge"><title>Node11&#45;&gt;Node12</title>
<path fill="none" stroke="midnightblue" d="M301.828,-224.235C292.504,-215.752 278.842,-202.133 270,-188 260.892,-173.442 254.195,-155.03 250.037,-141.521"/>
<polygon fill="midnightblue" stroke="midnightblue" points="253.396,-140.537 247.25,-131.907 246.673,-142.486 253.396,-140.537"/>
</g>
<!-- Node13 -->
<g id="node13" class="node"><title>Node13</title>
<polygon fill="white" stroke="#bfbfbf" points="362.5,-168.5 362.5,-187.5 411.5,-187.5 411.5,-168.5 362.5,-168.5"/>
<text text-anchor="middle" x="387" y="-175.5" font-family="Helvetica,sans-Serif" font-size="10.00">stdint.h</text>
</g>
<!-- Node11&#45;&gt;Node13 -->
<g id="edge14" class="edge"><title>Node11&#45;&gt;Node13</title>
<path fill="none" stroke="midnightblue" d="M324.05,-224.324C335.463,-216.107 352.831,-203.602 366.435,-193.807"/>
<polygon fill="midnightblue" stroke="midnightblue" points="368.66,-196.517 374.731,-187.834 364.57,-190.837 368.66,-196.517"/>
</g>
<!-- Node11&#45;&gt;Node14 -->
<g id="edge16" class="edge"><title>Node11&#45;&gt;Node14</title>
<path fill="none" stroke="midnightblue" d="M290.609,-224.444C268.293,-215.517 233.097,-201.439 207.792,-191.317"/>
<polygon fill="midnightblue" stroke="midnightblue" points="208.876,-187.981 198.291,-187.516 206.276,-194.48 208.876,-187.981"/>
</g>
<!-- Node23 -->
<g id="node23" class="node"><title>Node23</title>
<g id="a_node23"><a xlink:href="_i_plug_midi_8h_source.html" target="_top" xlink:title="IPlugMidi.h">
<polygon fill="white" stroke="black" points="279.5,-168.5 279.5,-187.5 344.5,-187.5 344.5,-168.5 279.5,-168.5"/>
<text text-anchor="middle" x="312" y="-175.5" font-family="Helvetica,sans-Serif" font-size="10.00">IPlugMidi.h</text>
</a>
</g>
</g>
<!-- Node11&#45;&gt;Node23 -->
<g id="edge30" class="edge"><title>Node11&#45;&gt;Node23</title>
<path fill="none" stroke="midnightblue" d="M312,-224.083C312,-217.006 312,-206.861 312,-197.986"/>
<polygon fill="midnightblue" stroke="midnightblue" points="315.5,-197.751 312,-187.751 308.5,-197.751 315.5,-197.751"/>
</g>
<!-- Node14&#45;&gt;Node2 -->
<g id="edge17" class="edge"><title>Node14&#45;&gt;Node2</title>
<path fill="none" stroke="midnightblue" d="M176.462,-168.331C176.095,-154.737 177.359,-128.281 191,-112 246.229,-46.0813 351.23,-22.6552 404.786,-14.7569"/>
<polygon fill="midnightblue" stroke="midnightblue" points="405.354,-18.2117 414.781,-13.3763 404.396,-11.2776 405.354,-18.2117"/>
</g>
<!-- Node15 -->
<g id="node15" class="node"><title>Node15</title>
<polygon fill="white" stroke="#bfbfbf" points="66.5,-112.5 66.5,-131.5 125.5,-131.5 125.5,-112.5 66.5,-112.5"/>
<text text-anchor="middle" x="96" y="-119.5" font-family="Helvetica,sans-Serif" font-size="10.00">functional</text>
</g>
<!-- Node14&#45;&gt;Node15 -->
<g id="edge18" class="edge"><title>Node14&#45;&gt;Node15</title>
<path fill="none" stroke="midnightblue" d="M163.986,-168.324C151.468,-159.979 132.318,-147.212 117.529,-137.352"/>
<polygon fill="midnightblue" stroke="midnightblue" points="119.244,-134.289 108.982,-131.655 115.361,-140.114 119.244,-134.289"/>
</g>
<!-- Node16 -->
<g id="node16" class="node"><title>Node16</title>
<polygon fill="white" stroke="#bfbfbf" points="338,-56.5 338,-75.5 402,-75.5 402,-56.5 338,-56.5"/>
<text text-anchor="middle" x="370" y="-63.5" font-family="Helvetica,sans-Serif" font-size="10.00">wdlstring.h</text>
</g>
<!-- Node14&#45;&gt;Node16 -->
<g id="edge19" class="edge"><title>Node14&#45;&gt;Node16</title>
<path fill="none" stroke="midnightblue" d="M179.112,-168.429C182.998,-154.482 192.616,-126.938 211,-112 244.293,-84.9482 292.941,-74.1456 327.646,-69.8391"/>
<polygon fill="midnightblue" stroke="midnightblue" points="328.383,-73.2791 337.937,-68.7004 327.613,-66.3216 328.383,-73.2791"/>
</g>
<!-- Node14&#45;&gt;Node17 -->
<g id="edge20" class="edge"><title>Node14&#45;&gt;Node17</title>
<path fill="none" stroke="midnightblue" d="M223.281,-172.302C322.631,-162.218 555.64,-138.567 658.584,-128.117"/>
<polygon fill="midnightblue" stroke="midnightblue" points="659.124,-131.581 668.72,-127.089 658.417,-124.616 659.124,-131.581"/>
</g>
<!-- Node17&#45;&gt;Node2 -->
<g id="edge25" class="edge"><title>Node17&#45;&gt;Node2</title>
<path fill="none" stroke="midnightblue" d="M702.284,-112.299C690.882,-98.1674 666.299,-70.3622 639,-56 584.559,-27.3582 512.522,-16.8898 471.121,-13.1039"/>
<polygon fill="midnightblue" stroke="midnightblue" points="471.294,-9.60622 461.037,-12.2595 470.71,-16.5818 471.294,-9.60622"/>
</g>
<!-- Node17&#45;&gt;Node6 -->
<g id="edge29" class="edge"><title>Node17&#45;&gt;Node6</title>
<path fill="none" stroke="midnightblue" d="M749.215,-115.067C815.812,-105.241 948.954,-85.5969 1022.74,-74.71"/>
<polygon fill="midnightblue" stroke="midnightblue" points="1023.37,-78.1561 1032.75,-73.2339 1022.34,-71.2311 1023.37,-78.1561"/>
</g>
<!-- Node17&#45;&gt;Node7 -->
<g id="edge24" class="edge"><title>Node17&#45;&gt;Node7</title>
<path fill="none" stroke="midnightblue" d="M716.12,-112.127C727.695,-98.2535 751.939,-71.4212 778,-56 811.44,-36.2122 854.631,-23.9928 883.93,-17.3696"/>
<polygon fill="midnightblue" stroke="midnightblue" points="885.019,-20.7152 894.052,-15.1791 883.538,-13.8736 885.019,-20.7152"/>
</g>
<!-- Node17&#45;&gt;Node16 -->
<g id="edge27" class="edge"><title>Node17&#45;&gt;Node16</title>
<path fill="none" stroke="midnightblue" d="M668.781,-114.593C604.187,-104.304 477.922,-84.1911 412.133,-73.7114"/>
<polygon fill="midnightblue" stroke="midnightblue" points="412.538,-70.2319 402.112,-72.1152 411.437,-77.1448 412.538,-70.2319"/>
</g>
<!-- Node18 -->
<g id="node18" class="node"><title>Node18</title>
<polygon fill="white" stroke="#bfbfbf" points="787,-56.5 787,-75.5 843,-75.5 843,-56.5 787,-56.5"/>
<text text-anchor="middle" x="815" y="-63.5" font-family="Helvetica,sans-Serif" font-size="10.00">algorithm</text>
</g>
<!-- Node17&#45;&gt;Node18 -->
<g id="edge21" class="edge"><title>Node17&#45;&gt;Node18</title>
<path fill="none" stroke="midnightblue" d="M726.031,-112.324C743.03,-103.664 769.376,-90.2424 788.993,-80.249"/>
<polygon fill="midnightblue" stroke="midnightblue" points="790.69,-83.3125 798.012,-75.6545 787.512,-77.0752 790.69,-83.3125"/>
</g>
<!-- Node19 -->
<g id="node19" class="node"><title>Node19</title>
<polygon fill="white" stroke="#bfbfbf" points="687,-56.5 687,-75.5 731,-75.5 731,-56.5 687,-56.5"/>
<text text-anchor="middle" x="709" y="-63.5" font-family="Helvetica,sans-Serif" font-size="10.00">cmath</text>
</g>
<!-- Node17&#45;&gt;Node19 -->
<g id="edge22" class="edge"><title>Node17&#45;&gt;Node19</title>
<path fill="none" stroke="midnightblue" d="M709,-112.083C709,-105.006 709,-94.8611 709,-85.9865"/>
<polygon fill="midnightblue" stroke="midnightblue" points="712.5,-85.751 709,-75.7511 705.5,-85.7511 712.5,-85.751"/>
</g>
<!-- Node20 -->
<g id="node20" class="node"><title>Node20</title>
<polygon fill="white" stroke="#bfbfbf" points="587.5,-56.5 587.5,-75.5 630.5,-75.5 630.5,-56.5 587.5,-56.5"/>
<text text-anchor="middle" x="609" y="-63.5" font-family="Helvetica,sans-Serif" font-size="10.00">cstdio</text>
</g>
<!-- Node17&#45;&gt;Node20 -->
<g id="edge23" class="edge"><title>Node17&#45;&gt;Node20</title>
<path fill="none" stroke="midnightblue" d="M692.933,-112.324C677.042,-103.743 652.493,-90.486 634.042,-80.5224"/>
<polygon fill="midnightblue" stroke="midnightblue" points="635.489,-77.3264 625.027,-75.6545 632.163,-83.4857 635.489,-77.3264"/>
</g>
<!-- Node21 -->
<g id="node21" class="node"><title>Node21</title>
<polygon fill="white" stroke="#bfbfbf" points="523,-56.5 523,-75.5 569,-75.5 569,-56.5 523,-56.5"/>
<text text-anchor="middle" x="546" y="-63.5" font-family="Helvetica,sans-Serif" font-size="10.00">cctype</text>
</g>
<!-- Node17&#45;&gt;Node21 -->
<g id="edge26" class="edge"><title>Node17&#45;&gt;Node21</title>
<path fill="none" stroke="midnightblue" d="M683.172,-112.444C654.944,-103.092 609.648,-88.0859 578.897,-77.8984"/>
<polygon fill="midnightblue" stroke="midnightblue" points="579.665,-74.4658 569.072,-74.6433 577.463,-81.1106 579.665,-74.4658"/>
</g>
<!-- Node17&#45;&gt;Node22 -->
<g id="edge28" class="edge"><title>Node17&#45;&gt;Node22</title>
<path fill="none" stroke="midnightblue" d="M740.374,-112.444C774.263,-103.201 828.403,-88.4356 865.724,-78.2572"/>
<polygon fill="midnightblue" stroke="midnightblue" points="867.046,-81.5243 875.773,-75.5164 865.205,-74.771 867.046,-81.5243"/>
</g>
<!-- Node23&#45;&gt;Node3 -->
<g id="edge32" class="edge"><title>Node23&#45;&gt;Node3</title>
<path fill="none" stroke="midnightblue" d="M311.835,-168.083C311.704,-161.006 311.516,-150.861 311.352,-141.986"/>
<polygon fill="midnightblue" stroke="midnightblue" points="314.847,-141.685 311.162,-131.751 307.848,-141.814 314.847,-141.685"/>
</g>
<!-- Node23&#45;&gt;Node12 -->
<g id="edge31" class="edge"><title>Node23&#45;&gt;Node12</title>
<path fill="none" stroke="midnightblue" d="M301.235,-168.324C291.234,-160.263 276.113,-148.077 264.07,-138.369"/>
<polygon fill="midnightblue" stroke="midnightblue" points="265.943,-135.384 255.961,-131.834 261.55,-140.834 265.943,-135.384"/>
</g>
<!-- Node24&#45;&gt;Node4 -->
<g id="edge37" class="edge"><title>Node24&#45;&gt;Node4</title>
<path fill="none" stroke="midnightblue" d="M805.856,-224.444C825.266,-215.636 855.73,-201.812 877.965,-191.722"/>
<polygon fill="midnightblue" stroke="midnightblue" points="879.572,-194.836 887.232,-187.516 876.68,-188.462 879.572,-194.836"/>
</g>
<!-- Node24&#45;&gt;Node6 -->
<g id="edge39" class="edge"><title>Node24&#45;&gt;Node6</title>
<path fill="none" stroke="midnightblue" d="M797.008,-224.329C812.449,-211.191 843.305,-185.881 872,-168 888.242,-157.879 996.949,-104.853 1048.27,-79.9464"/>
<polygon fill="midnightblue" stroke="midnightblue" points="1049.97,-83.0133 1057.44,-75.5002 1046.91,-76.7149 1049.97,-83.0133"/>
</g>
<!-- Node24&#45;&gt;Node16 -->
<g id="edge36" class="edge"><title>Node24&#45;&gt;Node16</title>
<path fill="none" stroke="midnightblue" d="M747.254,-231.287C690.675,-227.854 584.315,-217.689 499,-188 475.128,-179.693 417.122,-150.593 400,-132 387.777,-118.726 379.769,-99.6012 375.126,-85.5318"/>
<polygon fill="midnightblue" stroke="midnightblue" points="378.35,-84.1013 372.108,-75.5405 371.649,-86.1254 378.35,-84.1013"/>
</g>
<!-- Node24&#45;&gt;Node18 -->
<g id="edge35" class="edge"><title>Node24&#45;&gt;Node18</title>
<path fill="none" stroke="midnightblue" d="M788.505,-224.075C792.913,-197.945 805.856,-121.211 811.867,-85.577"/>
<polygon fill="midnightblue" stroke="midnightblue" points="815.343,-86.011 813.555,-75.5681 808.44,-84.8467 815.343,-86.011"/>
</g>
<!-- Node24&#45;&gt;Node22 -->
<g id="edge38" class="edge"><title>Node24&#45;&gt;Node22</title>
<path fill="none" stroke="midnightblue" d="M792.836,-224.39C806.417,-204.421 841.32,-153.49 872,-112 879.075,-102.432 887.225,-91.9249 893.879,-83.4717"/>
<polygon fill="midnightblue" stroke="midnightblue" points="896.702,-85.5446 900.165,-75.5315 891.214,-81.2 896.702,-85.5446"/>
</g>
<!-- Node24&#45;&gt;Node23 -->
<g id="edge40" class="edge"><title>Node24&#45;&gt;Node23</title>
<path fill="none" stroke="midnightblue" d="M747.309,-230.39C672.437,-225.14 505.079,-211.864 354.931,-188.157"/>
<polygon fill="midnightblue" stroke="midnightblue" points="355.038,-184.629 344.61,-186.506 353.932,-191.541 355.038,-184.629"/>
</g>
<!-- Node25&#45;&gt;Node2 -->
<g id="edge46" class="edge"><title>Node25&#45;&gt;Node2</title>
<path fill="none" stroke="midnightblue" d="M512.797,-168.349C493.405,-161.649 470.406,-150.331 457,-132 434.793,-101.636 434.205,-55.4555 435.961,-29.8182"/>
<polygon fill="midnightblue" stroke="midnightblue" points="439.469,-29.8846 436.864,-19.615 432.496,-29.2677 439.469,-29.8846"/>
</g>
<!-- Node25&#45;&gt;Node3 -->
<g id="edge45" class="edge"><title>Node25&#45;&gt;Node3</title>
<path fill="none" stroke="midnightblue" d="M509.605,-168.444C464.002,-158.009 387.631,-140.534 344.079,-130.569"/>
<polygon fill="midnightblue" stroke="midnightblue" points="344.799,-127.143 334.27,-128.325 343.238,-133.967 344.799,-127.143"/>
</g>
<!-- Node25&#45;&gt;Node5 -->
<g id="edge50" class="edge"><title>Node25&#45;&gt;Node5</title>
<path fill="none" stroke="midnightblue" d="M585.526,-171.221C655.43,-160.736 802.234,-138.715 870.568,-128.465"/>
<polygon fill="midnightblue" stroke="midnightblue" points="871.468,-131.869 880.838,-126.924 870.429,-124.947 871.468,-131.869"/>
</g>
<!-- Node25&#45;&gt;Node12 -->
<g id="edge48" class="edge"><title>Node25&#45;&gt;Node12</title>
<path fill="none" stroke="midnightblue" d="M508.175,-171.631C457.745,-164.405 366.81,-150.519 279.607,-131.96"/>
<polygon fill="midnightblue" stroke="midnightblue" points="280.331,-128.535 269.818,-129.853 278.858,-135.379 280.331,-128.535"/>
</g>
<!-- Node25&#45;&gt;Node16 -->
<g id="edge49" class="edge"><title>Node25&#45;&gt;Node16</title>
<path fill="none" stroke="midnightblue" d="M508.479,-168.506C482.895,-161.577 449.459,-149.952 424,-132 405.903,-119.239 390.374,-98.9302 380.676,-84.4097"/>
<polygon fill="midnightblue" stroke="midnightblue" points="383.523,-82.3665 375.176,-75.8412 377.632,-86.1475 383.523,-82.3665"/>
</g>
<!-- Node25&#45;&gt;Node17 -->
<g id="edge52" class="edge"><title>Node25&#45;&gt;Node17</title>
<path fill="none" stroke="midnightblue" d="M572.669,-168.444C599.923,-159.359 643.184,-144.939 673.651,-134.783"/>
<polygon fill="midnightblue" stroke="midnightblue" points="675.071,-137.999 683.451,-131.516 672.857,-131.358 675.071,-137.999"/>
</g>
<!-- Node25&#45;&gt;Node20 -->
<g id="edge42" class="edge"><title>Node25&#45;&gt;Node20</title>
<path fill="none" stroke="midnightblue" d="M561.561,-168.205C573.359,-160.267 589.388,-147.478 598,-132 605.912,-117.779 608.429,-99.3036 609.102,-85.6865"/>
<polygon fill="midnightblue" stroke="midnightblue" points="612.603,-85.6617 609.313,-75.5909 605.605,-85.5157 612.603,-85.6617"/>
</g>
<!-- Node25&#45;&gt;Node21 -->
<g id="edge43" class="edge"><title>Node25&#45;&gt;Node21</title>
<path fill="none" stroke="midnightblue" d="M557.593,-168.186C570.771,-156.081 590.659,-133.373 583,-112 579.059,-101.003 571.143,-90.7688 563.64,-82.8479"/>
<polygon fill="midnightblue" stroke="midnightblue" points="566.019,-80.2784 556.438,-75.7555 561.108,-85.2659 566.019,-80.2784"/>
</g>
<!-- Node25&#45;&gt;Node22 -->
<g id="edge51" class="edge"><title>Node25&#45;&gt;Node22</title>
<path fill="none" stroke="midnightblue" d="M585.724,-171.147C628.513,-164.128 699.158,-150.897 758,-132 802.662,-117.657 852.139,-94.5387 881.352,-80.086"/>
<polygon fill="midnightblue" stroke="midnightblue" points="883.064,-83.1429 890.445,-75.5421 879.936,-76.8811 883.064,-83.1429"/>
</g>
<!-- Node26 -->
<g id="node26" class="node"><title>Node26</title>
<polygon fill="white" stroke="#bfbfbf" points="525.5,-112.5 525.5,-131.5 574.5,-131.5 574.5,-112.5 525.5,-112.5"/>
<text text-anchor="middle" x="550" y="-119.5" font-family="Helvetica,sans-Serif" font-size="10.00">cstdarg</text>
</g>
<!-- Node25&#45;&gt;Node26 -->
<g id="edge44" class="edge"><title>Node25&#45;&gt;Node26</title>
<path fill="none" stroke="midnightblue" d="M547.495,-168.083C547.889,-161.006 548.452,-150.861 548.945,-141.986"/>
<polygon fill="midnightblue" stroke="midnightblue" points="552.454,-141.93 549.514,-131.751 545.464,-141.542 552.454,-141.93"/>
</g>
<!-- Node27 -->
<g id="node27" class="node"><title>Node27</title>
<polygon fill="white" stroke="#bfbfbf" points="466.5,-112.5 466.5,-131.5 507.5,-131.5 507.5,-112.5 466.5,-112.5"/>
<text text-anchor="middle" x="487" y="-119.5" font-family="Helvetica,sans-Serif" font-size="10.00">ctime</text>
</g>
<!-- Node25&#45;&gt;Node27 -->
<g id="edge47" class="edge"><title>Node25&#45;&gt;Node27</title>
<path fill="none" stroke="midnightblue" d="M537.36,-168.324C528.49,-160.341 515.125,-148.313 504.392,-138.653"/>
<polygon fill="midnightblue" stroke="midnightblue" points="506.59,-135.922 496.815,-131.834 501.907,-141.125 506.59,-135.922"/>
</g>
<!-- Node29 -->
<g id="node29" class="node"><title>Node29</title>
<polygon fill="white" stroke="#bfbfbf" points="1154,-280.5 1154,-299.5 1200,-299.5 1200,-280.5 1154,-280.5"/>
<text text-anchor="middle" x="1177" y="-287.5" font-family="Helvetica,sans-Serif" font-size="10.00">atomic</text>
</g>
<!-- Node28&#45;&gt;Node29 -->
<g id="edge58" class="edge"><title>Node28&#45;&gt;Node29</title>
<path fill="none" stroke="midnightblue" d="M1183.68,-336.083C1182.62,-328.927 1181.09,-318.635 1179.77,-309.691"/>
<polygon fill="midnightblue" stroke="midnightblue" points="1183.22,-309.13 1178.3,-299.751 1176.3,-310.156 1183.22,-309.13"/>
</g>
<!-- Node30 -->
<g id="node30" class="node"><title>Node30</title>
<polygon fill="white" stroke="#bfbfbf" points="1218.5,-280.5 1218.5,-299.5 1267.5,-299.5 1267.5,-280.5 1218.5,-280.5"/>
<text text-anchor="middle" x="1243" y="-287.5" font-family="Helvetica,sans-Serif" font-size="10.00">cstddef</text>
</g>
<!-- Node28&#45;&gt;Node30 -->
<g id="edge59" class="edge"><title>Node28&#45;&gt;Node30</title>
<path fill="none" stroke="midnightblue" d="M1194.32,-336.324C1202.89,-328.341 1215.81,-316.313 1226.19,-306.653"/>
<polygon fill="midnightblue" stroke="midnightblue" points="1228.58,-309.21 1233.51,-299.834 1223.81,-304.086 1228.58,-309.21"/>
</g>
<!-- Node31&#45;&gt;Node2 -->
<g id="edge61" class="edge"><title>Node31&#45;&gt;Node2</title>
<path fill="none" stroke="midnightblue" d="M1016.42,-224.177C1017.29,-194.76 1015.7,-99.4426 962,-56 923.871,-25.1559 580.674,-14.3884 471.316,-11.7236"/>
<polygon fill="midnightblue" stroke="midnightblue" points="471.269,-8.2216 461.189,-11.4839 471.103,-15.2196 471.269,-8.2216"/>
</g>
<!-- Node31&#45;&gt;Node4 -->
<g id="edge63" class="edge"><title>Node31&#45;&gt;Node4</title>
<path fill="none" stroke="midnightblue" d="M998.327,-224.324C980.606,-215.625 953.097,-202.12 932.712,-192.113"/>
<polygon fill="midnightblue" stroke="midnightblue" points="934.149,-188.919 923.63,-187.655 931.064,-195.203 934.149,-188.919"/>
</g>
<!-- Node31&#45;&gt;Node6 -->
<g id="edge64" class="edge"><title>Node31&#45;&gt;Node6</title>
<path fill="none" stroke="midnightblue" d="M1019.17,-224.075C1028.5,-197.832 1055.97,-120.545 1068.56,-85.1165"/>
<polygon fill="midnightblue" stroke="midnightblue" points="1071.9,-86.1628 1071.95,-75.5681 1065.31,-83.8185 1071.9,-86.1628"/>
</g>
<!-- Node31&#45;&gt;Node13 -->
<g id="edge62" class="edge"><title>Node31&#45;&gt;Node13</title>
<path fill="none" stroke="midnightblue" d="M979.923,-229.903C868.639,-220.349 531.618,-191.416 421.918,-181.998"/>
<polygon fill="midnightblue" stroke="midnightblue" points="421.995,-178.492 411.732,-181.123 421.396,-185.466 421.995,-178.492"/>
</g>
</g>
</svg>
        <g id="navigator" transform="translate(0 0)" fill="#404254">
                <rect fill="#f2f5e9" fill-opacity="0.5" stroke="#606060" stroke-width=".5" x="0" y="0" width="60" height="60"/>
                <use id="zoomplus" xlink:href="#zoomPlus" x="17" y="9" onmousedown="handleZoom(evt,'in')"/>
                <use id="zoomminus" xlink:href="#zoomMin" x="42" y="9" onmousedown="handleZoom(evt,'out')"/>
                <use id="reset" xlink:href="#resetDef" x="30" y="36" onmousedown="handleReset()"/>
                <g id="arrowUp" xlink:href="#dirArrow" transform="translate(30 24)" onmousedown="handlePan(0,-1)">
                  <use xlink:href="#rim" fill="#404040">
                        <set attributeName="fill" to="#808080" begin="arrowUp.mouseover" end="arrowUp.mouseout"/>
                  </use>
                  <path fill="none" stroke="white" stroke-width="1.5" d="M0,-3.0v7 M-2.5,-0.5L0,-3.0L2.5,-0.5"/>
                </g>
                <g id="arrowRight" xlink:href="#dirArrow" transform="rotate(90) translate(36 -43)" onmousedown="handlePan(1,0)">
                  <use xlink:href="#rim" fill="#404040">
                        <set attributeName="fill" to="#808080" begin="arrowRight.mouseover" end="arrowRight.mouseout"/>
                  </use>
                  <path fill="none" stroke="white" stroke-width="1.5" d="M0,-3.0v7 M-2.5,-0.5L0,-3.0L2.5,-0.5"/>
                </g>
                <g id="arrowDown" xlink:href="#dirArrow" transform="rotate(180) translate(-30 -48)" onmousedown="handlePan(0,1)">
                  <use xlink:href="#rim" fill="#404040">
                        <set attributeName="fill" to="#808080" begin="arrowDown.mouseover" end="arrowDown.mouseout"/>
                  </use>
                  <path fill="none" stroke="white" stroke-width="1.5" d="M0,-3.0v7 M-2.5,-0.5L0,-3.0L2.5,-0.5"/>
                </g>
                <g id="arrowLeft" xlink:href="#dirArrow" transform="rotate(270) translate(-36 17)" onmousedown="handlePan(-1,0)">
                  <use xlink:href="#rim" fill="#404040">
                        <set attributeName="fill" to="#808080" begin="arrowLeft.mouseover" end="arrowLeft.mouseout"/>
                  </use>
                  <path fill="none" stroke="white" stroke-width="1.5" d="M0,-3.0v7 M-2.5,-0.5L0,-3.0L2.5,-0.5"/>
                </g>
        </g>
        <svg viewBox="0 0 15 15" width="100%" height="30px" preserveAspectRatio="xMaxYMin meet">
         <g id="arrow_out" transform="scale(0.3 0.3)">
          <a xlink:href="_i_plug_base_8h__incl_org.svg" target="_base">
           <rect id="button" ry="5" rx="5" y="6" x="6" height="38" width="38"
                fill="#f2f5e9" fill-opacity="0.5" stroke="#606060" stroke-width="1.0"/>
           <path id="arrow"
             d="M 11.500037,31.436501 C 11.940474,20.09759 22.043105,11.32322 32.158766,21.979434 L 37.068811,17.246167 C 37.068811,17.246167 37.088388,32 37.088388,32 L 22.160133,31.978069 C 22.160133,31.978069 26.997745,27.140456 26.997745,27.140456 C 18.528582,18.264221 13.291696,25.230495 11.500037,31.436501 z"
             style="fill:#404040;"/>
          </a>
         </g>
        </svg>
</svg>
