<?xml version="1.0" encoding="UTF-8" standalone="no"?>
<!DOCTYPE svg PUBLIC "-//W3C//DTD SVG 1.1//EN"
 "http://www.w3.org/Graphics/SVG/1.1/DTD/svg11.dtd">
<!-- Generated by graphviz version 2.36.0 (20140111.2315)
 -->
<!-- Title: IPlugReaper Pages: 1 -->
<svg width="295pt" height="264pt"
 viewBox="0.00 0.00 295.00 264.00" xmlns="http://www.w3.org/2000/svg" xmlns:xlink="http://www.w3.org/1999/xlink">
<g id="graph0" class="graph" transform="scale(1 1) rotate(0) translate(4 260)">
<title>IPlugReaper</title>
<polygon fill="white" stroke="none" points="-4,4 -4,-260 291,-260 291,4 -4,4"/>
<!-- Node1 -->
<g id="node1" class="node"><title>Node1</title>
<polygon fill="#bfbfbf" stroke="black" points="137.5,-0.5 137.5,-19.5 208.5,-19.5 208.5,-0.5 137.5,-0.5"/>
<text text-anchor="middle" x="173" y="-7.5" font-family="Helvetica,sans-Serif" font-size="10.00">IPlugReaper</text>
</g>
<!-- Node2 -->
<g id="node2" class="node"><title>Node2</title>
<g id="a_node2"><a xlink:href="class_i_plug_v_s_t2.html" target="_top" xlink:title="VST2.4 API base class for an IPlug plug&#45;in, inherits from IPlugBase or IPlugBaseGraphics. ">
<polygon fill="white" stroke="black" points="141,-56.5 141,-75.5 205,-75.5 205,-56.5 141,-56.5"/>
<text text-anchor="middle" x="173" y="-63.5" font-family="Helvetica,sans-Serif" font-size="10.00">IPlugVST2</text>
</a>
</g>
</g>
<!-- Node2&#45;&gt;Node1 -->
<g id="edge1" class="edge"><title>Node2&#45;&gt;Node1</title>
<path fill="none" stroke="midnightblue" d="M173,-45.8045C173,-36.9102 173,-26.7798 173,-19.7511"/>
<polygon fill="midnightblue" stroke="midnightblue" points="169.5,-46.083 173,-56.083 176.5,-46.083 169.5,-46.083"/>
</g>
<!-- Node3 -->
<g id="node3" class="node"><title>Node3</title>
<g id="a_node3"><a xlink:href="class_i_plug_base.html" target="_top" xlink:title="The base class of an IPlug plug&#45;in, which interacts with the different plug&#45;in APIs. ">
<polygon fill="white" stroke="black" points="88,-118.5 88,-137.5 150,-137.5 150,-118.5 88,-118.5"/>
<text text-anchor="middle" x="119" y="-125.5" font-family="Helvetica,sans-Serif" font-size="10.00">IPlugBase</text>
</a>
</g>
</g>
<!-- Node3&#45;&gt;Node2 -->
<g id="edge2" class="edge"><title>Node3&#45;&gt;Node2</title>
<path fill="none" stroke="midnightblue" d="M133.523,-110.863C143.744,-99.5064 157.023,-84.7524 165.277,-75.5806"/>
<polygon fill="midnightblue" stroke="midnightblue" points="130.825,-108.629 126.737,-118.403 136.028,-113.312 130.825,-108.629"/>
</g>
<!-- Node4 -->
<g id="node4" class="node"><title>Node4</title>
<g id="a_node4"><a xlink:href="class_i_plugin_delegate.html" target="_top" xlink:title="This TODO has methods for serialization of state It provides a base interface for remote editors as w...">
<polygon fill="white" stroke="black" points="25,-180.5 25,-199.5 111,-199.5 111,-180.5 25,-180.5"/>
<text text-anchor="middle" x="68" y="-187.5" font-family="Helvetica,sans-Serif" font-size="10.00">IPluginDelegate</text>
</a>
</g>
</g>
<!-- Node4&#45;&gt;Node3 -->
<g id="edge3" class="edge"><title>Node4&#45;&gt;Node3</title>
<path fill="none" stroke="midnightblue" d="M81.9984,-172.531C91.6126,-161.22 103.986,-146.663 111.706,-137.581"/>
<polygon fill="midnightblue" stroke="midnightblue" points="79.1168,-170.517 75.3071,-180.403 84.4504,-175.051 79.1168,-170.517"/>
</g>
<!-- Node5 -->
<g id="node5" class="node"><title>Node5</title>
<g id="a_node5"><a xlink:href="class_i_delegate.html" target="_top" xlink:title="This pure virtual interface delegates communication in both directions between a UI editor and someth...">
<polygon fill="white" stroke="black" points="0,-236.5 0,-255.5 136,-255.5 136,-236.5 0,-236.5"/>
<text text-anchor="middle" x="68" y="-243.5" font-family="Helvetica,sans-Serif" font-size="10.00">IPLUGIN_SUPER_CLASS</text>
</a>
</g>
</g>
<!-- Node5&#45;&gt;Node4 -->
<g id="edge4" class="edge"><title>Node5&#45;&gt;Node4</title>
<path fill="none" stroke="midnightblue" d="M68,-225.805C68,-216.91 68,-206.78 68,-199.751"/>
<polygon fill="midnightblue" stroke="midnightblue" points="64.5001,-226.083 68,-236.083 71.5001,-226.083 64.5001,-226.083"/>
</g>
<!-- Node6 -->
<g id="node6" class="node"><title>Node6</title>
<g id="a_node6"><a xlink:href="class_i_timer_callback.html" target="_top" xlink:title="ITimerCallback">
<polygon fill="white" stroke="black" points="129.5,-180.5 129.5,-199.5 212.5,-199.5 212.5,-180.5 129.5,-180.5"/>
<text text-anchor="middle" x="171" y="-187.5" font-family="Helvetica,sans-Serif" font-size="10.00">ITimerCallback</text>
</a>
</g>
</g>
<!-- Node6&#45;&gt;Node3 -->
<g id="edge5" class="edge"><title>Node6&#45;&gt;Node3</title>
<path fill="none" stroke="midnightblue" d="M156.727,-172.531C146.924,-161.22 134.308,-146.663 126.437,-137.581"/>
<polygon fill="midnightblue" stroke="midnightblue" points="154.355,-175.139 163.55,-180.403 159.645,-170.554 154.355,-175.139"/>
</g>
<!-- Node7 -->
<g id="node7" class="node"><title>Node7</title>
<g id="a_node7"><a xlink:href="class_i_plug_processor.html" target="_top" xlink:title="IPlugProcessor\&lt; PLUG\l_SAMPLE_DST \&gt;">
<polygon fill="white" stroke="black" points="168.5,-113 168.5,-143 287.5,-143 287.5,-113 168.5,-113"/>
<text text-anchor="start" x="176.5" y="-131" font-family="Helvetica,sans-Serif" font-size="10.00">IPlugProcessor&lt; PLUG</text>
<text text-anchor="middle" x="228" y="-120" font-family="Helvetica,sans-Serif" font-size="10.00">_SAMPLE_DST &gt;</text>
</a>
</g>
</g>
<!-- Node7&#45;&gt;Node2 -->
<g id="edge6" class="edge"><title>Node7&#45;&gt;Node2</title>
<path fill="none" stroke="midnightblue" d="M208.128,-105.322C198.754,-95.0958 188.097,-83.4692 181.003,-75.7305"/>
<polygon fill="midnightblue" stroke="midnightblue" points="205.628,-107.774 214.966,-112.781 210.789,-103.044 205.628,-107.774"/>
</g>
</g>
</svg>
