<?xml version="1.0" encoding="UTF-8" standalone="no"?>
<!DOCTYPE svg PUBLIC "-//W3C//DTD SVG 1.1//EN"
 "http://www.w3.org/Graphics/SVG/1.1/DTD/svg11.dtd">
<!-- Generated by graphviz version 2.36.0 (20140111.2315)
 -->
<!-- Title: IGraphics Pages: 1 -->
<svg width="399pt" height="196pt"
 viewBox="0.00 0.00 399.00 196.00" xmlns="http://www.w3.org/2000/svg" xmlns:xlink="http://www.w3.org/1999/xlink">
<g id="graph0" class="graph" transform="scale(1 1) rotate(0) translate(4 192)">
<title>IGraphics</title>
<polygon fill="white" stroke="none" points="-4,4 -4,-192 395,-192 395,4 -4,4"/>
<!-- Node1 -->
<g id="node1" class="node"><title>Node1</title>
<polygon fill="#bfbfbf" stroke="black" points="109.5,-168.5 109.5,-187.5 168.5,-187.5 168.5,-168.5 109.5,-168.5"/>
<text text-anchor="middle" x="139" y="-175.5" font-family="Helvetica,sans-Serif" font-size="10.00">IGraphics</text>
</g>
<!-- Node2 -->
<g id="node2" class="node"><title>Node2</title>
<g id="a_node2"><a xlink:href="class_i_graphics_lice.html" target="_top" xlink:title="IGraphics draw class using Cockos&#39; LICE. ">
<polygon fill="white" stroke="black" points="47.5,-112.5 47.5,-131.5 124.5,-131.5 124.5,-112.5 47.5,-112.5"/>
<text text-anchor="middle" x="86" y="-119.5" font-family="Helvetica,sans-Serif" font-size="10.00">IGraphicsLice</text>
</a>
</g>
</g>
<!-- Node1&#45;&gt;Node2 -->
<g id="edge1" class="edge"><title>Node1&#45;&gt;Node2</title>
<path fill="none" stroke="midnightblue" d="M123.019,-160.718C113.678,-151.2 102.254,-139.561 94.589,-131.751"/>
<polygon fill="midnightblue" stroke="midnightblue" points="120.746,-163.398 130.248,-168.083 125.741,-158.494 120.746,-163.398"/>
</g>
<!-- Node3 -->
<g id="node3" class="node"><title>Node3</title>
<g id="a_node3"><a xlink:href="class_i_graphics_path_base.html" target="_top" xlink:title="IGraphicsPathBase">
<polygon fill="white" stroke="black" points="142.5,-112.5 142.5,-131.5 243.5,-131.5 243.5,-112.5 142.5,-112.5"/>
<text text-anchor="middle" x="193" y="-119.5" font-family="Helvetica,sans-Serif" font-size="10.00">IGraphicsPathBase</text>
</a>
</g>
</g>
<!-- Node1&#45;&gt;Node3 -->
<g id="edge2" class="edge"><title>Node1&#45;&gt;Node3</title>
<path fill="none" stroke="midnightblue" d="M154.998,-161.002C164.567,-151.433 176.361,-139.639 184.249,-131.751"/>
<polygon fill="midnightblue" stroke="midnightblue" points="152.513,-158.537 147.917,-168.083 157.463,-163.487 152.513,-158.537"/>
</g>
<!-- Node4 -->
<g id="node4" class="node"><title>Node4</title>
<g id="a_node4"><a xlink:href="class_i_graphics_a_g_g.html" target="_top" xlink:title="IGraphics draw class using Antigrain Geometry. ">
<polygon fill="white" stroke="black" points="0,-56.5 0,-75.5 80,-75.5 80,-56.5 0,-56.5"/>
<text text-anchor="middle" x="40" y="-63.5" font-family="Helvetica,sans-Serif" font-size="10.00">IGraphicsAGG</text>
</a>
</g>
</g>
<!-- Node3&#45;&gt;Node4 -->
<g id="edge3" class="edge"><title>Node3&#45;&gt;Node4</title>
<path fill="none" stroke="midnightblue" d="M159.111,-109.039C130.323,-98.8786 89.7129,-84.5457 64.1299,-75.5164"/>
<polygon fill="midnightblue" stroke="midnightblue" points="158.162,-112.416 168.757,-112.444 160.492,-105.815 158.162,-112.416"/>
</g>
<!-- Node5 -->
<g id="node5" class="node"><title>Node5</title>
<g id="a_node5"><a xlink:href="class_i_graphics_cairo.html" target="_top" xlink:title="IGraphics draw class using Cairo. ">
<polygon fill="white" stroke="black" points="98,-56.5 98,-75.5 180,-75.5 180,-56.5 98,-56.5"/>
<text text-anchor="middle" x="139" y="-63.5" font-family="Helvetica,sans-Serif" font-size="10.00">IGraphicsCairo</text>
</a>
</g>
</g>
<!-- Node3&#45;&gt;Node5 -->
<g id="edge4" class="edge"><title>Node3&#45;&gt;Node5</title>
<path fill="none" stroke="midnightblue" d="M177.002,-105.002C167.433,-95.4329 155.639,-83.6389 147.751,-75.7511"/>
<polygon fill="midnightblue" stroke="midnightblue" points="174.537,-107.487 184.083,-112.083 179.487,-102.537 174.537,-107.487"/>
</g>
<!-- Node6 -->
<g id="node6" class="node"><title>Node6</title>
<g id="a_node6"><a xlink:href="class_i_graphics_nano_v_g.html" target="_top" xlink:title="IGraphics draw class using NanoVG. ">
<polygon fill="white" stroke="black" points="198,-56.5 198,-75.5 294,-75.5 294,-56.5 198,-56.5"/>
<text text-anchor="middle" x="246" y="-63.5" font-family="Helvetica,sans-Serif" font-size="10.00">IGraphicsNanoVG</text>
</a>
</g>
</g>
<!-- Node3&#45;&gt;Node6 -->
<g id="edge5" class="edge"><title>Node3&#45;&gt;Node6</title>
<path fill="none" stroke="midnightblue" d="M208.981,-104.718C218.322,-95.1997 229.746,-83.5608 237.411,-75.7511"/>
<polygon fill="midnightblue" stroke="midnightblue" points="206.259,-102.494 201.752,-112.083 211.254,-107.398 206.259,-102.494"/>
</g>
<!-- Node8 -->
<g id="node8" class="node"><title>Node8</title>
<g id="a_node8"><a xlink:href="class_i_graphics_web.html" target="_top" xlink:title="IGraphics draw/platform class HTML5 canvas. ">
<polygon fill="white" stroke="black" points="312.5,-56.5 312.5,-75.5 391.5,-75.5 391.5,-56.5 312.5,-56.5"/>
<text text-anchor="middle" x="352" y="-63.5" font-family="Helvetica,sans-Serif" font-size="10.00">IGraphicsWeb</text>
</a>
</g>
</g>
<!-- Node3&#45;&gt;Node8 -->
<g id="edge7" class="edge"><title>Node3&#45;&gt;Node8</title>
<path fill="none" stroke="midnightblue" d="M227.827,-109.172C257.766,-99.0039 300.221,-84.5852 326.924,-75.5164"/>
<polygon fill="midnightblue" stroke="midnightblue" points="226.537,-105.914 218.194,-112.444 228.788,-112.542 226.537,-105.914"/>
</g>
<!-- Node7 -->
<g id="node7" class="node"><title>Node7</title>
<g id="a_node7"><a xlink:href="class_i_graphics_i_o_s.html" target="_top" xlink:title="IGraphics platform class for IOS. ">
<polygon fill="white" stroke="black" points="208,-0.5 208,-19.5 284,-19.5 284,-0.5 208,-0.5"/>
<text text-anchor="middle" x="246" y="-7.5" font-family="Helvetica,sans-Serif" font-size="10.00">IGraphicsIOS</text>
</a>
</g>
</g>
<!-- Node6&#45;&gt;Node7 -->
<g id="edge6" class="edge"><title>Node6&#45;&gt;Node7</title>
<path fill="none" stroke="midnightblue" d="M246,-45.8045C246,-36.9102 246,-26.7798 246,-19.7511"/>
<polygon fill="midnightblue" stroke="midnightblue" points="242.5,-46.083 246,-56.083 249.5,-46.083 242.5,-46.083"/>
</g>
</g>
</svg>
