<?xml version="1.0" encoding="UTF-8" standalone="no"?>
<!DOCTYPE svg PUBLIC "-//W3C//DTD SVG 1.1//EN"
 "http://www.w3.org/Graphics/SVG/1.1/DTD/svg11.dtd">
<!-- Generated by graphviz version 2.36.0 (20140111.2315)
 -->
<!-- Title: IDelegate Pages: 1 -->
<svg width="552pt" height="332pt"
 viewBox="0.00 0.00 552.00 332.00" xmlns="http://www.w3.org/2000/svg" xmlns:xlink="http://www.w3.org/1999/xlink">
<g id="graph0" class="graph" transform="scale(1 1) rotate(0) translate(4 328)">
<title>IDelegate</title>
<polygon fill="white" stroke="none" points="-4,4 -4,-328 548,-328 548,4 -4,4"/>
<!-- Node1 -->
<g id="node1" class="node"><title>Node1</title>
<polygon fill="#bfbfbf" stroke="black" points="0.5,-171.5 0.5,-190.5 59.5,-190.5 59.5,-171.5 0.5,-171.5"/>
<text text-anchor="middle" x="30" y="-178.5" font-family="Helvetica,sans-Serif" font-size="10.00">IDelegate</text>
</g>
<!-- Node2 -->
<g id="node2" class="node"><title>Node2</title>
<g id="a_node2"><a xlink:href="class_i_graphics_delegate.html" target="_top" xlink:title="An IDelgate base class for a SOMETHING that uses IGraphics for it&#39;s UI. ">
<polygon fill="white" stroke="black" points="96,-190.5 96,-209.5 194,-209.5 194,-190.5 96,-190.5"/>
<text text-anchor="middle" x="145" y="-197.5" font-family="Helvetica,sans-Serif" font-size="10.00">IGraphicsDelegate</text>
</a>
</g>
</g>
<!-- Node1&#45;&gt;Node2 -->
<g id="edge1" class="edge"><title>Node1&#45;&gt;Node2</title>
<path fill="none" stroke="midnightblue" d="M69.4547,-187.466C77.8958,-188.885 86.9373,-190.405 95.7091,-191.88"/>
<polygon fill="midnightblue" stroke="midnightblue" points="69.9566,-184.001 59.5147,-185.795 68.7959,-190.904 69.9566,-184.001"/>
</g>
<!-- Node3 -->
<g id="node3" class="node"><title>Node3</title>
<g id="a_node3"><a xlink:href="class_i_plugin_delegate.html" target="_top" xlink:title="This TODO has methods for serialization of state It provides a base interface for remote editors as w...">
<polygon fill="white" stroke="black" points="102,-152.5 102,-171.5 188,-171.5 188,-152.5 102,-152.5"/>
<text text-anchor="middle" x="145" y="-159.5" font-family="Helvetica,sans-Serif" font-size="10.00">IPluginDelegate</text>
</a>
</g>
</g>
<!-- Node1&#45;&gt;Node3 -->
<g id="edge2" class="edge"><title>Node1&#45;&gt;Node3</title>
<path fill="none" stroke="midnightblue" d="M69.5475,-174.519C79.9419,-172.771 91.241,-170.871 101.823,-169.092"/>
<polygon fill="midnightblue" stroke="midnightblue" points="68.7959,-171.096 59.5147,-176.205 69.9566,-177.999 68.7959,-171.096"/>
</g>
<!-- Node4 -->
<g id="node4" class="node"><title>Node4</title>
<g id="a_node4"><a xlink:href="class_i_plug_base.html" target="_top" xlink:title="The base class of an IPlug plug&#45;in, which interacts with the different plug&#45;in APIs. ">
<polygon fill="white" stroke="black" points="230,-152.5 230,-171.5 292,-171.5 292,-152.5 230,-152.5"/>
<text text-anchor="middle" x="261" y="-159.5" font-family="Helvetica,sans-Serif" font-size="10.00">IPlugBase</text>
</a>
</g>
</g>
<!-- Node3&#45;&gt;Node4 -->
<g id="edge3" class="edge"><title>Node3&#45;&gt;Node4</title>
<path fill="none" stroke="midnightblue" d="M198.342,-162C209.122,-162 220.126,-162 229.797,-162"/>
<polygon fill="midnightblue" stroke="midnightblue" points="198.126,-158.5 188.126,-162 198.125,-165.5 198.126,-158.5"/>
</g>
<!-- Node5 -->
<g id="node5" class="node"><title>Node5</title>
<g id="a_node5"><a xlink:href="class_i_plug_a_a_x.html" target="_top" xlink:title="AAX API base class for an IPlug plug&#45;in, inherits from IPlugBase. ">
<polygon fill="white" stroke="black" points="352.5,-304.5 352.5,-323.5 411.5,-323.5 411.5,-304.5 352.5,-304.5"/>
<text text-anchor="middle" x="382" y="-311.5" font-family="Helvetica,sans-Serif" font-size="10.00">IPlugAAX</text>
</a>
</g>
</g>
<!-- Node4&#45;&gt;Node5 -->
<g id="edge4" class="edge"><title>Node4&#45;&gt;Node5</title>
<path fill="none" stroke="midnightblue" d="M266.704,-181.583C274.589,-210.355 293.15,-263.988 328,-295 334.864,-301.108 343.833,-305.292 352.436,-308.142"/>
<polygon fill="midnightblue" stroke="midnightblue" points="270.002,-180.358 264.114,-171.55 263.224,-182.107 270.002,-180.358"/>
</g>
<!-- Node6 -->
<g id="node6" class="node"><title>Node6</title>
<g id="a_node6"><a xlink:href="class_i_plug_a_p_p.html" target="_top" xlink:title="Standalone application base class for an IPlug plug&#45;in, inherits from IPlugBase. ">
<polygon fill="white" stroke="black" points="352.5,-266.5 352.5,-285.5 411.5,-285.5 411.5,-266.5 352.5,-266.5"/>
<text text-anchor="middle" x="382" y="-273.5" font-family="Helvetica,sans-Serif" font-size="10.00">IPlugAPP</text>
</a>
</g>
</g>
<!-- Node4&#45;&gt;Node6 -->
<g id="edge5" class="edge"><title>Node4&#45;&gt;Node6</title>
<path fill="none" stroke="midnightblue" d="M270.622,-180.844C281.266,-202.15 301.288,-236.528 328,-257 335.138,-262.47 343.99,-266.463 352.403,-269.333"/>
<polygon fill="midnightblue" stroke="midnightblue" points="273.645,-179.054 266.162,-171.554 267.334,-182.083 273.645,-179.054"/>
</g>
<!-- Node7 -->
<g id="node7" class="node"><title>Node7</title>
<g id="a_node7"><a xlink:href="class_i_plug_a_u.html" target="_top" xlink:title="AudioUnit v2 API base class for an IPlug plug&#45;in, inherits from IPlugBase. ">
<polygon fill="white" stroke="black" points="355.5,-228.5 355.5,-247.5 408.5,-247.5 408.5,-228.5 355.5,-228.5"/>
<text text-anchor="middle" x="382" y="-235.5" font-family="Helvetica,sans-Serif" font-size="10.00">IPlugAU</text>
</a>
</g>
</g>
<!-- Node4&#45;&gt;Node7 -->
<g id="edge6" class="edge"><title>Node4&#45;&gt;Node7</title>
<path fill="none" stroke="midnightblue" d="M278.008,-178.849C290.617,-191.328 309.158,-208.004 328,-219 336.442,-223.927 346.376,-227.904 355.348,-230.921"/>
<polygon fill="midnightblue" stroke="midnightblue" points="280.486,-176.377 270.974,-171.711 275.499,-181.29 280.486,-176.377"/>
</g>
<!-- Node8 -->
<g id="node8" class="node"><title>Node8</title>
<g id="a_node8"><a xlink:href="class_i_plug_v_s_t2.html" target="_top" xlink:title="VST2.4 API base class for an IPlug plug&#45;in, inherits from IPlugBase or IPlugBaseGraphics. ">
<polygon fill="white" stroke="black" points="350,-190.5 350,-209.5 414,-209.5 414,-190.5 350,-190.5"/>
<text text-anchor="middle" x="382" y="-197.5" font-family="Helvetica,sans-Serif" font-size="10.00">IPlugVST2</text>
</a>
</g>
</g>
<!-- Node4&#45;&gt;Node8 -->
<g id="edge7" class="edge"><title>Node4&#45;&gt;Node8</title>
<path fill="none" stroke="midnightblue" d="M301.71,-174.68C317.789,-179.815 336.043,-185.644 350.981,-190.414"/>
<polygon fill="midnightblue" stroke="midnightblue" points="302.62,-171.297 292.029,-171.589 300.49,-177.965 302.62,-171.297"/>
</g>
<!-- Node10 -->
<g id="node10" class="node"><title>Node10</title>
<g id="a_node10"><a xlink:href="class_i_plug_v_s_t3.html" target="_top" xlink:title="VST3 base class for an IPlug plug&#45;in, inherits from IPlugBase. ">
<polygon fill="white" stroke="black" points="350,-152.5 350,-171.5 414,-171.5 414,-152.5 350,-152.5"/>
<text text-anchor="middle" x="382" y="-159.5" font-family="Helvetica,sans-Serif" font-size="10.00">IPlugVST3</text>
</a>
</g>
</g>
<!-- Node4&#45;&gt;Node10 -->
<g id="edge9" class="edge"><title>Node4&#45;&gt;Node10</title>
<path fill="none" stroke="midnightblue" d="M302.371,-162C317.841,-162 335.242,-162 349.734,-162"/>
<polygon fill="midnightblue" stroke="midnightblue" points="302.029,-158.5 292.029,-162 302.029,-165.5 302.029,-158.5"/>
</g>
<!-- Node11 -->
<g id="node11" class="node"><title>Node11</title>
<g id="a_node11"><a xlink:href="class_i_plug_v_s_t3_controller.html" target="_top" xlink:title="IPlugVST3Controller">
<polygon fill="white" stroke="black" points="329,-114.5 329,-133.5 435,-133.5 435,-114.5 329,-114.5"/>
<text text-anchor="middle" x="382" y="-121.5" font-family="Helvetica,sans-Serif" font-size="10.00">IPlugVST3Controller</text>
</a>
</g>
</g>
<!-- Node4&#45;&gt;Node11 -->
<g id="edge10" class="edge"><title>Node4&#45;&gt;Node11</title>
<path fill="none" stroke="midnightblue" d="M301.71,-149.32C317.789,-144.185 336.043,-138.356 350.981,-133.586"/>
<polygon fill="midnightblue" stroke="midnightblue" points="300.49,-146.035 292.029,-152.411 302.62,-152.703 300.49,-146.035"/>
</g>
<!-- Node12 -->
<g id="node12" class="node"><title>Node12</title>
<g id="a_node12"><a xlink:href="class_i_plug_v_s_t3_processor.html" target="_top" xlink:title="IPlugVST3Processor">
<polygon fill="white" stroke="black" points="328,-76.5 328,-95.5 436,-95.5 436,-76.5 328,-76.5"/>
<text text-anchor="middle" x="382" y="-83.5" font-family="Helvetica,sans-Serif" font-size="10.00">IPlugVST3Processor</text>
</a>
</g>
</g>
<!-- Node4&#45;&gt;Node12 -->
<g id="edge11" class="edge"><title>Node4&#45;&gt;Node12</title>
<path fill="none" stroke="midnightblue" d="M278.008,-145.151C290.617,-132.672 309.158,-115.996 328,-105 334.332,-101.305 341.502,-98.1439 348.477,-95.5215"/>
<polygon fill="midnightblue" stroke="midnightblue" points="275.499,-142.71 270.974,-152.289 280.486,-147.623 275.499,-142.71"/>
</g>
<!-- Node13 -->
<g id="node13" class="node"><title>Node13</title>
<g id="a_node13"><a xlink:href="class_i_plug_w_a_m.html" target="_top" xlink:title="WebAudioModule (WAM) API base class for an IPlug plug&#45;in. ">
<polygon fill="white" stroke="black" points="350,-38.5 350,-57.5 414,-57.5 414,-38.5 350,-38.5"/>
<text text-anchor="middle" x="382" y="-45.5" font-family="Helvetica,sans-Serif" font-size="10.00">IPlugWAM</text>
</a>
</g>
</g>
<!-- Node4&#45;&gt;Node13 -->
<g id="edge12" class="edge"><title>Node4&#45;&gt;Node13</title>
<path fill="none" stroke="midnightblue" d="M270.622,-143.156C281.266,-121.85 301.288,-87.4718 328,-67 334.439,-62.0648 342.275,-58.3326 349.923,-55.542"/>
<polygon fill="midnightblue" stroke="midnightblue" points="267.334,-141.917 266.162,-152.446 273.645,-144.946 267.334,-141.917"/>
</g>
<!-- Node14 -->
<g id="node14" class="node"><title>Node14</title>
<g id="a_node14"><a xlink:href="class_i_plug_web.html" target="_top" xlink:title="IPlugWeb">
<polygon fill="white" stroke="black" points="352.5,-0.5 352.5,-19.5 411.5,-19.5 411.5,-0.5 352.5,-0.5"/>
<text text-anchor="middle" x="382" y="-7.5" font-family="Helvetica,sans-Serif" font-size="10.00">IPlugWeb</text>
</a>
</g>
</g>
<!-- Node4&#45;&gt;Node14 -->
<g id="edge13" class="edge"><title>Node4&#45;&gt;Node14</title>
<path fill="none" stroke="midnightblue" d="M266.704,-142.417C274.589,-113.645 293.15,-60.0119 328,-29 334.864,-22.8919 343.833,-18.7077 352.436,-15.8581"/>
<polygon fill="midnightblue" stroke="midnightblue" points="263.224,-141.893 264.114,-152.45 270.002,-143.642 263.224,-141.893"/>
</g>
<!-- Node9 -->
<g id="node9" class="node"><title>Node9</title>
<g id="a_node9"><a xlink:href="class_i_plug_reaper.html" target="_top" xlink:title="IPlugReaper">
<polygon fill="white" stroke="black" points="472.5,-190.5 472.5,-209.5 543.5,-209.5 543.5,-190.5 472.5,-190.5"/>
<text text-anchor="middle" x="508" y="-197.5" font-family="Helvetica,sans-Serif" font-size="10.00">IPlugReaper</text>
</a>
</g>
</g>
<!-- Node8&#45;&gt;Node9 -->
<g id="edge8" class="edge"><title>Node8&#45;&gt;Node9</title>
<path fill="none" stroke="midnightblue" d="M424.632,-200C440.087,-200 457.442,-200 472.222,-200"/>
<polygon fill="midnightblue" stroke="midnightblue" points="424.29,-196.5 414.29,-200 424.29,-203.5 424.29,-196.5"/>
</g>
</g>
</svg>
