<?xml version="1.0" encoding="UTF-8" standalone="no"?>
<!DOCTYPE svg PUBLIC "-//W3C//DTD SVG 1.1//EN"
 "http://www.w3.org/Graphics/SVG/1.1/DTD/svg11.dtd">
<!-- Generated by graphviz version 2.36.0 (20140111.2315)
 -->
<!-- Title: IPlugWAM Pages: 1 -->
<svg width="375pt" height="196pt"
 viewBox="0.00 0.00 375.00 196.00" xmlns="http://www.w3.org/2000/svg" xmlns:xlink="http://www.w3.org/1999/xlink">
<g id="graph0" class="graph" transform="scale(1 1) rotate(0) translate(4 192)">
<title>IPlugWAM</title>
<polygon fill="white" stroke="none" points="-4,4 -4,-192 371,-192 371,4 -4,4"/>
<!-- Node1 -->
<g id="node1" class="node"><title>Node1</title>
<polygon fill="#bfbfbf" stroke="black" points="196,-0.5 196,-19.5 260,-19.5 260,-0.5 196,-0.5"/>
<text text-anchor="middle" x="228" y="-7.5" font-family="Helvetica,sans-Serif" font-size="10.00">IPlugWAM</text>
</g>
<!-- Node2 -->
<g id="node2" class="node"><title>Node2</title>
<g id="a_node2"><a xlink:href="class_i_plug_base.html" target="_top" xlink:title="The base class of an IPlug plug&#45;in, which interacts with the different plug&#45;in APIs. ">
<polygon fill="white" stroke="black" points="88,-56.5 88,-75.5 150,-75.5 150,-56.5 88,-56.5"/>
<text text-anchor="middle" x="119" y="-63.5" font-family="Helvetica,sans-Serif" font-size="10.00">IPlugBase</text>
</a>
</g>
</g>
<!-- Node2&#45;&gt;Node1 -->
<g id="edge1" class="edge"><title>Node2&#45;&gt;Node1</title>
<path fill="none" stroke="midnightblue" d="M145.519,-51.8622C165.73,-41.8492 192.987,-28.3458 210.531,-19.6545"/>
<polygon fill="midnightblue" stroke="midnightblue" points="143.92,-48.7485 136.513,-56.324 147.027,-55.0209 143.92,-48.7485"/>
</g>
<!-- Node3 -->
<g id="node3" class="node"><title>Node3</title>
<g id="a_node3"><a xlink:href="class_i_plugin_delegate.html" target="_top" xlink:title="This TODO has methods for serialization of state It provides a base interface for remote editors as w...">
<polygon fill="white" stroke="black" points="25,-112.5 25,-131.5 111,-131.5 111,-112.5 25,-112.5"/>
<text text-anchor="middle" x="68" y="-119.5" font-family="Helvetica,sans-Serif" font-size="10.00">IPluginDelegate</text>
</a>
</g>
</g>
<!-- Node3&#45;&gt;Node2 -->
<g id="edge2" class="edge"><title>Node3&#45;&gt;Node2</title>
<path fill="none" stroke="midnightblue" d="M83.3779,-104.718C92.3669,-95.1997 103.359,-83.5608 110.735,-75.7511"/>
<polygon fill="midnightblue" stroke="midnightblue" points="80.7433,-102.41 76.4216,-112.083 85.8324,-107.216 80.7433,-102.41"/>
</g>
<!-- Node4 -->
<g id="node4" class="node"><title>Node4</title>
<g id="a_node4"><a xlink:href="class_i_delegate.html" target="_top" xlink:title="This pure virtual interface delegates communication in both directions between a UI editor and someth...">
<polygon fill="white" stroke="black" points="0,-168.5 0,-187.5 136,-187.5 136,-168.5 0,-168.5"/>
<text text-anchor="middle" x="68" y="-175.5" font-family="Helvetica,sans-Serif" font-size="10.00">IPLUGIN_SUPER_CLASS</text>
</a>
</g>
</g>
<!-- Node4&#45;&gt;Node3 -->
<g id="edge3" class="edge"><title>Node4&#45;&gt;Node3</title>
<path fill="none" stroke="midnightblue" d="M68,-157.805C68,-148.91 68,-138.78 68,-131.751"/>
<polygon fill="midnightblue" stroke="midnightblue" points="64.5001,-158.083 68,-168.083 71.5001,-158.083 64.5001,-158.083"/>
</g>
<!-- Node5 -->
<g id="node5" class="node"><title>Node5</title>
<g id="a_node5"><a xlink:href="class_i_timer_callback.html" target="_top" xlink:title="ITimerCallback">
<polygon fill="white" stroke="black" points="129.5,-112.5 129.5,-131.5 212.5,-131.5 212.5,-112.5 129.5,-112.5"/>
<text text-anchor="middle" x="171" y="-119.5" font-family="Helvetica,sans-Serif" font-size="10.00">ITimerCallback</text>
</a>
</g>
</g>
<!-- Node5&#45;&gt;Node2 -->
<g id="edge4" class="edge"><title>Node5&#45;&gt;Node2</title>
<path fill="none" stroke="midnightblue" d="M155.321,-104.718C146.155,-95.1997 134.947,-83.5608 127.427,-75.7511"/>
<polygon fill="midnightblue" stroke="midnightblue" points="152.956,-107.308 162.413,-112.083 157.998,-102.452 152.956,-107.308"/>
</g>
<!-- Node6 -->
<g id="node6" class="node"><title>Node6</title>
<g id="a_node6"><a xlink:href="class_i_plug_processor.html" target="_top" xlink:title="IPlugProcessor\&lt; float \&gt;">
<polygon fill="white" stroke="black" points="168,-56.5 168,-75.5 288,-75.5 288,-56.5 168,-56.5"/>
<text text-anchor="middle" x="228" y="-63.5" font-family="Helvetica,sans-Serif" font-size="10.00">IPlugProcessor&lt; float &gt;</text>
</a>
</g>
</g>
<!-- Node6&#45;&gt;Node1 -->
<g id="edge5" class="edge"><title>Node6&#45;&gt;Node1</title>
<path fill="none" stroke="midnightblue" d="M228,-45.8045C228,-36.9102 228,-26.7798 228,-19.7511"/>
<polygon fill="midnightblue" stroke="midnightblue" points="224.5,-46.083 228,-56.083 231.5,-46.083 224.5,-46.083"/>
</g>
<!-- Node7 -->
<g id="node7" class="node"><title>Node7</title>
<polygon fill="white" stroke="#bfbfbf" points="306.5,-56.5 306.5,-75.5 367.5,-75.5 367.5,-56.5 306.5,-56.5"/>
<text text-anchor="middle" x="337" y="-63.5" font-family="Helvetica,sans-Serif" font-size="10.00">Processor</text>
</g>
<!-- Node7&#45;&gt;Node1 -->
<g id="edge6" class="edge"><title>Node7&#45;&gt;Node1</title>
<path fill="none" stroke="midnightblue" d="M310.481,-51.8622C290.27,-41.8492 263.013,-28.3458 245.469,-19.6545"/>
<polygon fill="midnightblue" stroke="midnightblue" points="308.973,-55.0209 319.487,-56.324 312.08,-48.7485 308.973,-55.0209"/>
</g>
</g>
</svg>
