<?xml version="1.0" encoding="UTF-8" standalone="no"?>
<!DOCTYPE svg PUBLIC "-//W3C//DTD SVG 1.1//EN"
 "http://www.w3.org/Graphics/SVG/1.1/DTD/svg11.dtd">
<!-- Generated by graphviz version 2.36.0 (20140111.2315)
 -->
<!-- Title: IPlugVST3Processor Pages: 1 -->
<svg width="295pt" height="208pt"
 viewBox="0.00 0.00 295.00 208.00" xmlns="http://www.w3.org/2000/svg" xmlns:xlink="http://www.w3.org/1999/xlink">
<g id="graph0" class="graph" transform="scale(1 1) rotate(0) translate(4 204)">
<title>IPlugVST3Processor</title>
<polygon fill="white" stroke="none" points="-4,4 -4,-204 291,-204 291,4 -4,4"/>
<!-- Node1 -->
<g id="node1" class="node"><title>Node1</title>
<polygon fill="#bfbfbf" stroke="black" points="65,-0.5 65,-19.5 173,-19.5 173,-0.5 65,-0.5"/>
<text text-anchor="middle" x="119" y="-7.5" font-family="Helvetica,sans-Serif" font-size="10.00">IPlugVST3Processor</text>
</g>
<!-- Node2 -->
<g id="node2" class="node"><title>Node2</title>
<polygon fill="white" stroke="#bfbfbf" points="2,-62.5 2,-81.5 70,-81.5 70,-62.5 2,-62.5"/>
<text text-anchor="middle" x="36" y="-69.5" font-family="Helvetica,sans-Serif" font-size="10.00">AudioEffect</text>
</g>
<!-- Node2&#45;&gt;Node1 -->
<g id="edge1" class="edge"><title>Node2&#45;&gt;Node1</title>
<path fill="none" stroke="midnightblue" d="M56.0697,-56.4918C72.033,-44.952 93.8266,-29.1976 107.13,-19.5806"/>
<polygon fill="midnightblue" stroke="midnightblue" points="53.9456,-53.7085 47.8919,-62.4035 58.0466,-59.3814 53.9456,-53.7085"/>
</g>
<!-- Node3 -->
<g id="node3" class="node"><title>Node3</title>
<g id="a_node3"><a xlink:href="class_i_plug_base.html" target="_top" xlink:title="The base class of an IPlug plug&#45;in, which interacts with the different plug&#45;in APIs. ">
<polygon fill="white" stroke="black" points="88,-62.5 88,-81.5 150,-81.5 150,-62.5 88,-62.5"/>
<text text-anchor="middle" x="119" y="-69.5" font-family="Helvetica,sans-Serif" font-size="10.00">IPlugBase</text>
</a>
</g>
</g>
<!-- Node3&#45;&gt;Node1 -->
<g id="edge2" class="edge"><title>Node3&#45;&gt;Node1</title>
<path fill="none" stroke="midnightblue" d="M119,-52.1595C119,-41.2482 119,-28.04 119,-19.5806"/>
<polygon fill="midnightblue" stroke="midnightblue" points="115.5,-52.4034 119,-62.4035 122.5,-52.4035 115.5,-52.4034"/>
</g>
<!-- Node4 -->
<g id="node4" class="node"><title>Node4</title>
<g id="a_node4"><a xlink:href="class_i_plugin_delegate.html" target="_top" xlink:title="This TODO has methods for serialization of state It provides a base interface for remote editors as w...">
<polygon fill="white" stroke="black" points="25,-124.5 25,-143.5 111,-143.5 111,-124.5 25,-124.5"/>
<text text-anchor="middle" x="68" y="-131.5" font-family="Helvetica,sans-Serif" font-size="10.00">IPluginDelegate</text>
</a>
</g>
</g>
<!-- Node4&#45;&gt;Node3 -->
<g id="edge3" class="edge"><title>Node4&#45;&gt;Node3</title>
<path fill="none" stroke="midnightblue" d="M81.9984,-116.531C91.6126,-105.22 103.986,-90.6633 111.706,-81.5806"/>
<polygon fill="midnightblue" stroke="midnightblue" points="79.1168,-114.517 75.3071,-124.403 84.4504,-119.051 79.1168,-114.517"/>
</g>
<!-- Node5 -->
<g id="node5" class="node"><title>Node5</title>
<g id="a_node5"><a xlink:href="class_i_delegate.html" target="_top" xlink:title="This pure virtual interface delegates communication in both directions between a UI editor and someth...">
<polygon fill="white" stroke="black" points="0,-180.5 0,-199.5 136,-199.5 136,-180.5 0,-180.5"/>
<text text-anchor="middle" x="68" y="-187.5" font-family="Helvetica,sans-Serif" font-size="10.00">IPLUGIN_SUPER_CLASS</text>
</a>
</g>
</g>
<!-- Node5&#45;&gt;Node4 -->
<g id="edge4" class="edge"><title>Node5&#45;&gt;Node4</title>
<path fill="none" stroke="midnightblue" d="M68,-169.805C68,-160.91 68,-150.78 68,-143.751"/>
<polygon fill="midnightblue" stroke="midnightblue" points="64.5001,-170.083 68,-180.083 71.5001,-170.083 64.5001,-170.083"/>
</g>
<!-- Node6 -->
<g id="node6" class="node"><title>Node6</title>
<g id="a_node6"><a xlink:href="class_i_timer_callback.html" target="_top" xlink:title="ITimerCallback">
<polygon fill="white" stroke="black" points="129.5,-124.5 129.5,-143.5 212.5,-143.5 212.5,-124.5 129.5,-124.5"/>
<text text-anchor="middle" x="171" y="-131.5" font-family="Helvetica,sans-Serif" font-size="10.00">ITimerCallback</text>
</a>
</g>
</g>
<!-- Node6&#45;&gt;Node3 -->
<g id="edge5" class="edge"><title>Node6&#45;&gt;Node3</title>
<path fill="none" stroke="midnightblue" d="M156.727,-116.531C146.924,-105.22 134.308,-90.6633 126.437,-81.5806"/>
<polygon fill="midnightblue" stroke="midnightblue" points="154.355,-119.139 163.55,-124.403 159.645,-114.554 154.355,-119.139"/>
</g>
<!-- Node7 -->
<g id="node7" class="node"><title>Node7</title>
<g id="a_node7"><a xlink:href="class_i_plug_processor.html" target="_top" xlink:title="IPlugProcessor\&lt; PLUG\l_SAMPLE_DST \&gt;">
<polygon fill="white" stroke="black" points="168.5,-57 168.5,-87 287.5,-87 287.5,-57 168.5,-57"/>
<text text-anchor="start" x="176.5" y="-75" font-family="Helvetica,sans-Serif" font-size="10.00">IPlugProcessor&lt; PLUG</text>
<text text-anchor="middle" x="228" y="-64" font-family="Helvetica,sans-Serif" font-size="10.00">_SAMPLE_DST &gt;</text>
</a>
</g>
</g>
<!-- Node7&#45;&gt;Node1 -->
<g id="edge6" class="edge"><title>Node7&#45;&gt;Node1</title>
<path fill="none" stroke="midnightblue" d="M193.42,-51.9654C173.682,-41.1003 149.902,-28.0101 134.623,-19.6"/>
<polygon fill="midnightblue" stroke="midnightblue" points="191.996,-55.1765 202.444,-56.9327 195.372,-49.0442 191.996,-55.1765"/>
</g>
</g>
</svg>
