<?xml version="1.0" encoding="UTF-8" standalone="no"?>
<!DOCTYPE svg PUBLIC "-//W3C//DTD SVG 1.1//EN"
 "http://www.w3.org/Graphics/SVG/1.1/DTD/svg11.dtd">
<!-- Generated by graphviz version 2.36.0 (20140111.2315)
 -->
<!-- Title: IVectorBase Pages: 1 -->
<svg width="424pt" height="268pt"
 viewBox="0.00 0.00 424.00 268.00" xmlns="http://www.w3.org/2000/svg" xmlns:xlink="http://www.w3.org/1999/xlink">
<g id="graph0" class="graph" transform="scale(1 1) rotate(0) translate(4 264)">
<title>IVectorBase</title>
<polygon fill="white" stroke="none" points="-4,4 -4,-264 420,-264 420,4 -4,4"/>
<!-- Node1 -->
<g id="node1" class="node"><title>Node1</title>
<polygon fill="#bfbfbf" stroke="black" points="0.5,-120.5 0.5,-139.5 71.5,-139.5 71.5,-120.5 0.5,-120.5"/>
<text text-anchor="middle" x="36" y="-127.5" font-family="Helvetica,sans-Serif" font-size="10.00">IVectorBase</text>
</g>
<!-- Node2 -->
<g id="node2" class="node"><title>Node2</title>
<g id="a_node2"><a xlink:href="class_i_v_drop_down_list_control.html" target="_top" xlink:title="A vector drop down list. ">
<polygon fill="white" stroke="black" points="115,-240.5 115,-259.5 235,-259.5 235,-240.5 115,-240.5"/>
<text text-anchor="middle" x="175" y="-247.5" font-family="Helvetica,sans-Serif" font-size="10.00">IVDropDownListControl</text>
</a>
</g>
</g>
<!-- Node1&#45;&gt;Node2 -->
<g id="edge1" class="edge"><title>Node1&#45;&gt;Node2</title>
<path fill="none" stroke="midnightblue" d="M45.4447,-149.04C56.5421,-171.883 78.1813,-209.749 108,-231 113.438,-234.875 119.654,-237.964 126.049,-240.426"/>
<polygon fill="midnightblue" stroke="midnightblue" points="48.4949,-147.3 41.0961,-139.716 42.1509,-150.259 48.4949,-147.3"/>
</g>
<!-- Node3 -->
<g id="node3" class="node"><title>Node3</title>
<g id="a_node3"><a xlink:href="class_i_v_keyboard_control.html" target="_top" xlink:title="IVKeyboardControl">
<polygon fill="white" stroke="black" points="125.5,-202.5 125.5,-221.5 224.5,-221.5 224.5,-202.5 125.5,-202.5"/>
<text text-anchor="middle" x="175" y="-209.5" font-family="Helvetica,sans-Serif" font-size="10.00">IVKeyboardControl</text>
</a>
</g>
</g>
<!-- Node1&#45;&gt;Node3 -->
<g id="edge2" class="edge"><title>Node1&#45;&gt;Node3</title>
<path fill="none" stroke="midnightblue" d="M52.1734,-147.197C65.5604,-161.38 86.2754,-181.046 108,-193 114.895,-196.794 122.621,-199.894 130.292,-202.407"/>
<polygon fill="midnightblue" stroke="midnightblue" points="54.525,-144.583 45.1859,-139.58 49.3666,-149.315 54.525,-144.583"/>
</g>
<!-- Node4 -->
<g id="node4" class="node"><title>Node4</title>
<g id="a_node4"><a xlink:href="class_i_v_knob_control.html" target="_top" xlink:title="A vector knob control drawn using graphics primitves. ">
<polygon fill="white" stroke="black" points="135,-164.5 135,-183.5 215,-183.5 215,-164.5 135,-164.5"/>
<text text-anchor="middle" x="175" y="-171.5" font-family="Helvetica,sans-Serif" font-size="10.00">IVKnobControl</text>
</a>
</g>
</g>
<!-- Node1&#45;&gt;Node4 -->
<g id="edge3" class="edge"><title>Node1&#45;&gt;Node4</title>
<path fill="none" stroke="midnightblue" d="M74.2125,-142.827C85.0809,-146.505 96.9953,-150.474 108,-154 118.946,-157.507 130.963,-161.197 141.71,-164.438"/>
<polygon fill="midnightblue" stroke="midnightblue" points="75.1758,-139.457 64.5814,-139.55 72.9213,-146.084 75.1758,-139.457"/>
</g>
<!-- Node5 -->
<g id="node5" class="node"><title>Node5</title>
<g id="a_node5"><a xlink:href="class_i_v_scope_control.html" target="_top" xlink:title="IVScopeControl\&lt; MAXNC,\l MAXBUF \&gt;">
<polygon fill="white" stroke="black" points="108,-115 108,-145 242,-145 242,-115 108,-115"/>
<text text-anchor="start" x="116" y="-133" font-family="Helvetica,sans-Serif" font-size="10.00">IVScopeControl&lt; MAXNC,</text>
<text text-anchor="middle" x="175" y="-122" font-family="Helvetica,sans-Serif" font-size="10.00"> MAXBUF &gt;</text>
</a>
</g>
</g>
<!-- Node1&#45;&gt;Node5 -->
<g id="edge4" class="edge"><title>Node1&#45;&gt;Node5</title>
<path fill="none" stroke="midnightblue" d="M81.8304,-130C90.1916,-130 99.0893,-130 107.933,-130"/>
<polygon fill="midnightblue" stroke="midnightblue" points="81.5709,-126.5 71.5709,-130 81.5709,-133.5 81.5709,-126.5"/>
</g>
<!-- Node6 -->
<g id="node6" class="node"><title>Node6</title>
<g id="a_node6"><a xlink:href="class_i_v_slider_control.html" target="_top" xlink:title="IVSliderControl">
<polygon fill="white" stroke="black" points="133.5,-76.5 133.5,-95.5 216.5,-95.5 216.5,-76.5 133.5,-76.5"/>
<text text-anchor="middle" x="175" y="-83.5" font-family="Helvetica,sans-Serif" font-size="10.00">IVSliderControl</text>
</a>
</g>
</g>
<!-- Node1&#45;&gt;Node6 -->
<g id="edge5" class="edge"><title>Node1&#45;&gt;Node6</title>
<path fill="none" stroke="midnightblue" d="M74.2125,-117.173C85.0809,-113.495 96.9953,-109.526 108,-106 118.946,-102.493 130.963,-98.8032 141.71,-95.5616"/>
<polygon fill="midnightblue" stroke="midnightblue" points="72.9213,-113.916 64.5814,-120.45 75.1758,-120.543 72.9213,-113.916"/>
</g>
<!-- Node7 -->
<g id="node7" class="node"><title>Node7</title>
<g id="a_node7"><a xlink:href="class_i_v_switch_control.html" target="_top" xlink:title="A vector switch control. ">
<polygon fill="white" stroke="black" points="131,-38.5 131,-57.5 219,-57.5 219,-38.5 131,-38.5"/>
<text text-anchor="middle" x="175" y="-45.5" font-family="Helvetica,sans-Serif" font-size="10.00">IVSwitchControl</text>
</a>
</g>
</g>
<!-- Node1&#45;&gt;Node7 -->
<g id="edge6" class="edge"><title>Node1&#45;&gt;Node7</title>
<path fill="none" stroke="midnightblue" d="M52.1734,-112.803C65.5604,-98.6203 86.2754,-78.9539 108,-67 115.104,-63.0912 123.09,-59.9184 130.99,-57.3663"/>
<polygon fill="midnightblue" stroke="midnightblue" points="49.3666,-110.685 45.1859,-120.42 54.525,-115.417 49.3666,-110.685"/>
</g>
<!-- Node9 -->
<g id="node9" class="node"><title>Node9</title>
<g id="a_node9"><a xlink:href="class_i_v_track_control_base.html" target="_top" xlink:title="IVTrackControlBase">
<polygon fill="white" stroke="black" points="122.5,-0.5 122.5,-19.5 227.5,-19.5 227.5,-0.5 122.5,-0.5"/>
<text text-anchor="middle" x="175" y="-7.5" font-family="Helvetica,sans-Serif" font-size="10.00">IVTrackControlBase</text>
</a>
</g>
</g>
<!-- Node1&#45;&gt;Node9 -->
<g id="edge8" class="edge"><title>Node1&#45;&gt;Node9</title>
<path fill="none" stroke="midnightblue" d="M45.4447,-110.96C56.5421,-88.1174 78.1813,-50.2514 108,-29 113.438,-25.1247 119.654,-22.0356 126.049,-19.5743"/>
<polygon fill="midnightblue" stroke="midnightblue" points="42.1509,-109.741 41.0961,-120.284 48.4949,-112.7 42.1509,-109.741"/>
</g>
<!-- Node8 -->
<g id="node8" class="node"><title>Node8</title>
<g id="a_node8"><a xlink:href="class_i_v_contact_control.html" target="_top" xlink:title="IVContactControl">
<polygon fill="white" stroke="black" points="301,-38.5 301,-57.5 393,-57.5 393,-38.5 301,-38.5"/>
<text text-anchor="middle" x="347" y="-45.5" font-family="Helvetica,sans-Serif" font-size="10.00">IVContactControl</text>
</a>
</g>
</g>
<!-- Node7&#45;&gt;Node8 -->
<g id="edge7" class="edge"><title>Node7&#45;&gt;Node8</title>
<path fill="none" stroke="midnightblue" d="M229.602,-48C252.549,-48 279.048,-48 300.961,-48"/>
<polygon fill="midnightblue" stroke="midnightblue" points="229.338,-44.5001 219.338,-48 229.338,-51.5001 229.338,-44.5001"/>
</g>
<!-- Node10 -->
<g id="node10" class="node"><title>Node10</title>
<g id="a_node10"><a xlink:href="class_i_v_meter_control.html" target="_top" xlink:title="IVMeterControl\&lt; MAXNC \&gt;">
<polygon fill="white" stroke="black" points="278.5,-0.5 278.5,-19.5 415.5,-19.5 415.5,-0.5 278.5,-0.5"/>
<text text-anchor="middle" x="347" y="-7.5" font-family="Helvetica,sans-Serif" font-size="10.00">IVMeterControl&lt; MAXNC &gt;</text>
</a>
</g>
</g>
<!-- Node9&#45;&gt;Node10 -->
<g id="edge9" class="edge"><title>Node9&#45;&gt;Node10</title>
<path fill="none" stroke="midnightblue" d="M238.22,-10C251.291,-10 265.138,-10 278.396,-10"/>
<polygon fill="midnightblue" stroke="midnightblue" points="237.929,-6.5001 227.929,-10 237.929,-13.5001 237.929,-6.5001"/>
</g>
</g>
</svg>
