<?xml version="1.0" encoding="UTF-8" standalone="no"?>
<!DOCTYPE svg PUBLIC "-//W3C//DTD SVG 1.1//EN"
 "http://www.w3.org/Graphics/SVG/1.1/DTD/svg11.dtd">
<!-- Generated by graphviz version 2.36.0 (20140111.2315)
 -->
<!-- Title: IGraphicsPathBase Pages: 1 -->
<svg width="400pt" height="196pt"
 viewBox="0.00 0.00 400.00 196.00" xmlns="http://www.w3.org/2000/svg" xmlns:xlink="http://www.w3.org/1999/xlink">
<g id="graph0" class="graph" transform="scale(1 1) rotate(0) translate(4 192)">
<title>IGraphicsPathBase</title>
<polygon fill="white" stroke="none" points="-4,4 -4,-192 396,-192 396,4 -4,4"/>
<!-- Node1 -->
<g id="node1" class="node"><title>Node1</title>
<polygon fill="#bfbfbf" stroke="black" points="141.5,-112.5 141.5,-131.5 242.5,-131.5 242.5,-112.5 141.5,-112.5"/>
<text text-anchor="middle" x="192" y="-119.5" font-family="Helvetica,sans-Serif" font-size="10.00">IGraphicsPathBase</text>
</g>
<!-- Node3 -->
<g id="node3" class="node"><title>Node3</title>
<g id="a_node3"><a xlink:href="class_i_graphics_a_g_g.html" target="_top" xlink:title="IGraphics draw class using Antigrain Geometry. ">
<polygon fill="white" stroke="black" points="0,-56.5 0,-75.5 80,-75.5 80,-56.5 0,-56.5"/>
<text text-anchor="middle" x="40" y="-63.5" font-family="Helvetica,sans-Serif" font-size="10.00">IGraphicsAGG</text>
</a>
</g>
</g>
<!-- Node1&#45;&gt;Node3 -->
<g id="edge2" class="edge"><title>Node1&#45;&gt;Node3</title>
<path fill="none" stroke="midnightblue" d="M158.332,-109.039C129.732,-98.8786 89.388,-84.5457 63.9722,-75.5164"/>
<polygon fill="midnightblue" stroke="midnightblue" points="157.32,-112.394 167.915,-112.444 159.664,-105.798 157.32,-112.394"/>
</g>
<!-- Node4 -->
<g id="node4" class="node"><title>Node4</title>
<g id="a_node4"><a xlink:href="class_i_graphics_cairo.html" target="_top" xlink:title="IGraphics draw class using Cairo. ">
<polygon fill="white" stroke="black" points="98,-56.5 98,-75.5 180,-75.5 180,-56.5 98,-56.5"/>
<text text-anchor="middle" x="139" y="-63.5" font-family="Helvetica,sans-Serif" font-size="10.00">IGraphicsCairo</text>
</a>
</g>
</g>
<!-- Node1&#45;&gt;Node4 -->
<g id="edge3" class="edge"><title>Node1&#45;&gt;Node4</title>
<path fill="none" stroke="midnightblue" d="M176.019,-104.718C166.678,-95.1997 155.254,-83.5608 147.589,-75.7511"/>
<polygon fill="midnightblue" stroke="midnightblue" points="173.746,-107.398 183.248,-112.083 178.741,-102.494 173.746,-107.398"/>
</g>
<!-- Node5 -->
<g id="node5" class="node"><title>Node5</title>
<g id="a_node5"><a xlink:href="class_i_graphics_nano_v_g.html" target="_top" xlink:title="IGraphics draw class using NanoVG. ">
<polygon fill="white" stroke="black" points="198,-56.5 198,-75.5 294,-75.5 294,-56.5 198,-56.5"/>
<text text-anchor="middle" x="246" y="-63.5" font-family="Helvetica,sans-Serif" font-size="10.00">IGraphicsNanoVG</text>
</a>
</g>
</g>
<!-- Node1&#45;&gt;Node5 -->
<g id="edge4" class="edge"><title>Node1&#45;&gt;Node5</title>
<path fill="none" stroke="midnightblue" d="M207.998,-105.002C217.567,-95.4329 229.361,-83.6389 237.249,-75.7511"/>
<polygon fill="midnightblue" stroke="midnightblue" points="205.513,-102.537 200.917,-112.083 210.463,-107.487 205.513,-102.537"/>
</g>
<!-- Node7 -->
<g id="node7" class="node"><title>Node7</title>
<g id="a_node7"><a xlink:href="class_i_graphics_web.html" target="_top" xlink:title="IGraphics draw/platform class HTML5 canvas. ">
<polygon fill="white" stroke="black" points="312.5,-56.5 312.5,-75.5 391.5,-75.5 391.5,-56.5 312.5,-56.5"/>
<text text-anchor="middle" x="352" y="-63.5" font-family="Helvetica,sans-Serif" font-size="10.00">IGraphicsWeb</text>
</a>
</g>
</g>
<!-- Node1&#45;&gt;Node7 -->
<g id="edge6" class="edge"><title>Node1&#45;&gt;Node7</title>
<path fill="none" stroke="midnightblue" d="M227.046,-109.172C257.174,-99.0039 299.896,-84.5852 326.766,-75.5164"/>
<polygon fill="midnightblue" stroke="midnightblue" points="225.708,-105.929 217.352,-112.444 227.947,-112.562 225.708,-105.929"/>
</g>
<!-- Node2 -->
<g id="node2" class="node"><title>Node2</title>
<g id="a_node2"><a xlink:href="class_i_graphics.html" target="_top" xlink:title="The lowest level base class of an IGraphics context. ">
<polygon fill="white" stroke="black" points="162.5,-168.5 162.5,-187.5 221.5,-187.5 221.5,-168.5 162.5,-168.5"/>
<text text-anchor="middle" x="192" y="-175.5" font-family="Helvetica,sans-Serif" font-size="10.00">IGraphics</text>
</a>
</g>
</g>
<!-- Node2&#45;&gt;Node1 -->
<g id="edge1" class="edge"><title>Node2&#45;&gt;Node1</title>
<path fill="none" stroke="midnightblue" d="M192,-157.805C192,-148.91 192,-138.78 192,-131.751"/>
<polygon fill="midnightblue" stroke="midnightblue" points="188.5,-158.083 192,-168.083 195.5,-158.083 188.5,-158.083"/>
</g>
<!-- Node6 -->
<g id="node6" class="node"><title>Node6</title>
<g id="a_node6"><a xlink:href="class_i_graphics_i_o_s.html" target="_top" xlink:title="IGraphics platform class for IOS. ">
<polygon fill="white" stroke="black" points="208,-0.5 208,-19.5 284,-19.5 284,-0.5 208,-0.5"/>
<text text-anchor="middle" x="246" y="-7.5" font-family="Helvetica,sans-Serif" font-size="10.00">IGraphicsIOS</text>
</a>
</g>
</g>
<!-- Node5&#45;&gt;Node6 -->
<g id="edge5" class="edge"><title>Node5&#45;&gt;Node6</title>
<path fill="none" stroke="midnightblue" d="M246,-45.8045C246,-36.9102 246,-26.7798 246,-19.7511"/>
<polygon fill="midnightblue" stroke="midnightblue" points="242.5,-46.083 246,-56.083 249.5,-46.083 242.5,-46.083"/>
</g>
</g>
</svg>
