<?xml version="1.0" encoding="UTF-8" standalone="no"?>
<!DOCTYPE svg PUBLIC "-//W3C//DTD SVG 1.1//EN"
 "http://www.w3.org/Graphics/SVG/1.1/DTD/svg11.dtd">
<!-- Generated by graphviz version 2.36.0 (20140111.2315)
 -->
<!-- Title: IGraphicsNanoVG Pages: 1 -->
<svg width="108pt" height="196pt"
 viewBox="0.00 0.00 108.00 196.00" xmlns="http://www.w3.org/2000/svg" xmlns:xlink="http://www.w3.org/1999/xlink">
<g id="graph0" class="graph" transform="scale(1 1) rotate(0) translate(4 192)">
<title>IGraphicsNanoVG</title>
<polygon fill="white" stroke="none" points="-4,4 -4,-192 104,-192 104,4 -4,4"/>
<!-- Node1 -->
<g id="node1" class="node"><title>Node1</title>
<polygon fill="#bfbfbf" stroke="black" points="2,-56.5 2,-75.5 98,-75.5 98,-56.5 2,-56.5"/>
<text text-anchor="middle" x="50" y="-63.5" font-family="Helvetica,sans-Serif" font-size="10.00">IGraphicsNanoVG</text>
</g>
<!-- Node4 -->
<g id="node4" class="node"><title>Node4</title>
<g id="a_node4"><a xlink:href="class_i_graphics_i_o_s.html" target="_top" xlink:title="IGraphics platform class for IOS. ">
<polygon fill="white" stroke="black" points="12,-0.5 12,-19.5 88,-19.5 88,-0.5 12,-0.5"/>
<text text-anchor="middle" x="50" y="-7.5" font-family="Helvetica,sans-Serif" font-size="10.00">IGraphicsIOS</text>
</a>
</g>
</g>
<!-- Node1&#45;&gt;Node4 -->
<g id="edge3" class="edge"><title>Node1&#45;&gt;Node4</title>
<path fill="none" stroke="midnightblue" d="M50,-45.8045C50,-36.9102 50,-26.7798 50,-19.7511"/>
<polygon fill="midnightblue" stroke="midnightblue" points="46.5001,-46.083 50,-56.083 53.5001,-46.083 46.5001,-46.083"/>
</g>
<!-- Node2 -->
<g id="node2" class="node"><title>Node2</title>
<g id="a_node2"><a xlink:href="class_i_graphics_path_base.html" target="_top" xlink:title="IGraphicsPathBase">
<polygon fill="white" stroke="black" points="-0.5,-112.5 -0.5,-131.5 100.5,-131.5 100.5,-112.5 -0.5,-112.5"/>
<text text-anchor="middle" x="50" y="-119.5" font-family="Helvetica,sans-Serif" font-size="10.00">IGraphicsPathBase</text>
</a>
</g>
</g>
<!-- Node2&#45;&gt;Node1 -->
<g id="edge1" class="edge"><title>Node2&#45;&gt;Node1</title>
<path fill="none" stroke="midnightblue" d="M50,-101.805C50,-92.9102 50,-82.7798 50,-75.7511"/>
<polygon fill="midnightblue" stroke="midnightblue" points="46.5001,-102.083 50,-112.083 53.5001,-102.083 46.5001,-102.083"/>
</g>
<!-- Node3 -->
<g id="node3" class="node"><title>Node3</title>
<g id="a_node3"><a xlink:href="class_i_graphics.html" target="_top" xlink:title="The lowest level base class of an IGraphics context. ">
<polygon fill="white" stroke="black" points="20.5,-168.5 20.5,-187.5 79.5,-187.5 79.5,-168.5 20.5,-168.5"/>
<text text-anchor="middle" x="50" y="-175.5" font-family="Helvetica,sans-Serif" font-size="10.00">IGraphics</text>
</a>
</g>
</g>
<!-- Node3&#45;&gt;Node2 -->
<g id="edge2" class="edge"><title>Node3&#45;&gt;Node2</title>
<path fill="none" stroke="midnightblue" d="M50,-157.805C50,-148.91 50,-138.78 50,-131.751"/>
<polygon fill="midnightblue" stroke="midnightblue" points="46.5001,-158.083 50,-168.083 53.5001,-158.083 46.5001,-158.083"/>
</g>
</g>
</svg>
