<?xml version="1.0" encoding="UTF-8" standalone="no"?>
<!DOCTYPE svg PUBLIC "-//W3C//DTD SVG 1.1//EN"
 "http://www.w3.org/Graphics/SVG/1.1/DTD/svg11.dtd">
<!-- Generated by graphviz version 2.36.0 (20140111.2315)
 -->
<!-- Title: IBitmapBase Pages: 1 -->
<svg width="402pt" height="140pt"
 viewBox="0.00 0.00 402.00 140.00" xmlns="http://www.w3.org/2000/svg" xmlns:xlink="http://www.w3.org/1999/xlink">
<g id="graph0" class="graph" transform="scale(1 1) rotate(0) translate(4 136)">
<title>IBitmapBase</title>
<polygon fill="white" stroke="none" points="-4,4 -4,-136 398,-136 398,4 -4,4"/>
<!-- Node1 -->
<g id="node1" class="node"><title>Node1</title>
<polygon fill="#bfbfbf" stroke="black" points="171.5,-112.5 171.5,-131.5 244.5,-131.5 244.5,-112.5 171.5,-112.5"/>
<text text-anchor="middle" x="208" y="-119.5" font-family="Helvetica,sans-Serif" font-size="10.00">IBitmapBase</text>
</g>
<!-- Node2 -->
<g id="node2" class="node"><title>Node2</title>
<g id="a_node2"><a xlink:href="class_i_bitmap_control.html" target="_top" xlink:title="A basic control to draw a bitmap, or one frame of a stacked bitmap depending on the current value...">
<polygon fill="white" stroke="black" points="8,-56.5 8,-75.5 90,-75.5 90,-56.5 8,-56.5"/>
<text text-anchor="middle" x="49" y="-63.5" font-family="Helvetica,sans-Serif" font-size="10.00">IBitmapControl</text>
</a>
</g>
</g>
<!-- Node1&#45;&gt;Node2 -->
<g id="edge1" class="edge"><title>Node1&#45;&gt;Node2</title>
<path fill="none" stroke="midnightblue" d="M173.173,-109.172C143.234,-99.0039 100.779,-84.5852 74.0762,-75.5164"/>
<polygon fill="midnightblue" stroke="midnightblue" points="172.212,-112.542 182.806,-112.444 174.463,-105.914 172.212,-112.542"/>
</g>
<!-- Node4 -->
<g id="node4" class="node"><title>Node4</title>
<g id="a_node4"><a xlink:href="class_i_b_knob_control.html" target="_top" xlink:title="A bitmap knob/dial control. ">
<polygon fill="white" stroke="black" points="118,-56.5 118,-75.5 198,-75.5 198,-56.5 118,-56.5"/>
<text text-anchor="middle" x="158" y="-63.5" font-family="Helvetica,sans-Serif" font-size="10.00">IBKnobControl</text>
</a>
</g>
</g>
<!-- Node1&#45;&gt;Node4 -->
<g id="edge3" class="edge"><title>Node1&#45;&gt;Node4</title>
<path fill="none" stroke="midnightblue" d="M192.924,-104.718C184.111,-95.1997 173.334,-83.5608 166.103,-75.7511"/>
<polygon fill="midnightblue" stroke="midnightblue" points="190.381,-107.123 199.744,-112.083 195.518,-102.367 190.381,-107.123"/>
</g>
<!-- Node6 -->
<g id="node6" class="node"><title>Node6</title>
<g id="a_node6"><a xlink:href="class_i_b_slider_control.html" target="_top" xlink:title="IBSliderControl">
<polygon fill="white" stroke="black" points="216.5,-56.5 216.5,-75.5 299.5,-75.5 299.5,-56.5 216.5,-56.5"/>
<text text-anchor="middle" x="258" y="-63.5" font-family="Helvetica,sans-Serif" font-size="10.00">IBSliderControl</text>
</a>
</g>
</g>
<!-- Node1&#45;&gt;Node6 -->
<g id="edge5" class="edge"><title>Node1&#45;&gt;Node6</title>
<path fill="none" stroke="midnightblue" d="M223.076,-104.718C231.889,-95.1997 242.666,-83.5608 249.897,-75.7511"/>
<polygon fill="midnightblue" stroke="midnightblue" points="220.482,-102.367 216.256,-112.083 225.619,-107.123 220.482,-102.367"/>
</g>
<!-- Node7 -->
<g id="node7" class="node"><title>Node7</title>
<g id="a_node7"><a xlink:href="class_i_b_text_control.html" target="_top" xlink:title="Display monospace bitmap font text. ">
<polygon fill="white" stroke="black" points="317.5,-56.5 317.5,-75.5 394.5,-75.5 394.5,-56.5 317.5,-56.5"/>
<text text-anchor="middle" x="356" y="-63.5" font-family="Helvetica,sans-Serif" font-size="10.00">IBTextControl</text>
</a>
</g>
</g>
<!-- Node1&#45;&gt;Node7 -->
<g id="edge6" class="edge"><title>Node1&#45;&gt;Node7</title>
<path fill="none" stroke="midnightblue" d="M241.147,-108.906C268.972,-98.7536 308.02,-84.5063 332.659,-75.5164"/>
<polygon fill="midnightblue" stroke="midnightblue" points="239.646,-105.728 231.451,-112.444 242.045,-112.304 239.646,-105.728"/>
</g>
<!-- Node3 -->
<g id="node3" class="node"><title>Node3</title>
<g id="a_node3"><a xlink:href="class_i_b_switch_control.html" target="_top" xlink:title="A bitmap switch control. ">
<polygon fill="white" stroke="black" points="0,-0.5 0,-19.5 88,-19.5 88,-0.5 0,-0.5"/>
<text text-anchor="middle" x="44" y="-7.5" font-family="Helvetica,sans-Serif" font-size="10.00">IBSwitchControl</text>
</a>
</g>
</g>
<!-- Node2&#45;&gt;Node3 -->
<g id="edge2" class="edge"><title>Node2&#45;&gt;Node3</title>
<path fill="none" stroke="midnightblue" d="M47.25,-46.1005C46.42,-37.1357 45.4683,-26.8579 44.8103,-19.7511"/>
<polygon fill="midnightblue" stroke="midnightblue" points="43.7672,-46.4483 48.1744,-56.083 50.7374,-45.8029 43.7672,-46.4483"/>
</g>
<!-- Node5 -->
<g id="node5" class="node"><title>Node5</title>
<g id="a_node5"><a xlink:href="class_i_b_knob_rotater_control.html" target="_top" xlink:title="IBKnobRotaterControl">
<polygon fill="white" stroke="black" points="106.5,-0.5 106.5,-19.5 219.5,-19.5 219.5,-0.5 106.5,-0.5"/>
<text text-anchor="middle" x="163" y="-7.5" font-family="Helvetica,sans-Serif" font-size="10.00">IBKnobRotaterControl</text>
</a>
</g>
</g>
<!-- Node4&#45;&gt;Node5 -->
<g id="edge4" class="edge"><title>Node4&#45;&gt;Node5</title>
<path fill="none" stroke="midnightblue" d="M159.75,-46.1005C160.58,-37.1357 161.532,-26.8579 162.19,-19.7511"/>
<polygon fill="midnightblue" stroke="midnightblue" points="156.263,-45.8029 158.826,-56.083 163.233,-46.4483 156.263,-45.8029"/>
</g>
</g>
</svg>
