<?xml version="1.0" encoding="UTF-8" standalone="no"?>
<!DOCTYPE svg PUBLIC "-//W3C//DTD SVG 1.1//EN"
 "http://www.w3.org/Graphics/SVG/1.1/DTD/svg11.dtd">
<!-- Generated by graphviz version 2.36.0 (20140111.2315)
 -->
<!-- Title: IPluginDelegate Pages: 1 -->
<!--zoomable 332 -->
<svg id="main" version="1.1" xmlns="http://www.w3.org/2000/svg" xmlns:xlink="http://www.w3.org/1999/xlink" xml:space="preserve" onload="init(evt)">
<style type="text/css"><![CDATA[
.edge:hover path { stroke: red; }
.edge:hover polygon { stroke: red; fill: red; }
]]></style>
<script type="text/javascript"><![CDATA[
var edges = document.getElementsByTagName('g');
if (edges && edges.length) {
  for (var i=0;i<edges.length;i++) {
    if (edges[i].id.substr(0,4)=='edge') {
      edges[i].setAttribute('class','edge');
    }
  }
}
]]></script>
        <defs>
                <circle id="rim" cx="0" cy="0" r="7"/>
                <circle id="rim2" cx="0" cy="0" r="3.5"/>
                <g id="zoomPlus">
                        <use xlink:href="#rim" fill="#404040">
                                <set attributeName="fill" to="#808080" begin="zoomplus.mouseover" end="zoomplus.mouseout"/>
                        </use>
                        <path d="M-4,0h8M0,-4v8" fill="none" stroke="white" stroke-width="1.5" pointer-events="none"/>
                </g>
                <g id="zoomMin">
                        <use xlink:href="#rim" fill="#404040">
                                <set attributeName="fill" to="#808080" begin="zoomminus.mouseover" end="zoomminus.mouseout"/>
                        </use>
                        <path d="M-4,0h8" fill="none" stroke="white" stroke-width="1.5" pointer-events="none"/>
                </g>
                <g id="dirArrow">
                        <path fill="none" stroke="white" stroke-width="1.5" d="M0,-3.0v7 M-2.5,-0.5L0,-3.0L2.5,-0.5"/>
                </g>
               <g id="resetDef">
                       <use xlink:href="#rim2" fill="#404040">
                               <set attributeName="fill" to="#808080" begin="reset.mouseover" end="reset.mouseout"/>
                       </use>
               </g>
        </defs>

<script type="text/javascript">
var viewWidth = 616;
var viewHeight = 332;
var sectionId = 'dynsection-0';
</script>
<script xlink:href="svgpan.js"/>
<svg id="graph" class="graph">
<g id="viewport">
<title>IPluginDelegate</title>
<polygon fill="white" stroke="none" points="-4,4 -4,-328 612,-328 612,4 -4,4"/>
<!-- Node1 -->
<g id="node1" class="node"><title>Node1</title>
<polygon fill="#bfbfbf" stroke="black" points="172,-152.5 172,-171.5 258,-171.5 258,-152.5 172,-152.5"/>
<text text-anchor="middle" x="215" y="-159.5" font-family="Helvetica,sans-Serif" font-size="10.00">IPluginDelegate</text>
</g>
<!-- Node3 -->
<g id="node3" class="node"><title>Node3</title>
<g id="a_node3"><a xlink:href="class_i_plug_base.html" target="_top" xlink:title="The base class of an IPlug plug&#45;in, which interacts with the different plug&#45;in APIs. ">
<polygon fill="white" stroke="black" points="294,-152.5 294,-171.5 356,-171.5 356,-152.5 294,-152.5"/>
<text text-anchor="middle" x="325" y="-159.5" font-family="Helvetica,sans-Serif" font-size="10.00">IPlugBase</text>
</a>
</g>
</g>
<!-- Node1&#45;&gt;Node3 -->
<g id="edge2" class="edge"><title>Node1&#45;&gt;Node3</title>
<path fill="none" stroke="midnightblue" d="M268.299,-162C277.088,-162 285.937,-162 293.914,-162"/>
<polygon fill="midnightblue" stroke="midnightblue" points="268.065,-158.5 258.065,-162 268.065,-165.5 268.065,-158.5"/>
</g>
<!-- Node2 -->
<g id="node2" class="node"><title>Node2</title>
<g id="a_node2"><a xlink:href="class_i_delegate.html" target="_top" xlink:title="This pure virtual interface delegates communication in both directions between a UI editor and someth...">
<polygon fill="white" stroke="black" points="0,-152.5 0,-171.5 136,-171.5 136,-152.5 0,-152.5"/>
<text text-anchor="middle" x="68" y="-159.5" font-family="Helvetica,sans-Serif" font-size="10.00">IPLUGIN_SUPER_CLASS</text>
</a>
</g>
</g>
<!-- Node2&#45;&gt;Node1 -->
<g id="edge1" class="edge"><title>Node2&#45;&gt;Node1</title>
<path fill="none" stroke="midnightblue" d="M146.655,-162C155.372,-162 163.989,-162 171.999,-162"/>
<polygon fill="midnightblue" stroke="midnightblue" points="146.406,-158.5 136.406,-162 146.406,-165.5 146.406,-158.5"/>
</g>
<!-- Node4 -->
<g id="node4" class="node"><title>Node4</title>
<g id="a_node4"><a xlink:href="class_i_plug_a_a_x.html" target="_top" xlink:title="AAX API base class for an IPlug plug&#45;in, inherits from IPlugBase. ">
<polygon fill="white" stroke="black" points="416.5,-304.5 416.5,-323.5 475.5,-323.5 475.5,-304.5 416.5,-304.5"/>
<text text-anchor="middle" x="446" y="-311.5" font-family="Helvetica,sans-Serif" font-size="10.00">IPlugAAX</text>
</a>
</g>
</g>
<!-- Node3&#45;&gt;Node4 -->
<g id="edge3" class="edge"><title>Node3&#45;&gt;Node4</title>
<path fill="none" stroke="midnightblue" d="M330.704,-181.583C338.589,-210.355 357.15,-263.988 392,-295 398.864,-301.108 407.833,-305.292 416.436,-308.142"/>
<polygon fill="midnightblue" stroke="midnightblue" points="334.002,-180.358 328.114,-171.55 327.224,-182.107 334.002,-180.358"/>
</g>
<!-- Node5 -->
<g id="node5" class="node"><title>Node5</title>
<g id="a_node5"><a xlink:href="class_i_plug_a_p_p.html" target="_top" xlink:title="Standalone application base class for an IPlug plug&#45;in, inherits from IPlugBase. ">
<polygon fill="white" stroke="black" points="416.5,-266.5 416.5,-285.5 475.5,-285.5 475.5,-266.5 416.5,-266.5"/>
<text text-anchor="middle" x="446" y="-273.5" font-family="Helvetica,sans-Serif" font-size="10.00">IPlugAPP</text>
</a>
</g>
</g>
<!-- Node3&#45;&gt;Node5 -->
<g id="edge4" class="edge"><title>Node3&#45;&gt;Node5</title>
<path fill="none" stroke="midnightblue" d="M334.622,-180.844C345.266,-202.15 365.288,-236.528 392,-257 399.138,-262.47 407.99,-266.463 416.403,-269.333"/>
<polygon fill="midnightblue" stroke="midnightblue" points="337.645,-179.054 330.162,-171.554 331.334,-182.083 337.645,-179.054"/>
</g>
<!-- Node6 -->
<g id="node6" class="node"><title>Node6</title>
<g id="a_node6"><a xlink:href="class_i_plug_a_u.html" target="_top" xlink:title="AudioUnit v2 API base class for an IPlug plug&#45;in, inherits from IPlugBase. ">
<polygon fill="white" stroke="black" points="419.5,-228.5 419.5,-247.5 472.5,-247.5 472.5,-228.5 419.5,-228.5"/>
<text text-anchor="middle" x="446" y="-235.5" font-family="Helvetica,sans-Serif" font-size="10.00">IPlugAU</text>
</a>
</g>
</g>
<!-- Node3&#45;&gt;Node6 -->
<g id="edge5" class="edge"><title>Node3&#45;&gt;Node6</title>
<path fill="none" stroke="midnightblue" d="M342.008,-178.849C354.617,-191.328 373.158,-208.004 392,-219 400.442,-223.927 410.376,-227.904 419.348,-230.921"/>
<polygon fill="midnightblue" stroke="midnightblue" points="344.486,-176.377 334.974,-171.711 339.499,-181.29 344.486,-176.377"/>
</g>
<!-- Node7 -->
<g id="node7" class="node"><title>Node7</title>
<g id="a_node7"><a xlink:href="class_i_plug_v_s_t2.html" target="_top" xlink:title="VST2.4 API base class for an IPlug plug&#45;in, inherits from IPlugBase or IPlugBaseGraphics. ">
<polygon fill="white" stroke="black" points="414,-190.5 414,-209.5 478,-209.5 478,-190.5 414,-190.5"/>
<text text-anchor="middle" x="446" y="-197.5" font-family="Helvetica,sans-Serif" font-size="10.00">IPlugVST2</text>
</a>
</g>
</g>
<!-- Node3&#45;&gt;Node7 -->
<g id="edge6" class="edge"><title>Node3&#45;&gt;Node7</title>
<path fill="none" stroke="midnightblue" d="M365.71,-174.68C381.789,-179.815 400.043,-185.644 414.981,-190.414"/>
<polygon fill="midnightblue" stroke="midnightblue" points="366.62,-171.297 356.029,-171.589 364.49,-177.965 366.62,-171.297"/>
</g>
<!-- Node9 -->
<g id="node9" class="node"><title>Node9</title>
<g id="a_node9"><a xlink:href="class_i_plug_v_s_t3.html" target="_top" xlink:title="VST3 base class for an IPlug plug&#45;in, inherits from IPlugBase. ">
<polygon fill="white" stroke="black" points="414,-152.5 414,-171.5 478,-171.5 478,-152.5 414,-152.5"/>
<text text-anchor="middle" x="446" y="-159.5" font-family="Helvetica,sans-Serif" font-size="10.00">IPlugVST3</text>
</a>
</g>
</g>
<!-- Node3&#45;&gt;Node9 -->
<g id="edge8" class="edge"><title>Node3&#45;&gt;Node9</title>
<path fill="none" stroke="midnightblue" d="M366.371,-162C381.841,-162 399.242,-162 413.734,-162"/>
<polygon fill="midnightblue" stroke="midnightblue" points="366.029,-158.5 356.029,-162 366.029,-165.5 366.029,-158.5"/>
</g>
<!-- Node10 -->
<g id="node10" class="node"><title>Node10</title>
<g id="a_node10"><a xlink:href="class_i_plug_v_s_t3_controller.html" target="_top" xlink:title="IPlugVST3Controller">
<polygon fill="white" stroke="black" points="393,-114.5 393,-133.5 499,-133.5 499,-114.5 393,-114.5"/>
<text text-anchor="middle" x="446" y="-121.5" font-family="Helvetica,sans-Serif" font-size="10.00">IPlugVST3Controller</text>
</a>
</g>
</g>
<!-- Node3&#45;&gt;Node10 -->
<g id="edge9" class="edge"><title>Node3&#45;&gt;Node10</title>
<path fill="none" stroke="midnightblue" d="M365.71,-149.32C381.789,-144.185 400.043,-138.356 414.981,-133.586"/>
<polygon fill="midnightblue" stroke="midnightblue" points="364.49,-146.035 356.029,-152.411 366.62,-152.703 364.49,-146.035"/>
</g>
<!-- Node11 -->
<g id="node11" class="node"><title>Node11</title>
<g id="a_node11"><a xlink:href="class_i_plug_v_s_t3_processor.html" target="_top" xlink:title="IPlugVST3Processor">
<polygon fill="white" stroke="black" points="392,-76.5 392,-95.5 500,-95.5 500,-76.5 392,-76.5"/>
<text text-anchor="middle" x="446" y="-83.5" font-family="Helvetica,sans-Serif" font-size="10.00">IPlugVST3Processor</text>
</a>
</g>
</g>
<!-- Node3&#45;&gt;Node11 -->
<g id="edge10" class="edge"><title>Node3&#45;&gt;Node11</title>
<path fill="none" stroke="midnightblue" d="M342.008,-145.151C354.617,-132.672 373.158,-115.996 392,-105 398.332,-101.305 405.502,-98.1439 412.477,-95.5215"/>
<polygon fill="midnightblue" stroke="midnightblue" points="339.499,-142.71 334.974,-152.289 344.486,-147.623 339.499,-142.71"/>
</g>
<!-- Node12 -->
<g id="node12" class="node"><title>Node12</title>
<g id="a_node12"><a xlink:href="class_i_plug_w_a_m.html" target="_top" xlink:title="WebAudioModule (WAM) API base class for an IPlug plug&#45;in. ">
<polygon fill="white" stroke="black" points="414,-38.5 414,-57.5 478,-57.5 478,-38.5 414,-38.5"/>
<text text-anchor="middle" x="446" y="-45.5" font-family="Helvetica,sans-Serif" font-size="10.00">IPlugWAM</text>
</a>
</g>
</g>
<!-- Node3&#45;&gt;Node12 -->
<g id="edge11" class="edge"><title>Node3&#45;&gt;Node12</title>
<path fill="none" stroke="midnightblue" d="M334.622,-143.156C345.266,-121.85 365.288,-87.4718 392,-67 398.439,-62.0648 406.275,-58.3326 413.923,-55.542"/>
<polygon fill="midnightblue" stroke="midnightblue" points="331.334,-141.917 330.162,-152.446 337.645,-144.946 331.334,-141.917"/>
</g>
<!-- Node13 -->
<g id="node13" class="node"><title>Node13</title>
<g id="a_node13"><a xlink:href="class_i_plug_web.html" target="_top" xlink:title="IPlugWeb">
<polygon fill="white" stroke="black" points="416.5,-0.5 416.5,-19.5 475.5,-19.5 475.5,-0.5 416.5,-0.5"/>
<text text-anchor="middle" x="446" y="-7.5" font-family="Helvetica,sans-Serif" font-size="10.00">IPlugWeb</text>
</a>
</g>
</g>
<!-- Node3&#45;&gt;Node13 -->
<g id="edge12" class="edge"><title>Node3&#45;&gt;Node13</title>
<path fill="none" stroke="midnightblue" d="M330.704,-142.417C338.589,-113.645 357.15,-60.0119 392,-29 398.864,-22.8919 407.833,-18.7077 416.436,-15.8581"/>
<polygon fill="midnightblue" stroke="midnightblue" points="327.224,-141.893 328.114,-152.45 334.002,-143.642 327.224,-141.893"/>
</g>
<!-- Node8 -->
<g id="node8" class="node"><title>Node8</title>
<g id="a_node8"><a xlink:href="class_i_plug_reaper.html" target="_top" xlink:title="IPlugReaper">
<polygon fill="white" stroke="black" points="536.5,-190.5 536.5,-209.5 607.5,-209.5 607.5,-190.5 536.5,-190.5"/>
<text text-anchor="middle" x="572" y="-197.5" font-family="Helvetica,sans-Serif" font-size="10.00">IPlugReaper</text>
</a>
</g>
</g>
<!-- Node7&#45;&gt;Node8 -->
<g id="edge7" class="edge"><title>Node7&#45;&gt;Node8</title>
<path fill="none" stroke="midnightblue" d="M488.632,-200C504.087,-200 521.442,-200 536.222,-200"/>
<polygon fill="midnightblue" stroke="midnightblue" points="488.29,-196.5 478.29,-200 488.29,-203.5 488.29,-196.5"/>
</g>
</g>
</svg>
        <g id="navigator" transform="translate(0 0)" fill="#404254">
                <rect fill="#f2f5e9" fill-opacity="0.5" stroke="#606060" stroke-width=".5" x="0" y="0" width="60" height="60"/>
                <use id="zoomplus" xlink:href="#zoomPlus" x="17" y="9" onmousedown="handleZoom(evt,'in')"/>
                <use id="zoomminus" xlink:href="#zoomMin" x="42" y="9" onmousedown="handleZoom(evt,'out')"/>
                <use id="reset" xlink:href="#resetDef" x="30" y="36" onmousedown="handleReset()"/>
                <g id="arrowUp" xlink:href="#dirArrow" transform="translate(30 24)" onmousedown="handlePan(0,-1)">
                  <use xlink:href="#rim" fill="#404040">
                        <set attributeName="fill" to="#808080" begin="arrowUp.mouseover" end="arrowUp.mouseout"/>
                  </use>
                  <path fill="none" stroke="white" stroke-width="1.5" d="M0,-3.0v7 M-2.5,-0.5L0,-3.0L2.5,-0.5"/>
                </g>
                <g id="arrowRight" xlink:href="#dirArrow" transform="rotate(90) translate(36 -43)" onmousedown="handlePan(1,0)">
                  <use xlink:href="#rim" fill="#404040">
                        <set attributeName="fill" to="#808080" begin="arrowRight.mouseover" end="arrowRight.mouseout"/>
                  </use>
                  <path fill="none" stroke="white" stroke-width="1.5" d="M0,-3.0v7 M-2.5,-0.5L0,-3.0L2.5,-0.5"/>
                </g>
                <g id="arrowDown" xlink:href="#dirArrow" transform="rotate(180) translate(-30 -48)" onmousedown="handlePan(0,1)">
                  <use xlink:href="#rim" fill="#404040">
                        <set attributeName="fill" to="#808080" begin="arrowDown.mouseover" end="arrowDown.mouseout"/>
                  </use>
                  <path fill="none" stroke="white" stroke-width="1.5" d="M0,-3.0v7 M-2.5,-0.5L0,-3.0L2.5,-0.5"/>
                </g>
                <g id="arrowLeft" xlink:href="#dirArrow" transform="rotate(270) translate(-36 17)" onmousedown="handlePan(-1,0)">
                  <use xlink:href="#rim" fill="#404040">
                        <set attributeName="fill" to="#808080" begin="arrowLeft.mouseover" end="arrowLeft.mouseout"/>
                  </use>
                  <path fill="none" stroke="white" stroke-width="1.5" d="M0,-3.0v7 M-2.5,-0.5L0,-3.0L2.5,-0.5"/>
                </g>
        </g>
        <svg viewBox="0 0 15 15" width="100%" height="30px" preserveAspectRatio="xMaxYMin meet">
         <g id="arrow_out" transform="scale(0.3 0.3)">
          <a xlink:href="class_i_plugin_delegate__inherit__graph_org.svg" target="_base">
           <rect id="button" ry="5" rx="5" y="6" x="6" height="38" width="38"
                fill="#f2f5e9" fill-opacity="0.5" stroke="#606060" stroke-width="1.0"/>
           <path id="arrow"
             d="M 11.500037,31.436501 C 11.940474,20.09759 22.043105,11.32322 32.158766,21.979434 L 37.068811,17.246167 C 37.068811,17.246167 37.088388,32 37.088388,32 L 22.160133,31.978069 C 22.160133,31.978069 26.997745,27.140456 26.997745,27.140456 C 18.528582,18.264221 13.291696,25.230495 11.500037,31.436501 z"
             style="fill:#404040;"/>
          </a>
         </g>
        </svg>
</svg>
