<?xml version="1.0" encoding="UTF-8" standalone="no"?>
<!DOCTYPE svg PUBLIC "-//W3C//DTD SVG 1.1//EN"
 "http://www.w3.org/Graphics/SVG/1.1/DTD/svg11.dtd">
<!-- Generated by graphviz version 2.36.0 (20140111.2315)
 -->
<!-- Title: IControl Pages: 1 -->
<svg width="554pt" height="534pt"
 viewBox="0.00 0.00 554.00 534.00" xmlns="http://www.w3.org/2000/svg" xmlns:xlink="http://www.w3.org/1999/xlink">
<g id="graph0" class="graph" transform="scale(1 1) rotate(0) translate(4 530)">
<title>IControl</title>
<polygon fill="white" stroke="none" points="-4,4 -4,-530 550,-530 550,4 -4,4"/>
<!-- Node1 -->
<g id="node1" class="node"><title>Node1</title>
<polygon fill="#bfbfbf" stroke="black" points="0.5,-259.5 0.5,-278.5 51.5,-278.5 51.5,-259.5 0.5,-259.5"/>
<text text-anchor="middle" x="26" y="-266.5" font-family="Helvetica,sans-Serif" font-size="10.00">IControl</text>
</g>
<!-- Node2 -->
<g id="node2" class="node"><title>Node2</title>
<g id="a_node2"><a xlink:href="class_i_bitmap_control.html" target="_top" xlink:title="A basic control to draw a bitmap, or one frame of a stacked bitmap depending on the current value...">
<polygon fill="white" stroke="black" points="114,-506.5 114,-525.5 196,-525.5 196,-506.5 114,-506.5"/>
<text text-anchor="middle" x="155" y="-513.5" font-family="Helvetica,sans-Serif" font-size="10.00">IBitmapControl</text>
</a>
</g>
</g>
<!-- Node1&#45;&gt;Node2 -->
<g id="edge1" class="edge"><title>Node1&#45;&gt;Node2</title>
<path fill="none" stroke="midnightblue" d="M26.2332,-289.088C25.6971,-333.099 30.8312,-438.742 88,-497 94.9316,-504.064 104.306,-508.544 113.811,-511.374"/>
<polygon fill="midnightblue" stroke="midnightblue" points="29.7381,-288.925 26.4797,-278.844 22.7401,-288.757 29.7381,-288.925"/>
</g>
<!-- Node4 -->
<g id="node4" class="node"><title>Node4</title>
<g id="a_node4"><a xlink:href="class_i_dir_browse_control_base.html" target="_top" xlink:title="An abstract IControl base class that you can inherit from in order to make a control that pops up a m...">
<polygon fill="white" stroke="black" points="95.5,-468.5 95.5,-487.5 214.5,-487.5 214.5,-468.5 95.5,-468.5"/>
<text text-anchor="middle" x="155" y="-475.5" font-family="Helvetica,sans-Serif" font-size="10.00">IDirBrowseControlBase</text>
</a>
</g>
</g>
<!-- Node1&#45;&gt;Node4 -->
<g id="edge3" class="edge"><title>Node1&#45;&gt;Node4</title>
<path fill="none" stroke="midnightblue" d="M27.544,-289.379C29.7047,-328.067 40.0002,-412.436 88,-459 92.0224,-462.902 96.7925,-466.012 101.9,-468.489"/>
<polygon fill="midnightblue" stroke="midnightblue" points="31.0217,-288.775 27.1019,-278.932 24.0279,-289.071 31.0217,-288.775"/>
</g>
<!-- Node5 -->
<g id="node5" class="node"><title>Node5</title>
<g id="a_node5"><a xlink:href="class_i_graphics_live_edit.html" target="_top" xlink:title="IGraphicsLiveEdit">
<polygon fill="white" stroke="black" points="108,-430.5 108,-449.5 202,-449.5 202,-430.5 108,-430.5"/>
<text text-anchor="middle" x="155" y="-437.5" font-family="Helvetica,sans-Serif" font-size="10.00">IGraphicsLiveEdit</text>
</a>
</g>
</g>
<!-- Node1&#45;&gt;Node5 -->
<g id="edge4" class="edge"><title>Node1&#45;&gt;Node5</title>
<path fill="none" stroke="midnightblue" d="M29.3808,-288.894C34.3273,-321.327 48.7429,-385.532 88,-421 93.6624,-426.116 100.619,-429.861 107.868,-432.602"/>
<polygon fill="midnightblue" stroke="midnightblue" points="32.829,-288.276 28.0008,-278.846 25.8941,-289.229 32.829,-288.276"/>
</g>
<!-- Node6 -->
<g id="node6" class="node"><title>Node6</title>
<g id="a_node6"><a xlink:href="class_i_knob_control_base.html" target="_top" xlink:title="Parent for knobs, to handle mouse action and ballistics. ">
<polygon fill="white" stroke="black" points="107,-392.5 107,-411.5 203,-411.5 203,-392.5 107,-392.5"/>
<text text-anchor="middle" x="155" y="-399.5" font-family="Helvetica,sans-Serif" font-size="10.00">IKnobControlBase</text>
</a>
</g>
</g>
<!-- Node1&#45;&gt;Node6 -->
<g id="edge5" class="edge"><title>Node1&#45;&gt;Node6</title>
<path fill="none" stroke="midnightblue" d="M32.164,-288.218C39.9913,-313.657 57.2998,-358.18 88,-383 93.5634,-387.498 100.144,-390.931 106.961,-393.552"/>
<polygon fill="midnightblue" stroke="midnightblue" points="35.5216,-287.229 29.3786,-278.597 28.7977,-289.176 35.5216,-287.229"/>
</g>
<!-- Node11 -->
<g id="node11" class="node"><title>Node11</title>
<g id="a_node11"><a xlink:href="class_i_panel_control.html" target="_top" xlink:title="A basic control to fill a rectangle with a color. ">
<polygon fill="white" stroke="black" points="117,-354.5 117,-373.5 193,-373.5 193,-354.5 117,-354.5"/>
<text text-anchor="middle" x="155" y="-361.5" font-family="Helvetica,sans-Serif" font-size="10.00">IPanelControl</text>
</a>
</g>
</g>
<!-- Node1&#45;&gt;Node11 -->
<g id="edge10" class="edge"><title>Node1&#45;&gt;Node11</title>
<path fill="none" stroke="midnightblue" d="M37.0664,-287.167C47.5851,-304.506 65.6605,-330.127 88,-345 96.635,-350.749 107.023,-354.785 116.976,-357.608"/>
<polygon fill="midnightblue" stroke="midnightblue" points="40.0794,-285.386 32.0211,-278.507 34.031,-288.91 40.0794,-285.386"/>
</g>
<!-- Node12 -->
<g id="node12" class="node"><title>Node12</title>
<g id="a_node12"><a xlink:href="class_i_popup_menu_control_base.html" target="_top" xlink:title="A base control for a pop&#45;up menu/drop&#45;down list that stays within the bounds of the IGraphics context...">
<polygon fill="white" stroke="black" points="92.5,-316.5 92.5,-335.5 217.5,-335.5 217.5,-316.5 92.5,-316.5"/>
<text text-anchor="middle" x="155" y="-323.5" font-family="Helvetica,sans-Serif" font-size="10.00">IPopupMenuControlBase</text>
</a>
</g>
</g>
<!-- Node1&#45;&gt;Node12 -->
<g id="edge11" class="edge"><title>Node1&#45;&gt;Node12</title>
<path fill="none" stroke="midnightblue" d="M48.3476,-284.339C59.7024,-291.961 74.1482,-300.836 88,-307 96.2792,-310.684 105.459,-313.856 114.276,-316.494"/>
<polygon fill="midnightblue" stroke="midnightblue" points="50.1947,-281.361 39.9742,-278.57 46.2232,-287.126 50.1947,-281.361"/>
</g>
<!-- Node13 -->
<g id="node13" class="node"><title>Node13</title>
<g id="a_node13"><a xlink:href="class_i_slider_control_base.html" target="_top" xlink:title="ISliderControlBase">
<polygon fill="white" stroke="black" points="106,-278.5 106,-297.5 204,-297.5 204,-278.5 106,-278.5"/>
<text text-anchor="middle" x="155" y="-285.5" font-family="Helvetica,sans-Serif" font-size="10.00">ISliderControlBase</text>
</a>
</g>
</g>
<!-- Node1&#45;&gt;Node13 -->
<g id="edge12" class="edge"><title>Node1&#45;&gt;Node13</title>
<path fill="none" stroke="midnightblue" d="M61.7076,-274.192C75.3238,-276.23 91.1807,-278.602 105.87,-280.799"/>
<polygon fill="midnightblue" stroke="midnightblue" points="62.1962,-270.727 51.7884,-272.708 61.1604,-277.65 62.1962,-270.727"/>
</g>
<!-- Node16 -->
<g id="node16" class="node"><title>Node16</title>
<g id="a_node16"><a xlink:href="class_i_s_v_g_control.html" target="_top" xlink:title="A basic control to draw an SVG image to the screen. ">
<polygon fill="white" stroke="black" points="119,-240.5 119,-259.5 191,-259.5 191,-240.5 119,-240.5"/>
<text text-anchor="middle" x="155" y="-247.5" font-family="Helvetica,sans-Serif" font-size="10.00">ISVGControl</text>
</a>
</g>
</g>
<!-- Node1&#45;&gt;Node16 -->
<g id="edge15" class="edge"><title>Node1&#45;&gt;Node16</title>
<path fill="none" stroke="midnightblue" d="M61.7188,-263.806C79.4242,-261.157 100.916,-257.942 118.703,-255.281"/>
<polygon fill="midnightblue" stroke="midnightblue" points="61.1604,-260.35 51.7884,-265.292 62.1962,-267.273 61.1604,-260.35"/>
</g>
<!-- Node17 -->
<g id="node17" class="node"><title>Node17</title>
<g id="a_node17"><a xlink:href="class_i_switch_control_base.html" target="_top" xlink:title="Parent for switch controls (including buttons a.k.a. ">
<polygon fill="white" stroke="black" points="103,-202.5 103,-221.5 207,-221.5 207,-202.5 103,-202.5"/>
<text text-anchor="middle" x="155" y="-209.5" font-family="Helvetica,sans-Serif" font-size="10.00">ISwitchControlBase</text>
</a>
</g>
</g>
<!-- Node1&#45;&gt;Node17 -->
<g id="edge16" class="edge"><title>Node1&#45;&gt;Node17</title>
<path fill="none" stroke="midnightblue" d="M48.3476,-253.661C59.7024,-246.039 74.1482,-237.164 88,-231 96.2792,-227.316 105.459,-224.144 114.276,-221.506"/>
<polygon fill="midnightblue" stroke="midnightblue" points="46.2232,-250.874 39.9742,-259.43 50.1947,-256.639 46.2232,-250.874"/>
</g>
<!-- Node20 -->
<g id="node20" class="node"><title>Node20</title>
<g id="a_node20"><a xlink:href="class_i_text_control.html" target="_top" xlink:title="A basic control to output text to the screen. ">
<polygon fill="white" stroke="black" points="119.5,-164.5 119.5,-183.5 190.5,-183.5 190.5,-164.5 119.5,-164.5"/>
<text text-anchor="middle" x="155" y="-171.5" font-family="Helvetica,sans-Serif" font-size="10.00">ITextControl</text>
</a>
</g>
</g>
<!-- Node1&#45;&gt;Node20 -->
<g id="edge19" class="edge"><title>Node1&#45;&gt;Node20</title>
<path fill="none" stroke="midnightblue" d="M37.0664,-250.833C47.5851,-233.494 65.6605,-207.873 88,-193 97.3297,-186.789 108.707,-182.577 119.369,-179.734"/>
<polygon fill="midnightblue" stroke="midnightblue" points="34.031,-249.09 32.0211,-259.493 40.0794,-252.614 34.031,-249.09"/>
</g>
<!-- Node23 -->
<g id="node23" class="node"><title>Node23</title>
<g id="a_node23"><a xlink:href="class_i_v_drop_down_list_control.html" target="_top" xlink:title="A vector drop down list. ">
<polygon fill="white" stroke="black" points="95,-126.5 95,-145.5 215,-145.5 215,-126.5 95,-126.5"/>
<text text-anchor="middle" x="155" y="-133.5" font-family="Helvetica,sans-Serif" font-size="10.00">IVDropDownListControl</text>
</a>
</g>
</g>
<!-- Node1&#45;&gt;Node23 -->
<g id="edge22" class="edge"><title>Node1&#45;&gt;Node23</title>
<path fill="none" stroke="midnightblue" d="M32.164,-249.782C39.9913,-224.343 57.2998,-179.82 88,-155 92.8216,-151.102 98.4076,-148.003 104.249,-145.541"/>
<polygon fill="midnightblue" stroke="midnightblue" points="28.7977,-248.824 29.3786,-259.403 35.5216,-250.771 28.7977,-248.824"/>
</g>
<!-- Node24 -->
<g id="node24" class="node"><title>Node24</title>
<g id="a_node24"><a xlink:href="class_i_v_keyboard_control.html" target="_top" xlink:title="IVKeyboardControl">
<polygon fill="white" stroke="black" points="105.5,-88.5 105.5,-107.5 204.5,-107.5 204.5,-88.5 105.5,-88.5"/>
<text text-anchor="middle" x="155" y="-95.5" font-family="Helvetica,sans-Serif" font-size="10.00">IVKeyboardControl</text>
</a>
</g>
</g>
<!-- Node1&#45;&gt;Node24 -->
<g id="edge23" class="edge"><title>Node1&#45;&gt;Node24</title>
<path fill="none" stroke="midnightblue" d="M29.3808,-249.106C34.3273,-216.673 48.7429,-152.468 88,-117 92.9546,-112.524 98.8998,-109.097 105.165,-106.474"/>
<polygon fill="midnightblue" stroke="midnightblue" points="25.8941,-248.771 28.0008,-259.154 32.829,-249.724 25.8941,-248.771"/>
</g>
<!-- Node25 -->
<g id="node25" class="node"><title>Node25</title>
<g id="a_node25"><a xlink:href="class_i_v_scope_control.html" target="_top" xlink:title="IVScopeControl\&lt; MAXNC,\l MAXBUF \&gt;">
<polygon fill="white" stroke="black" points="88,-39 88,-69 222,-69 222,-39 88,-39"/>
<text text-anchor="start" x="96" y="-57" font-family="Helvetica,sans-Serif" font-size="10.00">IVScopeControl&lt; MAXNC,</text>
<text text-anchor="middle" x="155" y="-46" font-family="Helvetica,sans-Serif" font-size="10.00"> MAXBUF &gt;</text>
</a>
</g>
</g>
<!-- Node1&#45;&gt;Node25 -->
<g id="edge24" class="edge"><title>Node1&#45;&gt;Node25</title>
<path fill="none" stroke="midnightblue" d="M27.8969,-248.97C30.661,-210.879 41.944,-127.488 88,-79 91.6285,-75.1799 95.9002,-71.9378 100.497,-69.1872"/>
<polygon fill="midnightblue" stroke="midnightblue" points="24.3855,-249.057 27.2834,-259.248 31.3731,-249.474 24.3855,-249.057"/>
</g>
<!-- Node26 -->
<g id="node26" class="node"><title>Node26</title>
<g id="a_node26"><a xlink:href="class_i_v_track_control_base.html" target="_top" xlink:title="IVTrackControlBase">
<polygon fill="white" stroke="black" points="102.5,-0.5 102.5,-19.5 207.5,-19.5 207.5,-0.5 102.5,-0.5"/>
<text text-anchor="middle" x="155" y="-7.5" font-family="Helvetica,sans-Serif" font-size="10.00">IVTrackControlBase</text>
</a>
</g>
</g>
<!-- Node1&#45;&gt;Node26 -->
<g id="edge25" class="edge"><title>Node1&#45;&gt;Node26</title>
<path fill="none" stroke="midnightblue" d="M29.5061,-249.044C36.3851,-197.343 57.1255,-60.8596 88,-29 92.066,-24.8043 96.9934,-21.5187 102.304,-18.9484"/>
<polygon fill="midnightblue" stroke="midnightblue" points="25.9994,-248.871 28.1848,-259.238 32.9413,-249.771 25.9994,-248.871"/>
</g>
<!-- Node3 -->
<g id="node3" class="node"><title>Node3</title>
<g id="a_node3"><a xlink:href="class_i_b_switch_control.html" target="_top" xlink:title="A bitmap switch control. ">
<polygon fill="white" stroke="black" points="283,-506.5 283,-525.5 371,-525.5 371,-506.5 283,-506.5"/>
<text text-anchor="middle" x="327" y="-513.5" font-family="Helvetica,sans-Serif" font-size="10.00">IBSwitchControl</text>
</a>
</g>
</g>
<!-- Node2&#45;&gt;Node3 -->
<g id="edge2" class="edge"><title>Node2&#45;&gt;Node3</title>
<path fill="none" stroke="midnightblue" d="M206.382,-516C230.652,-516 259.464,-516 282.729,-516"/>
<polygon fill="midnightblue" stroke="midnightblue" points="206.288,-512.5 196.288,-516 206.288,-519.5 206.288,-512.5"/>
</g>
<!-- Node7 -->
<g id="node7" class="node"><title>Node7</title>
<g id="a_node7"><a xlink:href="class_i_b_knob_control.html" target="_top" xlink:title="A bitmap knob/dial control. ">
<polygon fill="white" stroke="black" points="287,-430.5 287,-449.5 367,-449.5 367,-430.5 287,-430.5"/>
<text text-anchor="middle" x="327" y="-437.5" font-family="Helvetica,sans-Serif" font-size="10.00">IBKnobControl</text>
</a>
</g>
</g>
<!-- Node6&#45;&gt;Node7 -->
<g id="edge6" class="edge"><title>Node6&#45;&gt;Node7</title>
<path fill="none" stroke="midnightblue" d="M208.696,-413.779C233.956,-419.425 263.688,-426.071 286.899,-431.26"/>
<polygon fill="midnightblue" stroke="midnightblue" points="209.421,-410.355 198.898,-411.589 207.894,-417.186 209.421,-410.355"/>
</g>
<!-- Node9 -->
<g id="node9" class="node"><title>Node9</title>
<g id="a_node9"><a xlink:href="class_i_v_knob_control.html" target="_top" xlink:title="A vector knob control drawn using graphics primitves. ">
<polygon fill="white" stroke="black" points="287,-392.5 287,-411.5 367,-411.5 367,-392.5 287,-392.5"/>
<text text-anchor="middle" x="327" y="-399.5" font-family="Helvetica,sans-Serif" font-size="10.00">IVKnobControl</text>
</a>
</g>
</g>
<!-- Node6&#45;&gt;Node9 -->
<g id="edge8" class="edge"><title>Node6&#45;&gt;Node9</title>
<path fill="none" stroke="midnightblue" d="M213.485,-402C237.659,-402 265.162,-402 286.925,-402"/>
<polygon fill="midnightblue" stroke="midnightblue" points="213.355,-398.5 203.354,-402 213.354,-405.5 213.355,-398.5"/>
</g>
<!-- Node10 -->
<g id="node10" class="node"><title>Node10</title>
<g id="a_node10"><a xlink:href="class_i_v_s_v_g_knob.html" target="_top" xlink:title="A vector knob control which rotates an SVG image. ">
<polygon fill="white" stroke="black" points="292,-354.5 292,-373.5 362,-373.5 362,-354.5 292,-354.5"/>
<text text-anchor="middle" x="327" y="-361.5" font-family="Helvetica,sans-Serif" font-size="10.00">IVSVGKnob</text>
</a>
</g>
</g>
<!-- Node6&#45;&gt;Node10 -->
<g id="edge9" class="edge"><title>Node6&#45;&gt;Node10</title>
<path fill="none" stroke="midnightblue" d="M208.997,-390.154C236.068,-384.103 268.21,-376.918 291.949,-371.611"/>
<polygon fill="midnightblue" stroke="midnightblue" points="207.894,-386.814 198.898,-392.411 209.421,-393.645 207.894,-386.814"/>
</g>
<!-- Node8 -->
<g id="node8" class="node"><title>Node8</title>
<g id="a_node8"><a xlink:href="class_i_b_knob_rotater_control.html" target="_top" xlink:title="IBKnobRotaterControl">
<polygon fill="white" stroke="black" points="432.5,-430.5 432.5,-449.5 545.5,-449.5 545.5,-430.5 432.5,-430.5"/>
<text text-anchor="middle" x="489" y="-437.5" font-family="Helvetica,sans-Serif" font-size="10.00">IBKnobRotaterControl</text>
</a>
</g>
</g>
<!-- Node7&#45;&gt;Node8 -->
<g id="edge7" class="edge"><title>Node7&#45;&gt;Node8</title>
<path fill="none" stroke="midnightblue" d="M377.614,-440C394.959,-440 414.541,-440 432.345,-440"/>
<polygon fill="midnightblue" stroke="midnightblue" points="377.14,-436.5 367.14,-440 377.14,-443.5 377.14,-436.5"/>
</g>
<!-- Node14 -->
<g id="node14" class="node"><title>Node14</title>
<g id="a_node14"><a xlink:href="class_i_b_slider_control.html" target="_top" xlink:title="IBSliderControl">
<polygon fill="white" stroke="black" points="285.5,-297.5 285.5,-316.5 368.5,-316.5 368.5,-297.5 285.5,-297.5"/>
<text text-anchor="middle" x="327" y="-304.5" font-family="Helvetica,sans-Serif" font-size="10.00">IBSliderControl</text>
</a>
</g>
</g>
<!-- Node13&#45;&gt;Node14 -->
<g id="edge13" class="edge"><title>Node13&#45;&gt;Node14</title>
<path fill="none" stroke="midnightblue" d="M214.417,-294.529C237.796,-297.142 264.157,-300.088 285.385,-302.461"/>
<polygon fill="midnightblue" stroke="midnightblue" points="214.587,-291.026 204.26,-293.394 213.81,-297.983 214.587,-291.026"/>
</g>
<!-- Node15 -->
<g id="node15" class="node"><title>Node15</title>
<g id="a_node15"><a xlink:href="class_i_v_slider_control.html" target="_top" xlink:title="IVSliderControl">
<polygon fill="white" stroke="black" points="285.5,-259.5 285.5,-278.5 368.5,-278.5 368.5,-259.5 285.5,-259.5"/>
<text text-anchor="middle" x="327" y="-266.5" font-family="Helvetica,sans-Serif" font-size="10.00">IVSliderControl</text>
</a>
</g>
</g>
<!-- Node13&#45;&gt;Node15 -->
<g id="edge14" class="edge"><title>Node13&#45;&gt;Node15</title>
<path fill="none" stroke="midnightblue" d="M214.417,-281.471C237.796,-278.858 264.157,-275.912 285.385,-273.539"/>
<polygon fill="midnightblue" stroke="midnightblue" points="213.81,-278.017 204.26,-282.606 214.587,-284.974 213.81,-278.017"/>
</g>
<!-- Node18 -->
<g id="node18" class="node"><title>Node18</title>
<g id="a_node18"><a xlink:href="class_i_v_switch_control.html" target="_top" xlink:title="A vector switch control. ">
<polygon fill="white" stroke="black" points="283,-202.5 283,-221.5 371,-221.5 371,-202.5 283,-202.5"/>
<text text-anchor="middle" x="327" y="-209.5" font-family="Helvetica,sans-Serif" font-size="10.00">IVSwitchControl</text>
</a>
</g>
</g>
<!-- Node17&#45;&gt;Node18 -->
<g id="edge17" class="edge"><title>Node17&#45;&gt;Node18</title>
<path fill="none" stroke="midnightblue" d="M217.135,-212C238.865,-212 262.86,-212 282.781,-212"/>
<polygon fill="midnightblue" stroke="midnightblue" points="217.006,-208.5 207.006,-212 217.006,-215.5 217.006,-208.5"/>
</g>
<!-- Node19 -->
<g id="node19" class="node"><title>Node19</title>
<g id="a_node19"><a xlink:href="class_i_v_contact_control.html" target="_top" xlink:title="IVContactControl">
<polygon fill="white" stroke="black" points="443,-202.5 443,-221.5 535,-221.5 535,-202.5 443,-202.5"/>
<text text-anchor="middle" x="489" y="-209.5" font-family="Helvetica,sans-Serif" font-size="10.00">IVContactControl</text>
</a>
</g>
</g>
<!-- Node18&#45;&gt;Node19 -->
<g id="edge18" class="edge"><title>Node18&#45;&gt;Node19</title>
<path fill="none" stroke="midnightblue" d="M381.477,-212C401.434,-212 423.873,-212 442.992,-212"/>
<polygon fill="midnightblue" stroke="midnightblue" points="381.298,-208.5 371.298,-212 381.298,-215.5 381.298,-208.5"/>
</g>
<!-- Node21 -->
<g id="node21" class="node"><title>Node21</title>
<g id="a_node21"><a xlink:href="class_i_b_text_control.html" target="_top" xlink:title="Display monospace bitmap font text. ">
<polygon fill="white" stroke="black" points="288.5,-164.5 288.5,-183.5 365.5,-183.5 365.5,-164.5 288.5,-164.5"/>
<text text-anchor="middle" x="327" y="-171.5" font-family="Helvetica,sans-Serif" font-size="10.00">IBTextControl</text>
</a>
</g>
</g>
<!-- Node20&#45;&gt;Node21 -->
<g id="edge20" class="edge"><title>Node20&#45;&gt;Node21</title>
<path fill="none" stroke="midnightblue" d="M200.866,-174C228.096,-174 262.458,-174 288.281,-174"/>
<polygon fill="midnightblue" stroke="midnightblue" points="200.812,-170.5 190.812,-174 200.812,-177.5 200.812,-170.5"/>
</g>
<!-- Node22 -->
<g id="node22" class="node"><title>Node22</title>
<g id="a_node22"><a xlink:href="class_i_caption_control.html" target="_top" xlink:title="ICaptionControl">
<polygon fill="white" stroke="black" points="284.5,-126.5 284.5,-145.5 369.5,-145.5 369.5,-126.5 284.5,-126.5"/>
<text text-anchor="middle" x="327" y="-133.5" font-family="Helvetica,sans-Serif" font-size="10.00">ICaptionControl</text>
</a>
</g>
</g>
<!-- Node20&#45;&gt;Node22 -->
<g id="edge21" class="edge"><title>Node20&#45;&gt;Node22</title>
<path fill="none" stroke="midnightblue" d="M200.746,-163.998C226.628,-158.212 258.986,-150.98 284.329,-145.315"/>
<polygon fill="midnightblue" stroke="midnightblue" points="199.808,-160.621 190.812,-166.218 201.335,-167.453 199.808,-160.621"/>
</g>
<!-- Node27 -->
<g id="node27" class="node"><title>Node27</title>
<g id="a_node27"><a xlink:href="class_i_v_meter_control.html" target="_top" xlink:title="IVMeterControl\&lt; MAXNC \&gt;">
<polygon fill="white" stroke="black" points="258.5,-0.5 258.5,-19.5 395.5,-19.5 395.5,-0.5 258.5,-0.5"/>
<text text-anchor="middle" x="327" y="-7.5" font-family="Helvetica,sans-Serif" font-size="10.00">IVMeterControl&lt; MAXNC &gt;</text>
</a>
</g>
</g>
<!-- Node26&#45;&gt;Node27 -->
<g id="edge26" class="edge"><title>Node26&#45;&gt;Node27</title>
<path fill="none" stroke="midnightblue" d="M218.22,-10C231.291,-10 245.138,-10 258.396,-10"/>
<polygon fill="midnightblue" stroke="midnightblue" points="217.929,-6.5001 207.929,-10 217.929,-13.5001 217.929,-6.5001"/>
</g>
</g>
</svg>
