<?xml version="1.0" encoding="UTF-8" standalone="no"?>
<!DOCTYPE svg PUBLIC "-//W3C//DTD SVG 1.1//EN"
 "http://www.w3.org/Graphics/SVG/1.1/DTD/svg11.dtd">
<!-- Generated by graphviz version 2.36.0 (20140111.2315)
 -->
<!-- Title: IVSwitchControl Pages: 1 -->
<svg width="201pt" height="196pt"
 viewBox="0.00 0.00 201.00 196.00" xmlns="http://www.w3.org/2000/svg" xmlns:xlink="http://www.w3.org/1999/xlink">
<g id="graph0" class="graph" transform="scale(1 1) rotate(0) translate(4 192)">
<title>IVSwitchControl</title>
<polygon fill="white" stroke="none" points="-4,4 -4,-192 197,-192 197,4 -4,4"/>
<!-- Node1 -->
<g id="node1" class="node"><title>Node1</title>
<polygon fill="#bfbfbf" stroke="black" points="61,-56.5 61,-75.5 149,-75.5 149,-56.5 61,-56.5"/>
<text text-anchor="middle" x="105" y="-63.5" font-family="Helvetica,sans-Serif" font-size="10.00">IVSwitchControl</text>
</g>
<!-- Node5 -->
<g id="node5" class="node"><title>Node5</title>
<g id="a_node5"><a xlink:href="class_i_v_contact_control.html" target="_top" xlink:title="IVContactControl">
<polygon fill="white" stroke="black" points="59,-0.5 59,-19.5 151,-19.5 151,-0.5 59,-0.5"/>
<text text-anchor="middle" x="105" y="-7.5" font-family="Helvetica,sans-Serif" font-size="10.00">IVContactControl</text>
</a>
</g>
</g>
<!-- Node1&#45;&gt;Node5 -->
<g id="edge4" class="edge"><title>Node1&#45;&gt;Node5</title>
<path fill="none" stroke="midnightblue" d="M105,-45.8045C105,-36.9102 105,-26.7798 105,-19.7511"/>
<polygon fill="midnightblue" stroke="midnightblue" points="101.5,-46.083 105,-56.083 108.5,-46.083 101.5,-46.083"/>
</g>
<!-- Node2 -->
<g id="node2" class="node"><title>Node2</title>
<g id="a_node2"><a xlink:href="class_i_switch_control_base.html" target="_top" xlink:title="Parent for switch controls (including buttons a.k.a. ">
<polygon fill="white" stroke="black" points="0,-112.5 0,-131.5 104,-131.5 104,-112.5 0,-112.5"/>
<text text-anchor="middle" x="52" y="-119.5" font-family="Helvetica,sans-Serif" font-size="10.00">ISwitchControlBase</text>
</a>
</g>
</g>
<!-- Node2&#45;&gt;Node1 -->
<g id="edge1" class="edge"><title>Node2&#45;&gt;Node1</title>
<path fill="none" stroke="midnightblue" d="M67.9809,-104.718C77.3225,-95.1997 88.7459,-83.5608 96.411,-75.7511"/>
<polygon fill="midnightblue" stroke="midnightblue" points="65.2587,-102.494 60.7519,-112.083 70.2545,-107.398 65.2587,-102.494"/>
</g>
<!-- Node3 -->
<g id="node3" class="node"><title>Node3</title>
<g id="a_node3"><a xlink:href="class_i_control.html" target="_top" xlink:title="The lowest level base class of an IGraphics control. ">
<polygon fill="white" stroke="black" points="26.5,-168.5 26.5,-187.5 77.5,-187.5 77.5,-168.5 26.5,-168.5"/>
<text text-anchor="middle" x="52" y="-175.5" font-family="Helvetica,sans-Serif" font-size="10.00">IControl</text>
</a>
</g>
</g>
<!-- Node3&#45;&gt;Node2 -->
<g id="edge2" class="edge"><title>Node3&#45;&gt;Node2</title>
<path fill="none" stroke="midnightblue" d="M52,-157.805C52,-148.91 52,-138.78 52,-131.751"/>
<polygon fill="midnightblue" stroke="midnightblue" points="48.5001,-158.083 52,-168.083 55.5001,-158.083 48.5001,-158.083"/>
</g>
<!-- Node4 -->
<g id="node4" class="node"><title>Node4</title>
<g id="a_node4"><a xlink:href="class_i_vector_base.html" target="_top" xlink:title="A An interface for IVControls, in order for them to share a common set of colors. ...">
<polygon fill="white" stroke="black" points="122.5,-112.5 122.5,-131.5 193.5,-131.5 193.5,-112.5 122.5,-112.5"/>
<text text-anchor="middle" x="158" y="-119.5" font-family="Helvetica,sans-Serif" font-size="10.00">IVectorBase</text>
</a>
</g>
</g>
<!-- Node4&#45;&gt;Node1 -->
<g id="edge3" class="edge"><title>Node4&#45;&gt;Node1</title>
<path fill="none" stroke="midnightblue" d="M142.019,-104.718C132.678,-95.1997 121.254,-83.5608 113.589,-75.7511"/>
<polygon fill="midnightblue" stroke="midnightblue" points="139.746,-107.398 149.248,-112.083 144.741,-102.494 139.746,-107.398"/>
</g>
</g>
</svg>
