<?xml version="1.0" encoding="UTF-8" standalone="no"?>
<!DOCTYPE svg PUBLIC "-//W3C//DTD SVG 1.1//EN"
 "http://www.w3.org/Graphics/SVG/1.1/DTD/svg11.dtd">
<!-- Generated by graphviz version 2.36.0 (20140111.2315)
 -->
<!-- Title: ITimerCallback Pages: 1 -->
<svg width="442pt" height="332pt"
 viewBox="0.00 0.00 442.00 332.00" xmlns="http://www.w3.org/2000/svg" xmlns:xlink="http://www.w3.org/1999/xlink">
<g id="graph0" class="graph" transform="scale(1 1) rotate(0) translate(4 328)">
<title>ITimerCallback</title>
<polygon fill="white" stroke="none" points="-4,4 -4,-328 438,-328 438,4 -4,4"/>
<!-- Node1 -->
<g id="node1" class="node"><title>Node1</title>
<polygon fill="#bfbfbf" stroke="black" points="0.5,-152.5 0.5,-171.5 83.5,-171.5 83.5,-152.5 0.5,-152.5"/>
<text text-anchor="middle" x="42" y="-159.5" font-family="Helvetica,sans-Serif" font-size="10.00">ITimerCallback</text>
</g>
<!-- Node2 -->
<g id="node2" class="node"><title>Node2</title>
<g id="a_node2"><a xlink:href="class_i_plug_base.html" target="_top" xlink:title="The base class of an IPlug plug&#45;in, which interacts with the different plug&#45;in APIs. ">
<polygon fill="white" stroke="black" points="120,-152.5 120,-171.5 182,-171.5 182,-152.5 120,-152.5"/>
<text text-anchor="middle" x="151" y="-159.5" font-family="Helvetica,sans-Serif" font-size="10.00">IPlugBase</text>
</a>
</g>
</g>
<!-- Node1&#45;&gt;Node2 -->
<g id="edge1" class="edge"><title>Node1&#45;&gt;Node2</title>
<path fill="none" stroke="midnightblue" d="M93.9791,-162C102.771,-162 111.653,-162 119.675,-162"/>
<polygon fill="midnightblue" stroke="midnightblue" points="93.7574,-158.5 83.7574,-162 93.7573,-165.5 93.7574,-158.5"/>
</g>
<!-- Node3 -->
<g id="node3" class="node"><title>Node3</title>
<g id="a_node3"><a xlink:href="class_i_plug_a_a_x.html" target="_top" xlink:title="AAX API base class for an IPlug plug&#45;in, inherits from IPlugBase. ">
<polygon fill="white" stroke="black" points="242.5,-304.5 242.5,-323.5 301.5,-323.5 301.5,-304.5 242.5,-304.5"/>
<text text-anchor="middle" x="272" y="-311.5" font-family="Helvetica,sans-Serif" font-size="10.00">IPlugAAX</text>
</a>
</g>
</g>
<!-- Node2&#45;&gt;Node3 -->
<g id="edge2" class="edge"><title>Node2&#45;&gt;Node3</title>
<path fill="none" stroke="midnightblue" d="M156.704,-181.583C164.589,-210.355 183.15,-263.988 218,-295 224.864,-301.108 233.833,-305.292 242.436,-308.142"/>
<polygon fill="midnightblue" stroke="midnightblue" points="160.002,-180.358 154.114,-171.55 153.224,-182.107 160.002,-180.358"/>
</g>
<!-- Node4 -->
<g id="node4" class="node"><title>Node4</title>
<g id="a_node4"><a xlink:href="class_i_plug_a_p_p.html" target="_top" xlink:title="Standalone application base class for an IPlug plug&#45;in, inherits from IPlugBase. ">
<polygon fill="white" stroke="black" points="242.5,-266.5 242.5,-285.5 301.5,-285.5 301.5,-266.5 242.5,-266.5"/>
<text text-anchor="middle" x="272" y="-273.5" font-family="Helvetica,sans-Serif" font-size="10.00">IPlugAPP</text>
</a>
</g>
</g>
<!-- Node2&#45;&gt;Node4 -->
<g id="edge3" class="edge"><title>Node2&#45;&gt;Node4</title>
<path fill="none" stroke="midnightblue" d="M160.622,-180.844C171.266,-202.15 191.288,-236.528 218,-257 225.138,-262.47 233.99,-266.463 242.403,-269.333"/>
<polygon fill="midnightblue" stroke="midnightblue" points="163.645,-179.054 156.162,-171.554 157.334,-182.083 163.645,-179.054"/>
</g>
<!-- Node5 -->
<g id="node5" class="node"><title>Node5</title>
<g id="a_node5"><a xlink:href="class_i_plug_a_u.html" target="_top" xlink:title="AudioUnit v2 API base class for an IPlug plug&#45;in, inherits from IPlugBase. ">
<polygon fill="white" stroke="black" points="245.5,-228.5 245.5,-247.5 298.5,-247.5 298.5,-228.5 245.5,-228.5"/>
<text text-anchor="middle" x="272" y="-235.5" font-family="Helvetica,sans-Serif" font-size="10.00">IPlugAU</text>
</a>
</g>
</g>
<!-- Node2&#45;&gt;Node5 -->
<g id="edge4" class="edge"><title>Node2&#45;&gt;Node5</title>
<path fill="none" stroke="midnightblue" d="M168.008,-178.849C180.617,-191.328 199.158,-208.004 218,-219 226.442,-223.927 236.376,-227.904 245.348,-230.921"/>
<polygon fill="midnightblue" stroke="midnightblue" points="170.486,-176.377 160.974,-171.711 165.499,-181.29 170.486,-176.377"/>
</g>
<!-- Node6 -->
<g id="node6" class="node"><title>Node6</title>
<g id="a_node6"><a xlink:href="class_i_plug_v_s_t2.html" target="_top" xlink:title="VST2.4 API base class for an IPlug plug&#45;in, inherits from IPlugBase or IPlugBaseGraphics. ">
<polygon fill="white" stroke="black" points="240,-190.5 240,-209.5 304,-209.5 304,-190.5 240,-190.5"/>
<text text-anchor="middle" x="272" y="-197.5" font-family="Helvetica,sans-Serif" font-size="10.00">IPlugVST2</text>
</a>
</g>
</g>
<!-- Node2&#45;&gt;Node6 -->
<g id="edge5" class="edge"><title>Node2&#45;&gt;Node6</title>
<path fill="none" stroke="midnightblue" d="M191.71,-174.68C207.789,-179.815 226.043,-185.644 240.981,-190.414"/>
<polygon fill="midnightblue" stroke="midnightblue" points="192.62,-171.297 182.029,-171.589 190.49,-177.965 192.62,-171.297"/>
</g>
<!-- Node8 -->
<g id="node8" class="node"><title>Node8</title>
<g id="a_node8"><a xlink:href="class_i_plug_v_s_t3.html" target="_top" xlink:title="VST3 base class for an IPlug plug&#45;in, inherits from IPlugBase. ">
<polygon fill="white" stroke="black" points="240,-152.5 240,-171.5 304,-171.5 304,-152.5 240,-152.5"/>
<text text-anchor="middle" x="272" y="-159.5" font-family="Helvetica,sans-Serif" font-size="10.00">IPlugVST3</text>
</a>
</g>
</g>
<!-- Node2&#45;&gt;Node8 -->
<g id="edge7" class="edge"><title>Node2&#45;&gt;Node8</title>
<path fill="none" stroke="midnightblue" d="M192.371,-162C207.841,-162 225.242,-162 239.734,-162"/>
<polygon fill="midnightblue" stroke="midnightblue" points="192.029,-158.5 182.029,-162 192.029,-165.5 192.029,-158.5"/>
</g>
<!-- Node9 -->
<g id="node9" class="node"><title>Node9</title>
<g id="a_node9"><a xlink:href="class_i_plug_v_s_t3_controller.html" target="_top" xlink:title="IPlugVST3Controller">
<polygon fill="white" stroke="black" points="219,-114.5 219,-133.5 325,-133.5 325,-114.5 219,-114.5"/>
<text text-anchor="middle" x="272" y="-121.5" font-family="Helvetica,sans-Serif" font-size="10.00">IPlugVST3Controller</text>
</a>
</g>
</g>
<!-- Node2&#45;&gt;Node9 -->
<g id="edge8" class="edge"><title>Node2&#45;&gt;Node9</title>
<path fill="none" stroke="midnightblue" d="M191.71,-149.32C207.789,-144.185 226.043,-138.356 240.981,-133.586"/>
<polygon fill="midnightblue" stroke="midnightblue" points="190.49,-146.035 182.029,-152.411 192.62,-152.703 190.49,-146.035"/>
</g>
<!-- Node10 -->
<g id="node10" class="node"><title>Node10</title>
<g id="a_node10"><a xlink:href="class_i_plug_v_s_t3_processor.html" target="_top" xlink:title="IPlugVST3Processor">
<polygon fill="white" stroke="black" points="218,-76.5 218,-95.5 326,-95.5 326,-76.5 218,-76.5"/>
<text text-anchor="middle" x="272" y="-83.5" font-family="Helvetica,sans-Serif" font-size="10.00">IPlugVST3Processor</text>
</a>
</g>
</g>
<!-- Node2&#45;&gt;Node10 -->
<g id="edge9" class="edge"><title>Node2&#45;&gt;Node10</title>
<path fill="none" stroke="midnightblue" d="M168.008,-145.151C180.617,-132.672 199.158,-115.996 218,-105 224.332,-101.305 231.502,-98.1439 238.477,-95.5215"/>
<polygon fill="midnightblue" stroke="midnightblue" points="165.499,-142.71 160.974,-152.289 170.486,-147.623 165.499,-142.71"/>
</g>
<!-- Node11 -->
<g id="node11" class="node"><title>Node11</title>
<g id="a_node11"><a xlink:href="class_i_plug_w_a_m.html" target="_top" xlink:title="WebAudioModule (WAM) API base class for an IPlug plug&#45;in. ">
<polygon fill="white" stroke="black" points="240,-38.5 240,-57.5 304,-57.5 304,-38.5 240,-38.5"/>
<text text-anchor="middle" x="272" y="-45.5" font-family="Helvetica,sans-Serif" font-size="10.00">IPlugWAM</text>
</a>
</g>
</g>
<!-- Node2&#45;&gt;Node11 -->
<g id="edge10" class="edge"><title>Node2&#45;&gt;Node11</title>
<path fill="none" stroke="midnightblue" d="M160.622,-143.156C171.266,-121.85 191.288,-87.4718 218,-67 224.439,-62.0648 232.275,-58.3326 239.923,-55.542"/>
<polygon fill="midnightblue" stroke="midnightblue" points="157.334,-141.917 156.162,-152.446 163.645,-144.946 157.334,-141.917"/>
</g>
<!-- Node12 -->
<g id="node12" class="node"><title>Node12</title>
<g id="a_node12"><a xlink:href="class_i_plug_web.html" target="_top" xlink:title="IPlugWeb">
<polygon fill="white" stroke="black" points="242.5,-0.5 242.5,-19.5 301.5,-19.5 301.5,-0.5 242.5,-0.5"/>
<text text-anchor="middle" x="272" y="-7.5" font-family="Helvetica,sans-Serif" font-size="10.00">IPlugWeb</text>
</a>
</g>
</g>
<!-- Node2&#45;&gt;Node12 -->
<g id="edge11" class="edge"><title>Node2&#45;&gt;Node12</title>
<path fill="none" stroke="midnightblue" d="M156.704,-142.417C164.589,-113.645 183.15,-60.0119 218,-29 224.864,-22.8919 233.833,-18.7077 242.436,-15.8581"/>
<polygon fill="midnightblue" stroke="midnightblue" points="153.224,-141.893 154.114,-152.45 160.002,-143.642 153.224,-141.893"/>
</g>
<!-- Node7 -->
<g id="node7" class="node"><title>Node7</title>
<g id="a_node7"><a xlink:href="class_i_plug_reaper.html" target="_top" xlink:title="IPlugReaper">
<polygon fill="white" stroke="black" points="362.5,-190.5 362.5,-209.5 433.5,-209.5 433.5,-190.5 362.5,-190.5"/>
<text text-anchor="middle" x="398" y="-197.5" font-family="Helvetica,sans-Serif" font-size="10.00">IPlugReaper</text>
</a>
</g>
</g>
<!-- Node6&#45;&gt;Node7 -->
<g id="edge6" class="edge"><title>Node6&#45;&gt;Node7</title>
<path fill="none" stroke="midnightblue" d="M314.632,-200C330.087,-200 347.442,-200 362.222,-200"/>
<polygon fill="midnightblue" stroke="midnightblue" points="314.29,-196.5 304.29,-200 314.29,-203.5 314.29,-196.5"/>
</g>
</g>
</svg>
