<?xml version="1.0" encoding="UTF-8" standalone="no"?>
<!DOCTYPE svg PUBLIC "-//W3C//DTD SVG 1.1//EN"
 "http://www.w3.org/Graphics/SVG/1.1/DTD/svg11.dtd">
<!-- Generated by graphviz version 2.36.0 (20140111.2315)
 -->
<!-- Title: Drawing Pages: 1 -->
<svg width="94pt" height="151pt"
 viewBox="0.00 0.00 94.00 151.00" xmlns="http://www.w3.org/2000/svg" xmlns:xlink="http://www.w3.org/1999/xlink">
<g id="graph0" class="graph" transform="scale(1 1) rotate(0) translate(4 147)">
<title>Drawing</title>
<polygon fill="white" stroke="none" points="-4,4 -4,-147 90,-147 90,4 -4,4"/>
<g id="clust1" class="cluster"><title>clusterdir_c70994b0d9919a11b368e677cb7f323c</title>
<g id="a_clust1"><a xlink:href="dir_c70994b0d9919a11b368e677cb7f323c.html" target="_top" xlink:title="IGraphics">
<polygon fill="#ddddee" stroke="black" points="8,-64 8,-135 78,-135 78,-64 8,-64"/>
<text text-anchor="middle" x="43" y="-123" font-family="Helvetica,sans-Serif" font-size="10.00">IGraphics</text>
</a>
</g>
</g>
<!-- dir_c649c2f2597c2abb2195531ee49800c5 -->
<g id="node1" class="node"><title>dir_c649c2f2597c2abb2195531ee49800c5</title>
<g id="a_node1"><a xlink:href="dir_c649c2f2597c2abb2195531ee49800c5.html" target="_top" xlink:title="Drawing">
<polygon fill="#eeeeff" stroke="black" points="70,-108 16,-108 16,-72 70,-72 70,-108"/>
<text text-anchor="middle" x="43" y="-87.5" font-family="Helvetica,sans-Serif" font-size="10.00">Drawing</text>
</a>
</g>
</g>
<!-- dir_a8a4892678035c62db3a4af7d9811050 -->
<g id="node2" class="node"><title>dir_a8a4892678035c62db3a4af7d9811050</title>
<g id="a_node2"><a xlink:href="dir_a8a4892678035c62db3a4af7d9811050.html" target="_top" xlink:title="IPlug">
<polygon fill="white" stroke="red" points="70,-36 16,-36 16,-0 70,-0 70,-36"/>
<text text-anchor="middle" x="43" y="-15.5" font-family="Helvetica,sans-Serif" font-size="10.00">IPlug</text>
</a>
</g>
</g>
<!-- dir_c649c2f2597c2abb2195531ee49800c5&#45;&gt;dir_a8a4892678035c62db3a4af7d9811050 -->
<g id="edge1" class="edge"><title>dir_c649c2f2597c2abb2195531ee49800c5&#45;&gt;dir_a8a4892678035c62db3a4af7d9811050</title>
<path fill="none" stroke="black" d="M43,-71.6966C43,-63.9827 43,-54.7125 43,-46.1124"/>
<polygon fill="black" stroke="black" points="46.5001,-46.1043 43,-36.1043 39.5001,-46.1044 46.5001,-46.1043"/>
<g id="a_edge1&#45;headlabel"><a xlink:href="dir_000002_000004.html" target="_top" xlink:title="3">
<text text-anchor="middle" x="49.3393" y="-47.199" font-family="Helvetica,sans-Serif" font-size="10.00">3</text>
</a>
</g>
</g>
</g>
</svg>
