<?xml version="1.0" encoding="UTF-8" standalone="no"?>
<!DOCTYPE svg PUBLIC "-//W3C//DTD SVG 1.1//EN"
 "http://www.w3.org/Graphics/SVG/1.1/DTD/svg11.dtd">
<!-- Generated by graphviz version 2.36.0 (20140111.2315)
 -->
<!-- Title: IPlug Pages: 1 -->
<svg width="526pt" height="132pt"
 viewBox="0.00 0.00 526.00 132.00" xmlns="http://www.w3.org/2000/svg" xmlns:xlink="http://www.w3.org/1999/xlink">
<g id="graph0" class="graph" transform="scale(1 1) rotate(0) translate(4 128)">
<title>IPlug</title>
<polygon fill="white" stroke="none" points="-4,4 -4,-128 522,-128 522,4 -4,4"/>
<g id="clust1" class="cluster"><title>clusterdir_a8a4892678035c62db3a4af7d9811050</title>
<g id="a_clust1"><a xlink:href="dir_a8a4892678035c62db3a4af7d9811050.html" target="_top">
<polygon fill="#eeeeff" stroke="black" points="8,-64 8,-116 510,-116 510,-64 8,-64"/>
</a>
</g>
</g>
<!-- dir_a8a4892678035c62db3a4af7d9811050 -->
<g id="node1" class="node"><title>dir_a8a4892678035c62db3a4af7d9811050</title>
<text text-anchor="middle" x="475" y="-87.5" font-family="Helvetica,sans-Serif" font-size="10.00">IPlug</text>
</g>
<!-- dir_c70994b0d9919a11b368e677cb7f323c -->
<g id="node8" class="node"><title>dir_c70994b0d9919a11b368e677cb7f323c</title>
<g id="a_node8"><a xlink:href="dir_c70994b0d9919a11b368e677cb7f323c.html" target="_top" xlink:title="IGraphics">
<polygon fill="white" stroke="red" points="504.25,-36 445.75,-36 445.75,-0 504.25,-0 504.25,-36"/>
<text text-anchor="middle" x="475" y="-15.5" font-family="Helvetica,sans-Serif" font-size="10.00">IGraphics</text>
</a>
</g>
</g>
<!-- dir_a8a4892678035c62db3a4af7d9811050&#45;&gt;dir_c70994b0d9919a11b368e677cb7f323c -->
<g id="edge1" class="edge"><title>dir_a8a4892678035c62db3a4af7d9811050&#45;&gt;dir_c70994b0d9919a11b368e677cb7f323c</title>
<path fill="none" stroke="black" d="M475,-71.6966C475,-63.9827 475,-54.7125 475,-46.1124"/>
<polygon fill="black" stroke="black" points="478.5,-46.1043 475,-36.1043 471.5,-46.1044 478.5,-46.1043"/>
<g id="a_edge1&#45;headlabel"><a xlink:href="dir_000004_000000.html" target="_top" xlink:title="2">
<text text-anchor="middle" x="481.339" y="-47.199" font-family="Helvetica,sans-Serif" font-size="10.00">2</text>
</a>
</g>
</g>
<!-- dir_24787af89b1591f7ee47542c6cb01a97 -->
<g id="node2" class="node"><title>dir_24787af89b1591f7ee47542c6cb01a97</title>
<g id="a_node2"><a xlink:href="dir_24787af89b1591f7ee47542c6cb01a97.html" target="_top" xlink:title="AAX">
<polygon fill="white" stroke="black" points="430,-108 376,-108 376,-72 430,-72 430,-108"/>
<text text-anchor="middle" x="403" y="-87.5" font-family="Helvetica,sans-Serif" font-size="10.00">AAX</text>
</a>
</g>
</g>
<!-- dir_0a4d5c809904f161b2c5f61c6d7be6b0 -->
<g id="node3" class="node"><title>dir_0a4d5c809904f161b2c5f61c6d7be6b0</title>
<g id="a_node3"><a xlink:href="dir_0a4d5c809904f161b2c5f61c6d7be6b0.html" target="_top" xlink:title="APP">
<polygon fill="white" stroke="black" points="358,-108 304,-108 304,-72 358,-72 358,-108"/>
<text text-anchor="middle" x="331" y="-87.5" font-family="Helvetica,sans-Serif" font-size="10.00">APP</text>
</a>
</g>
</g>
<!-- dir_468b952c05e6144344c0596176d74f2b -->
<g id="node4" class="node"><title>dir_468b952c05e6144344c0596176d74f2b</title>
<g id="a_node4"><a xlink:href="dir_468b952c05e6144344c0596176d74f2b.html" target="_top" xlink:title="AUv2">
<polygon fill="white" stroke="black" points="286,-108 232,-108 232,-72 286,-72 286,-108"/>
<text text-anchor="middle" x="259" y="-87.5" font-family="Helvetica,sans-Serif" font-size="10.00">AUv2</text>
</a>
</g>
</g>
<!-- dir_fc0ecb49226fe1c75980931ed40843b9 -->
<g id="node5" class="node"><title>dir_fc0ecb49226fe1c75980931ed40843b9</title>
<g id="a_node5"><a xlink:href="dir_fc0ecb49226fe1c75980931ed40843b9.html" target="_top" xlink:title="VST2">
<polygon fill="white" stroke="black" points="214,-108 160,-108 160,-72 214,-72 214,-108"/>
<text text-anchor="middle" x="187" y="-87.5" font-family="Helvetica,sans-Serif" font-size="10.00">VST2</text>
</a>
</g>
</g>
<!-- dir_b8b37e024f559980bd14da047db80fdb -->
<g id="node6" class="node"><title>dir_b8b37e024f559980bd14da047db80fdb</title>
<g id="a_node6"><a xlink:href="dir_b8b37e024f559980bd14da047db80fdb.html" target="_top" xlink:title="VST3">
<polygon fill="white" stroke="black" points="142,-108 88,-108 88,-72 142,-72 142,-108"/>
<text text-anchor="middle" x="115" y="-87.5" font-family="Helvetica,sans-Serif" font-size="10.00">VST3</text>
</a>
</g>
</g>
<!-- dir_f26b9fb677143c9f45268e1ab7f978e8 -->
<g id="node7" class="node"><title>dir_f26b9fb677143c9f45268e1ab7f978e8</title>
<g id="a_node7"><a xlink:href="dir_f26b9fb677143c9f45268e1ab7f978e8.html" target="_top" xlink:title="WEB">
<polygon fill="white" stroke="black" points="70,-108 16,-108 16,-72 70,-72 70,-108"/>
<text text-anchor="middle" x="43" y="-87.5" font-family="Helvetica,sans-Serif" font-size="10.00">WEB</text>
</a>
</g>
</g>
</g>
</svg>
