<?xml version="1.0" encoding="UTF-8" standalone="no"?>
<!DOCTYPE svg PUBLIC "-//W3C//DTD SVG 1.1//EN"
 "http://www.w3.org/Graphics/SVG/1.1/DTD/svg11.dtd">
<!-- Generated by graphviz version 2.36.0 (20140111.2315)
 -->
<!-- Title: IGraphics Pages: 1 -->
<svg width="303pt" height="148pt"
 viewBox="0.00 0.00 303.00 148.00" xmlns="http://www.w3.org/2000/svg" xmlns:xlink="http://www.w3.org/1999/xlink">
<g id="graph0" class="graph" transform="scale(1 1) rotate(0) translate(4 144)">
<title>IGraphics</title>
<polygon fill="white" stroke="none" points="-4,4 -4,-144 299,-144 299,4 -4,4"/>
<g id="clust1" class="cluster"><title>clusterdir_c70994b0d9919a11b368e677cb7f323c</title>
<g id="a_clust1"><a xlink:href="dir_c70994b0d9919a11b368e677cb7f323c.html" target="_top">
<polygon fill="#eeeeff" stroke="black" points="8,-8 8,-132 233,-132 233,-8 8,-8"/>
</a>
</g>
</g>
<!-- dir_c70994b0d9919a11b368e677cb7f323c -->
<g id="node1" class="node"><title>dir_c70994b0d9919a11b368e677cb7f323c</title>
<text text-anchor="middle" x="46" y="-103.5" font-family="Helvetica,sans-Serif" font-size="10.00">IGraphics</text>
</g>
<!-- dir_b13fc9fb79eb1e19d3aa0747e2e621c7 -->
<g id="node2" class="node"><title>dir_b13fc9fb79eb1e19d3aa0747e2e621c7</title>
<g id="a_node2"><a xlink:href="dir_b13fc9fb79eb1e19d3aa0747e2e621c7.html" target="_top" xlink:title="Controls">
<polygon fill="white" stroke="black" points="73,-52 19,-52 19,-16 73,-16 73,-52"/>
<text text-anchor="middle" x="46" y="-31.5" font-family="Helvetica,sans-Serif" font-size="10.00">Controls</text>
</a>
</g>
</g>
<!-- dir_c70994b0d9919a11b368e677cb7f323c&#45;&gt;dir_b13fc9fb79eb1e19d3aa0747e2e621c7 -->
<g id="edge2" class="edge"><title>dir_c70994b0d9919a11b368e677cb7f323c&#45;&gt;dir_b13fc9fb79eb1e19d3aa0747e2e621c7</title>
<path fill="none" stroke="black" d="M46,-87.6966C46,-79.9827 46,-70.7125 46,-62.1124"/>
<polygon fill="black" stroke="black" points="49.5001,-62.1043 46,-52.1043 42.5001,-62.1044 49.5001,-62.1043"/>
<g id="a_edge2&#45;headlabel"><a xlink:href="dir_000000_000001.html" target="_top" xlink:title="1">
<text text-anchor="middle" x="52.3393" y="-63.199" font-family="Helvetica,sans-Serif" font-size="10.00">1</text>
</a>
</g>
</g>
<!-- dir_c649c2f2597c2abb2195531ee49800c5 -->
<g id="node3" class="node"><title>dir_c649c2f2597c2abb2195531ee49800c5</title>
<g id="a_node3"><a xlink:href="dir_c649c2f2597c2abb2195531ee49800c5.html" target="_top" xlink:title="Drawing">
<polygon fill="white" stroke="black" points="225,-124 171,-124 171,-88 225,-88 225,-124"/>
<text text-anchor="middle" x="198" y="-103.5" font-family="Helvetica,sans-Serif" font-size="10.00">Drawing</text>
</a>
</g>
</g>
<!-- dir_a8a4892678035c62db3a4af7d9811050 -->
<g id="node5" class="node"><title>dir_a8a4892678035c62db3a4af7d9811050</title>
<g id="a_node5"><a xlink:href="dir_a8a4892678035c62db3a4af7d9811050.html" target="_top" xlink:title="IPlug">
<polygon fill="white" stroke="red" points="295,-52 241,-52 241,-16 295,-16 295,-52"/>
<text text-anchor="middle" x="268" y="-31.5" font-family="Helvetica,sans-Serif" font-size="10.00">IPlug</text>
</a>
</g>
</g>
<!-- dir_c649c2f2597c2abb2195531ee49800c5&#45;&gt;dir_a8a4892678035c62db3a4af7d9811050 -->
<g id="edge4" class="edge"><title>dir_c649c2f2597c2abb2195531ee49800c5&#45;&gt;dir_a8a4892678035c62db3a4af7d9811050</title>
<path fill="none" stroke="black" d="M215.303,-87.6966C223.865,-79.135 234.344,-68.6562 243.696,-59.3045"/>
<polygon fill="black" stroke="black" points="246.299,-61.6503 250.896,-52.1043 241.35,-56.7005 246.299,-61.6503"/>
<g id="a_edge4&#45;headlabel"><a xlink:href="dir_000002_000004.html" target="_top" xlink:title="3">
<text text-anchor="middle" x="245.765" y="-63.6997" font-family="Helvetica,sans-Serif" font-size="10.00">3</text>
</a>
</g>
</g>
<!-- dir_e4d4be9d96bdd22d6611b01668e2ff02 -->
<g id="node4" class="node"><title>dir_e4d4be9d96bdd22d6611b01668e2ff02</title>
<g id="a_node4"><a xlink:href="dir_e4d4be9d96bdd22d6611b01668e2ff02.html" target="_top" xlink:title="Platforms">
<polygon fill="white" stroke="black" points="152.25,-124 93.75,-124 93.75,-88 152.25,-88 152.25,-124"/>
<text text-anchor="middle" x="123" y="-103.5" font-family="Helvetica,sans-Serif" font-size="10.00">Platforms</text>
</a>
</g>
</g>
<!-- dir_e4d4be9d96bdd22d6611b01668e2ff02&#45;&gt;dir_a8a4892678035c62db3a4af7d9811050 -->
<g id="edge3" class="edge"><title>dir_e4d4be9d96bdd22d6611b01668e2ff02&#45;&gt;dir_a8a4892678035c62db3a4af7d9811050</title>
<path fill="none" stroke="black" d="M152.306,-92.0213C173.312,-82.5785 202.451,-69.1968 231.622,-54.6617"/>
<polygon fill="black" stroke="black" points="233.304,-57.734 240.668,-50.1169 230.161,-51.4791 233.304,-57.734"/>
<g id="a_edge3&#45;headlabel"><a xlink:href="dir_000003_000004.html" target="_top" xlink:title="2">
<text text-anchor="middle" x="231.366" y="-59.3848" font-family="Helvetica,sans-Serif" font-size="10.00">2</text>
</a>
</g>
</g>
<!-- dir_a8a4892678035c62db3a4af7d9811050&#45;&gt;dir_c70994b0d9919a11b368e677cb7f323c -->
<g id="edge1" class="edge"><title>dir_a8a4892678035c62db3a4af7d9811050&#45;&gt;dir_c70994b0d9919a11b368e677cb7f323c</title>
<path fill="none" stroke="black" d="M240.808,-50.4325C239.534,-50.9902 238.261,-51.5163 237,-52 174.708,-75.8992 152.209,-66.5856 85.3889,-87.8779"/>
<polygon fill="black" stroke="black" points="84.0552,-84.6323 75.6574,-91.092 86.2506,-91.2792 84.0552,-84.6323"/>
<g id="a_edge1&#45;headlabel"><a xlink:href="dir_000004_000000.html" target="_top" xlink:title="2">
<text text-anchor="middle" x="86.578" y="-78.309" font-family="Helvetica,sans-Serif" font-size="10.00">2</text>
</a>
</g>
</g>
</g>
</svg>
