<?xml version="1.0" encoding="UTF-8" standalone="no"?>
<!DOCTYPE svg PUBLIC "-//W3C//DTD SVG 1.1//EN"
 "http://www.w3.org/Graphics/SVG/1.1/DTD/svg11.dtd">
<!-- Generated by graphviz version 2.36.0 (20140111.2315)
 -->
<!-- Title: Graphical Class Hierarchy Pages: 1 -->
<svg width="574pt" height="674pt"
 viewBox="0.00 0.00 574.00 673.76" xmlns="http://www.w3.org/2000/svg" xmlns:xlink="http://www.w3.org/1999/xlink">
<g id="graph0" class="graph" transform="scale(1 1) rotate(0) translate(4 669.755)">
<title>Graphical Class Hierarchy</title>
<polygon fill="white" stroke="none" points="-4,4 -4,-669.755 570,-669.755 570,4 -4,4"/>
<!-- Node1 -->
<g id="node1" class="node"><title>Node1</title>
<g id="a_node1"><a xlink:href="class_i_bitmap_base.html" target="_top" xlink:title="IBitmapBase">
<polygon fill="white" stroke="black" points="138.5,-76.5 138.5,-95.5 211.5,-95.5 211.5,-76.5 138.5,-76.5"/>
<text text-anchor="middle" x="175" y="-83.5" font-family="Helvetica,sans-Serif" font-size="10.00">IBitmapBase</text>
</a>
</g>
</g>
<!-- Node2 -->
<g id="node2" class="node"><title>Node2</title>
<g id="a_node2"><a xlink:href="class_i_bitmap_control.html" target="_top" xlink:title="A basic control to draw a bitmap, or one frame of a stacked bitmap depending on the current value...">
<polygon fill="white" stroke="black" points="306,-123.5 306,-142.5 388,-142.5 388,-123.5 306,-123.5"/>
<text text-anchor="middle" x="347" y="-130.5" font-family="Helvetica,sans-Serif" font-size="10.00">IBitmapControl</text>
</a>
</g>
</g>
<!-- Node1&#45;&gt;Node2 -->
<g id="edge1" class="edge"><title>Node1&#45;&gt;Node2</title>
<path fill="none" stroke="midnightblue" d="M220.097,-98.1916C248.538,-106.055 284.999,-116.135 311.358,-123.422"/>
<polygon fill="midnightblue" stroke="midnightblue" points="220.973,-94.8025 210.402,-95.5112 219.108,-101.549 220.973,-94.8025"/>
</g>
<!-- Node4 -->
<g id="node4" class="node"><title>Node4</title>
<g id="a_node4"><a xlink:href="class_i_b_knob_control.html" target="_top" xlink:title="A bitmap knob/dial control. ">
<polygon fill="white" stroke="black" points="307,-256.5 307,-275.5 387,-275.5 387,-256.5 307,-256.5"/>
<text text-anchor="middle" x="347" y="-263.5" font-family="Helvetica,sans-Serif" font-size="10.00">IBKnobControl</text>
</a>
</g>
</g>
<!-- Node1&#45;&gt;Node4 -->
<g id="edge3" class="edge"><title>Node1&#45;&gt;Node4</title>
<path fill="none" stroke="midnightblue" d="M221.395,-92.813C228.964,-95.605 236.221,-99.5192 242,-105 277.49,-138.659 250.252,-168.719 278,-209 291.895,-229.171 314.761,-246.274 330.095,-256.339"/>
<polygon fill="midnightblue" stroke="midnightblue" points="222.314,-89.4339 211.727,-89.8432 220.258,-96.1253 222.314,-89.4339"/>
</g>
<!-- Node6 -->
<g id="node6" class="node"><title>Node6</title>
<g id="a_node6"><a xlink:href="class_i_b_slider_control.html" target="_top" xlink:title="IBSliderControl">
<polygon fill="white" stroke="black" points="305.5,-180.5 305.5,-199.5 388.5,-199.5 388.5,-180.5 305.5,-180.5"/>
<text text-anchor="middle" x="347" y="-187.5" font-family="Helvetica,sans-Serif" font-size="10.00">IBSliderControl</text>
</a>
</g>
</g>
<!-- Node1&#45;&gt;Node6 -->
<g id="edge5" class="edge"><title>Node1&#45;&gt;Node6</title>
<path fill="none" stroke="midnightblue" d="M221.546,-94.949C228.746,-97.5116 235.838,-100.796 242,-105 263.735,-119.83 258.104,-134.781 278,-152 291.703,-163.859 309.692,-173.714 323.725,-180.415"/>
<polygon fill="midnightblue" stroke="midnightblue" points="222.329,-91.5265 211.74,-91.8831 220.24,-98.2077 222.329,-91.5265"/>
</g>
<!-- Node7 -->
<g id="node7" class="node"><title>Node7</title>
<g id="a_node7"><a xlink:href="class_i_b_text_control.html" target="_top" xlink:title="Display monospace bitmap font text. ">
<polygon fill="white" stroke="black" points="308.5,-76.5 308.5,-95.5 385.5,-95.5 385.5,-76.5 308.5,-76.5"/>
<text text-anchor="middle" x="347" y="-83.5" font-family="Helvetica,sans-Serif" font-size="10.00">IBTextControl</text>
</a>
</g>
</g>
<!-- Node1&#45;&gt;Node7 -->
<g id="edge6" class="edge"><title>Node1&#45;&gt;Node7</title>
<path fill="none" stroke="midnightblue" d="M221.665,-86C248.789,-86 282.768,-86 308.346,-86"/>
<polygon fill="midnightblue" stroke="midnightblue" points="221.638,-82.5001 211.638,-86 221.638,-89.5001 221.638,-82.5001"/>
</g>
<!-- Node3 -->
<g id="node3" class="node"><title>Node3</title>
<g id="a_node3"><a xlink:href="class_i_b_switch_control.html" target="_top" xlink:title="A bitmap switch control. ">
<polygon fill="white" stroke="black" points="465,-123.5 465,-142.5 553,-142.5 553,-123.5 465,-123.5"/>
<text text-anchor="middle" x="509" y="-130.5" font-family="Helvetica,sans-Serif" font-size="10.00">IBSwitchControl</text>
</a>
</g>
</g>
<!-- Node2&#45;&gt;Node3 -->
<g id="edge2" class="edge"><title>Node2&#45;&gt;Node3</title>
<path fill="none" stroke="midnightblue" d="M398.541,-133C419.847,-133 444.392,-133 464.833,-133"/>
<polygon fill="midnightblue" stroke="midnightblue" points="398.375,-129.5 388.375,-133 398.375,-136.5 398.375,-129.5"/>
</g>
<!-- Node5 -->
<g id="node5" class="node"><title>Node5</title>
<g id="a_node5"><a xlink:href="class_i_b_knob_rotater_control.html" target="_top" xlink:title="IBKnobRotaterControl">
<polygon fill="white" stroke="black" points="452.5,-256.5 452.5,-275.5 565.5,-275.5 565.5,-256.5 452.5,-256.5"/>
<text text-anchor="middle" x="509" y="-263.5" font-family="Helvetica,sans-Serif" font-size="10.00">IBKnobRotaterControl</text>
</a>
</g>
</g>
<!-- Node4&#45;&gt;Node5 -->
<g id="edge4" class="edge"><title>Node4&#45;&gt;Node5</title>
<path fill="none" stroke="midnightblue" d="M397.614,-266C414.959,-266 434.541,-266 452.345,-266"/>
<polygon fill="midnightblue" stroke="midnightblue" points="397.14,-262.5 387.14,-266 397.14,-269.5 397.14,-262.5"/>
</g>
<!-- Node8 -->
<g id="node8" class="node"><title>Node8</title>
<g id="a_node8"><a xlink:href="class_i_control.html" target="_top" xlink:title="The lowest level base class of an IGraphics control. ">
<polygon fill="white" stroke="black" points="10.5,-285.5 10.5,-304.5 61.5,-304.5 61.5,-285.5 10.5,-285.5"/>
<text text-anchor="middle" x="36" y="-292.5" font-family="Helvetica,sans-Serif" font-size="10.00">IControl</text>
</a>
</g>
</g>
<!-- Node8&#45;&gt;Node2 -->
<g id="edge7" class="edge"><title>Node8&#45;&gt;Node2</title>
<path fill="none" stroke="midnightblue" d="M71.4209,-306.457C115.616,-318.831 192.496,-332.176 242,-295 287.888,-260.54 242.279,-215.914 278,-171 288.354,-157.981 304.456,-148.7 318.393,-142.571"/>
<polygon fill="midnightblue" stroke="midnightblue" points="72.2975,-303.066 61.7164,-303.607 70.3253,-309.783 72.2975,-303.066"/>
</g>
<!-- Node9 -->
<g id="node9" class="node"><title>Node9</title>
<g id="a_node9"><a xlink:href="class_i_dir_browse_control_base.html" target="_top" xlink:title="An abstract IControl base class that you can inherit from in order to make a control that pops up a m...">
<polygon fill="white" stroke="black" points="115.5,-152.5 115.5,-171.5 234.5,-171.5 234.5,-152.5 115.5,-152.5"/>
<text text-anchor="middle" x="175" y="-159.5" font-family="Helvetica,sans-Serif" font-size="10.00">IDirBrowseControlBase</text>
</a>
</g>
</g>
<!-- Node8&#45;&gt;Node9 -->
<g id="edge8" class="edge"><title>Node8&#45;&gt;Node9</title>
<path fill="none" stroke="midnightblue" d="M43.8964,-275.753C54.0078,-250.281 75.2812,-205.72 108,-181 113.137,-177.119 119.044,-174.029 125.167,-171.57"/>
<polygon fill="midnightblue" stroke="midnightblue" points="40.5162,-274.796 40.2455,-285.387 47.062,-277.276 40.5162,-274.796"/>
</g>
<!-- Node10 -->
<g id="node10" class="node"><title>Node10</title>
<g id="a_node10"><a xlink:href="class_i_graphics_live_edit.html" target="_top" xlink:title="IGraphicsLiveEdit">
<polygon fill="white" stroke="black" points="128,-114.5 128,-133.5 222,-133.5 222,-114.5 128,-114.5"/>
<text text-anchor="middle" x="175" y="-121.5" font-family="Helvetica,sans-Serif" font-size="10.00">IGraphicsLiveEdit</text>
</a>
</g>
</g>
<!-- Node8&#45;&gt;Node10 -->
<g id="edge9" class="edge"><title>Node8&#45;&gt;Node10</title>
<path fill="none" stroke="midnightblue" d="M40.7767,-275.047C47.9826,-242.528 66.7988,-178.203 108,-143 113.711,-138.12 120.608,-134.492 127.762,-131.794"/>
<polygon fill="midnightblue" stroke="midnightblue" points="37.2908,-274.622 38.6945,-285.123 44.1459,-276.039 37.2908,-274.622"/>
</g>
<!-- Node11 -->
<g id="node11" class="node"><title>Node11</title>
<g id="a_node11"><a xlink:href="class_i_knob_control_base.html" target="_top" xlink:title="Parent for knobs, to handle mouse action and ballistics. ">
<polygon fill="white" stroke="black" points="127,-380.5 127,-399.5 223,-399.5 223,-380.5 127,-380.5"/>
<text text-anchor="middle" x="175" y="-387.5" font-family="Helvetica,sans-Serif" font-size="10.00">IKnobControlBase</text>
</a>
</g>
</g>
<!-- Node8&#45;&gt;Node11 -->
<g id="edge10" class="edge"><title>Node8&#45;&gt;Node11</title>
<path fill="none" stroke="midnightblue" d="M49.2546,-312.924C61.9962,-330.235 83.4848,-355.975 108,-371 114.303,-374.863 121.424,-377.969 128.598,-380.459"/>
<polygon fill="midnightblue" stroke="midnightblue" points="52.0751,-310.851 43.4192,-304.742 46.3758,-314.916 52.0751,-310.851"/>
</g>
<!-- Node14 -->
<g id="node14" class="node"><title>Node14</title>
<g id="a_node14"><a xlink:href="class_i_panel_control.html" target="_top" xlink:title="A basic control to fill a rectangle with a color. ">
<polygon fill="white" stroke="black" points="137,-0.5 137,-19.5 213,-19.5 213,-0.5 137,-0.5"/>
<text text-anchor="middle" x="175" y="-7.5" font-family="Helvetica,sans-Serif" font-size="10.00">IPanelControl</text>
</a>
</g>
</g>
<!-- Node8&#45;&gt;Node14 -->
<g id="edge14" class="edge"><title>Node8&#45;&gt;Node14</title>
<path fill="none" stroke="midnightblue" d="M36.1494,-275.247C35.1723,-226.362 39.6816,-98.6612 108,-29 115.681,-21.1681 126.365,-16.5115 136.902,-13.7595"/>
<polygon fill="midnightblue" stroke="midnightblue" points="32.6561,-275.526 36.4601,-285.414 39.6529,-275.312 32.6561,-275.526"/>
</g>
<!-- Node15 -->
<g id="node15" class="node"><title>Node15</title>
<g id="a_node15"><a xlink:href="class_i_popup_menu_control_base.html" target="_top" xlink:title="A base control for a pop&#45;up menu/drop&#45;down list that stays within the bounds of the IGraphics context...">
<polygon fill="white" stroke="black" points="112.5,-266.5 112.5,-285.5 237.5,-285.5 237.5,-266.5 112.5,-266.5"/>
<text text-anchor="middle" x="175" y="-273.5" font-family="Helvetica,sans-Serif" font-size="10.00">IPopupMenuControlBase</text>
</a>
</g>
</g>
<!-- Node8&#45;&gt;Node15 -->
<g id="edge15" class="edge"><title>Node8&#45;&gt;Node15</title>
<path fill="none" stroke="midnightblue" d="M72.0568,-290.138C84.3392,-288.435 98.5226,-286.468 112.332,-284.553"/>
<polygon fill="midnightblue" stroke="midnightblue" points="71.234,-286.719 61.8097,-291.559 72.1957,-293.652 71.234,-286.719"/>
</g>
<!-- Node16 -->
<g id="node16" class="node"><title>Node16</title>
<g id="a_node16"><a xlink:href="class_i_slider_control_base.html" target="_top" xlink:title="ISliderControlBase">
<polygon fill="white" stroke="black" points="126,-342.5 126,-361.5 224,-361.5 224,-342.5 126,-342.5"/>
<text text-anchor="middle" x="175" y="-349.5" font-family="Helvetica,sans-Serif" font-size="10.00">ISliderControlBase</text>
</a>
</g>
</g>
<!-- Node8&#45;&gt;Node16 -->
<g id="edge16" class="edge"><title>Node8&#45;&gt;Node16</title>
<path fill="none" stroke="midnightblue" d="M65.6432,-308.999C78.4834,-315.096 93.8853,-322.166 108,-328 120.395,-333.123 134.323,-338.274 146.179,-342.484"/>
<polygon fill="midnightblue" stroke="midnightblue" points="66.9178,-305.729 56.3874,-304.563 63.8923,-312.041 66.9178,-305.729"/>
</g>
<!-- Node18 -->
<g id="node18" class="node"><title>Node18</title>
<g id="a_node18"><a xlink:href="class_i_s_v_g_control.html" target="_top" xlink:title="A basic control to draw an SVG image to the screen. ">
<polygon fill="white" stroke="black" points="139,-190.5 139,-209.5 211,-209.5 211,-190.5 139,-190.5"/>
<text text-anchor="middle" x="175" y="-197.5" font-family="Helvetica,sans-Serif" font-size="10.00">ISVGControl</text>
</a>
</g>
</g>
<!-- Node8&#45;&gt;Node18 -->
<g id="edge19" class="edge"><title>Node8&#45;&gt;Node18</title>
<path fill="none" stroke="midnightblue" d="M49.2546,-277.076C61.9962,-259.765 83.4848,-234.025 108,-219 117.353,-213.268 128.507,-209.202 138.96,-206.344"/>
<polygon fill="midnightblue" stroke="midnightblue" points="46.3758,-275.084 43.4192,-285.258 52.0751,-279.149 46.3758,-275.084"/>
</g>
<!-- Node19 -->
<g id="node19" class="node"><title>Node19</title>
<g id="a_node19"><a xlink:href="class_i_switch_control_base.html" target="_top" xlink:title="Parent for switch controls (including buttons a.k.a. ">
<polygon fill="white" stroke="black" points="123,-228.5 123,-247.5 227,-247.5 227,-228.5 123,-228.5"/>
<text text-anchor="middle" x="175" y="-235.5" font-family="Helvetica,sans-Serif" font-size="10.00">ISwitchControlBase</text>
</a>
</g>
</g>
<!-- Node8&#45;&gt;Node19 -->
<g id="edge20" class="edge"><title>Node8&#45;&gt;Node19</title>
<path fill="none" stroke="midnightblue" d="M61.2513,-280.372C74.692,-272.69 91.8979,-263.541 108,-257 116.838,-253.41 126.597,-250.208 135.839,-247.503"/>
<polygon fill="midnightblue" stroke="midnightblue" points="59.4877,-277.348 52.6075,-285.405 63.0103,-283.397 59.4877,-277.348"/>
</g>
<!-- Node22 -->
<g id="node22" class="node"><title>Node22</title>
<g id="a_node22"><a xlink:href="class_i_text_control.html" target="_top" xlink:title="A basic control to output text to the screen. ">
<polygon fill="white" stroke="black" points="139.5,-38.5 139.5,-57.5 210.5,-57.5 210.5,-38.5 139.5,-38.5"/>
<text text-anchor="middle" x="175" y="-45.5" font-family="Helvetica,sans-Serif" font-size="10.00">ITextControl</text>
</a>
</g>
</g>
<!-- Node8&#45;&gt;Node22 -->
<g id="edge23" class="edge"><title>Node8&#45;&gt;Node22</title>
<path fill="none" stroke="midnightblue" d="M37.2077,-275.12C38.7766,-231.131 48.8516,-124.885 108,-67 116.437,-58.7436 128.218,-54.0315 139.496,-51.3572"/>
<polygon fill="midnightblue" stroke="midnightblue" points="33.7088,-275.037 36.9646,-285.119 40.7067,-275.207 33.7088,-275.037"/>
</g>
<!-- Node24 -->
<g id="node24" class="node"><title>Node24</title>
<g id="a_node24"><a xlink:href="class_i_v_drop_down_list_control.html" target="_top" xlink:title="A vector drop down list. ">
<polygon fill="white" stroke="black" points="115,-456.5 115,-475.5 235,-475.5 235,-456.5 115,-456.5"/>
<text text-anchor="middle" x="175" y="-463.5" font-family="Helvetica,sans-Serif" font-size="10.00">IVDropDownListControl</text>
</a>
</g>
</g>
<!-- Node8&#45;&gt;Node24 -->
<g id="edge26" class="edge"><title>Node8&#45;&gt;Node24</title>
<path fill="none" stroke="midnightblue" d="M40.7767,-314.953C47.9826,-347.472 66.7988,-411.797 108,-447 112.533,-450.873 117.812,-453.958 123.375,-456.414"/>
<polygon fill="midnightblue" stroke="midnightblue" points="44.1459,-313.961 38.6945,-304.877 37.2908,-315.378 44.1459,-313.961"/>
</g>
<!-- Node25 -->
<g id="node25" class="node"><title>Node25</title>
<g id="a_node25"><a xlink:href="class_i_v_keyboard_control.html" target="_top" xlink:title="IVKeyboardControl">
<polygon fill="white" stroke="black" points="125.5,-418.5 125.5,-437.5 224.5,-437.5 224.5,-418.5 125.5,-418.5"/>
<text text-anchor="middle" x="175" y="-425.5" font-family="Helvetica,sans-Serif" font-size="10.00">IVKeyboardControl</text>
</a>
</g>
</g>
<!-- Node8&#45;&gt;Node25 -->
<g id="edge27" class="edge"><title>Node8&#45;&gt;Node25</title>
<path fill="none" stroke="midnightblue" d="M43.8964,-314.247C54.0078,-339.719 75.2812,-384.28 108,-409 113.137,-412.881 119.044,-415.971 125.167,-418.43"/>
<polygon fill="midnightblue" stroke="midnightblue" points="47.062,-312.724 40.2455,-304.613 40.5162,-315.204 47.062,-312.724"/>
</g>
<!-- Node26 -->
<g id="node26" class="node"><title>Node26</title>
<g id="a_node26"><a xlink:href="class_i_v_scope_control.html" target="_top" xlink:title="IVScopeControl\&lt; MAXNC,\l MAXBUF \&gt;">
<polygon fill="white" stroke="black" points="108,-495 108,-525 242,-525 242,-495 108,-495"/>
<text text-anchor="start" x="116" y="-513" font-family="Helvetica,sans-Serif" font-size="10.00">IVScopeControl&lt; MAXNC,</text>
<text text-anchor="middle" x="175" y="-502" font-family="Helvetica,sans-Serif" font-size="10.00"> MAXBUF &gt;</text>
</a>
</g>
</g>
<!-- Node8&#45;&gt;Node26 -->
<g id="edge28" class="edge"><title>Node8&#45;&gt;Node26</title>
<path fill="none" stroke="midnightblue" d="M39.0692,-315.088C44.0401,-353.276 60.0427,-436.828 108,-485 111.804,-488.821 116.25,-492.067 121.004,-494.822"/>
<polygon fill="midnightblue" stroke="midnightblue" points="42.5013,-314.305 37.8575,-304.782 35.5492,-315.122 42.5013,-314.305"/>
</g>
<!-- Node27 -->
<g id="node27" class="node"><title>Node27</title>
<g id="a_node27"><a xlink:href="class_i_v_track_control_base.html" target="_top" xlink:title="IVTrackControlBase">
<polygon fill="white" stroke="black" points="122.5,-582.5 122.5,-601.5 227.5,-601.5 227.5,-582.5 122.5,-582.5"/>
<text text-anchor="middle" x="175" y="-589.5" font-family="Helvetica,sans-Serif" font-size="10.00">IVTrackControlBase</text>
</a>
</g>
</g>
<!-- Node8&#45;&gt;Node27 -->
<g id="edge29" class="edge"><title>Node8&#45;&gt;Node27</title>
<path fill="none" stroke="midnightblue" d="M39.1448,-314.945C44.545,-358.025 61.7361,-461.71 108,-534 121.156,-554.557 143.648,-572.074 158.667,-582.321"/>
<polygon fill="midnightblue" stroke="midnightblue" points="42.6093,-314.437 37.9672,-304.914 35.6571,-315.254 42.6093,-314.437"/>
</g>
<!-- Node11&#45;&gt;Node4 -->
<g id="edge11" class="edge"><title>Node11&#45;&gt;Node4</title>
<path fill="none" stroke="midnightblue" d="M232.594,-377.55C235.958,-375.665 239.134,-373.496 242,-371 271.71,-345.129 249.066,-316.736 278,-290 286,-282.608 296.415,-277.469 306.681,-273.904"/>
<polygon fill="midnightblue" stroke="midnightblue" points="230.895,-374.481 223.335,-381.904 233.874,-380.815 230.895,-374.481"/>
</g>
<!-- Node12 -->
<g id="node12" class="node"><title>Node12</title>
<g id="a_node12"><a xlink:href="class_i_v_knob_control.html" target="_top" xlink:title="A vector knob control drawn using graphics primitves. ">
<polygon fill="white" stroke="black" points="307,-481.5 307,-500.5 387,-500.5 387,-481.5 307,-481.5"/>
<text text-anchor="middle" x="347" y="-488.5" font-family="Helvetica,sans-Serif" font-size="10.00">IVKnobControl</text>
</a>
</g>
</g>
<!-- Node11&#45;&gt;Node12 -->
<g id="edge12" class="edge"><title>Node11&#45;&gt;Node12</title>
<path fill="none" stroke="midnightblue" d="M228.27,-402.977C233.008,-404.768 237.654,-406.77 242,-409 280.87,-428.94 319.33,-464.451 336.577,-481.435"/>
<polygon fill="midnightblue" stroke="midnightblue" points="229.077,-399.552 218.482,-399.592 226.79,-406.168 229.077,-399.552"/>
</g>
<!-- Node13 -->
<g id="node13" class="node"><title>Node13</title>
<g id="a_node13"><a xlink:href="class_i_v_s_v_g_knob.html" target="_top" xlink:title="A vector knob control which rotates an SVG image. ">
<polygon fill="white" stroke="black" points="312,-380.5 312,-399.5 382,-399.5 382,-380.5 312,-380.5"/>
<text text-anchor="middle" x="347" y="-387.5" font-family="Helvetica,sans-Serif" font-size="10.00">IVSVGKnob</text>
</a>
</g>
</g>
<!-- Node11&#45;&gt;Node13 -->
<g id="edge13" class="edge"><title>Node11&#45;&gt;Node13</title>
<path fill="none" stroke="midnightblue" d="M233.49,-390C259.519,-390 289.405,-390 311.831,-390"/>
<polygon fill="midnightblue" stroke="midnightblue" points="233.355,-386.5 223.354,-390 233.354,-393.5 233.355,-386.5"/>
</g>
<!-- Node16&#45;&gt;Node6 -->
<g id="edge17" class="edge"><title>Node16&#45;&gt;Node6</title>
<path fill="none" stroke="midnightblue" d="M227.206,-338.241C232.582,-335.426 237.659,-332.049 242,-328 270.807,-301.127 254.294,-278.464 278,-247 292.924,-227.192 315.972,-209.754 331.023,-199.539"/>
<polygon fill="midnightblue" stroke="midnightblue" points="225.597,-335.128 217.954,-342.464 228.504,-341.496 225.597,-335.128"/>
</g>
<!-- Node17 -->
<g id="node17" class="node"><title>Node17</title>
<g id="a_node17"><a xlink:href="class_i_v_slider_control.html" target="_top" xlink:title="IVSliderControl">
<polygon fill="white" stroke="black" points="305.5,-342.5 305.5,-361.5 388.5,-361.5 388.5,-342.5 305.5,-342.5"/>
<text text-anchor="middle" x="347" y="-349.5" font-family="Helvetica,sans-Serif" font-size="10.00">IVSliderControl</text>
</a>
</g>
</g>
<!-- Node16&#45;&gt;Node17 -->
<g id="edge18" class="edge"><title>Node16&#45;&gt;Node17</title>
<path fill="none" stroke="midnightblue" d="M234.417,-352C257.796,-352 284.157,-352 305.385,-352"/>
<polygon fill="midnightblue" stroke="midnightblue" points="234.26,-348.5 224.26,-352 234.26,-355.5 234.26,-348.5"/>
</g>
<!-- Node20 -->
<g id="node20" class="node"><title>Node20</title>
<g id="a_node20"><a xlink:href="class_i_v_switch_control.html" target="_top" xlink:title="A vector switch control. ">
<polygon fill="white" stroke="black" points="303,-299.5 303,-318.5 391,-318.5 391,-299.5 303,-299.5"/>
<text text-anchor="middle" x="347" y="-306.5" font-family="Helvetica,sans-Serif" font-size="10.00">IVSwitchControl</text>
</a>
</g>
</g>
<!-- Node19&#45;&gt;Node20 -->
<g id="edge21" class="edge"><title>Node19&#45;&gt;Node20</title>
<path fill="none" stroke="midnightblue" d="M227.668,-250.788C232.612,-252.628 237.467,-254.693 242,-257 260.066,-266.192 260.213,-275.279 278,-285 288.656,-290.824 301,-295.68 312.222,-299.466"/>
<polygon fill="midnightblue" stroke="midnightblue" points="228.708,-247.444 218.114,-247.521 226.444,-254.068 228.708,-247.444"/>
</g>
<!-- Node21 -->
<g id="node21" class="node"><title>Node21</title>
<g id="a_node21"><a xlink:href="class_i_v_contact_control.html" target="_top" xlink:title="IVContactControl">
<polygon fill="white" stroke="black" points="463,-299.5 463,-318.5 555,-318.5 555,-299.5 463,-299.5"/>
<text text-anchor="middle" x="509" y="-306.5" font-family="Helvetica,sans-Serif" font-size="10.00">IVContactControl</text>
</a>
</g>
</g>
<!-- Node20&#45;&gt;Node21 -->
<g id="edge22" class="edge"><title>Node20&#45;&gt;Node21</title>
<path fill="none" stroke="midnightblue" d="M401.477,-309C421.434,-309 443.873,-309 462.992,-309"/>
<polygon fill="midnightblue" stroke="midnightblue" points="401.298,-305.5 391.298,-309 401.298,-312.5 401.298,-305.5"/>
</g>
<!-- Node22&#45;&gt;Node7 -->
<g id="edge24" class="edge"><title>Node22&#45;&gt;Node7</title>
<path fill="none" stroke="midnightblue" d="M220.866,-58.029C248.096,-64.1156 282.458,-71.7965 308.281,-77.5688"/>
<polygon fill="midnightblue" stroke="midnightblue" points="221.335,-54.5474 210.812,-55.7816 219.808,-61.3788 221.335,-54.5474"/>
</g>
<!-- Node23 -->
<g id="node23" class="node"><title>Node23</title>
<g id="a_node23"><a xlink:href="class_i_caption_control.html" target="_top" xlink:title="ICaptionControl">
<polygon fill="white" stroke="black" points="304.5,-38.5 304.5,-57.5 389.5,-57.5 389.5,-38.5 304.5,-38.5"/>
<text text-anchor="middle" x="347" y="-45.5" font-family="Helvetica,sans-Serif" font-size="10.00">ICaptionControl</text>
</a>
</g>
</g>
<!-- Node22&#45;&gt;Node23 -->
<g id="edge25" class="edge"><title>Node22&#45;&gt;Node23</title>
<path fill="none" stroke="midnightblue" d="M221.09,-48C246.915,-48 279.098,-48 304.329,-48"/>
<polygon fill="midnightblue" stroke="midnightblue" points="220.812,-44.5001 210.812,-48 220.812,-51.5001 220.812,-44.5001"/>
</g>
<!-- Node28 -->
<g id="node28" class="node"><title>Node28</title>
<g id="a_node28"><a xlink:href="class_i_v_meter_control.html" target="_top" xlink:title="IVMeterControl\&lt; MAXNC \&gt;">
<polygon fill="white" stroke="black" points="278.5,-582.5 278.5,-601.5 415.5,-601.5 415.5,-582.5 278.5,-582.5"/>
<text text-anchor="middle" x="347" y="-589.5" font-family="Helvetica,sans-Serif" font-size="10.00">IVMeterControl&lt; MAXNC &gt;</text>
</a>
</g>
</g>
<!-- Node27&#45;&gt;Node28 -->
<g id="edge30" class="edge"><title>Node27&#45;&gt;Node28</title>
<path fill="none" stroke="midnightblue" d="M238.22,-592C251.291,-592 265.138,-592 278.396,-592"/>
<polygon fill="midnightblue" stroke="midnightblue" points="237.929,-588.5 227.929,-592 237.929,-595.5 237.929,-588.5"/>
</g>
<!-- Node29 -->
<g id="node29" class="node"><title>Node29</title>
<g id="a_node29"><a xlink:href="class_i_vector_base.html" target="_top" xlink:title="A An interface for IVControls, in order for them to share a common set of colors. ...">
<polygon fill="white" stroke="black" points="0.5,-544.5 0.5,-563.5 71.5,-563.5 71.5,-544.5 0.5,-544.5"/>
<text text-anchor="middle" x="36" y="-551.5" font-family="Helvetica,sans-Serif" font-size="10.00">IVectorBase</text>
</a>
</g>
</g>
<!-- Node29&#45;&gt;Node12 -->
<g id="edge33" class="edge"><title>Node29&#45;&gt;Node12</title>
<path fill="none" stroke="midnightblue" d="M45.5011,-572.956C56.4362,-594.721 77.699,-629.309 108,-644 161.589,-669.981 191.251,-675.168 242,-644 272.148,-625.484 258.587,-602.579 278,-573 296.469,-544.86 323.047,-515.286 336.869,-500.54"/>
<polygon fill="midnightblue" stroke="midnightblue" points="48.5541,-571.227 41.088,-563.71 42.2368,-574.242 48.5541,-571.227"/>
</g>
<!-- Node29&#45;&gt;Node17 -->
<g id="edge35" class="edge"><title>Node29&#45;&gt;Node17</title>
<path fill="none" stroke="midnightblue" d="M51.81,-571.049C64.9727,-584.801 85.5627,-603.108 108,-611 164.181,-630.761 196.872,-649.863 242,-611 323.73,-540.615 206.586,-451.832 278,-371 285.061,-363.008 295.176,-358.254 305.454,-355.459"/>
<polygon fill="midnightblue" stroke="midnightblue" points="54.3027,-568.589 44.9604,-563.592 49.1473,-573.324 54.3027,-568.589"/>
</g>
<!-- Node29&#45;&gt;Node20 -->
<g id="edge36" class="edge"><title>Node29&#45;&gt;Node20</title>
<path fill="none" stroke="midnightblue" d="M81.8089,-563.692C128.039,-570.843 199.25,-573.461 242,-534 308.687,-472.443 219.232,-402.157 278,-333 284.485,-325.368 293.558,-320.162 302.968,-316.612"/>
<polygon fill="midnightblue" stroke="midnightblue" points="82.2128,-560.211 71.7716,-562.008 81.0546,-567.115 82.2128,-560.211"/>
</g>
<!-- Node29&#45;&gt;Node24 -->
<g id="edge31" class="edge"><title>Node29&#45;&gt;Node24</title>
<path fill="none" stroke="midnightblue" d="M51.1381,-536.404C64.3443,-521.054 85.3731,-499.228 108,-486 115.339,-481.71 123.683,-478.261 131.912,-475.517"/>
<polygon fill="midnightblue" stroke="midnightblue" points="48.3748,-534.252 44.6456,-544.169 53.7451,-538.742 48.3748,-534.252"/>
</g>
<!-- Node29&#45;&gt;Node25 -->
<g id="edge32" class="edge"><title>Node29&#45;&gt;Node25</title>
<path fill="none" stroke="midnightblue" d="M44.6774,-534.887C55.3199,-510.816 76.8328,-469.85 108,-447 113.289,-443.122 119.352,-440.034 125.612,-437.575"/>
<polygon fill="midnightblue" stroke="midnightblue" points="41.3469,-533.776 40.6708,-544.35 47.7929,-536.506 41.3469,-533.776"/>
</g>
<!-- Node29&#45;&gt;Node26 -->
<g id="edge34" class="edge"><title>Node29&#45;&gt;Node26</title>
<path fill="none" stroke="midnightblue" d="M76.6789,-541.256C92.4376,-536.195 110.685,-530.335 127.092,-525.065"/>
<polygon fill="midnightblue" stroke="midnightblue" points="75.1777,-538.062 66.727,-544.453 77.3182,-544.727 75.1777,-538.062"/>
</g>
<!-- Node29&#45;&gt;Node27 -->
<g id="edge37" class="edge"><title>Node29&#45;&gt;Node27</title>
<path fill="none" stroke="midnightblue" d="M81.4108,-566.318C100.234,-571.539 121.838,-577.532 139.44,-582.414"/>
<polygon fill="midnightblue" stroke="midnightblue" points="82.1426,-562.889 71.5709,-563.589 80.2716,-569.635 82.1426,-562.889"/>
</g>
</g>
</svg>
