<?xml version="1.0" encoding="UTF-8" standalone="no"?>
<!DOCTYPE svg PUBLIC "-//W3C//DTD SVG 1.1//EN"
 "http://www.w3.org/Graphics/SVG/1.1/DTD/svg11.dtd">
<!-- Generated by graphviz version 2.36.0 (20140111.2315)
 -->
<!-- Title: Graphical Class Hierarchy Pages: 1 -->
<svg width="612pt" height="370pt"
 viewBox="0.00 0.00 612.00 370.00" xmlns="http://www.w3.org/2000/svg" xmlns:xlink="http://www.w3.org/1999/xlink">
<g id="graph0" class="graph" transform="scale(1 1) rotate(0) translate(4 366)">
<title>Graphical Class Hierarchy</title>
<polygon fill="white" stroke="none" points="-4,4 -4,-366 608,-366 608,4 -4,4"/>
<!-- Node1 -->
<g id="node1" class="node"><title>Node1</title>
<polygon fill="white" stroke="#bfbfbf" points="230,-304.5 230,-323.5 352,-323.5 352,-304.5 230,-304.5"/>
<text text-anchor="middle" x="291" y="-311.5" font-family="Helvetica,sans-Serif" font-size="10.00">AAX_CIPlugParameters</text>
</g>
<!-- Node2 -->
<g id="node2" class="node"><title>Node2</title>
<g id="a_node2"><a xlink:href="class_i_plug_a_a_x.html" target="_top" xlink:title="AAX API base class for an IPlug plug&#45;in, inherits from IPlugBase. ">
<polygon fill="white" stroke="black" points="412.5,-304.5 412.5,-323.5 471.5,-323.5 471.5,-304.5 412.5,-304.5"/>
<text text-anchor="middle" x="442" y="-311.5" font-family="Helvetica,sans-Serif" font-size="10.00">IPlugAAX</text>
</a>
</g>
</g>
<!-- Node1&#45;&gt;Node2 -->
<g id="edge1" class="edge"><title>Node1&#45;&gt;Node2</title>
<path fill="none" stroke="midnightblue" d="M362.526,-314C380.217,-314 398.208,-314 412.493,-314"/>
<polygon fill="midnightblue" stroke="midnightblue" points="362.175,-310.5 352.175,-314 362.174,-317.5 362.175,-310.5"/>
</g>
<!-- Node3 -->
<g id="node3" class="node"><title>Node3</title>
<polygon fill="white" stroke="#bfbfbf" points="257,-342.5 257,-361.5 325,-361.5 325,-342.5 257,-342.5"/>
<text text-anchor="middle" x="291" y="-349.5" font-family="Helvetica,sans-Serif" font-size="10.00">AudioEffect</text>
</g>
<!-- Node4 -->
<g id="node4" class="node"><title>Node4</title>
<g id="a_node4"><a xlink:href="class_i_plug_v_s_t3_processor.html" target="_top" xlink:title="IPlugVST3Processor">
<polygon fill="white" stroke="black" points="388,-342.5 388,-361.5 496,-361.5 496,-342.5 388,-342.5"/>
<text text-anchor="middle" x="442" y="-349.5" font-family="Helvetica,sans-Serif" font-size="10.00">IPlugVST3Processor</text>
</a>
</g>
</g>
<!-- Node3&#45;&gt;Node4 -->
<g id="edge2" class="edge"><title>Node3&#45;&gt;Node4</title>
<path fill="none" stroke="midnightblue" d="M335.442,-352C351.829,-352 370.659,-352 387.835,-352"/>
<polygon fill="midnightblue" stroke="midnightblue" points="335.068,-348.5 325.068,-352 335.068,-355.5 335.068,-348.5"/>
</g>
<!-- Node5 -->
<g id="node5" class="node"><title>Node5</title>
<polygon fill="white" stroke="#bfbfbf" points="244.5,-76.5 244.5,-95.5 337.5,-95.5 337.5,-76.5 244.5,-76.5"/>
<text text-anchor="middle" x="291" y="-83.5" font-family="Helvetica,sans-Serif" font-size="10.00">EditControllerEx1</text>
</g>
<!-- Node6 -->
<g id="node6" class="node"><title>Node6</title>
<g id="a_node6"><a xlink:href="class_i_plug_v_s_t3_controller.html" target="_top" xlink:title="IPlugVST3Controller">
<polygon fill="white" stroke="black" points="389,-76.5 389,-95.5 495,-95.5 495,-76.5 389,-76.5"/>
<text text-anchor="middle" x="442" y="-83.5" font-family="Helvetica,sans-Serif" font-size="10.00">IPlugVST3Controller</text>
</a>
</g>
</g>
<!-- Node5&#45;&gt;Node6 -->
<g id="edge3" class="edge"><title>Node5&#45;&gt;Node6</title>
<path fill="none" stroke="midnightblue" d="M347.661,-86C361.199,-86 375.624,-86 388.985,-86"/>
<polygon fill="midnightblue" stroke="midnightblue" points="347.515,-82.5001 337.515,-86 347.514,-89.5001 347.515,-82.5001"/>
</g>
<!-- Node7 -->
<g id="node7" class="node"><title>Node7</title>
<g id="a_node7"><a xlink:href="class_i_delegate.html" target="_top" xlink:title="This pure virtual interface delegates communication in both directions between a UI editor and someth...">
<polygon fill="white" stroke="black" points="0.5,-171.5 0.5,-190.5 59.5,-190.5 59.5,-171.5 0.5,-171.5"/>
<text text-anchor="middle" x="30" y="-178.5" font-family="Helvetica,sans-Serif" font-size="10.00">IDelegate</text>
</a>
</g>
</g>
<!-- Node8 -->
<g id="node8" class="node"><title>Node8</title>
<g id="a_node8"><a xlink:href="class_i_graphics_delegate.html" target="_top" xlink:title="An IDelgate base class for a SOMETHING that uses IGraphics for it&#39;s UI. ">
<polygon fill="white" stroke="black" points="96,-133.5 96,-152.5 194,-152.5 194,-133.5 96,-133.5"/>
<text text-anchor="middle" x="145" y="-140.5" font-family="Helvetica,sans-Serif" font-size="10.00">IGraphicsDelegate</text>
</a>
</g>
</g>
<!-- Node7&#45;&gt;Node8 -->
<g id="edge4" class="edge"><title>Node7&#45;&gt;Node8</title>
<path fill="none" stroke="midnightblue" d="M69.1402,-168.174C84.3025,-163.075 101.444,-157.311 115.494,-152.586"/>
<polygon fill="midnightblue" stroke="midnightblue" points="67.8775,-164.906 59.5147,-171.411 70.1087,-171.541 67.8775,-164.906"/>
</g>
<!-- Node9 -->
<g id="node9" class="node"><title>Node9</title>
<g id="a_node9"><a xlink:href="class_i_plugin_delegate.html" target="_top" xlink:title="This TODO has methods for serialization of state It provides a base interface for remote editors as w...">
<polygon fill="white" stroke="black" points="102,-209.5 102,-228.5 188,-228.5 188,-209.5 102,-209.5"/>
<text text-anchor="middle" x="145" y="-216.5" font-family="Helvetica,sans-Serif" font-size="10.00">IPluginDelegate</text>
</a>
</g>
</g>
<!-- Node7&#45;&gt;Node9 -->
<g id="edge5" class="edge"><title>Node7&#45;&gt;Node9</title>
<path fill="none" stroke="midnightblue" d="M69.1402,-193.826C84.3025,-198.925 101.444,-204.689 115.494,-209.414"/>
<polygon fill="midnightblue" stroke="midnightblue" points="70.1087,-190.459 59.5147,-190.589 67.8775,-197.094 70.1087,-190.459"/>
</g>
<!-- Node10 -->
<g id="node10" class="node"><title>Node10</title>
<g id="a_node10"><a xlink:href="class_i_plug_base.html" target="_top" xlink:title="The base class of an IPlug plug&#45;in, which interacts with the different plug&#45;in APIs. ">
<polygon fill="white" stroke="black" points="260,-190.5 260,-209.5 322,-209.5 322,-190.5 260,-190.5"/>
<text text-anchor="middle" x="291" y="-197.5" font-family="Helvetica,sans-Serif" font-size="10.00">IPlugBase</text>
</a>
</g>
</g>
<!-- Node9&#45;&gt;Node10 -->
<g id="edge6" class="edge"><title>Node9&#45;&gt;Node10</title>
<path fill="none" stroke="midnightblue" d="M197.963,-212.144C218.64,-209.416 241.713,-206.371 259.585,-204.013"/>
<polygon fill="midnightblue" stroke="midnightblue" points="197.494,-208.675 188.038,-213.453 198.41,-215.615 197.494,-208.675"/>
</g>
<!-- Node10&#45;&gt;Node2 -->
<g id="edge7" class="edge"><title>Node10&#45;&gt;Node2</title>
<path fill="none" stroke="midnightblue" d="M326.34,-214.096C335.378,-218.879 344.646,-224.858 352,-232 375.134,-254.468 363.292,-274.276 388,-295 394.965,-300.842 403.864,-304.947 412.373,-307.806"/>
<polygon fill="midnightblue" stroke="midnightblue" points="327.612,-210.821 317.094,-209.546 324.521,-217.102 327.612,-210.821"/>
</g>
<!-- Node10&#45;&gt;Node4 -->
<g id="edge14" class="edge"><title>Node10&#45;&gt;Node4</title>
<path fill="none" stroke="midnightblue" d="M328.865,-214.176C337.35,-218.821 345.715,-224.712 352,-232 383.122,-268.09 354.333,-299.272 388,-333 391.867,-336.874 396.578,-339.963 401.58,-342.424"/>
<polygon fill="midnightblue" stroke="midnightblue" points="330.217,-210.939 319.705,-209.618 327.098,-217.206 330.217,-210.939"/>
</g>
<!-- Node10&#45;&gt;Node6 -->
<g id="edge13" class="edge"><title>Node10&#45;&gt;Node6</title>
<path fill="none" stroke="midnightblue" d="M332.044,-192.384C339.254,-189.669 346.284,-185.989 352,-181 380.16,-156.424 360.307,-130.1 388,-105 392.273,-101.127 397.392,-98.03 402.739,-95.557"/>
<polygon fill="midnightblue" stroke="midnightblue" points="330.672,-189.148 322.207,-195.519 332.798,-195.817 330.672,-189.148"/>
</g>
<!-- Node11 -->
<g id="node11" class="node"><title>Node11</title>
<g id="a_node11"><a xlink:href="class_i_plug_a_p_p.html" target="_top" xlink:title="Standalone application base class for an IPlug plug&#45;in, inherits from IPlugBase. ">
<polygon fill="white" stroke="black" points="412.5,-266.5 412.5,-285.5 471.5,-285.5 471.5,-266.5 412.5,-266.5"/>
<text text-anchor="middle" x="442" y="-273.5" font-family="Helvetica,sans-Serif" font-size="10.00">IPlugAPP</text>
</a>
</g>
</g>
<!-- Node10&#45;&gt;Node11 -->
<g id="edge8" class="edge"><title>Node10&#45;&gt;Node11</title>
<path fill="none" stroke="midnightblue" d="M320.143,-214.14C330.326,-219.483 341.819,-225.779 352,-232 368.622,-242.156 370.682,-248.081 388,-257 395.647,-260.939 404.3,-264.414 412.363,-267.28"/>
<polygon fill="midnightblue" stroke="midnightblue" points="321.725,-211.018 311.235,-209.531 318.508,-217.235 321.725,-211.018"/>
</g>
<!-- Node12 -->
<g id="node12" class="node"><title>Node12</title>
<g id="a_node12"><a xlink:href="class_i_plug_a_u.html" target="_top" xlink:title="AudioUnit v2 API base class for an IPlug plug&#45;in, inherits from IPlugBase. ">
<polygon fill="white" stroke="black" points="415.5,-228.5 415.5,-247.5 468.5,-247.5 468.5,-228.5 415.5,-228.5"/>
<text text-anchor="middle" x="442" y="-235.5" font-family="Helvetica,sans-Serif" font-size="10.00">IPlugAU</text>
</a>
</g>
</g>
<!-- Node10&#45;&gt;Node12 -->
<g id="edge9" class="edge"><title>Node10&#45;&gt;Node12</title>
<path fill="none" stroke="midnightblue" d="M331.903,-210.177C358.404,-216.935 392.413,-225.609 415.359,-231.461"/>
<polygon fill="midnightblue" stroke="midnightblue" points="332.707,-206.77 322.152,-207.69 330.977,-213.553 332.707,-206.77"/>
</g>
<!-- Node13 -->
<g id="node13" class="node"><title>Node13</title>
<g id="a_node13"><a xlink:href="class_i_plug_v_s_t2.html" target="_top" xlink:title="VST2.4 API base class for an IPlug plug&#45;in, inherits from IPlugBase or IPlugBaseGraphics. ">
<polygon fill="white" stroke="black" points="410,-190.5 410,-209.5 474,-209.5 474,-190.5 410,-190.5"/>
<text text-anchor="middle" x="442" y="-197.5" font-family="Helvetica,sans-Serif" font-size="10.00">IPlugVST2</text>
</a>
</g>
</g>
<!-- Node10&#45;&gt;Node13 -->
<g id="edge10" class="edge"><title>Node10&#45;&gt;Node13</title>
<path fill="none" stroke="midnightblue" d="M332.188,-200C356.602,-200 387.305,-200 409.867,-200"/>
<polygon fill="midnightblue" stroke="midnightblue" points="332.152,-196.5 322.152,-200 332.152,-203.5 332.152,-196.5"/>
</g>
<!-- Node15 -->
<g id="node15" class="node"><title>Node15</title>
<g id="a_node15"><a xlink:href="class_i_plug_v_s_t3.html" target="_top" xlink:title="VST3 base class for an IPlug plug&#45;in, inherits from IPlugBase. ">
<polygon fill="white" stroke="black" points="410,-152.5 410,-171.5 474,-171.5 474,-152.5 410,-152.5"/>
<text text-anchor="middle" x="442" y="-159.5" font-family="Helvetica,sans-Serif" font-size="10.00">IPlugVST3</text>
</a>
</g>
</g>
<!-- Node10&#45;&gt;Node15 -->
<g id="edge12" class="edge"><title>Node10&#45;&gt;Node15</title>
<path fill="none" stroke="midnightblue" d="M331.862,-189.834C356.327,-183.594 387.204,-175.72 409.867,-169.94"/>
<polygon fill="midnightblue" stroke="midnightblue" points="330.977,-186.447 322.152,-192.31 332.707,-193.23 330.977,-186.447"/>
</g>
<!-- Node16 -->
<g id="node16" class="node"><title>Node16</title>
<g id="a_node16"><a xlink:href="class_i_plug_w_a_m.html" target="_top" xlink:title="WebAudioModule (WAM) API base class for an IPlug plug&#45;in. ">
<polygon fill="white" stroke="black" points="410,-38.5 410,-57.5 474,-57.5 474,-38.5 410,-38.5"/>
<text text-anchor="middle" x="442" y="-45.5" font-family="Helvetica,sans-Serif" font-size="10.00">IPlugWAM</text>
</a>
</g>
</g>
<!-- Node10&#45;&gt;Node16 -->
<g id="edge15" class="edge"><title>Node10&#45;&gt;Node16</title>
<path fill="none" stroke="midnightblue" d="M332.182,-193.149C339.497,-190.372 346.531,-186.473 352,-181 389.556,-143.414 351.156,-105.284 388,-67 393.897,-60.8726 401.907,-56.7155 409.913,-53.8972"/>
<polygon fill="midnightblue" stroke="midnightblue" points="330.654,-189.96 322.153,-196.283 332.742,-196.641 330.654,-189.96"/>
</g>
<!-- Node17 -->
<g id="node17" class="node"><title>Node17</title>
<g id="a_node17"><a xlink:href="class_i_plug_web.html" target="_top" xlink:title="IPlugWeb">
<polygon fill="white" stroke="black" points="412.5,-114.5 412.5,-133.5 471.5,-133.5 471.5,-114.5 412.5,-114.5"/>
<text text-anchor="middle" x="442" y="-121.5" font-family="Helvetica,sans-Serif" font-size="10.00">IPlugWeb</text>
</a>
</g>
</g>
<!-- Node10&#45;&gt;Node17 -->
<g id="edge16" class="edge"><title>Node10&#45;&gt;Node17</title>
<path fill="none" stroke="midnightblue" d="M332.254,-190.368C339.114,-187.867 345.965,-184.78 352,-181 371.717,-168.651 368.519,-155.717 388,-143 395.367,-138.191 404.104,-134.415 412.338,-131.54"/>
<polygon fill="midnightblue" stroke="midnightblue" points="330.707,-187.192 322.29,-193.627 332.883,-193.845 330.707,-187.192"/>
</g>
<!-- Node14 -->
<g id="node14" class="node"><title>Node14</title>
<g id="a_node14"><a xlink:href="class_i_plug_reaper.html" target="_top" xlink:title="IPlugReaper">
<polygon fill="white" stroke="black" points="532.5,-190.5 532.5,-209.5 603.5,-209.5 603.5,-190.5 532.5,-190.5"/>
<text text-anchor="middle" x="568" y="-197.5" font-family="Helvetica,sans-Serif" font-size="10.00">IPlugReaper</text>
</a>
</g>
</g>
<!-- Node13&#45;&gt;Node14 -->
<g id="edge11" class="edge"><title>Node13&#45;&gt;Node14</title>
<path fill="none" stroke="midnightblue" d="M484.632,-200C500.087,-200 517.442,-200 532.222,-200"/>
<polygon fill="midnightblue" stroke="midnightblue" points="484.29,-196.5 474.29,-200 484.29,-203.5 484.29,-196.5"/>
</g>
<!-- Node18 -->
<g id="node18" class="node"><title>Node18</title>
<polygon fill="white" stroke="#bfbfbf" points="254,-114.5 254,-133.5 328,-133.5 328,-114.5 254,-114.5"/>
<text text-anchor="middle" x="291" y="-121.5" font-family="Helvetica,sans-Serif" font-size="10.00">IMidiMapping</text>
</g>
<!-- Node18&#45;&gt;Node6 -->
<g id="edge17" class="edge"><title>Node18&#45;&gt;Node6</title>
<path fill="none" stroke="midnightblue" d="M337.806,-112.318C358.948,-106.926 383.729,-100.606 403.707,-95.5109"/>
<polygon fill="midnightblue" stroke="midnightblue" points="336.894,-108.939 328.069,-114.801 338.624,-115.721 336.894,-108.939"/>
</g>
<!-- Node19 -->
<g id="node19" class="node"><title>Node19</title>
<g id="a_node19"><a xlink:href="class_i_plug_processor.html" target="_top" xlink:title="IPlugProcessor\&lt; float \&gt;">
<polygon fill="white" stroke="black" points="231,-0.5 231,-19.5 351,-19.5 351,-0.5 231,-0.5"/>
<text text-anchor="middle" x="291" y="-7.5" font-family="Helvetica,sans-Serif" font-size="10.00">IPlugProcessor&lt; float &gt;</text>
</a>
</g>
</g>
<!-- Node19&#45;&gt;Node16 -->
<g id="edge18" class="edge"><title>Node19&#45;&gt;Node16</title>
<path fill="none" stroke="midnightblue" d="M339.531,-22.122C362.569,-27.9975 389.585,-34.8875 409.946,-40.0802"/>
<polygon fill="midnightblue" stroke="midnightblue" points="340.154,-18.6689 329.599,-19.589 338.424,-25.4518 340.154,-18.6689"/>
</g>
<!-- Node20 -->
<g id="node20" class="node"><title>Node20</title>
<g id="a_node20"><a xlink:href="class_i_plug_processor.html" target="_top" xlink:title="IPlugProcessor\&lt; PLUG\l_SAMPLE_DST \&gt;">
<polygon fill="white" stroke="black" points="231.5,-242 231.5,-272 350.5,-272 350.5,-242 231.5,-242"/>
<text text-anchor="start" x="239.5" y="-260" font-family="Helvetica,sans-Serif" font-size="10.00">IPlugProcessor&lt; PLUG</text>
<text text-anchor="middle" x="291" y="-249" font-family="Helvetica,sans-Serif" font-size="10.00">_SAMPLE_DST &gt;</text>
</a>
</g>
</g>
<!-- Node20&#45;&gt;Node2 -->
<g id="edge19" class="edge"><title>Node20&#45;&gt;Node2</title>
<path fill="none" stroke="midnightblue" d="M338.726,-275.85C354.35,-282.059 371.888,-288.925 388,-295 396.323,-298.138 405.426,-301.446 413.703,-304.407"/>
<polygon fill="midnightblue" stroke="midnightblue" points="339.859,-272.534 329.274,-272.082 337.267,-279.037 339.859,-272.534"/>
</g>
<!-- Node20&#45;&gt;Node4 -->
<g id="edge24" class="edge"><title>Node20&#45;&gt;Node4</title>
<path fill="none" stroke="midnightblue" d="M327.468,-277.418C335.795,-282.76 344.439,-288.779 352,-295 369.965,-309.782 368.519,-320.283 388,-333 393.73,-336.74 400.289,-339.855 406.795,-342.408"/>
<polygon fill="midnightblue" stroke="midnightblue" points="329.3,-274.436 318.963,-272.115 325.597,-280.376 329.3,-274.436"/>
</g>
<!-- Node20&#45;&gt;Node11 -->
<g id="edge20" class="edge"><title>Node20&#45;&gt;Node11</title>
<path fill="none" stroke="midnightblue" d="M360.904,-265.786C379.063,-268.102 397.668,-270.474 412.371,-272.349"/>
<polygon fill="midnightblue" stroke="midnightblue" points="361.251,-262.302 350.889,-264.509 360.366,-269.246 361.251,-262.302"/>
</g>
<!-- Node20&#45;&gt;Node12 -->
<g id="edge21" class="edge"><title>Node20&#45;&gt;Node12</title>
<path fill="none" stroke="midnightblue" d="M360.915,-248.212C380.23,-245.749 400.047,-243.222 415.137,-241.298"/>
<polygon fill="midnightblue" stroke="midnightblue" points="360.366,-244.754 350.889,-249.491 361.251,-251.698 360.366,-244.754"/>
</g>
<!-- Node20&#45;&gt;Node13 -->
<g id="edge22" class="edge"><title>Node20&#45;&gt;Node13</title>
<path fill="none" stroke="midnightblue" d="M338.726,-238.15C354.35,-231.941 371.888,-225.075 388,-219 396.323,-215.862 405.426,-212.554 413.703,-209.593"/>
<polygon fill="midnightblue" stroke="midnightblue" points="337.267,-234.963 329.274,-241.918 339.859,-241.466 337.267,-234.963"/>
</g>
<!-- Node20&#45;&gt;Node15 -->
<g id="edge23" class="edge"><title>Node20&#45;&gt;Node15</title>
<path fill="none" stroke="midnightblue" d="M327.468,-236.582C335.795,-231.24 344.439,-225.221 352,-219 369.965,-204.218 368.519,-193.717 388,-181 394.63,-176.672 402.37,-173.181 409.855,-170.43"/>
<polygon fill="midnightblue" stroke="midnightblue" points="325.597,-233.624 318.963,-241.885 329.3,-239.564 325.597,-233.624"/>
</g>
<!-- Node21 -->
<g id="node21" class="node"><title>Node21</title>
<g id="a_node21"><a xlink:href="class_i_timer_callback.html" target="_top" xlink:title="ITimerCallback">
<polygon fill="white" stroke="black" points="103.5,-171.5 103.5,-190.5 186.5,-190.5 186.5,-171.5 103.5,-171.5"/>
<text text-anchor="middle" x="145" y="-178.5" font-family="Helvetica,sans-Serif" font-size="10.00">ITimerCallback</text>
</a>
</g>
</g>
<!-- Node21&#45;&gt;Node10 -->
<g id="edge25" class="edge"><title>Node21&#45;&gt;Node10</title>
<path fill="none" stroke="midnightblue" d="M196.911,-187.717C217.843,-190.479 241.384,-193.585 259.555,-195.983"/>
<polygon fill="midnightblue" stroke="midnightblue" points="197.251,-184.232 186.879,-186.394 196.336,-191.172 197.251,-184.232"/>
</g>
<!-- Node22 -->
<g id="node22" class="node"><title>Node22</title>
<polygon fill="white" stroke="#bfbfbf" points="260.5,-38.5 260.5,-57.5 321.5,-57.5 321.5,-38.5 260.5,-38.5"/>
<text text-anchor="middle" x="291" y="-45.5" font-family="Helvetica,sans-Serif" font-size="10.00">Processor</text>
</g>
<!-- Node22&#45;&gt;Node16 -->
<g id="edge26" class="edge"><title>Node22&#45;&gt;Node16</title>
<path fill="none" stroke="midnightblue" d="M331.86,-48C356.365,-48 387.302,-48 409.975,-48"/>
<polygon fill="midnightblue" stroke="midnightblue" points="331.794,-44.5001 321.794,-48 331.794,-51.5001 331.794,-44.5001"/>
</g>
<!-- Node23 -->
<g id="node23" class="node"><title>Node23</title>
<polygon fill="white" stroke="#bfbfbf" points="231,-152.5 231,-171.5 351,-171.5 351,-152.5 231,-152.5"/>
<text text-anchor="middle" x="291" y="-159.5" font-family="Helvetica,sans-Serif" font-size="10.00">SingleComponentEffect</text>
</g>
<!-- Node23&#45;&gt;Node15 -->
<g id="edge27" class="edge"><title>Node23&#45;&gt;Node15</title>
<path fill="none" stroke="midnightblue" d="M361.715,-162C378.531,-162 395.675,-162 409.698,-162"/>
<polygon fill="midnightblue" stroke="midnightblue" points="361.317,-158.5 351.317,-162 361.317,-165.5 361.317,-158.5"/>
</g>
</g>
</svg>
